<svg xmlns="http://www.w3.org/2000/svg" width="91" height="105"><path fill="#1193C9" d="m22.303 4.417 3.792-.01 4.07.07a1106.508 1106.508 0 0 1 15.209.122c2.998.035 5.997.048 8.996.06 3.577.015 7.154.04 10.732.068l2.066.014c1.93.017 3.859.041 5.788.066l3.325.04C79 5 79 5 82 6c1.105 2.21 1.191 3.539 1.312 5.99l.125 2.535.118 2.791.127 2.938c.457 11.646.468 23.293.448 34.947-.005 3.784 0 7.568.007 11.352 0 2.429-.002 4.858-.004 7.287l.006 3.393C84.123 82.597 83.948 87.717 83 93l2.375-.625L88 92c2 2 2 2 2.25 5.5C90 101 90 101 88 103c-2.65.188-5.196.252-7.846.227H77.7c-2.684 0-5.368-.016-8.052-.032l-5.574-.008a4971.91 4971.91 0 0 1-14.687-.05c-4.994-.02-9.987-.03-14.98-.04-9.803-.02-19.605-.055-29.407-.097-1.642-3.283-.519-6.425 0-10 3.75-1.125 3.75-1.125 6 0l-1-3a161.037 161.037 0 0 1-.13-6.715l-.005-2.056c-.004-2.246-.001-4.491.002-6.737l-.003-4.698c-.001-3.287.001-6.574.006-9.86.005-4.193.002-8.386-.004-12.579-.004-3.237-.002-6.475 0-9.713 0-1.544 0-3.089-.002-4.633C9.858 28.338 9.898 23.67 10 19l.056-2.834c.224-3.793.707-5.87 3.1-8.867 3.383-2.735 4.855-2.914 9.147-2.882ZM21 16c-.954 16.802-1.122 33.55-1.063 50.375.006 2.501.01 5.003.014 7.504.011 6.04.028 12.08.049 18.121h20l1-14h12v14c3.313.027 6.625.047 9.937.062l2.866.026 2.724.01 2.524.016c1.954.102 1.954.102 2.949-1.114.1-2.295.128-4.593.13-6.89l.005-2.183c.004-2.393.001-4.785-.002-7.177l.003-4.966c.001-3.473-.001-6.947-.006-10.42-.005-4.463-.002-8.926.004-13.388.004-3.42.002-6.84 0-10.259 0-1.646 0-3.291.002-4.937.003-2.297-.001-4.593-.007-6.89l-.002-3.967c.208-2.814.208-2.814-1.127-3.923a154.322 154.322 0 0 0-8.063-.625l-2.583-.136C48.58 14.663 34.765 15.434 21 16Z"/><path fill="#039FE0" d="M13 7h66v3h2v75c-5 1-5 1-8 1v-6h2V15l-56-1-1 2v-2h-2c-2-3-2-3-3-7Z"/><path fill="#039DDC" d="m12 9 4 2v3l2.15-.007c6.681-.02 13.361-.035 20.042-.045 3.435-.005 6.87-.012 10.304-.023 3.947-.013 7.893-.018 11.84-.023l3.747-.015h3.458l3.055-.007C73 14 73 14 75 15v65h-2V17c-12.476-.624-24.785-1.14-37.25-1.063-1.45.006-2.901.01-4.352.014-3.466.01-6.932.028-10.398.049l.016 2.276c.02 3.429.034 6.858.047 10.287l.025 3.58.01 3.486.016 3.19C21 42 21 42 20.504 45.31c-.6 4.392-.658 8.67-.68 13.096l-.072 5.442c-.035 2.83-.065 5.66-.078 8.491a794.49 794.49 0 0 1-.1 8.255l.006 2.541C19.461 88.875 18.215 92.233 15 97c-1.492-.996-1.492-.996-3-3a70.848 70.848 0 0 1-.125-8.063c.193-6.126.04-12.185-.328-18.304-.543-9.05-.87-18.096-1.105-27.16-.068-2.566-.145-5.132-.223-7.698-.045-1.666-.09-3.332-.133-4.998l-.072-2.273C9.892 20.303 10.068 15.131 11 10l1-1Z"/><path fill="#1F759C" d="M10 22h1l.076 3.019c.117 4.619.238 9.237.361 13.856l.067 2.513c.36 13.376.36 13.376 1.059 26.737.547 8.63.529 17.232.437 25.875l-5 1-1 6h65v1c-14.55 1.038-29.044 1.12-43.625 1.063-2.279-.006-4.557-.01-6.836-.014-5.513-.011-11.026-.028-16.539-.049-1.642-3.283-.519-6.425 0-10 3.75-1.125 3.75-1.125 6 0l-1-3c-.09-2.193-.118-4.388-.114-6.583v-2.01c0-2.192.009-4.384.016-6.575l.005-4.56c.003-4 .013-8 .024-12 .01-4.082.015-8.164.02-12.247.01-8.008.028-16.017.049-24.025Z"/><path fill="#2078A4" d="M19 14c7.654-.025 15.308-.043 22.961-.055 2.606-.005 5.211-.012 7.817-.02 3.738-.013 7.476-.018 11.214-.023l3.548-.015h3.276l2.893-.007C73 14 73 14 75 15v65h-2V17c-12.476-.624-24.785-1.14-37.25-1.063-1.45.006-2.901.01-4.352.014-3.466.01-6.932.028-10.398.049v5l-2-1v-6Z"/><path fill="#049FE0" d="M37.063 22.531C39.596 23.144 40.5 23.87 42 26c.293 2.48.293 2.48.188 5.188l-.083 2.73L42 36c-2.366 1.183-3.868 1.134-6.5 1.125l-2.406.008C31 37 31 37 29 36c-.92-4.245-1.358-6.854-.063-11 2.72-2.636 4.457-2.524 8.125-2.469Z"/><path fill="#049FDF" d="M61.063 22.566c2.532.567 3.45 1.315 4.937 3.434.11 2.191.11 2.191-.25 4.563l-.328 2.378C65 35 65 35 64 37c-1.437.054-2.875.093-4.313.125l-2.425.07C55 37 55 37 52 35c-.39-4.03-.498-6.756 1-10.5 2.702-2.026 4.757-1.94 8.063-1.934Z"/><path fill="#1593CB" d="m31.688 59.867 3.312.008 3.313-.008C41 60 41 60 42 61a63.78 63.78 0 0 1 .125 4.438l.008 2.433C42 70 42 70 41 72c-4.213.913-6.864 1.331-11 .125-2.384-2.533-2.321-3.369-2.375-6.75.224-5.318.224-5.318 4.063-5.508Z"/><path fill="#1292C7" d="M64 59c1.946 2.747 2.142 4.867 1.875 8.125C65 71 65 71 63.312 72.5c-2.92.632-5.332.817-8.312.5-1.672-1.227-1.672-1.227-3-3-.293-2.262-.293-2.262-.188-4.688l.083-2.449L52 61c4.12-1.292 7.668-2.263 12-2Z"/><path fill="#069EDD" d="M65 42c1.373 4.12.747 6.721 0 11-2 2-2 2-3.875 2.23L59 55.188l-2.125-.02C55 55 55 55 53 54c-.45-2.215-.45-2.215-.688-4.938l-.261-2.714C52 44 52 44 53 42c1.96-.45 1.96-.45 4.375-.688l2.398-.261C62 41 62 41 65 42Z"/><path fill="#02A0E1" d="m38 41 3 2c.328 2.348.328 2.348.25 5.063-.015.898-.03 1.796-.047 2.722C41 53 41 53 40 54c-1.664.098-3.333.13-5 .125l-2.75.008C30 54 30 54 29 53c-.422-1.96-.422-1.96-.75-4.375l-.36-2.398C28 44 28 44 29.267 42.23 32.094 40.224 34.65 40.7 38 41Z"/><path fill="#1C96C8" d="M12 9h1v67h-1c-.72-11.838-1.25-23.67-1.558-35.526-.068-2.567-.145-5.133-.223-7.699-.045-1.666-.09-3.332-.133-4.998l-.072-2.273C9.892 20.303 10.068 15.131 11 10l1-1Z"/><path fill="#308BB2" d="M19 14h54v1c-17.334 1.167-34.637 1.105-52 1v5l-2-1v-6Z"/><path fill="#1F7EA0" d="M61.063 22.566c2.532.567 3.45 1.315 4.937 3.434.11 2.191.11 2.191-.25 4.563l-.328 2.378C65 35 65 35 64 37c-1.437.054-2.875.093-4.313.125l-2.425.07C55 37 55 37 52 35c-.39-4.03-.498-6.756 1-10.5 2.702-2.026 4.757-1.94 8.063-1.934ZM54 25v10h9V25h-9Z"/><path fill="#21789D" d="M37.063 22.531C39.596 23.144 40.5 23.87 42 26c.293 2.48.293 2.48.188 5.188l-.083 2.73L42 36c-2.366 1.183-3.868 1.134-6.5 1.125l-2.406.008C31 37 31 37 29 36c-.92-4.245-1.358-6.854-.063-11 2.72-2.636 4.457-2.524 8.125-2.469ZM30 26a74.456 74.456 0 0 0-.063 4.563L30 35h9c1.158-3.473 1.069-6.36 1-10-1.48-.027-2.958-.046-4.438-.063l-2.496-.035C31.008 24.767 31.008 24.767 30 26Z"/><path fill="#1B88B5" d="m38 41 3 2c.328 2.348.328 2.348.25 5.063-.015.898-.03 1.796-.047 2.722C41 53 41 53 40 54c-1.664.098-3.333.13-5 .125l-2.75.008C30 54 30 54 29 53c-.422-1.96-.422-1.96-.75-4.375l-.36-2.398C28 44 28 44 29.267 42.23 32.094 40.224 34.65 40.7 38 41Zm-7 2v10h8V43h-8Z"/><path fill="#1A81AC" d="m62 41 3 1c1.373 4.12.747 6.721 0 11-2 2-2 2-3.875 2.23L59 55.188l-2.125-.02C55 55 55 55 53 54c-.484-2.215-.484-2.215-.75-4.938l-.297-2.714C52 44 52 44 54 42l1 10 5 1v-3h3v-7l-2-1 1-1Z"/><path fill="#277EAB" d="M88.188 92.938 90 94c.125 3.375.125 3.375 0 7-2 2-2 2-5.477 2.195a288.824 288.824 0 0 1-4.148-.07l-2.14-.027A624.62 624.62 0 0 1 73 103l1-2c2.941-.414 2.941-.414 6.563-.625l3.628-.227L87 100v-6l-4-1c3-1 3-1 5.188-.063Z"/><path fill="#287899" d="m62 41 3 1c1.35 4.05.62 6.792 0 11h-1l-.148-1.898-.227-2.477c-.07-.812-.14-1.624-.21-2.46C63.17 43.796 63.17 43.796 61 42l1-1Z"/></svg>