<svg xmlns="http://www.w3.org/2000/svg" width="215" height="108"><path fill="#395544" d="m138.688 25.813 2.95.002c8.453.072 16.733.245 24.362 4.185.026 6.539.043 13.078.055 19.617.005 2.212.012 4.425.02 6.637.026 6.484.015 12.966-.047 19.45-.019 2.234-.03 4.468-.033 6.701a646.65 646.65 0 0 1-.124 9.907l.009 3.037c-.21 7.697-.21 7.697-3.391 10.777-4.308 2.314-7.366 2.6-12.177 2.538l-2.487.015c-1.728.003-3.456-.006-5.183-.027-2.635-.027-5.265 0-7.9.032-1.685-.004-3.37-.01-5.054-.02l-2.368.03c-3.951-.083-6.605-.498-9.8-2.923-4.037-4.44-3.644-8.756-3.634-14.58v-2.013c0-2.18.008-4.36.016-6.541l.005-4.553c.003-3.983.013-7.966.024-11.95.01-4.068.015-8.137.02-12.206.01-7.976.028-15.952.049-23.928 8.27-3.658 15.699-4.195 24.688-4.188Z"/><path fill="#CB211A" d="m180.934 1.734 3.504.016 3.496-.016C191 2 191 2 194 4c.293 1.87.293 1.87.188 4.156l-.078 2.573L194 13.5c-.23 12.241.41 24.255 5.625 35.5 3.367 7.71 2.93 15.852 2.834 24.152l.01 3.325-.05 3.002c.339 2.74.339 2.74 2.938 4.21L208 85c3.216 2.859 4.728 4.406 5.453 8.66.173 4.587.064 7.478-2.328 11.465-3.938 3.474-7.535 3.058-12.563 3.063l-2.353.037c-3.921.01-5.875-.002-9.209-2.225-3.512-.505-7.021-.826-10.555-1.145-4.35-1.08-5.71-2.316-8.445-5.855-.734-3.017-.725-5.948-.7-9.043l-.02-2.674a426.33 426.33 0 0 1 .013-5.616c.02-2.802-.02-5.598-.064-8.4-.05-11.006 1.375-20.26 5.348-30.54 3.874-10.146 3.599-20.275 3.35-30.984l-.052-2.938-.07-2.657c.327-3.603 1.682-4.102 5.129-4.414Z"/><path fill="#D4B06A" d="M111 40c2 2 2 2 2.125 4.625L113 47l-3 1c.573 2.867.861 3.861 3 6 .193 2.888.127 5.429-.501 8.258-.96 5.276-.685 10.684-.684 16.034a816.57 816.57 0 0 1-.04 6.405c-.003 1.37-.005 2.741-.005 4.112l-.013 3.743c.063 3.468.063 3.468 1.507 6.522.736 2.926.736 2.926-.659 6.256-2.805 2.875-4.173 3.378-8.14 3.452l-2.153-.055-2.24.003a256.36 256.36 0 0 1-4.68-.058 281.584 281.584 0 0 0-7.15-.027c-1.518-.012-3.036-.026-4.555-.043l-2.153.005c-3.387-.097-5.253-.396-7.995-2.45-2.044-2.865-1.913-4.712-1.539-8.157l1-2c.097-1.698.13-3.4.133-5.102l.005-3.153-.013-3.37V80.96c-.027-7.704-.393-15.289-1.2-22.948.086-3.454.83-4.49 3.075-7.012v-2l-2-1v-7c9.074-4.537 28.279-3.255 38-1Z"/><path fill="#BB3229" d="M31 50c5.75 1.875 5.75 1.875 8 3l2-1h26v56H31c-.652-3.26-1.135-5.86-1.253-9.084l-.09-2.326-.079-2.469-.084-2.573c-.057-1.79-.11-3.579-.161-5.368-.083-2.737-.186-5.473-.29-8.21-.052-1.74-.103-3.482-.152-5.224l-.104-2.475c-.077-3.468-.071-5.79 1.72-8.818L32 60l-1.563-1.688C29 56 29 56 29.25 53.313 30 51 30 51 31 50Z"/><path fill="#C5C5BE" d="m138.688 25.813 2.95.002c8.453.072 16.733.245 24.362 4.185.026 6.539.043 13.078.055 19.617.005 2.212.012 4.425.02 6.637.026 6.484.015 12.966-.047 19.45-.019 2.234-.03 4.468-.033 6.701a646.65 646.65 0 0 1-.124 9.907l.009 3.037c-.21 7.697-.21 7.697-3.391 10.777-4.308 2.314-7.366 2.6-12.177 2.538l-2.487.015c-1.728.003-3.456-.006-5.183-.027-2.635-.027-5.265 0-7.9.032-1.685-.004-3.37-.01-5.054-.02l-2.368.03c-3.951-.083-6.605-.498-9.8-2.923-4.548-5-3.657-10.574-3.618-17.01l.005-2.668c.005-2.802.018-5.604.03-8.406.006-1.904.01-3.808.014-5.712.011-4.659.028-9.317.049-13.975 4.45 1.56 5.76 2.84 8 7l2 1 1-2v3l3 1-1.5 1.875c-2.134 4.445-2.296 8.278-1.5 13.125 1.958 4.615 4.595 8.487 9 11 2.737.425 5.253.69 8 .813l2.156.154c3.803.21 6.7.321 9.844-1.967 2.432-3.196 4.382-5.985 5-10l-2.75-.438c-4.248-2.042-4.663-4.077-6.336-8.3-1.233-3.051-2.443-5.066-4.914-7.262-5.612-1.31-10.347-.909-16 0v-3c2.812-.194 5.625-.38 8.438-.563l2.431-.17c2.042-.129 4.086-.202 6.131-.267l1 1c2.333.04 4.667.042 7 0v3l6 2v2h3l-1.125-3.75c-.633-2.11-.633-2.11-.875-4.25l.975-1.806c1.243-2.66 1.24-4.513 1.185-7.44l-.033-3.037-.065-3.154c-.034-2.062-.064-4.123-.09-6.184l-.054-2.764c.083-2.645.489-5.04 1.082-7.615l-9-2v2h-9l-1-4h-13v4h-9v-2l-8 2v13h-1V30c8.132-3.817 15.794-4.195 24.688-4.188Z"/><path fill="#DC595F" d="m180.934 1.734 3.504.016 3.496-.016C191 2 191 2 194 4c.293 1.87.293 1.87.188 4.156l-.078 2.573L194 13.5c-.23 12.241.41 24.255 5.625 35.5 3.367 7.71 2.93 15.852 2.834 24.152l.01 3.325-.05 3.002c.339 2.74.339 2.74 2.938 4.21L208 85c3.319 2.95 4.822 4.387 5.313 8.836 0 2.74-.094 5.434-.313 8.164l-2 1 .176-2.23c.382-6.28.382-6.28-2.301-11.77-2.86-1.99-5.749-3.476-8.875-5l-.028-2.643c-.045-3.264-.106-6.526-.18-9.79-.028-1.407-.049-2.814-.063-4.222.003-10.852.003-10.852-4.729-20.345l.65 1.943c2.316 7.549 2.717 14.386 2.537 22.245l-.04 3.462A843.691 843.691 0 0 1 198 83l-3-1c-1.292-2.583-1.143-4.5-1.176-7.39-.273-16.093-.273-16.093-3.902-31.66C187.146 34.07 187.866 24.2 188 15h-6l.07 2.605c.173 11.3-1.023 21.763-4.386 32.567-1.656 6.848-1.857 13.932-2.036 20.95l-.07 2.502a2347.78 2347.78 0 0 0-.136 5.18c-.067 2.651-.145 5.301-.223 7.952-.045 1.684-.09 3.368-.133 5.053l-.072 2.402c-.196 4.023-.196 4.023.986 7.789 2.779.617 2.779.617 6 1 3.313.438 3.313.438 6 1l1 2a396.236 396.236 0 0 1-7.688-.688l-2.185-.162-2.139-.224-1.952-.175c-3.356-1.238-4.873-2.916-7.036-5.751-.731-3.018-.725-5.948-.7-9.043l-.02-2.674a426.33 426.33 0 0 1 .013-5.616c.02-2.802-.02-5.598-.064-8.4-.05-11.006 1.375-20.26 5.348-30.54 3.874-10.146 3.599-20.275 3.35-30.984l-.052-2.938-.07-2.657c.327-3.603 1.682-4.102 5.129-4.414Z"/><path fill="#2A5140" d="M132 27h13l1 3 9 1v-2l9 1a88.406 88.406 0 0 1 1 5l-1 1a89.926 89.926 0 0 0-.027 5.059l.037 3.107c.035 2.177.074 4.354.117 6.531l.033 3.112.051 2.868C164 59 164 59 162 61c-2.688.27-5.291.087-8 0v-2l2.063-1.813L158 55c-.14-2.707-.14-2.707-1-5l-3.188-.438A142.46 142.46 0 0 1 145 48l-1 2c-2.326.38-4.66.713-7 1l-2 1v5h-3v-6l-3 1c-2.688-.938-2.688-.938-5-2v8l4-1-2 4c-1.46-.114-2.917-.242-4.375-.375-.812-.07-1.624-.14-2.46-.21C117 60 117 60 115 58c-.227-2.706-.227-2.706-.195-6.102l.02-3.671.05-3.852.027-3.875c.024-3.167.057-6.333.098-9.5 3.088-1.765 4.233-2 8-2v2h9v-4Z"/><path fill="#EAD7D1" d="m3.133 66.886 2.777.016 2.7.008 3.453.027L23 67v41H0a8948.44 8948.44 0 0 1-.055-17.035c-.005-1.933-.012-3.866-.02-5.8-.013-2.772-.018-5.545-.023-8.317l-.015-2.636c0-2.071.05-4.142.113-6.212 1-1 1-1 3.133-1.114Z"/><path fill="#A51A17" d="M111 40c2 2 2 2 2.125 4.625L113 47l-3 1 .438 1.563c1.983 8.595 1.983 8.595.562 11.437l-10-1v-5l3 1v2h6v-3l-10-2v4l-3 1-2 3c-2.155.34-2.155.34-4.79.293l-2.85-.03-2.985-.075-3.008-.042A689.737 689.737 0 0 1 74 61c-.125-3.375-.125-3.375 0-7l2-2c.643-2.069.643-2.069 1-4h-4v-7c9.074-4.537 28.279-3.255 38-1Z"/><path fill="#BD5751" d="M31 50c5.75 1.875 5.75 1.875 8 3l2-1c1.96-.085 3.922-.107 5.883-.098l3.535.01 3.707.026 3.73.013c3.049.012 6.097.028 9.145.049v2l-25 1 2 2c.72 2.318 1.391 4.651 2 7l-2 1c.998 2.993 1.752 3.948 4 6-2.709 1.354-5.01 1.065-8 1l2 8h4c-.998 2.993-1.752 3.948-4 6l1 2c-.305 2.129-.305 2.129-.875 4.563l-.555 2.44C41 97 41 97 40 98a85.688 85.688 0 0 0-.563 4.563l-.253 2.503L39 107l-8 1c-1.124-4.616-1.27-9.154-1.422-13.879l-.084-2.573c-.057-1.79-.11-3.579-.161-5.368-.083-2.737-.186-5.473-.29-8.21-.052-1.74-.103-3.482-.152-5.224l-.104-2.475c-.077-3.468-.071-5.79 1.72-8.818L32 60l-1.563-1.688C29 56 29 56 29.25 53.313 30 51 30 51 31 50Z"/><path fill="#BD463D" d="M138 67h2v2h4c2.125 4.625 2.125 4.625 1 8l7 2v3h3c2.167 2.167 2.64 3.02 3 6-1.082 2.855-2.749 4.953-5 7-3.106.857-4.886 1.1-8 1l-2.785-.043c-4.19-.209-7.376-.5-11.09-2.52-5.008-5.744-8.047-10.275-7.61-18.16.79-3.708 2.365-5.242 5.485-7.277 3.313-.313 3.313-.313 6 0-1.875 5.875-1.875 5.875-3 7l6 1v-2l-3 1v-2h3l-.563-2.438L137 68l1-1Z"/><path fill="#C68887" d="M75 48h2c-.875 4.875-.875 4.875-2 6a235.648 235.648 0 0 0-1 7c3.46-.08 6.917-.193 10.375-.313l2.984-.068 2.852-.107 2.634-.08c2.541-.245 2.541-.245 4.155-3.432h3v-4c3.947-.18 6.598-.094 10 2v3h-6v-2h-2l-1 4 3.313-.063C108 60 108 60 111 61v-8l2 1c.066 2.833.123 5.451-.498 8.225-.634 3.506-.626 6.934-.6 10.482l.005 2.198c.005 2.303.018 4.605.03 6.907A4577.051 4577.051 0 0 0 112 98l-2-1V86l-4 3-2-2v-3l-7 2c.875-3.875.875-3.875 2-5h5V70h-3v-4H85l-1 4h-3v5h-2v2h-4l1 22-3-1 .016-2.225c.021-3.425.035-6.85.046-10.275l.015-3.727c.003-8.007-.301-15.872-1.151-23.832.086-3.425.902-4.4 3.074-6.941v-3Z"/><path fill="#BE0609" d="M185 16h1l.076 1.785c.117 2.718.24 5.435.362 8.152l.119 2.807C186.26 38.508 186.26 38.508 189 47c1.11 7.384 1.25 14.762 1.295 22.222.012 1.36.032 2.719.062 4.078.042 1.988.056 3.977.069 5.966l.044 3.555c-.564 3.814-1.954 5.335-4.47 8.179-.689 3.109-.689 3.109-.75 6.313l-.172 3.238L185 103h-3c-1.855-3.157-2.23-5.401-2.16-9.043l.035-2.98.063-3.165c.09-7.375.033-14.647-.563-22-.43-5.847-.077-11.11 1.02-16.87 1.035-6.743 1.385-13.557 1.82-20.362l.222-3.178.184-2.86c.383-2.566 1.084-4.31 2.379-6.542Z"/><path fill="#CA1E26" d="M182 15h6l.12 2.073c.588 15.111.588 15.111 3.942 29.74 1.455 4.83 2.227 9.216 2.418 14.253l.155 3.878c.167 5.685.296 11.369.365 17.056l-5 1-.076-2.336c-.117-3.534-.24-7.068-.362-10.602l-.119-3.673C189.936 55.58 189.936 55.58 187 46c-.23-2.07-.395-4.145-.535-6.223l-.264-3.818-.263-4.022-.276-4.033c-.225-3.3-.445-6.602-.662-9.904-1.497 2.993-1.456 6.165-1.719 9.457l-.19 2.242c-.2 2.371-.396 4.742-.591 7.113-.195 2.361-.391 4.721-.59 7.081a1116.04 1116.04 0 0 0-.365 4.408A92.124 92.124 0 0 1 180 59c.088 2.274.242 4.545.438 6.813.652 8.374.623 16.717.525 25.112l-.025 2.997-.036 2.675c.093 2.284.453 4.217 1.098 6.403h-6c-2.543-3.816-2.199-7.664-2.047-12.063l.062-2.385c.045-1.668.096-3.335.152-5.003.082-2.512.144-5.024.204-7.537.294-10.723 1.115-20.972 4.129-31.325C181.046 35.06 181.3 24.9 182 15Z"/><path fill="#F1CDCF" d="m180.934 1.734 3.504.016 3.496-.016C191 2 191 2 194 4c.293 1.87.293 1.87.188 4.156l-.078 2.573L194 13.5c-.23 12.241.41 24.255 5.625 35.5 3.367 7.71 2.93 15.852 2.834 24.152l.01 3.325-.05 3.002c.339 2.74.339 2.74 2.938 4.21L208 85c3.319 2.95 4.822 4.387 5.313 8.836 0 2.74-.094 5.434-.313 8.164l-2 1 .176-2.23c.382-6.28.382-6.28-2.301-11.77-2.86-1.99-5.749-3.476-8.875-5l-.044-2.69a1502.42 1502.42 0 0 0-.218-9.908 584.887 584.887 0 0 1-.084-4.283c-.034-2.056-.086-4.11-.142-6.166l-.08-3.745C198.967 53.752 198.195 52.6 196 50c-.692-2.011-.692-2.011-1.133-4.117l-.504-2.34c-.16-.798-.322-1.596-.488-2.418l-.512-2.395C191.584 30.311 190.904 22.628 191 14h-13l.07 2.824c.151 10.656.086 20.847-4.625 30.63-3.527 8.97-3.088 18.07-2.932 27.588.05 3.111.061 6.221.067 9.333.014 1.982.03 3.964.049 5.945l.016 2.813.049 2.602c.01.753.02 1.507.032 2.283.171 2.3.171 2.3 2.274 4.982-3.875-1.75-3.875-1.75-5-4-.313-5.7-.357-11.4-.405-17.106-.021-1.901-.055-3.802-.103-5.702-.298-12.07.68-22.169 5.077-33.473 3.898-10.13 3.607-20.274 3.358-30.976l-.052-2.938-.07-2.657c.327-3.603 1.682-4.102 5.129-4.414Z"/><path fill="#B63329" d="M85 65c5.447-.097 10.639-.129 16 1v4h3v11l-2.938.813L98 83l-1 3 3-2h4l2 4 4-2 1 16h-3l-.621-1.715-.817-2.222-.808-2.215c-.608-1.831-.608-1.831-1.754-2.848-2.711-.15-5.025.005-7.688.563C94 94 94 94 92 93l1-4h2l-1-2-3-1a90.223 90.223 0 0 1-4-4v2c-1.938-.375-1.938-.375-4-1-1.322-2.645-1.097-4.678-1.063-7.625l.028-3.04L82 70h2l1-5Z"/><path fill="#D57B77" d="M56 56h7l-4 6h3l2-5h1c.157 16.692-.276 33.324-1 50h2V77h1v31l-10-1c-.2-1.247-.2-1.247-.402-2.52l-.535-3.293-.528-3.269C55.061 94.951 55.061 94.951 54 92c-.555-9.198-.464-18.73 4-27h-3l-2-1 3-8Z"/><path fill="#624640" d="M132 27h13l1 3 9 1v-2l9 1c.625 2.375.625 2.375 1 5-4.616 4.616-13.682 3.158-19.84 3.186h-2.011c-2.012.001-4.024.02-6.036.039l-3.918.005-3.53.013C126 38 126 38 117 36l-1 22h-1V31c4-2 4-2 8-2v2h9v-4Z"/><path fill="#B95752" d="m30 62 2 1-1 15 7.617-.195C41 78 41 78 43 80h3c-.998 2.993-1.752 3.948-4 6l1 2c-.305 2.129-.305 2.129-.875 4.563l-.555 2.44C41 97 41 97 40 98a85.688 85.688 0 0 0-.563 4.563l-.253 2.503L39 107l-8 1c-1.144-4.643-1.237-9.195-1.352-13.95l-.07-2.587c-.047-1.797-.092-3.595-.136-5.393-.067-2.759-.145-5.517-.223-8.275-.045-1.748-.09-3.496-.133-5.244l-.072-2.506C28.885 64.23 28.885 64.23 30 62Z"/><path fill="#CFA3A2" d="M2 68h21v40H2v-7l1 4h17l-1-4h-5v-3l-3.438.563L7 99c-1-1-1-1-1.063-3.563L6 93c4.002-1.6 7.046-.293 11 1v4h3V88h-7v-2h7V72H3v7H2V68Z"/><path fill="#F7E3E1" d="M13 72h7v14c-4 1-4 1-7 0v2h7v10h-3l-1-4-9-1v5h7v3h5l1-2v6H4V88h8v-2H7v-1c1.624-.195 3.25-.38 4.875-.563l2.742-.316C17 84 17 84 19 85l-1-2c-3.046-.47-3.046-.47-6.563-.625l-3.628-.227L5 82v-2l14-1v-2l-2-1h2v-2l-6-1v-1Z"/><path fill="#D4CCBB" d="m146 63 1 1c2.333.04 4.667.042 7 0v3l6 2v3h3c-.114 2.938-.24 5.875-.375 8.813l-.094 2.525-.117 2.432-.095 2.237C162 90 162 90 160 93h-2l1-10-2.75-.438c-4.248-2.042-4.663-4.077-6.336-8.3-1.233-3.051-2.443-5.066-4.914-7.262-5.612-1.31-10.347-.909-16 0v-3c5.702-.74 11.247-1.205 17-1Z"/><path fill="#5F0C1F" d="M84 46h12c.027 2.312.046 4.625.063 6.938l.035 3.902C96 60 96 60 95 61a76.273 76.273 0 0 1-4.691.098l-2.862-.01-3.01-.026-3.021-.013C78.944 61.037 76.472 61.02 74 61v-7l1.938-.375L78 53l1-2 5 1v-6Z"/><path fill="#C33F39" d="M41 78h8v4h2v4l-3 1 .563 3.25c.385 3.306.346 4.72-.563 7.75a99.048 99.048 0 0 0 0 5l9 1v3l4 1H36l3-1-.035-1.934-.028-2.504-.035-2.496C39 98 39 98 40 97c.42-1.467.787-2.95 1.125-4.438l.57-2.433c.518-2.177.518-2.177-.695-4.129l5-6-4 1-1-3Z"/><path fill="#DBC8BB" d="M119 67h9l-1.5 2.375c-1.95 4.71-2.345 8.594-1.5 13.625 1.915 4.35 4.587 7.727 8 11l-5-1v-2l-5-1-1 3c-1.133 3.4-2.125 4.053-5 6-1-1-1-1-1.114-3.776l.016-3.665.01-3.955.025-4.166c.006-1.393.01-2.786.014-4.178.012-3.42.028-6.84.049-10.26h3v-2Z"/><path fill="#E66E73" d="M179 32h1c.38 6.473-.251 11.89-2.246 18.066-1.763 6.86-1.926 14.003-2.106 21.055l-.07 2.503a2347.78 2347.78 0 0 0-.136 5.18c-.067 2.651-.145 5.301-.223 7.952-.045 1.684-.09 3.368-.133 5.053l-.072 2.402c-.196 4.023-.196 4.023.986 7.789 2.779.617 2.779.617 6 1 3.313.438 3.313.438 6 1l1 2-16-2v-6h-2c-.05-5.302-.086-10.604-.11-15.906-.01-1.802-.024-3.604-.04-5.406-.025-2.597-.037-5.193-.045-7.79l-.032-2.425c0-4.575.52-8.16 2.227-12.473 2.165-7.291 4.225-14.604 6-22Z"/><path fill="#B20A05" d="M204 90c2.188 1.938 2.188 1.938 4 4l2 1c.309 8.031.309 8.031-2 11-3.953 2.259-7.522 2.176-12 2l-.813-3.375c-.845-3.843-.845-3.843-4.187-5.625.063-2.813.063-2.813 1-6 3.873-2.235 7.51-3.85 12-3Z"/><path fill="#234D3C" d="m116 35 10 2v2l2 1v10h-4v8l4-1-2 4c-1.48-.14-2.959-.288-4.438-.438-.823-.08-1.647-.162-2.496-.246C117 60 117 60 116 59a98.712 98.712 0 0 1-.098-5.348l.01-3.271.025-3.444.014-3.455c.012-2.827.028-5.655.049-8.482Z"/><path fill="#BBBBB3" d="m126 96 8 1-1 4 13 1v2l-7 1h9v-4h3c-.506 2.169-1 4-2 6l4-2-1-4h5v3l6-2c-.313 1.875-.313 1.875-1 4-3.692 2.461-6.466 2.256-10.73 2.195l-2.274-.008a1205.89 1205.89 0 0 1-7.184-.062c-1.624-.01-3.248-.02-4.873-.027-3.98-.022-7.96-.057-11.939-.098v-1l-2.875-.813C119 105 119 105 117 102l9 2v-8Z"/><path fill="#D1B49C" d="M106 62h2v4h2l1-4c1.19 3.57 1.125 6.8 1.098 10.512l-.005 2.206c-.005 2.324-.018 4.646-.03 6.97-.006 1.576-.01 3.152-.014 4.728-.011 3.861-.028 7.723-.049 11.584l-2-1V86l-4 3-2-2v-3l-7 2c.875-3.875.875-3.875 2-5h5V70h-2v-5l1 2h2l1-5Z"/><path fill="#A72420" d="M42 73c3.737.415 6.737 1.118 10 3v-2h2l.148 3.727a9192 9192 0 0 0 .227 4.898c.03.808.062 1.616.094 2.45.228 4.672.897 8.498 2.531 12.925.125 3.375.125 3.375 0 6H46l2-1c-.485-4.646-.485-4.646-2-9l2-1-1-6 4-1v-4h-2v-4l-4 1-4-5 1-1Z"/><path fill="#DAA1A1" d="M111 40c2 2 2 2 2.125 4.625L113 47l-3 1 1 5-10-1 2-11H82l1 10h-3l-.875-1.938C78.172 46.849 78.172 46.849 76 46v-4h-2l1 6h-2v-7c9.074-4.537 28.279-3.255 38-1Z"/><path fill="#C54249" d="M194 46c3.446 1.723 4.792 4.495 6 8 .559 5.1.567 10.19.563 15.313.004 2.726.03 5.45.066 8.175l.002 3.642L201 84l3 2c-3 2-3 2-7 2v2l-3.438.875L190 92l-1 2h-3v5h-1c-.494-7.283-.494-7.283 1.938-10.813L189 86l1-3c5.75-1.125 5.75-1.125 8 0-.082-3.98-.194-7.958-.313-11.938l-.068-3.384c-.195-6.05-.736-11.23-2.987-16.876C194 49 194 49 194 46Z"/><path fill="#BA6354" d="m119 61 19 2v1h-9v3l1.941-.473c5.254-1.182 9.778-2.144 15.059-.527 1.75 2.313 1.75 2.313 3 5l1.625 1.938c1.753 2.628 2.022 4.955 2.375 8.062l1.875.438C157 82 157 82 159 83l-1 4c-1.5-1.375-1.5-1.375-3-3v-2h-3v-3l-7-2-1-8h-4v-2l-2 1v5h-3l3 1v2h-6l-1-2h2l2-6-3.813.688c-3.939.498-3.939.498-5.937-1L124 66l-2.125-1C120 64 120 64 119 61Z"/><path fill="#6A212D" d="m77 100 1 2c2.24.806 2.24.806 4.875 1.313l2.68.613L88 104a125.236 125.236 0 0 0 3-3c1.828.309 1.828.309 4 1 1.916.067 3.833.085 5.75.063l2.984-.028L106 102v2l4-1c-.875 3.875-.875 3.875-2 5-2.364.1-4.698.14-7.063.133l-2.14.003c-1.497 0-2.993-.001-4.49-.006-2.297-.005-4.595 0-6.893.007-1.45 0-2.901-.002-4.352-.004l-2.095.006c-4.852-.024-4.852-.024-5.967-1.139-.188-2.438-.188-2.438 0-5l2-2Z"/><path fill="#CF1C24" d="M180 46h1c.126 7.443.126 7.443-.531 10.344-.58 3.283-.318 6.145-.031 9.468.652 8.375.623 16.718.525 25.113l-.025 2.997-.036 2.675c.093 2.284.453 4.217 1.098 6.403h-2v-2h-2c-1.155-2.31-1.138-3.66-1.161-6.231l-.03-2.651-.012-2.876-.017-2.96c-.01-2.073-.016-4.146-.02-6.22-.01-3.153-.04-6.307-.072-9.46-.007-2.016-.012-4.032-.016-6.047l-.038-2.839c.02-5.928.961-10.287 3.366-15.716Z"/><path fill="#F1BFC1" d="M191 14h1l.148 1.941.227 2.621c.07.847.14 1.694.21 2.567.492 3.407 1.458 6.566 2.415 9.871a567.99 567.99 0 0 1 2.023 10.988c.64 3.118 1.732 5.76 3.051 8.653 3.003 7.214 2.407 14.654 2.326 22.341l.034 3.39-.03 3.06c.349 2.783.349 2.783 2.956 4.264L208 85c3.319 2.95 4.822 4.387 5.313 8.836 0 2.74-.094 5.434-.313 8.164l-2 1 .176-2.23c.382-6.28.382-6.28-2.301-11.77-2.86-1.99-5.749-3.476-8.875-5l-.044-2.69a1502.42 1502.42 0 0 0-.218-9.908 584.887 584.887 0 0 1-.084-4.283c-.034-2.056-.086-4.11-.142-6.166l-.08-3.745C198.967 53.752 198.195 52.6 196 50c-.692-2.011-.692-2.011-1.133-4.117l-.504-2.34c-.16-.798-.322-1.596-.488-2.418l-.512-2.395c-1.354-6.41-2.499-12.524-2.425-19.105l.027-3.21L191 14Z"/><path fill="#F1EEEA" d="m138.688 25.813 2.95.002c8.523.072 16.636.322 24.362 4.185v28h-1l-1-27-9-2v2h-9l-1-4h-13v4h-9v-2l-8 2v13h-1V30c8.132-3.817 15.794-4.195 24.688-4.188Z"/><path fill="#C66253" d="M135 68c-1.875 5.875-1.875 5.875-3 7l4 1v2l3 1-2 4h-3l-1 3c-1.938-.813-1.938-.813-4-2l-1-3-2-1v5c-2.47-2.47-2.35-3.396-2.438-6.813.084-3.863.312-5.001 2.563-8.312 3.293-2.148 5.02-2.323 8.875-1.875Z"/><path fill="#C9C0C0" d="M75 48h2c-.875 4.875-.875 4.875-2 6 .065 2.107.202 4.212.375 6.313l.273 3.488c.277 2.515.647 4.78 1.352 7.199h2l1-3h2l-1-6h14v2l-9 1-2 5h-3v5h-2v2h-4l1 22-3-1 .016-2.225c.021-3.425.035-6.85.046-10.275l.015-3.727c.003-8.007-.301-15.872-1.151-23.832.086-3.425.902-4.4 3.074-6.941v-3Z"/><path fill="#EDB3AE" d="m30 62 2 1-1 15 7.617-.195C41 78 41 78 43 80h3c-1 3-1 3-3.313 4.188C40 85 40 85 36 85l-1-3c-2-1.209-2-1.209-4-2l.219 2.605c.64 8.153.903 16.219.781 24.395h3V95h2v11l2 1-8 1c-1.144-4.643-1.237-9.195-1.352-13.95l-.07-2.587c-.047-1.797-.092-3.595-.136-5.393-.067-2.759-.145-5.517-.223-8.275-.045-1.748-.09-3.496-.133-5.244l-.072-2.506C28.885 64.23 28.885 64.23 30 62Z"/><path fill="#A7332D" d="M52 54h15c.156 17.692-.32 35.324-1 53h-2V58l-2 4h-3c1.875-3.875 1.875-3.875 3-5l-10-2v-1Z"/><path fill="#393728" d="M131 39a2398.8 2398.8 0 0 1 8.938-.063l2.576-.025 2.45-.01 2.27-.016C149 39 149 39 150 40c.04 2 .043 4 0 6-2.95 1.475-5.655 1.287-8.938 1.375l-3.777.148C134 47 134 47 132.06 44.664 131 42 131 42 131 39Z"/><path fill="#DBB1B1" d="m3.133 66.886 2.777.016 2.998.01 3.155.025 3.166.014c2.59.012 5.18.028 7.771.049v1H2l2 4c.195 3.453.195 3.453.125 7.25l-.055 3.828L4 86h8v2H4l.07 3.613c.02 1.567.037 3.133.055 4.7.017.785.034 1.57.05 2.38l.02 2.295.032 2.11C4 105 4 105 2 108H0c-.025-5.678-.043-11.357-.055-17.035-.005-1.933-.012-3.866-.02-5.8-.013-2.772-.018-5.545-.023-8.317l-.015-2.636c0-2.071.05-4.142.113-6.212 1-1 1-1 3.133-1.114Z"/><path fill="#3E6151" d="M159 38c-2.714 1.357-4.848 1.112-7.883 1.098l-3.535-.01-3.707-.026-3.73-.013A3194.62 3194.62 0 0 1 131 39c1.224 3.647 1.224 3.647 3 7 2.677 1.262 2.677 1.262 5.688 1.438l3.011.37L145 48l-1 2c-2.326.38-4.66.713-7 1l-2 1v5h-3v-6l-3 1-2-2c.023-2.164.023-2.164.375-4.625l.336-2.477L128 41l-2-1v-2c4.217-.168 8.435-.328 12.653-.482 1.434-.054 2.869-.109 4.303-.166 2.063-.082 4.126-.157 6.189-.23l3.76-.144C156 37 156 37 159 38Z"/><path fill="#9B9A94" d="M132 27h13l1 3 9 1v-2l9 1-2 3-9-1v2c-6.75.125-6.75.125-9-1-1.958-.154-3.92-.25-5.883-.316l-3.535-.127-3.707-.12-3.73-.13c-3.049-.107-6.097-.209-9.145-.307l1-3h4v2h9v-4Z"/><path fill="#9E4146" d="m82 81 1 2c2.025.652 2.025.652 4 1v-2l4 2v2l4 1v2h-2l-1 4h-2v2l-11-2-1-5c1.375-1.563 1.375-1.563 3-3 .714-2.103.714-2.103 1-4Z"/><path fill="#C9515B" d="M179 15h1c.711 9.123-.427 17.296-2.375 26.188l-.67 3.078c-1.679 7.32-1.679 7.32-3.955 10.734-1.28 4.52-1.22 9.138-1.316 13.8l-.063 2.535c-.066 2.66-.125 5.318-.184 7.978A7051.822 7051.822 0 0 0 171 98l2.001-.001 1 4-4-2c-.125-6.17-.215-12.34-.275-18.512a704.861 704.861 0 0 0-.102-6.281c-.415-20.451-.415-20.451 4.128-30.231 2.313-5.512 2.817-11.396 3.561-17.288l.51-3.725c.407-2.986.8-5.973 1.178-8.963Z"/><path fill="#D55749" d="M31 67c6.68-.275 11.068-.095 17 3-2 2-2 2-5.125 2.125L40 72l1 6H31V67Z"/><path fill="#AF5048" d="m143 80 6 1 1 4h-2l.563 1.938L149 89c-1.583 1.583-3.38 1.347-5.563 1.563l-2.503.253L139 91l1 3 3 1h-9l-1-3h4l-1.063-1.75C135 88 135 88 136 84l9-1v-2l-2-1Z"/><path fill="#D66B64" d="M57 67h1v6l2 1h-2v2l2 1h-2l.625 2.25c.42 3.073-.006 4.178-1.625 6.75h-2l1.875 2.5C60.442 93.863 61.319 99.628 61 106h-4l-.402-2.3-.535-3.013-.528-2.988C55.043 94.92 55.043 94.92 54 92c-.492-8.157-.749-17.503 3-25Z"/><path fill="#D53239" d="M180 38h1c.245 4.572.355 7.179-1.5 11.467-1.978 5.187-1.88 10.104-1.793 15.596l.013 3.126c.017 3.27.054 6.54.093 9.811.015 2.228.028 4.456.04 6.684.033 5.439.084 10.877.147 16.316h2v2l-5-1c-1.24-3.72-1.055-7.1-.95-10.965l.058-2.39c.042-1.673.087-3.347.134-5.02.07-2.522.124-5.043.178-7.564.277-11.238 1.346-21.893 4.205-32.811.26-1.005.52-2.01.79-3.047.192-.727.386-1.454.585-2.203Z"/><path fill="#972025" d="M101 85h3l2 3 4-2 1 16h-3l-.621-1.715-.817-2.222-.808-2.215c-.608-1.831-.608-1.831-1.754-2.848-2.711-.15-5.025.005-7.688.563C94 94 94 94 92 93l1-4 5-1v2l3-2v-3Z"/><path fill="#D2554E" d="M56 56h7l-4 6h3l2-5h1v23l-3-1V67l-4-1-2-2h-3l3-8Z"/><path fill="#F98E93" d="M179 32h1c.482 8.23-.644 15.732-4.03 23.302-1.06 2.947-1.269 5.285-1.349 8.409l-.103 3.273-.08 3.391C174.07 83.865 174.07 83.865 173 90h-1c-.075-4.856-.129-9.712-.165-14.57-.015-1.649-.035-3.299-.061-4.948a723.74 723.74 0 0 1-.067-7.142c-.015-.73-.03-1.46-.047-2.21-.002-5.13 1.122-8.508 3.34-13.13.432-1.382.83-2.776 1.168-4.184l.518-2.119.501-2.135.538-2.216c.43-1.78.853-3.563 1.275-5.346Z"/><path fill="#C5814C" d="M106 95c1.46 2.647 2 3.894 2 7h3v-4h2c.75 1.625.75 1.625 1 4-1.938 3.25-1.938 3.25-4 6l-2-1 2-4-1.938.563L106 104l-1-1a89.17 89.17 0 0 0-4.75 0c-3.567.04-6.779-.074-10.25-1l1-4c5.235-.756 9.773-1.206 15 0v-3Z"/><path fill="#DBDAD4" d="M165 60h1c.152 14.36-.308 28.656-1 43l-2 1v-2l-3 2h-3v-3l-4-1h2l.75-2.938L157 94c2.125-.875 2.125-.875 4-1l2 5 .076-2.842c.095-3.5.195-7 .296-10.5.043-1.511.085-3.022.125-4.533.059-2.18.122-4.36.187-6.54l.11-3.966c.187-3.282.593-6.394 1.206-9.619Z"/><path fill="#E9A49D" d="M58 67h4c.223 3.041.429 6.082.625 9.125l.195 2.594c.303 4.92.169 8.65-1.82 13.281l-6-1v-5l2-1c1.376-5.818 1.094-12.064 1-18Z"/><path fill="#BAB9B0" d="M119 67h6v2h-2v4l-3 1 2 1v5l-4 1 .07 3.21c.02 1.389.037 2.777.055 4.165.017.699.034 1.397.05 2.117.018 1.837-.072 3.674-.175 5.508l-2 2V69h3v-2Z"/><path fill="#F3E5E2" d="M5 89h2v9h7v3h5l1-2v6H4c-.125-13.75-.125-13.75 1-16Z"/><path fill="#BF130F" d="M204 90c2.188 1.938 2.188 1.938 4 4l2 1c.318 8.278.318 8.278-2 11-3.625 1.25-3.625 1.25-7 2 .596-4.869 1.57-9.328 3-14l-9-1c3.023-2.687 4.94-3.71 9-3Z"/><path fill="#BBBEB4" d="m126 96 8 1-1 4 13 1v2l-3.125.438c-3.3.479-6.588 1-9.875 1.562v1h-5v-2l-4-1h2v-8Z"/><path fill="#5C6C61" d="M157 50c1.563 2.313 1.563 2.313 2 5-1.148 2.152-1.148 2.152-3 4-2.48.39-2.48.39-5.188.25l-2.73-.11L146 59v-8c4.013-2.007 6.694-2.435 11-1Z"/><path fill="#9A9364" d="M75 77c2.491 3.737 2.207 5.745 2.125 10.188l-.055 3.855L77 94l3 1 1 7h9l-3 3c-3.793-1.002-6.715-1.81-10-4l-2 5-3-2c-.188-3.125-.188-3.125 0-6l3-1V77Z"/><path fill="#A72628" d="M2 68h21l-1 10h-1v-6H3v7H2V68Z"/><path fill="#DADBD1" d="M106 62h2v4h2l1-4c1.206 3.619 1.108 6.925 1.063 10.688l-.014 2.126c-.012 1.729-.03 3.458-.049 5.186h-1l-1-9-1 9h-2v-3h-2v-7h-3v-5l1 2h2l1-5Z"/><path fill="#9A432C" d="M41 78h8v4h2v4l-3 1v6l-7 1 .563-2.875c.724-3.024.724-3.024-.563-5.125l5-6-4 1-1-3Z"/><path fill="#CC191E" d="m189 48 2 1c2.073 7.056 2.216 13.626 2.063 20.938-.035 2.05-.065 4.101-.09 6.152l-.055 2.714c-.068 2.24-.068 2.24 1.082 4.196h-4l-1-35Z"/><path fill="#938A84" d="M120 35h41c-4.264 4.264-9.982 3.16-15.635 3.186h-2.08c-2.08.001-4.16.02-6.24.039-1.334.003-2.668.005-4.002.005l-3.656.013c-3.443-.247-6.177-1.007-9.387-2.243v-1Z"/><path fill="#DDDBDA" d="M182 3h6l1 4h2l1-3c1 1 1 1 1.063 3.563L193 10l-2.266.184-2.984.254-2.953.246c-2.362.267-4.516.67-6.797 1.316l-1-5h4l1-4Z"/><path fill="#261E1B" d="m156 87 1 2c-2.846 5.574-2.846 5.574-5.871 6.691-4.133.618-7.478.564-11.129-1.691-1.133-2.082-1.133-2.082-2-4l3.684-.402 4.754-.535 2.431-.264c3.887-.104 3.887-.104 7.131-1.799Z"/><path fill="#C7C2B7" d="m159 69 1 3h3c-.114 2.938-.24 5.875-.375 8.813-.03.833-.062 1.666-.094 2.525l-.117 2.432-.095 2.237C162 90 162 90 160 93h-2l1-10-3-1 2-1 2 1v-3h-3l2-10Z"/><path fill="#B3B58A" d="M81 70h1c.054 2.438.094 4.874.125 7.313l.05 2.091c.037 3.767-.031 5.38-2.175 8.596h-2l2 7-3-1c-.993-5.707-1.105-11.214-1-17h3v-2h2v-5Z"/><path fill="#460312" d="M84 47h11v6c-3.867 1.266-7.732 1.112-11.75 1.063l-2.113-.014c-1.713-.012-3.425-.03-5.137-.049l2-1 1-2 5 1v-5Z"/><path fill="#520D16" d="M110 103c-.875 3.875-.875 3.875-2 5-2.146.088-4.294.107-6.441.098l-3.955-.01-4.166-.025A4044.715 4044.715 0 0 1 79 108l-1-4 7 1v2l1.875-.563C89 106 89 106 91 107v-2l2.957.07 3.856.055 3.832.07c3.5-.203 5.086-2.195 8.355-2.195Z"/><path fill="#A62922" d="M85 65c5.447-.097 10.639-.129 16 1v5h-7l1-2-2-2-1 4-7-1v-5Z"/><path fill="#B04839" d="M8.96 91.91c2.478.156 4.658.378 7.04 1.09 1.956 2.785 3 4.578 3 8h-5v-3l-3.438.563L7 99c-1-1-1-1-1.125-3.5.173-3.456.173-3.456 3.086-3.59Z"/><path fill="#A1312E" d="M21 98h1l1 10H2v-7l1 4h18v-7Z"/><path fill="#C91319" d="M179 59h1c.878 10.661 1.088 21.228.963 31.924l-.025 2.998-.036 2.675c.093 2.284.453 4.217 1.098 6.403h-2c-.926-2.778-1.187-4.725-1.316-7.613l-.128-2.764-.119-2.936-.126-2.991c-.842-21.072-.842-21.072.689-27.696Z"/><path fill="#C7C3D9" d="M81 62h14v2l-9 1-2 5h-3v5l-5 1v-6l3 1 1-3h2l-1-6Z"/><path fill="#6B2E48" d="M75 53c2.34.287 4.674.62 7 1v4h2v2h11v1H74c0-7 0-7 1-8Z"/><path fill="#657559" d="M161 61c.89 3.303 1.463 6.623 2 10h-3l-1-2-2.5-1c-2.5-1-2.5-1-3.5-3h-6l-1-2c2.97-.868 5.538-1.083 8.625-1 3.318.127 3.318.127 6.375-1Z"/><path fill="#DDDCD6" d="M145 27c2.75.114 5.5.24 8.25.375.777.03 1.555.062 2.355.094l2.286.117 2.094.095C162 28 162 28 166 30v28h-1l-1-27-9-2v2h-9l-1-4Z"/><path fill="#742A41" d="M99 46h3l-1 6 3.813-.188c2.628.014 3.916.04 6.25 1.313 1.405 2.81.662 4.907-.063 7.875l-10-1v-5l3 1v2h6v-3l-11-2v-7Z"/><path fill="#CD9463" d="M80 93c6.75.75 6.75.75 9 3h-4v3l1.875-.625L89 98l2 2-1 2c-3.557.85-5.493 1.17-9 0-1.478-2.957-1.06-5.742-1-9Z"/><path fill="#922D1C" d="M42 73c3.737.415 6.737 1.118 10 3v-2h2c.125 5.75.125 5.75-1 8a62.266 62.266 0 0 0-.063 4.125L53 90c-1.765-3.088-2-4.233-2-8h-2v-4l-4 1-4-5 1-1Z"/><path fill="#93333E" d="M100 53c3.947-.18 6.598-.094 10 2v3h-6v-2h-2l-1 4h7v1h-7v3h-5v-2l3-1-3-1 1-3h3v-4Z"/><path fill="#B86F63" d="M135 41h13l1 4c-1 1-1 1-3.652 1.133l-3.286-.008-3.277.008C136 46 136 46 134 45l1-4Z"/><path fill="#94A398" d="m124 50 8 1v6h3v-5h2c.043 2 .04 4 0 6-1 1-1 1-3.438 1.25L131 59l-2-3h-3v2h-2v-8Z"/><path fill="#FAEAE5" d="M201 56h1l.012 2.34c.033 3.491.104 6.981.175 10.472l.018 3.682.088 3.526.048 3.253c.395 2.926.395 2.926 3.027 4.445L208 85c3.319 2.95 4.822 4.387 5.313 8.836 0 2.74-.094 5.434-.313 8.164l-2 1 .176-2.23c.38-6.32.38-6.32-2.363-11.832-3.024-2.236-3.024-2.236-7.813-3.938V56Z"/><path fill="#D38681" d="m46.883 51.902 3.535.01 3.707.026 3.73.013c3.049.012 6.097.028 9.145.049v2l-25 1 2 3h-3v-2l-5-1c4.129-2.753 5.95-3.122 10.883-3.098Z"/><path fill="#C88086" d="m79.625 39.938 2.477.027L84 40l-2 1 1 10h-3l-.875-1.938C78.172 46.849 78.172 46.849 76 46v-4h-2l1 6h-2v-7c2.405-1.203 3.95-1.1 6.625-1.063Z"/><path fill="#E17672" d="M204 86c2.705.877 4.684 1.717 6.813 3.625 2.046 4.093 1.714 8.08.718 12.414-.656 1.898-.656 1.898-2.531 4.961-3.188.938-3.188.938-6 1 3-2 3-2 5-3 .69-2.35.69-2.35 1.125-5.063l.508-2.785L210 95l-4-1-2-8Z"/><path fill="#97A7A8" d="M75 61h19v1H81l1 6c-1.313 1.875-1.313 1.875-3 3h-2c-2.322-3.774-2-5.012-2-10Z"/><path fill="#A6656D" d="m103 41 4 1h-3l1 3 5 1 1-4-.254 1.898-.308 2.477-.317 2.46c-.303 2.214-.303 2.214.879 4.165l-10-1 2-11Z"/><path fill="#C03F39" d="m84 66 1 4h7l1-3 4 2-3 2 8-1v3c-5.86 1.674-12.11 1.52-18 0v-7Z"/><path fill="#D05D54" d="m40 68-1 5h-2l-2 5h-4v-9c3.153-.7 5.727-1 9-1Z"/><path fill="#CFD1C7" d="M136 95c6.625-.25 6.625-.25 10 2v2h9l-3 5 4 1c-2.647 1.46-3.894 2-7 2l1-6-8-1v-4h-2v4h-4v-5Z"/><path fill="#F4E8E8" d="m177 10 1 2 1.672-.992c2.716-1.176 4.634-1.21 7.578-1.133l2.703.055L192 10l-1 4h-13v9h-1V10Z"/><path fill="#D2473F" d="M132 76h4v2l3 1-2 4h-3l-1 3c-1.938-.688-1.938-.688-4-2-.75-2.625-.75-2.625-1-5h3l1-3Z"/><path fill="#B8B0A3" d="M19 74v5h-7v-5l-1 3c-1.938.75-1.938.75-4 1l-2-1v-2h2v-2c4.52-1.456 7.516-.27 12 1Z"/><path fill="#8D6247" d="M138 67h2v2h4c1.063 2.375 1.063 2.375 2 5l-1 2c-2.322.407-4.657.744-7 1v-3l-3 1v-2h3l-.563-2.438L137 68l1-1Z"/><path fill="#918F88" d="m117 102 11 3v2l2.012-.496c3.617-.61 7.147-.612 10.8-.567l2.1.014c1.696.012 3.392.03 5.088.049v2h-23v-1l-2.875-.813C119 105 119 105 117 102Z"/><path fill="#E3817C" d="M63 79h1c.029 3.104.047 6.208.063 9.313l.025 2.67.01 2.568.016 2.364C64 98 64 98 63 101l-3-1-1-8 2-1c.402-2.322.727-4.659 1-7 .32-1.67.647-3.337 1-5Z"/><path fill="#AF2514" d="M82 79h8v2h6v5c-2.25.25-2.25.25-5 0-2.313-2-2.313-2-4-4v2l-4-1-1-4Z"/><path fill="#D94A50" d="M194 56c2.397 2.397 2.283 3.07 2.414 6.352l.117 2.578.094 2.695.117 2.719c.095 2.218.18 4.437.258 6.656h1v6l-3-1c-1.305-2.61-1.113-4.527-1.098-7.445l.01-3.262.025-3.418.014-3.441c.012-2.812.028-5.623.049-8.434Z"/><path fill="#D12D34" d="M189 40h1c5.433 13.444 4.828 27.726 5 42l-3-1c.01-.65.02-1.3.032-1.969.042-2.99.067-5.979.093-8.969l.05-3.095C192.217 60.647 191.69 55.1 190 49l-1-1c-.141-2.67-.042-5.324 0-8Z"/><path fill="#5E5D55" d="M163 31h2l-1 5-5 1v-1h-14l1-2h7v-2l1.934.035 2.504.028 2.496.035c2.058.135 2.058.135 3.066-1.098Z"/><path fill="#F87F6D" d="M189 86c5.75.875 5.75.875 8 2v2l-3.438.875L190 92l-1 2h-3v5h-1c-.492-7.262-.492-7.262 2-11l2-2Z"/><path fill="#DB4149" d="M175 62h1l.076 3.042c.094 3.737.194 7.473.296 11.21.044 1.615.085 3.23.125 4.844.058 2.326.122 4.652.187 6.978l.05 2.176c.108 3.688.406 7.159 1.266 10.75h2v2l-5-1c-1.282-3.847-1.015-7.39-.879-11.387l.072-2.476c.076-2.608.16-5.216.244-7.825.054-1.768.106-3.537.159-5.306.129-4.336.265-8.67.404-13.006Z"/><path fill="#D54F47" d="m190 91 1 2-1 2h-2v6h2l.375 1.938L191 105l2 1v2c-1.938-.375-1.938-.375-4-1l-1-2a108.817 108.817 0 0 0-7-1l4-1 1-9h3l1-3Z"/><path fill="#884A22" d="m200 82 1 2 3 2c-3.507 2.338-4.876 2.33-9 2-2.875-1-2.875-1-5-2v-3c3.38-1.04 6.478-1.08 10-1Z"/><path fill="#C18F6B" d="m87 82 4 2v2l4 1v2l-8 3-1-3h3v-2h-5l1-4 2 1v-2Z"/><path fill="#D9D5CD" d="m159 69 1 5-2 1c-.652 2.025-.652 2.025-1 4h3v3l-6-2c-1.22-5.372-1.22-5.372-.188-8.313C155.36 69.49 156.315 69 159 69Z"/><path fill="#A46555" d="M147 70c4.004 3.49 5.627 5.65 6 11l1.875.438C157 82 157 82 159 83l-1 4c-1.5-1.375-1.5-1.375-3-3v-2h-3v-3l-7-2v-3h3l-1-4Z"/><path fill="#8D3A42" d="M82 41h6l-4 1v10h-8l1-4-3-1v-5h2v4l3 1c.688 2.063.688 2.063 1 4h3l-1-10Z"/><path fill="#CD4C44" d="m58 64 6 2 1-2v16l-3-1V67l-4-1v-2Z"/><path fill="#A1100B" d="M95 41v5H84v-4c3.674-1.176 7.17-1.074 11-1Z"/><path fill="#B63941" d="M170 58h1v40h2l1 4-4-2V58Z"/><path fill="#CCC7C1" d="m121 80 1 2h-2l.438 1.793c.97 4.132 1.838 7.93 1.562 12.207l-3 1-2 2c-.1-6.11-.071-11.974 1-18l3-1Z"/><path fill="#CD4338" d="m135 68-2 6h-5l-2 5c-1.465-3.81-.552-6.324 1-10 2.709-1.354 5.01-1.065 8-1Z"/><path fill="#D16763" d="M84 76h18v2c-3.663.75-6.424 1.238-10 0l-1 2-7-1v-3Z"/><path fill="#46634B" d="M146 59h8v2h7c-3.68 2.453-5.474 2.232-9.855 2.195l-2.005-.008c-2.11-.011-4.218-.037-6.327-.062-1.432-.01-2.864-.02-4.295-.027A1931.99 1931.99 0 0 1 128 63v-1l20-1-2-2Z"/><path fill="#636A61" d="m117 30 2 4h5c-2.647 1.46-3.894 2-7 2l-1 22h-1V31l2-1Z"/><path fill="#F6ECE9" d="M17 88h3v10h-3l-.188-1.875c-.64-2.403-.64-2.403-3.375-3.375L11 92l2-2h4v-2Z"/><path fill="#7F544E" d="M136 84h2c1.316 3.62 2 6.096 2 10l3 1h-9l-1-3h4l-1.063-1.75c-1.086-2.608-.868-3.644.063-6.25Z"/><path fill="#724429" d="M48 81c-.607 4.86-2.728 8.74-5 13h-2l.563-2.875c.724-3.024.724-3.024-.563-5.125 4.75-5 4.75-5 7-5Z"/><path fill="#971513" d="M82 70h2v3h18v-3h2l-1 5H83l-1-5Z"/><path fill="#CE5047" d="M55 92h2c2.714 4.774 4.566 8.344 4 14h-4l-2-14Z"/><path fill="#AAB398" d="m111 53 2 1c.125 5.75.125 5.75-1 8h-2v4h-2v-4h-2l-1 5h-2a88.406 88.406 0 0 1-1-5c1-1 1-1 2.848-1.098L111 61v-8Z"/><path fill="#9AA89B" d="M138 51h6v8l-4-2v2h-2v-8Z"/><path fill="#214939" d="M123 52v7h3v-2l2 1-2 3c-1.48-.114-2.96-.241-4.438-.375-.823-.07-1.647-.14-2.496-.21L117 60l-1-2h2l.313-1.875C119.073 53.775 120.15 52 123 52Z"/><path fill="#DDD7D2" d="m131 27 1 4h-9v-2l-8 2v13h-1V30c3.611-1.806 4.545-2.249 8.25-2.125L126 28v2h5v-3Z"/><path fill="#AE3028" d="m42 101 6 1v1l9 1v2c-1.73.027-3.458.047-5.188.063l-2.917.035c-2.75-.093-5.22-.477-7.895-1.098l1-4Z"/><path fill="#A0AD92" d="m119 61 19 2v1c-1.624.195-3.25.38-4.875.563l-2.742.316C128 65 128 65 126 64v2l2 1c-5.492-.61-5.492-.61-7.875-2.438C119 63 119 63 119 61Z"/><path fill="#C39E8F" d="M81 70h1c.054 2.459.094 4.916.125 7.375.017.699.034 1.397.05 2.117.018 1.837-.072 3.674-.175 5.508l-2 2v-7h-4v-3h3v-2h2v-5Z"/><path fill="#E8C7C3" d="M19 99h1v6H4c4.216-2.108 6.398-2.177 11-2v-2h4v-2Z"/><path fill="#F7C5BC" d="M58 67h4v11l-4-1V67Z"/><path fill="#244433" d="M161 53h3c.125 2.875.125 2.875 0 6-2 2-2 2-3.945 2.195L154 61v-2h4l1-2 2-4Z"/><path fill="#943831" d="M152 82h3c2 2 2 2 3 6l-10 2v-4l2.438-.375L153 85l1-2-2-1Z"/><path fill="#C55D52" d="m140 83 7 2-1 3-7 1c-.625-1.875-.625-1.875-1-4l2-2Z"/><path fill="#7D7A73" d="M156 89c1.113 2.732 1.05 3.857.063 6.688-2.322 2.603-2.937 2.713-6.25 3.124L146 99v-2l-3-1c2-1 2-1 5.938-1.25 2.132-.17 2.132-.17 4.062-.75 2.065-2.407 2.065-2.407 3-5Z"/><path fill="#C69592" d="M5 82h13l1 3H6l-1-3Z"/><path fill="#D0DADC" d="M105 69h4v11h-2v-3h-2v-8Z"/><path fill="#BDBFC3" d="M182 3h6l1 5h-8l1-5Z"/><path fill="#3F3430" d="M138 90h10l-2 5 4 1c-3.47-.458-6.674-.891-10-2l-2-4Z"/><path fill="#CC8275" d="m31 80 5 2v3l3 1h-7v8h-1V80Z"/><path fill="#AB1414" d="M85 66h8l-1 5-7-1v-4Z"/><path fill="#C7CBBA" d="M116 59c3.769 1.256 4.08 2.66 6 6l2 1 1-2v3h-6v2h-2l-1-10Z"/><path fill="#A17C7A" d="M111 98h2c.75 1.625.75 1.625 1 4-1.938 3.25-1.938 3.25-4 6l-2-1 2-4-4 1v-5h2v3h3v-4Z"/><path fill="#C9322F" d="M209 96h1l-1 9-5 2 1-6 3-1c.733-2.015.733-2.015 1-4Z"/><path fill="#96958E" d="M152 101h5v3l6-2v2c-6.625 3-6.625 3-10 3l-1-6Z"/><path fill="#842334" d="M107 91h2c1.423 3.823 2.24 6.913 2 11h-3a441.573 441.573 0 0 1-1.063-4.375l-.597-2.46C106 93 106 93 107 91Z"/><path fill="#A74238" d="m145 77 7 2v4h2l-1 3h-5l2-1-1-3-2-1v-2h-2v-2Z"/><path fill="#AF2B26" d="m56 63 3 3-1.438 2.563C55.943 72.126 55.388 75.126 55 79h-1v-5h-2c.783-3.916 2.392-7.364 4-11Z"/><path fill="#C23934" d="M41 54c1.75-.054 3.5-.093 5.25-.125l2.953-.07C52.02 54 53.61 54.555 56 56l-1 6h-1v-6l-11 1-2-3Z"/><path fill="#1D4C39" d="m161 39-2 2c-.643 2.069-.643 2.069-1 4l-4-1 1-4-5 1-1-2c8.571-1.286 8.571-1.286 12 0Z"/><path fill="#97533B" d="M94 102h12l1 3c-2.405 1.203-3.95 1.1-6.625 1.063l-2.477-.028L96 106v-2h-2v-2Z"/><path fill="#CD473E" d="M204 86c2 3 2 3 1.625 5.188L205 93l-1-3-2.063.5c-3.353.57-6.54.567-9.937.5v-1h5v-2c4.75-2 4.75-2 7-2Z"/><path fill="#C03025" d="M126 80c3 1 3 1 3.95 2.848l.738 2.215.761 2.222L132 89h-4c-2.29-3.435-2.178-4.985-2-9Z"/><path fill="#C40A10" d="M181 45h1v9h-1v-9Zm-1 9c2.49 3.764 2.03 6.866 1.625 11.25l-.336 3.828L181 72h-1c-.195-2.25-.381-4.5-.563-6.75l-.316-3.797c-.1-2.848-.027-4.796.879-7.453Z"/><path fill="#B12924" d="M95 41h8v5l-1-4-5 1 1 13c-2.27-3.404-2.365-5.165-2.625-9.188l-.227-3.292L95 41Z"/><path fill="#C21C18" d="m207 94 3 2c-.967 2.158-1.78 3.79-3.5 5.438-1.899 1.978-2.599 3.998-3.5 6.562h-2c.313-3.375.313-3.375 1-7l3-2c1.205-2.552 1.205-2.552 2-5Z"/><path fill="#394633" d="M131 39h3c1 3 1 3 0 6l14 1v1c-2.27.135-4.54.232-6.813.313l-3.832.175C134 47 134 47 132.051 44.668 131 42 131 42 131 39Z"/><path fill="#BD7667" d="m137 65 9 1 2 8-4-2v-3h-4v-2l-3-1v-1Z"/><path fill="#496959" d="m135 47 10 1-1 2c-2.326.38-4.66.713-7 1l-2 1v5h-1c-.125-7.75-.125-7.75 1-10Z"/><path fill="#D65043" d="M136 42h11l-1 3h-10v-3Z"/><path fill="#365848" d="M162 47h1v6h-2l-1 5-4 1c.621-1.439 1.247-2.876 1.875-4.313l1.055-2.425C160 50 160 50 162 47Z"/><path fill="#440B23" d="m84 47 1 2c2.025.652 2.025.652 4 1l-1 3-12 1 2-1 1-2 5 1v-5Z"/><path fill="#B6B4AD" d="M136 95c6.625-.25 6.625-.25 10 2v2h-4v-3h-2v4h-4v-5Z"/><path fill="#A73A37" d="M131 86h4l2 6c-2.313.688-2.313.688-5 1-1.813-1.438-1.813-1.438-3-3l2-2v-2Z"/><path fill="#9F9D93" d="M161 35c-2.808 2.808-5.245 3.152-9.063 3.188C148 38 148 38 146 36c5.05-1.036 9.874-1.103 15-1Z"/><path fill="#A7AAA2" d="M134 102h12v2c-4.316.762-7.744 1.16-12 0v-2Z"/><path fill="#97543F" d="M77 97h2l2 5h9l-3 3c-7.921-1.943-7.921-1.943-10-5v-3Z"/><path fill="#E2D3D0" d="M4 88h13v2l-2.375.938c-2.548.99-2.548.99-4.625 2.062l-3-1v-3H5l-1 2v-3Z"/><path fill="#A5261E" d="M42 73c2.938.188 2.938.188 6 1 1.375 2.063 1.375 2.063 2 4l-5 1-4-5 1-1Z"/><path fill="#DF7368" d="M40 68v3h-8v7h-1v-9c3.153-.7 5.727-1 9-1Z"/><path fill="#ACB5AC" d="M146 51h5l-1 5h-2v2l3 1h-5v-8Z"/><path fill="#502925" d="M129 33h13l-1 3a485.352 485.352 0 0 1-5.438-.375l-3.058-.21c-.826-.138-1.653-.274-2.504-.415l-1-2Z"/><path fill="#D2B779" d="M90 93h2l1 5c-5.75 1-5.75 1-8 1v-3l1.938-.375L89 95l1-2Z"/><path fill="#B45B43" d="M82 81c2 2 2 2 2 6l3-1 2 1v2h-3l-1 2v-2l-4-2 1-6Z"/><path fill="#BF574E" d="m96 84 1 2 3-2c2.188.375 2.188.375 4 1l-2 1c-1.134 2.017-1.134 2.017-2 4h-2v-2l-4-1 2-1v-2Z"/><path fill="#E7A3A0" d="m58 78 5 1v5h-5v-6Z"/><path fill="#7E4C36" d="m141 70 2 1-1 4 2 1-6 1v-3l-3 1v-2a100.644 100.644 0 0 1 6-3Z"/><path fill="#581C1F" d="m110 103-1 4c-4.61 1.297-8.338.711-13 0v-1l1.863-.148 2.45-.227c.8-.07 1.6-.14 2.425-.21C105.6 104.89 107.091 103 110 103Z"/><path fill="#AF4C4F" d="M108 86h2v7l-1-2h-2l-1 3-2-2c1.152-2.468 2.048-4.048 4-6Z"/><path fill="#CD615B" d="m42 84 1 4-2.25.438c-2.27.464-4.508.98-6.75 1.562v-4c5.75-2 5.75-2 8-2Z"/><path fill="#E0E2DB" d="M9 74h3v5l2 1H5v-3h6v-2l-2-1Z"/><path fill="#CAD7C6" d="M106 62h2c.188 2.875.188 2.875 0 6-3 2-3 2-6 2v-5l1 2h2l1-5Z"/><path fill="#C2C3BB" d="M163 59h2c.25 6.625.25 6.625-2 10-2.215-5.415-2.215-5.415-1.125-8.375L163 59Z"/><path fill="#CB6660" d="m32 58 8 2v2l-4-1-2 4-3-2 1-5Z"/><path fill="#E68C87" d="M64 57h1c.125 6.75.125 6.75-1 9l-6-2 4-1 .438-2.438C63 58 63 58 64 57Z"/><path fill="#342B29" d="M31 52c1.875.25 1.875.25 4 1 1.25 2.063 1.25 2.063 2 4l-3 1c-2.188-1.438-2.188-1.438-4-3l1-3Z"/><path fill="#60101F" d="M99 46h3l-1 6h7v2l-9-1v-7Z"/><path fill="#6B6E69" d="m165 31-1 5c-2.313.688-2.313.688-5 1-1.813-1.438-1.813-1.438-3-3h4v-2c3-1 3-1 5-1Z"/><path fill="#868D6F" d="M119 67h6v2h-2l-1 3-5-1 2-1v-3Z"/><path fill="#B1C3B8" d="M131 52h1v5h3v-5h2c.043 2 .04 4 0 6-1 1-1 1-3.563 1.063L131 59v-7Z"/><path fill="#A2768F" d="M102 47h5l-1 5h-5l1-5Z"/><path fill="#99978E" d="m155 29 9 1-2 3-9-1 2-1v-2Z"/><path fill="#C26F41" d="M106 95c.93 2.606 1.15 3.642.063 6.25L105 103h-3l-1-5h5v-3Z"/><path fill="#C42C24" d="m44 95 4 1v6l-4-1v-6Z"/><path fill="#D2CDC5" d="M160 83c1.62 2.572 2.044 3.677 1.625 6.75L161 92l-3 1c-.18-3.947-.094-6.598 2-10Z"/><path fill="#A86742" d="M41 78h8l1 7-3-1 1-3h-6l-1-3Z"/><path fill="#93A182" d="M161 61c.625 1.875.625 1.875 1 4l-2 2h-3l-2-5 6-1Z"/><path fill="#F57E80" d="M179 32h1c.185 10.558.185 10.558-1 15-2.275-3.539-1.99-5.71-1.125-9.75l.617-2.984L179 32Z"/><path fill="#99867E" d="M119 29h4v2h11v1h-16l1-3Z"/><path fill="#585A55" d="M134 27h8l1 3h-8l-1-3Z"/><path fill="#A16871" d="M72 98h3v2l2 1-2 5-3-2c-.188-3.125-.188-3.125 0-6Z"/><path fill="#E26E59" d="M189 86c5.75.875 5.75.875 8 2v2l-7 1-1-5Z"/><path fill="#D05D58" d="M92 76h10v2c-3.663.75-6.424 1.238-10 0v-2Z"/><path fill="#D8D7D2" d="M114 58h2l1 11h-2c-1.203-2.405-1.1-3.95-1.063-6.625l.028-2.477L114 58Z"/><path fill="#BC8AA8" d="m103 54 7 1v3h-6l-1-4Z"/><path fill="#BC3D37" d="M56 55h9c-1.875 4.75-1.875 4.75-3 7h-3c1.875-3.875 1.875-3.875 3-5l-6-1v-1Z"/><path fill="#3C0815" d="m90 48 5 1-1 5h-3l-1-6Z"/><path fill="#D43E36" d="M134 80v5h-4l-1-4c3-1 3-1 5-1Z"/><path fill="#DF7F6B" d="m128 73 4 2-1 5-3-1v-6Z"/><path fill="#AEA9BB" d="M77 61h17v1H81l-1 2-3-1v-2Z"/><path fill="#A09D98" d="m145 30 8 1v3h-7l-1-4Z"/><path fill="#B91D1C" d="m192 100 3 1 1 7-4-1v-7Z"/><path fill="#CD4045" d="M175 96h2l1 5h2v2l-5-1c-1-3-1-3 0-6Z"/><path fill="#E9938F" d="M204 86c4.677 1.477 4.677 1.477 6.313 4.125L211 92c-2.375-.188-2.375-.188-5-1-1.313-2.563-1.313-2.563-2-5Z"/><path fill="#8E844F" d="m200 82 1 2 3 2h-10v-2c3.75-2 3.75-2 6-2Z"/><path fill="#A4250D" d="M90 82h6v4h-5l-1-4Z"/><path fill="#D29A6B" d="m82 99 2.25.563c2.7.429 4.196.288 6.75-.563l-1 3c-5.75 1.125-5.75 1.125-8 0v-3Z"/><path fill="#BA2217" d="m46 94 5 1-1 3 2 1-4 2-2-7Z"/><path fill="#A15C59" d="M100 59c2.69.176 5.329.618 8 1v1h-7v3h-5v-2l3-2 1-1Z"/><path fill="#B47E98" d="M82 54v4h-5l-1-3c2-1 2-1 6-1Z"/><path fill="#39604F" d="M138 47h11v3h-5v-1l-6-1v-1Z"/><path fill="#7D2A3B" d="M91 101h3v3l2 1h-8c1.313-2 1.313-2 3-4Z"/><path fill="#AD423E" d="m42 101 6 1-2 1v2h-5l1-4Z"/><path fill="#311D13" d="m156 87 1 2c-.938 2.125-.938 2.125-2 4-3-1-3-1-5-2v-2l6-2Z"/><path fill="#D48B6E" d="M38 78h3l2 2h3l-1 3-3 1-2-1v-4l-2-1Z"/><path fill="#E89C8B" d="M38 79h2l2 5-6 1c0-3 0-3 2-5v-1Z"/><path fill="#BA392C" d="M126 70h4v2h-2l-2 7c-1.108-3.325-.845-5.622 0-9Z"/><path fill="#C1D2EF" d="m76 70 4 1-1 5h-3v-6Z"/><path fill="#ECAEA6" d="M58 67h4v5h-4v-5Z"/><path fill="#CF6662" d="m58 64 6 2 1-2c-.375 2.438-.375 2.438-1 5l-2 1v-3l-4-1v-2Z"/><path fill="#ADBBB0" d="m152 51 4 1h-2v2l2 1h-2v2l2 1h-4v-7Z"/><path fill="#B2ABA6" d="M132 27h2l2 3c3.568.736 3.568.736 7 1v1c-1.458.027-2.917.046-4.375.063l-2.46.035C134 32 134 32 132 31v-4Z"/><path fill="#ADAFA7" d="m126 96 8 1-1 3-7-1v-3Z"/><path fill="#AA403A" d="m90 90 3 1-1 2h-2v2l-4-1 4-4Z"/><path fill="#B39074" d="m89 87 4 1v2l-6 2-1-3h3v-2Z"/><path fill="#C56968" d="M139 84h2v2h2v3l-5-1 1-4Z"/><path fill="#BF9874" d="M109 81h1c.25 2.313.25 2.313 0 5-2 1.813-2 1.813-4 3l-2-4 3 1v-3h2v-2Z"/><path fill="#B55A46" d="M133 72h5l-3 1 3 1v2h-6l-1-2h2v-2Z"/><path fill="#C64438" d="M31 64h4v2l5-1 1 2H31v-3Z"/><path fill="#E2C8B8" d="M129 64h8v2l-8 1v-3Z"/><path fill="#8F9E79" d="m119 61 6 1-1 4c-1.938-.813-1.938-.813-4-2l-1-3Z"/><path fill="#244634" d="M151 60c-3.089 2.06-3.71 2.239-7.188 2.125L140 62c1-2 1-2 2.688-2.688 2.937-.396 5.424.097 8.312.688Z"/><path fill="#4F6256" d="M154 52h4l1 3-3 3-2-1v-5Z"/><path fill="#DF8E8D" d="M104 42h5v4l-5-1v-3Z"/><path fill="#CAC2BE" d="m161 97 3 1v6l-1-2-3 1a99.984 99.984 0 0 1 0-5l1-1Z"/><path fill="#7E4B41" d="M136 84h2l2 6h-4a88.406 88.406 0 0 1-1-5l1-1Z"/><path fill="#C1CA96" d="M105 77h2v3h2v3h-4v-6Z"/><path fill="#E8DFD7" d="M147 66h5l-1 4-5-1 1-3Z"/><path fill="#F88B8D" d="M177 43h1c.25 6.625.25 6.625-2 10-1.158-4.054-.837-6.218 1-10Z"/><path fill="#F4C3BD" d="m59 87 3 1-1 4h-3l1-5Z"/><path fill="#B11F16" d="m92 66 1 4-5 1v-3l4-2Z"/></svg>