<svg xmlns="http://www.w3.org/2000/svg" width="82" height="89"><path fill="#039FE0" d="M65.25 17c7.587 7.193 11.846 16.545 12.125 26.938C77.433 55.639 72.613 64.311 65 73l2.375 2c3.27 3.737 3.727 6.184 4.625 11l4 1v2H0l-.313-28.25-.137-8.907c-.015-2.328-.028-4.656-.038-6.984l-.078-3.667-.002-3.505-.033-3.042C.226 31.005 1.95 30.016 5 28l2.55-1.445c2.843-1.804 4.523-3.82 6.638-6.43C27.54 4.934 49.904 4.357 65.25 17ZM47 18l-2 3-3.5.938c-3.568.681-3.568.681-4.938 3.187-.185.619-.37 1.238-.562 1.875 1.61 1.91 2.54 2.9 5.016 3.441l2.234.122C47.42 30.89 51.021 31.73 55 33c-.188 1.875-.188 1.875-1 4-3.775 2.11-7.75 2.5-12 3l3 8-3 1c-1.225 3.008-1.225 3.008-2 6l5 1 3-4 3 1c1.188 2.563 1.188 2.563 2 5 2.993-1.098 3.846-1.677 5.25-4.625L59 51l-1.496-.953-1.941-1.297-1.934-1.266C51.7 45.728 51.385 44.54 51 42l2.117.254 2.758.309 2.742.316c2.4.318 2.4.318 4.383-.879l1-2c1-2 1-2 3-3-.829-7.045-5.03-11.316-10.219-15.703C53.277 18.745 51.45 18 47 18Z"/><path fill="#049EDE" d="M56 11c.875 2.125.875 2.125 1 4l4 1-1 3-14-3-1 6-2.875.25c-3.23.4-3.23.4-4.5 2.813L37 27c2.36 2.36 2.977 2.255 6.188 2.438C47.68 29.83 50.962 31.024 55 33c-.188 2.375-.188 2.375-1 5-4.164 2.732-9.191 2.352-14 2l-2.688-.813c-2.66-.465-2.66-.465-5.562 2.126-3.202 3.128-3.656 3.67-4.063 8.062.03 3.579.03 3.579 1.813 6C33.015 57.66 35.835 57.722 40 58v13h2v2h5l-1 5c-2.062.054-4.125.093-6.188.125l-3.48.07c-3.29-.193-5.366-.843-8.332-2.195l-3.438-.813C20.279 73.76 18.212 72.133 15 69v-2l-1.813-.688c-3.956-2.373-4.982-5.616-6.253-9.93C5.855 51.899 5.668 47.599 5.687 43l-.048-2.29C5.63 30.68 9.403 24.679 16.25 17.493 26.42 8.276 43.34 4.5 56 11Z"/><path fill="#0E0607" d="m8 28-.484 2.45C6.079 40.344 5.446 51.87 10 61l1.188 2.625C16.668 70.807 24.447 76.149 33 79c9.07.728 16.47.752 24.57-3.906 2.998-1.35 5.176-1.38 8.43-1.094 4.515 3.01 4.992 6.958 6 12l4 1v2H0l-.313-28.25-.137-8.907c-.015-2.328-.028-4.656-.038-6.984l-.078-3.667-.002-3.505-.033-3.042C0 32 0 32 2.348 29.645 5 28 5 28 8 28Z"/><path fill="#050505" d="M37.375 38c3.493 1.33 5.278 3.117 7.625 6v4l-2 1a78.037 78.037 0 0 0-2 5l4 1 3-4c1.938.688 1.938.688 4 2 .75 2.625.75 2.625 1 5h2c-1.216 5.415-2.93 10.058-7 14-2.688.625-2.688.625-5 0-2.108-3.162-2.338-4.507-2.625-8.188l-.227-2.73L40 59l-2.082-.297-2.73-.453-2.708-.422C29.434 56.811 28.563 55.768 27 53c-.5-3.438-.5-3.438 0-7 2.313-2.75 2.313-2.75 5-5l1.5-1.875C35 38 35 38 37.375 38Z"/><path fill="#3C1E15" d="m8 28-.484 2.45C5.748 42.621 5.6 55.641 13 66a89.165 89.165 0 0 0 4 4c-3.795 2.214-7.756 3.01-12 4v3h2v2l-7-1c-.127-6.478-.214-12.955-.275-19.434-.025-2.203-.059-4.407-.102-6.61-.06-3.168-.09-6.335-.111-9.503l-.078-2.986c-.003-6.822-.003-6.822 2.909-10.12C5 28 5 28 8 28Z"/><path fill="#109AD2" d="M56 12c8.401 2.363 13.587 9.257 17.773 16.473 2.645 5.448 3.502 9.963 3.477 16.027l.016 3.844c-.259 3.56-.978 6.343-2.266 9.656h-1l.048-2.032c.062-3.052.101-6.103.14-9.156l.076-3.197.029-3.095.048-2.841C73.935 34.489 72.86 32.595 71 30h-1l-1 8-4 1v5l-3-2c1.375-2.5 1.375-2.5 3-5h2c-3.247-7.571-6.524-13.474-14.227-17.027C50.875 19.245 48.94 18.613 47 18l-1 3-1-3 1-2c1.771.141 3.542.288 5.313.438.986.08 1.972.162 2.988.246C57 17 57 17 60 18v-2l-3-1-1-3Z"/><path fill="#38211A" d="M48 51c1.938.688 1.938.688 4 2 .75 2.625.75 2.625 1 5h2c-1.216 5.415-2.93 10.058-7 14-2.688.625-2.688.625-5 0-2.108-3.162-2.338-4.507-2.625-8.188l-.227-2.73L40 59l-8-1 3-1v-3l5-1v2c2.374.334 2.374.334 5 0 1.843-1.9 1.843-1.9 3-4Z"/><path fill="#0A9CD8" d="M31 24h7l-1 3c2.36 2.36 2.977 2.255 6.188 2.438C47.68 29.83 50.962 31.024 55 33c-.188 2.375-.188 2.375-1 5-4.895 3.212-11.516 2.406-17.063 1.5L35 39l-1-3 5-1-1-2-2.938-.438L32 32c-2-3-2-3-1.625-5.688L31 24Z"/><path fill="#1D0A07" d="m8 28-.494 2.622c-.481 3.212-.62 6.19-.604 9.433l.01 3.36.026 3.46.013 3.531c.012 2.865.028 5.73.049 8.594H1l1 4H0a889.483 889.483 0 0 1-.275-13.025C-.3 48.5-.334 47.022-.377 45.546c-.061-2.125-.09-4.248-.111-6.374l-.08-3.872C0 32 0 32 2.343 29.552 5 28 5 28 8 28Z"/><path fill="#0E93CB" d="M40 59h1l.184 2.082.254 2.73c.08.894.162 1.787.246 2.708.25 2.607.25 2.607 1.316 5.48l7-1-1 5h3v-3c2.606-.596 4.76-1.022 7.438-.781 2.682.024 2.682.024 4.582-1.969L65.813 68l1.832-2.25L69 64l2 1c-5.21 8.989-11.499 11.147-21 14l-1 1c-8.99.653-17.097.918-25-4 3.707-1.373 5.443-.464 9 1 2.263.281 4.536.487 6.813.625l3.519.227L46 78v-4l-4-1v-2h-2V59Z"/><path fill="#130301" d="M13 77c4 6 4 6 4 10h2v-2l4-2h-5l-2-4c3.662.627 6.882 1.645 10.313 3.063l2.675 1.097L31 84l-3 4 3.188-1.563C34.486 85.028 36.55 84.621 40 86l2 3H13l1-3h2v-2l-4-2 1-5Z"/><path fill="#331A0F" d="M66 74c4.515 3.01 4.992 6.958 6 12l4 1v2H66v-7h-2v-4l-9 1-1-2c4.165-2.38 7.178-3.734 12-3Z"/><path fill="#3B1E15" d="M14 76c4.444.97 8.34 2.079 12.438 4.063 3.232 1.535 5.743 2.152 9.312 2.312 2.65.172 3.861.303 5.926 2.012C43.062 86.062 43.062 86.062 45 89c-2.867-.573-3.861-.861-6-3-2.892.273-2.892.273-6 1l-2.875.563L28 88l2-4c-1.79-.67-3.582-1.336-5.375-2l-3.023-1.125c-2.46-.981-2.46-.981-4.602-.875l1 2c2.527.656 2.527.656 5 1l-1 2h-3v2h-2c-3-6.5-3-6.5-3-11Z"/><path fill="#45281D" d="M8 79c3.786.54 5.554 2.117 8 5v2h-2l-1 3H0v-9c2 1.375 2 1.375 4 3v2h2l2-6Z"/><path fill="#0C95CF" d="m57 55 1 2h2c1.125 4.75 1.125 4.75 0 7h-2l1 5-5 1v2l-6-1 1.75-2.438c2.273-3.38 3.843-6.96 5.418-10.707C56 56 56 56 57 55Z"/><path fill="#1C0E0B" d="M35 38c3.56.305 5 1 7.813 3.313C45 44 45 44 45 48c-2.23.715-2.23.715-5 1-2.238-1.434-2.238-1.434-4.313-3.438l-2.113-1.996L32 42l3-4Z"/><path fill="#59372B" d="M7 56c1.206 2.332 2.165 4.496 3 7l-1.813.688c-2.406 1.209-2.406 1.209-3.75 3.937L3 70H0v-7h2l-1-4h6v-3Z"/><path fill="#2192BB" d="M68 21c5.868 5.354 8.609 12.044 9.387 19.91C77.466 47.074 77.209 52.2 75 58h-1l.048-2.032c.062-3.052.101-6.103.14-9.156l.076-3.197.029-3.095.048-2.841C73.935 34.487 72.772 32.655 71 30a78.577 78.577 0 0 1-1.688-4.813c-.25-.79-.502-1.58-.761-2.394L68 21Z"/><path fill="#29353E" d="M5 38h1l1 21H1l1 4H0v-8h4l1-17Z"/><path fill="#13151D" d="M40 53v2h2l.184 2.266.254 2.984c.08.975.162 1.95.246 2.953.27 2.383.534 4.532 1.316 6.797 1.984 1.284 1.984 1.284 4 2-2.375.188-2.375.188-5 0-2.108-3.162-2.338-4.507-2.625-8.188l-.227-2.73L40 59l-8-1 3-1v-3c3-1 3-1 5-1Z"/><path fill="#1998CB" d="M58 42c2.313 1.063 2.313 1.063 4 2-3.01.934-3.867 1.044-7 0 .669 3.113.669 3.113 3.063 4.188L60 49v5l-2 1v-4l-2.938-1.938C52 47 52 47 51.126 44.25L51 42c2.722-1.361 4.093-.761 7 0Z"/><path fill="#432214" d="M9 82h2c.381 1.991.713 3.993 1 6-1 1-1 1-3.504 1.098l-3.059-.035-3.066-.028L0 89v-5c4.75 1.875 4.75 1.875 7 3l2-5Z"/><path fill="#3A2E27" d="m66 74 2 3h-2v4h-2v-3l-9 1-1-2c4.162-2.378 7.175-3.658 12-3Z"/><path fill="#210B06" d="M47 52c2 1.813 2 1.813 4 4v3h2l-2 6c-1.938-1-1.938-1-4-3-.929-3.39-1.621-6.758 0-10Z"/><path fill="#2186B4" d="M31 24h7l-1 3 2 3-1 1a176.79 176.79 0 0 1-7-1c-1.125-3.75-1.125-3.75 0-6Z"/><path fill="#1883AD" d="m7 52 2 1v5h2c3 5.75 3 5.75 3 8h2c1.625 2 1.625 2 3 4l-1 2c-1.5-1.375-1.5-1.375-3-3v-2l-1.813-.688C10.28 64.569 9.41 63.087 8 60c-.517-2.68-.769-5.273-1-8Z"/><path fill="#4B2E24" d="M40 83c2.043 1.84 3.393 3.731 5 6-2.867-.573-3.861-.861-6-3-2.892.273-2.892.273-6 1l-2.875.563L28 88c1-3 1-3 3.188-4.188 3.282-.948 5.42-1.377 8.812-.812Z"/><path fill="#441D12" d="M0 43h2c1.998 4.12 2.178 7.452 2 12H0V43Z"/><path fill="#298CB5" d="M53 33h2c-.188 2.375-.188 2.375-1 5-4.149 2.723-9.207 2.45-14 2-3.063-1-3.063-1-5-2v-1h18v-4Z"/><path fill="#279BBF" d="M53 19h4v2l1.75.875L65 25v4l3 1v7c-1.052-1.579-2.093-3.17-3.008-4.832-2.768-4.908-5.759-7.878-10.418-11.04L53 20v-1Z"/><path fill="#2190BB" d="m19 15 2 1-1.496 1.355C14.587 21.78 14.587 21.78 13 28h-2v3l-3 1c-.344-2.105-.344-2.105 0-5 1.775-2.297 3.476-4.266 5.5-6.313l1.59-1.666c1.292-1.35 2.6-2.687 3.91-4.021Z"/><path fill="#169CCB" d="M46 16c10.93.21 10.93.21 14.188 3.563L62 22l-1 2c-2-1.375-2-1.375-4-3v-2l-10-1-1 3-1-3 1-2Z"/><path fill="#0D95C7" d="m34 39-1.277 1.285C28.768 44.52 27.237 47.19 27 53c-2.473-3.71-2.385-5.61-2-10 2.071-4.488 4.32-4.416 9-4Z"/><path fill="#0A6C98" d="M24 75c7.548.755 7.548.755 9.844 2 2.962 1.374 5.66 1.43 8.906 1.625l3.547.227L49 79v1c-17.34.766-17.34.766-25-4v-1Z"/><path fill="#2388B2" d="m69 64 2 1c-4.147 6.55-7.393 9.912-15.059 11.66L54 77l2-5 2.563.5c5.263-.766 7.35-4.408 10.437-8.5Z"/><path fill="#26120F" d="M7 63c3.243.56 4.93 1.413 7 4v2c-2.313.688-2.313.688-5 1-1.875-1.188-1.875-1.188-3-3 .313-2.188.313-2.188 1-4Z"/><path fill="#362F2E" d="m35 38 5 1-2 1-2-1 1.129 1.68 1.434 2.195 1.44 2.18L41 47l-1 2-8-7 3-4Z"/><path fill="#2D0E04" d="m0 78 8 1c-.506 2.169-1 4-2 6H4v-2l-3-1c-.688-2.063-.688-2.063-1-4Z"/><path fill="#4E3E37" d="M7 56c1.206 2.332 2.165 4.496 3 7l-6 1-.375-1.938L3 60l-2-1h6v-3Z"/><path fill="#2194C2" d="M38 8c12.67.779 12.67.779 18 3v1a712.139 712.139 0 0 1-6.188-.375c-1.148-.07-2.297-.14-3.48-.21C43.2 11.024 40.847 10.318 38 9V8Z"/><path fill="#32312B" d="M48 51c1.938.688 1.938.688 4 2 .75 2.625.75 2.625 1 5h2l-1 6h-1v-5h-2c-2.042-2.905-3-4.401-3-8Z"/><path fill="#4B3932" d="m14 67 3 4-10 2v-4h7v-2Z"/><path fill="#2B130E" d="m14 76 2 1 .813 2.5L18 82c2.548.894 2.548.894 5 1l-1 2h-3v2h-2c-3-6.5-3-6.5-3-11Z"/><path fill="#022038" d="m32 42-.938 2.063C29.866 47.37 29.41 50.514 29 54l-2-1c-.366-6.35-.366-6.35 1.375-9.438C30 42 30 42 32 42Z"/><path fill="#11394E" d="M40 58h2l.297 2.555.453 3.32.422 3.305c.537 2.948.537 2.948 2.906 4.203L48 72c-2.375.188-2.375.188-5 0-2.19-3.285-2.353-4.831-2.625-8.688l-.227-3.011L40 58Z"/><path fill="#2C120E" d="M0 56h7v3H1l1 4H0v-7Z"/><path fill="#211619" d="M3 39h2v11c-2.515-2.515-3.16-4.568-4-8l2-3Z"/><path fill="#3C2117" d="m66 77 4 1v4c-2 1.75-2 1.75-4 3v-3l-2-1h2v-4Z"/><path fill="#1B0502" d="M13 77c4.25 6.375 4.25 6.375 4 11l-4 1 1-3h2v-2l-4-2 1-5Z"/><path fill="#110706" d="m45 63 3 1 1 6h-4c-.934-3.01-1.044-3.867 0-7Z"/><path fill="#261009" d="m6 68-1 5-5 1v-4c3.75-2 3.75-2 6-2Z"/><path fill="#05293F" d="M32 27c2.375-.188 2.375-.188 5 0l2 3c-1 1-1 1-3.563 1.063L33 31l-1-4Z"/><path fill="#4E342F" d="m8 28-1 4-7 1c4.625-5 4.625-5 8-5Z"/><path fill="#029FE0" d="M64 21h4l1 6-4 1 1-6-2-1Z"/><path fill="#2F93BA" d="M58 42v1h-5l1 5-3-2v-4c2.667-1.333 4.167-.671 7 0Z"/><path fill="#1E0401" d="M16 79c3.688.498 5.605 1.1 8 4h-6l-2-4Z"/><path fill="#251D20" d="M52 61c.75 1.75.75 1.75 1 4-1.938 2.25-1.938 2.25-4 4-1-1-1-1-1.063-3.563L48 63l3 1 1-3Z"/><path fill="#118CB7" d="M28 39h6a282.832 282.832 0 0 1-5 5h-1v-5Z"/></svg>