<svg xmlns="http://www.w3.org/2000/svg" width="378" height="279"><path fill="#DA4F42" d="M0 0h378v279H0V0Z"/><path fill="#E1E0E0" d="M42 67c4.297 1.719 6.7 3.106 10.25 5.875 5.062 3.88 10.21 7.596 15.438 11.25 5.182 3.632 10.28 7.317 15.238 11.254 3.244 2.535 6.596 4.918 9.933 7.328 3.68 2.686 7.316 5.425 10.954 8.168 6.692 5.038 13.472 9.934 20.302 14.783 10.661 7.59 21.226 15.314 31.752 23.09 7.686 5.674 15.406 11.303 23.19 16.842 1.309.95 2.6 1.926 3.87 2.925 3.16 2.709 3.16 2.709 7.06 3.254 2.08-.795 3.646-1.705 5.454-3l1.99-1.413 2.131-1.543 2.241-1.603c8.103-5.815 16.118-11.751 24.134-17.686 4.334-3.202 8.699-6.362 13.063-9.524 11.955-8.677 23.86-17.42 35.75-26.188a2717.531 2717.531 0 0 1 24.246-17.69l4.504-3.247 2.294-1.652c4.169-3.008 8.32-6.04 12.448-9.102l2.6-1.927c1.657-1.23 3.312-2.464 4.965-3.7l2.279-1.693 2.001-1.495C332 69 332 69 336 67v212H42V67Z"/><path fill="#EDEDED" d="M35 0h309c-4.02 3.216-8.07 6.35-12.188 9.438l-2.11 1.582c-5.873 4.39-11.808 8.69-17.762 12.97-6.478 4.663-12.906 9.39-19.326 14.13a2062.338 2062.338 0 0 1-14.641 10.712c-4.025 2.935-8.029 5.897-12.036 8.855-8.637 6.375-17.329 12.671-26.04 18.945-7.478 5.39-14.91 10.841-22.334 16.305l-2.493 1.833c-3.614 2.663-7.221 5.332-10.785 8.062l-3.16 2.418-2.68 2.078c-2.418 1.654-4.688 2.704-7.445 3.672v2c-3.146-.602-5.062-1.58-7.563-3.563a313.562 313.562 0 0 0-9.187-6.874 601.743 601.743 0 0 1-10.734-7.954c-9.204-6.971-18.49-13.723-28.062-20.18-4.852-3.287-9.48-6.723-13.997-10.464-4.263-3.41-8.753-6.504-13.207-9.656-3.804-2.703-7.535-5.487-11.25-8.309-8.194-6.214-8.194-6.214-16.563-12.188-4.97-3.441-9.827-7.03-14.687-10.624-8.493-6.28-17.02-12.51-25.693-18.54A273.257 273.257 0 0 1 35 1V0Z"/><path fill="#B63623" d="M378 37v242h-41c-.316-27.73-.574-55.457-.725-83.188-.073-12.876-.17-25.752-.331-38.627-.14-11.224-.23-22.447-.261-33.671a1264.96 1264.96 0 0 0-.163-17.825 807.997 807.997 0 0 1-.104-16.788c-.003-2.05-.031-4.1-.085-6.15-.376-15.077-.376-15.077 3.034-19.535 3.768-3.56 8.067-5.835 12.635-8.216a154.793 154.793 0 0 0 5.313-3.898l2.378-1.762 4.711-3.5C375.342 37 375.342 37 378 37Z"/><path fill="#CAC9C9" d="M42 67c4.297 1.719 6.7 3.106 10.25 5.875 5.062 3.88 10.21 7.596 15.438 11.25 5.182 3.632 10.28 7.317 15.238 11.254 3.244 2.535 6.596 4.918 9.933 7.328 3.68 2.686 7.316 5.425 10.954 8.168 6.692 5.038 13.472 9.934 20.302 14.783 10.661 7.59 21.226 15.314 31.752 23.09 8.33 6.15 16.722 12.214 25.133 18.252l1.963 1.41c2.656 1.902 5.318 3.778 8.037 5.59h-3v2l-4 2-4-3-2 1c-2.565-2.565-2.54-4.477-3-8h-2v-2l-1.813-.25c-2.786-.955-3.516-2.395-5.187-4.75h-2v-3l-7 1c-.976-2.928-1.082-4.956-1-8l-2.117.035-2.758.028-2.742.035C146 151 146 151 144 150v-6l-7-1 1-4h-2v-2l-8-1v-3l-4-2v-2l-11-3 3-2-1.875-.875C112 122 112 122 110 120h-4c-3-4.071-3-4.071-3-7l-7-1 3 2c-1.875 5.75-1.875 5.75-3 8l2 1-2 5-4-2v-2h-2a140.075 140.075 0 0 1-5-5l-2.813-2.688C80 114 80 114 80 112l-4-2v-2h-2v-2h-2v-2l-1.75-.75c-2.58-1.433-4.311-3.034-6.25-5.25v-2l-1.75-.688C59.436 93.671 57.973 91.564 56 89l-2-1v-2l-1.875-.75C49.649 83.794 49.049 82.622 48 80h-2v-2h-3v201h-1V67Z"/><path fill="#D7C4C0" d="M88 100a111.034 111.034 0 0 1 9.875 6.5l2.926 2.145L104 111c2.353 1.73 4.708 3.459 7.063 5.188l1.904 1.399a2090.11 2090.11 0 0 0 14.783 10.725 2288.118 2288.118 0 0 1 21.627 15.802c4.941 3.648 9.895 7.278 14.87 10.882 2.184 1.59 4.363 3.187 6.538 4.79l2.019 1.485c1.3.957 2.598 1.915 3.896 2.874A255.403 255.403 0 0 0 188 172l3 2h-3v2l-4 2-4-3-2 1c-2.565-2.565-2.54-4.477-3-8h-2v-2l-1.813-.25c-2.786-.955-3.516-2.395-5.187-4.75h-2v-3l-7 1c-.976-2.928-1.082-4.956-1-8l-2.117.035-2.758.028-2.742.035C146 151 146 151 144 150v-6l-7-1 1-4h-2v-2l-8-1v-3l-4-2v-2l-11-3 3-2-1.875-.875C112 122 112 122 110 120h-4c-3-4.071-3-4.071-3-7l-1.813-.875C99 111 99 111 96 109v-2l-9-3 1-4Z"/><path fill="#CD9895" d="M42 67c4.383 1.753 6.97 3.297 10.625 6.125l3.148 2.414 1.609 1.235c3.488 2.642 7.07 5.158 10.634 7.695L70 86v1l-2.3-.324-3.013-.364c-1.479-.19-1.479-.19-2.988-.386-2.743-.196-2.743-.196-4.554 1.554L56 89l-2-1v-2l-1.875-.75C49.649 83.794 49.049 82.622 48 80h-2v-2h-3v201h-1V67Z"/><path fill="#BC6962" d="M337 65v214h-1l-1-211-8 5c.326-3.018.61-4.597 2.75-6.813C332 65 332 65 337 65Z"/><path fill="#B74E45" d="m40 65 3 2c.282 2.836.367 5.452.323 8.289l-.005 2.628c-.009 2.924-.039 5.847-.07 8.771-.01 2.089-.02 4.178-.027 6.267-.026 5.686-.071 11.371-.119 17.057-.047 5.936-.076 11.873-.108 17.809-.062 11.248-.14 22.496-.223 33.744-.094 12.803-.171 25.606-.247 38.408-.156 26.343-.333 52.685-.524 79.027h-1l-.013-3.16c-.103-25.39-.212-50.78-.326-76.169-.056-12.278-.11-24.556-.158-36.834-.043-10.702-.09-21.405-.14-32.107-.026-5.666-.051-11.332-.072-16.998-.02-5.336-.044-10.672-.071-16.008-.01-1.956-.018-3.911-.023-5.867-.009-2.676-.023-5.353-.039-8.03l-.003-2.326c-.035-4.644-.403-9.143-1.04-13.745L39 66l1-1Z"/><path fill="#CC5D54" d="M258 124c-2.04 1.586-4.082 3.169-6.125 4.75l-1.727 1.344c-3.622 2.799-7.337 5.366-11.148 7.906a544.04 544.04 0 0 0-5.854 4.385c-3.742 2.816-7.539 5.557-11.333 8.303l-2.366 1.72c-3.731 2.7-7.435 5.317-11.447 7.592.545-3.815 2.11-5.523 5-8 1.962-1.104 3.916-1.966 6-2.813 2.215-1.143 2.215-1.143 3.875-3.687 2.547-2.997 4.409-3.416 8.125-4.5 3.669-2.14 4.537-4.098 6-8 1.625-1.813 1.625-1.813 3-3l3 2v-2h3l1-3h4v-3c4.75-1.125 4.75-1.125 7 0Z"/><path fill="#D7C3BA" d="M88 100a111.034 111.034 0 0 1 9.875 6.5l2.898 2.125 1.566 1.152c2.409 1.773 4.821 3.541 7.234 5.31l3.845 2.82A3808.131 3808.131 0 0 0 130 130c-2.375.836-3.57 1.162-5.965.258l-1.972-1.133c-3.029-1.642-5.603-2.692-9.063-3.125l3-2-1.875-.875C112 122 112 122 110 120h-4c-3-4.071-3-4.071-3-7l-1.813-.875C99 111 99 111 96 109v-2l-9-3 1-4Z"/><path fill="#CD5B55" d="M96 45c4.496 2.543 8.524 5.568 12.625 8.688a6680.684 6680.684 0 0 0 6.408 4.834C122.57 64.183 130.258 69.626 138 75l-1 2c-1.938-.375-1.938-.375-4-1l-1-2c-2.937-2.01-4.392-3-8-3-2.253-1.911-3.768-3.522-5.063-6.188-.856-2.173-.856-2.173-3.937-2.812v-2l-6-1v-2h-2v-2h-2v-2l-9 1v-9Z"/><path fill="#F2ECE6" d="M172 100h7v3h3l1 4h8l.813-1.875C193 103 193 103 196 101c2.48-.414 2.48-.414 5.188-.625l2.73-.227L206 100c-3.928 4.174-8.165 7.894-13 11h-2v2c-3.258-.607-5.223-1.704-7.813-3.75-2.687-2.092-5.391-4.117-8.187-6.063L172 101v-1Z"/><path fill="#CC625A" d="m332 8 2 1c-1.451 3.825-3.382 5.19-7 7h-2v2l-2.875.688L319 20l-.938 2.375C316.5 26.237 313.695 27.355 310 29c-2.438.75-2.438.75-4 1l-.313 1.813c-.845 2.689-1.3 3.647-3.687 5.187-2.718.253-5.259.135-8 0 3.633-3.977 7.877-6.905 12.25-10 8.684-6.203 17.238-12.564 25.75-19Z"/><path fill="#D1594D" d="m170 159 6 2v2h5l1 2a84.76 84.76 0 0 0 7-2l2 1v-2l2 1 1 3 1.875-.938L200 163l2 2a352.654 352.654 0 0 1-5.188 4.063l-2.917 2.285C191 173 191 173 188.55 173.05c-3.489-1.437-6.264-3.58-9.176-5.926l-1.734-1.355c-2.694-2.124-5.298-4.26-7.641-6.77Z"/><path fill="#C8635B" d="M138 76c6.501 3.352 12.18 7.238 17.875 11.813a3790.53 3790.53 0 0 0 4.746 3.746l2.285 1.804c5.262 4.114 10.727 7.952 16.168 11.825l3.051 2.187 2.758 1.96C187 111 187 111 188 113l-7-2-.215-1.89c-.585-2.302-.585-2.302-2.851-3.157l-2.496-.703-2.504-.734L171 104v-3l-2.25-.25c-3.293-.898-4.61-2.134-6.75-4.75v-2l-2.875-.813C156 92 156 92 154 89c-2.405-1.444-2.405-1.444-5.125-2.688l-2.758-1.324L144 84v-2l-1.875-.188C140 81 140 81 138.75 78.439L138 76Z"/><path fill="#D25C55" d="M219 92c0 3 0 3-2.25 5.313L214 100l-2.063 3.313L210 106h-4a248.794 248.794 0 0 0-4 3c-3.619 1.386-7.187 2.327-11 3 5.41-4.356 10.92-8.578 16.435-12.799 1.377-1.057 2.749-2.12 4.12-3.185l2.132-1.641 1.825-1.414C217 92 217 92 219 92Z"/><path fill="#F4E3DD" d="m122 63 8 1v5l3-1c2.188.938 2.188.938 4 2l4-3-1 7 4 2v3l2.813.875C150 81 150 81 153 83l-1 3c-4.046-2.882-8.088-5.77-12.127-8.662a1560.908 1560.908 0 0 0-5.076-3.608c-4.63-3.308-8.97-6.506-12.797-10.73Z"/><path fill="#E9CEC7" d="M216 155v2h-2l-2 6h-2l1 4h-6c-1.7.944-3.36 1.957-5 3a472.554 472.554 0 0 1-3.813 2.188L193 174l-2-2 1.573-1.13c2.372-1.705 4.744-3.413 7.114-5.12l2.475-1.777c3.331-2.4 6.617-4.792 9.795-7.395C214 155 214 155 216 155Z"/><path fill="#CB635D" d="m245 72 3 3-5 1v2c-2.647 1.46-3.894 2-7 2l-.125 1.75c-1.314 3.38-3.859 4.357-6.875 6.25l-2 2.25c-2 1.75-2 1.75-5.25 2L219 92c3.665-3.872 7.502-6.964 11.875-10l1.777-1.25c1.178-.829 2.358-1.655 3.538-2.48 2.951-2.07 5.88-4.171 8.81-6.27Z"/><path fill="#CC625D" d="m327 74-1.589 1.146-7.161 5.166-2.5 1.803a324529482.318 324529482.318 0 0 0-4.644 3.351 135.141 135.141 0 0 0-4.252 3.23C305 90 305 90 303 90v-4l-2-1v-2l3-1v2l6-1v-2l2.375-.25c2.772-.478 2.772-.478 3.938-2.813L317 76h4v-2c2.49-1.245 3.41-.777 6 0Z"/><path fill="#FAD7D1" d="m255 62 2 2c-7.75 6.123-15.535 11.877-24 17 .837-3.552 1.691-6.095 4-9 1.94-.927 3.886-1.586 5.93-2.25 3.632-1.316 7.3-3.208 9.07-6.75l3-1Z"/><path fill="#D3564C" d="M293 37c0 3.292-.505 5.085-2 8-1.813 1.125-1.813 1.125-4 2-2.67 1.526-4.821 2.821-7 5-2.655.565-5.291.738-8 1 3.418-3.619 6.819-6.318 11-9a999.852 999.852 0 0 0 5.375-3.75l2.648-1.86L293 37Z"/><path fill="#F0CBC9" d="m245 133 1 2-1 2-4 1-1 2-2.063 1.188c-5.04 3.11-9.643 6.87-12.937 11.812-2.164.73-2.164.73-4.625 1.188l-2.477.48L216 155c3.656-4.022 7.679-6.964 12.16-10.023 4.215-2.934 8.284-6.05 12.371-9.157C243 134 243 134 245 133Z"/><path fill="#C7645C" d="M82 95h7v3l3 1v2l1.938.313L96 102l1 3c2.327.69 4.66 1.355 7 2 1.938 1.625 1.938 1.625 3 3l-1 2 4 1v2c-3.553-1.275-6.207-2.74-9.125-5.125-4.39-3.52-8.91-6.814-13.492-10.078C85.399 98.3 83.689 96.812 82 95Z"/><path fill="#F4CBC7" d="M319 79v3h-2l-1 2c-2.438 2.625-2.438 2.625-5 5h-2l-1 3c-1.664.674-3.33 1.34-5 2l-1.813 2c-3.14 2.872-6.042 3.171-10.187 4 3.784-4.173 8.312-7.25 12.875-10.5l2.395-1.723C310.463 84.77 314.686 81.83 319 79Z"/><path fill="#E4B3AC" d="M43 67c1.732 1.08 3.46 2.164 5.188 3.25l2.917 1.828C53.88 73.92 56.415 75.904 59 78c2.91 2.117 5.838 4.206 8.77 6.293L70 86v1c-7.75-.75-7.75-.75-10-3l-.813-1.938C57.638 79.37 55.65 78.534 53 77v-2c-2.974-1.24-5.853-2.3-9-3l-1-5Z"/><path fill="#CC615B" d="m271 53 1 2h-2v3h-2l-.625 2.375C266 63 266 63 263.062 64.25L260 65c-3.278.752-3.278.752-5 4-2.625.688-2.625.688-5 1v2l-4-1 2.676-1.906A2377.45 2377.45 0 0 0 271 53Z"/><path fill="#DCBCB3" d="M88 100c3.592 2.09 6.963 4.355 10.313 6.813l2.882 2.113A1245.16 1245.16 0 0 1 112 117c-3 1-3 1-6.188-.438L103 115v-2l-1.813-.875C99 111 99 111 96 109v-2l-9-3 1-4Z"/><path fill="#CDCAC7" d="M188.375 171.563 191 173l-3 1v2l-4 2-4-3-2 1-2-2v-4c4.692-1.564 7.953-.485 12.375 1.563Z"/><path fill="#CF5F5B" d="M68 25c7.668 3.853 14.245 8.754 21 14-2.4.841-3.65 1.112-6.105.328l-2.082-1.078-2.106-1.047C77 36 77 36 76 33h-4l-2-6h-2v-2Z"/><path fill="#DA534D" d="M46 9c5.294 2.891 10.11 6.14 14.938 9.75l2.072 1.535C64.676 21.52 66.338 22.76 68 24c-3.766 1.255-5.372.37-9-1v-2l-1.75-.875L51 17v-4l-5-2V9Z"/><path fill="#CE5C51" d="m63 78 3.813 2.375 2.144 1.336A239.714 239.714 0 0 1 74 85v3l2.313.875C79 90 79 90 82 92l-1 3-20-15 2-2Z"/><path fill="#CE5E56" d="m284 100 4 2c-2.58 1.964-5.164 3.92-7.75 5.875-.73.556-1.46 1.111-2.21 1.684l-2.15 1.62-1.967 1.492c-1.908 1.319-3.826 2.346-5.923 3.329l-1-3h2v-2h3l1-3c5.222-3 5.222-3 8-3v-2l3-1v-2Z"/><path fill="#D0C5C1" d="M43 70c5 1.857 8.986 3.479 12 8 2.05 1.192 2.05 1.192 4 2-2.49 1.245-3.41.777-6 0v-2l-3-1-3 2c-2.188-.375-2.188-.375-4-1v-8Z"/><path fill="#F8D4CF" d="M93 42h3v2h5l.625 1.875c1.261 2.434 1.261 2.434 4.375 3.125 3 1 3 1 4.063 3.063L111 54c2.555.812 2.555.812 5 1v4c-3.658-1.633-6.636-3.886-9.813-6.313-3.44-2.619-6.89-5.213-10.437-7.687L93 43v-1Z"/><path fill="#CB6660" d="M112 117c6.443 1.546 10.904 3.855 15.625 8.688 2.104 2.45 2.104 2.45 4.563 2.812l1.812.5c1.25 2.563 1.25 2.563 2 5-4.466-1.48-7.812-3.966-11.438-6.875-3.255-2.584-6.484-5.116-9.972-7.383L112 118v-1Z"/><path fill="#CC635A" d="m139 133 1 3h2v2l3.375.938C149 140 149 140 151 141v2h2l1 3 2 1-1 2a2934.866 2934.866 0 0 1-8.938-6.375l-2.576-1.828-2.45-1.758-2.27-1.619C137 136 137 136 136 134l3-1Z"/><path fill="#ECCBC4" d="M283 106v3h-2v2l-3 2-1 3-9 1c10.353-11 10.353-11 15-11Z"/><path fill="#FADCD8" d="m284 40 3 1c-3.636 3.856-7.417 6.867-11.813 9.813l-1.81 1.232A966.07 966.07 0 0 1 269 55l-1-3h3l1-3c1.325-.684 2.659-1.35 4-2l2-3a113.158 113.158 0 0 1 5-3l1-1Z"/><path fill="#CF5A54" d="M156 149c3.794-.353 5.507-.344 8.688 1.875L167 153l3 2v4c-3.327-1.547-6.247-3.46-9.25-5.563l-2.703-1.878L156 150v-1Z"/><path fill="#F7D6CE" d="M52 12c4.383.487 6.032 1.834 9 5l3 1v2l5 1 1 3 2 1-1 2a2934.866 2934.866 0 0 1-8.938-6.375l-2.576-1.828-2.45-1.758-2.27-1.619C53 14 53 14 52 12Z"/><path fill="#F7D3CE" d="m122 63 8 1v5l3-1 2 1 1 3 2 1-1 2c-5.42-3.652-10.59-7.149-15-12Z"/><path fill="#F8D8D6" d="M35 0c5.478-.365 5.478-.365 7.875 1.313C44 3 44 3 44 6l7 2 1 4c-3.737-1.327-6.531-2.966-9.625-5.438l-2.29-1.808A64.674 64.674 0 0 1 35 0Z"/><path fill="#DDBFBA" d="M159 152a218.968 218.968 0 0 1 15 10c-2 1-2 1-5 .063L166 161h-2v-3l-4 1-1-7Z"/><path fill="#F6D4CE" d="M172 100h7v3h3l3 6c-3.088-1.466-5.905-3.17-8.75-5.063l-2.422-1.597L172 101v-1Z"/><path fill="#D05B55" d="m303 82 1 2 6-1c-.386 2.798-.801 3.82-2.938 5.75C305 90 305 90 303 90v-4l-2-1v-2l2-1Z"/><path fill="#D05D55" d="M306 31c-.947 2.368-1.653 3.752-3.75 5.25-2.828.943-5.29.885-8.25.75 3.89-4.025 6.233-6.312 12-6Z"/><path fill="#ECD0CC" d="m257 124 2 1c-1 3-1 3-2.875 4L254 130l-1.438 1.625C251 133 251 133 248.313 133.188L246 133c3.329-3.595 6.99-6.224 11-9Z"/><path fill="#CA6461" d="M33 0c5.09 1.59 8.875 4.745 13 8-3 1-3 1-5.188.063L39 7V5l-7-1 1-4Z"/><path fill="#C7635D" d="M47 69h5l.125 1.875L53 73c1.996.68 3.996 1.346 6 2 1.375 2.125 1.375 2.125 2 4-3.809-1.346-6.654-3.054-9.813-5.563l-2.394-1.878L47 70v-1Z"/><path fill="#CC5E55" d="M337 65c-1.124 3.371-1.472 3.559-4.438 5.125l-1.87 1.008c-1.228.629-2.459 1.25-3.692 1.867.326-3.018.61-4.597 2.75-6.813 2.622-1.383 4.327-1.43 7.25-1.187Z"/><path fill="#C75F58" d="m300 89 3 1c-4.14 4.54-8.824 7.718-14 11l-1-2c4.75-4 4.75-4 7-4v-2l1.938-.875c2.214-.953 2.214-.953 3.062-3.125Z"/><path fill="#D8BDB8" d="M59 81c5.35.373 7.51 1.996 11 6-7.75-.75-7.75-.75-10-3l-1-3Z"/><path fill="#FAD8D1" d="m302 31-13 10-1-3 5-2v-2h3v-3c3-1 3-1 6 0Z"/><path fill="#CF6C67" d="m332 8 2 1c-1.462 3.88-3.319 5.041-7 6.813l-2.688 1.332L322 18l-2-1 12-9Z"/><path fill="#D45E58" d="M227.563 85.938 230 86c-2.995 4.228-2.995 4.228-5 6-3.313.375-3.313.375-6 0 6-6 6-6 8.563-6.063Z"/><path fill="#EED1C9" d="m329 71 2 1v2c-1.645 1.543-1.645 1.543-3.813 3.188l-2.144 1.667L323 80l-3-1c2.853-2.932 5.65-5.643 9-8Z"/><path fill="#F8DED6" d="M337 0h7l-5 4-2.688 2.25C334 8 334 8 332 8c1.016-3.049 1.774-3.867 4-6l1-2Z"/><path fill="#C9655F" d="M181 167c1.418.285 2.834.578 4.25.875l2.39.492c2.328.625 4.25 1.481 6.36 2.633-3 2-3 2-5.375 1.938-3.44-1.229-5.213-3.25-7.625-5.938Z"/><path fill="#F7D3CF" d="M160 91h5v2l1.813.875C169 95 169 95 172 97l-1 3a1771.912 1771.912 0 0 1-5.5-3.938l-3.094-2.214L160 92v-1Z"/><path fill="#F7E1E0" d="m244 72-3 1-1 2h-2l-.25 1.875C237 79 237 79 234.937 80.25L233 81c.647-3.492 1.96-6.097 4-9 3.133-1.044 3.99-.934 7 0Z"/><path fill="#DA5B55" d="m0 0 4 1-1 8H0V0Z"/><path fill="#C9645E" d="m258 124-9 7-2-4h4v-3c4.75-1.125 4.75-1.125 7 0Z"/><path fill="#F7C9C1" d="m195 106 2 2c-3.75 3-3.75 3-6 3v2c-1.875-.313-1.875-.313-4-1l-2-3h9l1-3Z"/><path fill="#FADCD2" d="m220 87 4 1-11 8c0-3 0-3 1.313-4.625C216 90 216 90 219 89l1-2Z"/><path fill="#C7615A" d="M70 86h4v2l2.313.875C79 90 79 90 82 92l-1 3a1771.912 1771.912 0 0 1-5.5-3.938l-3.094-2.214L70 87v-1Z"/><path fill="#EDE0D8" d="M335 69v8c-3-1-3-1-4.25-2.938L330 72c1.179-2.357 2.207-3 5-3Zm-6 5 2 1Z"/><path fill="#FCDAD1" d="m310 22 3 1a367.114 367.114 0 0 1-4.313 3.563l-2.425 2.003L304 30l-3-1c1.813-2 1.813-2 4-4h3v-2l2-1Z"/><path fill="#C6645E" d="M56 16c4.81 2.547 8.324 4.99 12 9-5.187-.314-8.595-3.3-12-7v-2Z"/><path fill="#CB645E" d="m344 0 1 2-1 2h-2l-1 3-7 1c3.11-3.288 6.016-5.837 10-8Z"/><path fill="#C66664" d="M268 117a617.075 617.075 0 0 1-3.875 3l-2.18 1.688C260 123 260 123 258 123c3.94-7.88 3.94-7.88 10-6Z"/><path fill="#D9BDC0" d="m82 96 6 3v1h-5v2h-3v-4h2v-2Z"/><path fill="#C96B63" d="m293 37 1 2-2 1-1 3c-2.066.95-2.066.95-4.563 1.688l-2.503.761L282 46c3.434-3.636 6.797-6.361 11-9Z"/><path fill="#F9DED9" d="m332 9-9 7-1-3c5.23-5.59 5.23-5.59 10-4Z"/><path fill="#D0C9CD" d="M158 152c1.563 1.25 1.563 1.25 3 3-.313 2.188-.313 2.188-1 4h-4v-6l2-1Z"/><path fill="#CC6767" d="m236 136 4 1-9 7-2-2 2.938-1.875c3.09-1.782 3.09-1.782 4.062-4.125Z"/><path fill="#B74538" d="m40 65 3 2-1 9-2-1c-.45-2.031-.45-2.031-.688-4.5l-.261-2.469L39 66l1-1Z"/><path fill="#CF5C59" d="M82 95h7v3l3 1-2 1c-1.945-.777-1.945-.777-4.125-1.938L83.68 96.91 82 96v-1Z"/><path fill="#C7D0CC" d="m180 171 8 4-4 3c-2-1.25-2-1.25-4-3v-4Z"/><path fill="#EFC2C0" d="m245 133 1 2-1 2-4 1-1 2c-2.563.625-2.563.625-5 1 3.11-3.288 6.016-5.837 10-8Z"/><path fill="#C66661" d="M201 104c0 3 0 3-1 5-4.25 3.101-4.25 3.101-7.313 2.688L191 111l2.75-1.813c2.479-1.668 4.883-3.366 7.25-5.187Z"/><path fill="#E1B2AF" d="M72 88c3.984 2.163 6.89 4.712 10 8-4.005-.616-6.83-2.55-10-5v-3Z"/><path fill="#CB645F" d="M96 45c3.534 1.963 6.245 4.04 9 7h-5v-3l-4-1v-3Z"/><path fill="#E1514A" d="m193 161 5 1-1 4h-4l-1-3 1-2Z"/><path fill="#E2BEBB" d="m150 145 9 6-1 2h-2v-2h-3c-1.688-1.313-1.688-1.313-3-3v-3Z"/><path fill="#CEC9CB" d="M124 129c2.938.75 2.938.75 6 2 .875 2.125.875 2.125 1 4l-3 1v-3l-4-2v-2Z"/><path fill="#F8D5CD" d="M142 78c4.053 1.225 7.444 2.699 11 5l-1 3c-1.67-1.142-3.335-2.289-5-3.438l-2.813-1.933L142 79v-1Z"/><path fill="#E3BFB5" d="m182 169 9 4c-3 2-3 2-6 2-3-3.333-3-3.333-3-6Z"/><path fill="#CD6361" d="m199 163 3 2-7 5-1-3 5-4Z"/><path fill="#C56D6A" d="M156 149c2.438.375 2.438.375 5 1l1 2c2.017 1.134 2.017 1.134 4 2l-1 2c-1.503-.975-3.002-1.955-4.5-2.938l-2.531-1.652L156 150v-1Z"/><path fill="#CA6152" d="M144 82h2v2l2.313-.25C151 84 151 84 152.813 86L154 88c-3.669-.706-6.705-2.277-10-4v-2Z"/><path fill="#C96B63" d="m279 47 1 3c-1.75 1.563-1.75 1.563-4 3l-4-1 7-5Z"/><path fill="#F7C7C1" d="M42 5c1.485.396 2.963.818 4.438 1.25l2.496.703C51 8 51 8 51.785 10.11L52 12c-4.435-1.394-6.874-3.606-10-7Z"/><path fill="#ECD5D0" d="M276 113h2l-1 3-9 1 2-3 6 1v-2Z"/><path fill="#EEC7C4" d="m289 100 4 2c-3 1-3 1-5 1v2l-5 1 6-6Z"/><path fill="#F6CBC2" d="m108 53 8 2v4c-3.366-1.443-5.51-3.333-8-6Z"/><path fill="#F7DDD6" d="m78 31 9 2-2 4a697.93 697.93 0 0 1-3.5-2.438l-1.969-1.37L78 32v-1Z"/><path fill="#FADED4" d="m317 16 4 1c-5.75 5-5.75 5-8 5v-3l3-1 1-2Z"/><path fill="#C6615C" d="M46 9c7.571 4.143 7.571 4.143 10 7l-5-1v-2l-5-2V9Z"/><path fill="#D4554F" d="M340 6v2l-7 4V9c4.222-3 4.222-3 7-3Z"/><path fill="#E2D9D3" d="m218 154 3 1-6 5-2-1 1-2h2v-2l2-1Z"/><path fill="#F2CBC3" d="m257 124 2 1-1 3-6 1 5-5Z"/><path fill="#D05953" d="m33 0 5 2v3l-6-1 1-4Z"/><path fill="#E5D6D3" d="M195 173v2c-2.375 1.063-2.375 1.063-5 2l-2-1v-2c3-1 3-1 7-1Z"/><path fill="#FBD7CE" d="m203 100 3 1c-5.75 5-5.75 5-8 5l2-4h3v-2Z"/><path fill="#F9D7CF" d="m265 54 3 1a141.4 141.4 0 0 1-5 5h-2v-3c1.813-1.75 1.813-1.75 4-3Z"/><path fill="#CB4134" d="M8 42c3.653 1.25 4.78 1.671 7 5-2.375-.25-2.375-.25-5-1-1.313-2.063-1.313-2.063-2-4Z"/></svg>