<svg xmlns="http://www.w3.org/2000/svg" width="360" height="360"><path fill="#1C579E" d="m142.35 6.839 2.689-.015c2.911-.015 5.823-.022 8.734-.027l3.046-.009c5.326-.015 10.652-.024 15.977-.028 5.448-.006 10.894-.03 16.342-.058 4.235-.019 8.47-.024 12.705-.026 2.005-.003 4.01-.01 6.015-.024C247.864 6.406 283.123 18.801 312 47l2.352 2.164c22.83 21.54 37.383 54.809 38.747 86.1.043 2.363.059 4.723.062 7.085l.015 2.69c.015 2.911.022 5.823.027 8.734l.009 3.046c.015 5.326.024 10.652.028 15.977.006 5.448.03 10.894.058 16.342.019 4.235.024 8.47.026 12.705.003 2.005.01 4.01.024 6.015.253 41.08-13.318 77.03-42.348 106.517-18.868 18.543-43.905 31.913-70 36.625l-2.725.504c-10.854 1.781-21.564 1.806-32.537 1.797l-6.126.013c-4.262.007-8.524.007-12.786.002-5.407-.006-10.815.01-16.223.034-4.213.015-8.427.016-12.64.013-1.991 0-3.983.005-5.974.015-41.02.185-76.76-13.407-106.301-42.253-28.146-28.49-39.227-66.564-39.086-105.777a2909.164 2909.164 0 0 1 .007-18.823c.017-5.377.007-10.753-.01-16.129-.012-4.196-.008-8.393 0-12.59.002-1.979 0-3.959-.008-5.939C6.481 112.505 18.731 77.85 46 49l2.262-2.457c24.04-25.232 59.39-39.657 94.087-39.704Z"/><path fill="#FCFDFE" d="m213.629 58.805 2.355.006c2.86.01 5.72.038 8.578.064L244 59v41c-17.625.25-17.625.25-23.155.298-1.461.03-2.923.06-4.384.093l-2.263.003c-5.144.14-8.112 1.224-12.198 4.606-2.023 3.034-2.256 3.688-2.319 7.104l-.06 2.522-.035 2.636-.054 2.433c-.063 2.997-.109 5.995-.157 8.993L199 149h43c-.645 5.802-1.351 11.236-2.629 16.879l-.854 3.87-1.08 4.814L234 190h-35v111h-41V190h-42v-41h42l-.07-9.527a7369.41 7369.41 0 0 1-.04-9.205c-.01-2.12-.023-4.242-.04-6.363-.025-3.06-.037-6.121-.045-9.182l-.032-2.842c-.001-8.915 1.506-16.538 5.79-24.381l1.065-1.957c6.85-12.064 18.913-21.347 32.332-25.09 5.633-1.35 10.89-1.72 16.669-1.648Z"/><path fill="#134886" d="M117 191h40v41l-1-2h-2a92.8 92.8 0 0 1-3.813-4.75c-2.182-2.888-4.11-5.189-6.949-7.453L141 216v-2l-3-1v-2h-2a139.6 139.6 0 0 1-5-5l-2.79-2.79L120 195l-1.836-1.773C117 192 117 192 117 191Z"/><path fill="#265387" d="M199 191h8v1l-6 2 .007 3.915c.02 12.168.035 24.337.045 36.506.005 6.256.012 12.512.023 18.768.011 6.037.017 12.073.02 18.11.002 2.304.005 4.608.01 6.912.008 3.225.009 6.45.009 9.674l.01 2.893-.004 2.672.003 2.31C201 298 201 298 200 303h-41v-2h40V191Z"/><path fill="#6789B7" d="m14 100 .457 1.836c.401 1.599.813 3.195 1.23 4.789L16 109l-2 2c.357 1.931.357 1.931 1 4v4l-2 1a69.17 69.17 0 0 0-1 4l-1.016 2.337c-1.007 2.725-1.231 4.63-1.225 7.516l-.008 2.877.022 3.119v3.312c0 3.61.016 7.218.032 10.827l.008 7.512c.007 5.914.023 11.829.043 17.743.025 7.396.035 14.792.046 22.189.022 13.19.056 26.379.098 39.568H9c-2.174-11.786-2.31-23.317-2.3-35.262l-.014-6.126c-.007-4.262-.007-8.524-.002-12.786.006-5.407-.01-10.815-.034-16.223-.015-4.213-.016-8.427-.013-12.64 0-1.991-.005-3.983-.015-5.974C6.54 133.991 8.478 117.183 14 100Z"/><path fill="#204A7B" d="m213.125 100.938 3.883.027L220 101c-2.83 1.576-4.138 2.005-7.5 2.125-3.514.467-3.514.467-4.734 2.68-1.037 2.172-1.037 2.172-1.844 4.382C205 112 205 112 202 113c-1.014 11.453-.862 22.538 0 34 13.244.105 26.43.104 39.648-.781A97.554 97.554 0 0 1 248 146c.25 2.313.25 2.313 0 5-2 1.813-2 1.813-4 3l-1-5h-44l-.313-20.125-.137-6.32c-.015-1.667-.028-3.334-.038-5l-.078-2.59c-.003-4.3.212-7.087 2.972-10.5 4.04-3.84 6.212-3.578 11.719-3.528Z"/><path fill="#6587B6" d="M154.613 6.77h6.198c4.304.002 8.608.01 12.912.024 5.498.017 10.997.021 16.495.02 4.256 0 8.512.006 12.768.013 2.027.003 4.055.005 6.082.006 2.835.002 5.669.011 8.504.022l2.498-.002c5.378.03 10.593.477 15.93 1.147v1l-3.997.004c-12.517.017-25.034.06-37.55.128-6.433.034-12.866.06-19.299.064-6.225.004-12.45.033-18.674.077-2.358.013-4.715.018-7.073.013-13.518-.02-25.793.9-38.845 4.547C106.055 15.08 101.655 15.593 97 16c3.789-2.526 7.44-3.363 11.813-4.5l2.35-.645c14.48-3.81 28.586-4.143 43.45-4.085Z"/><path fill="#6688B4" d="m232.23 348.902 2.432.01 2.525.026 2.561.013c2.084.012 4.168.03 6.252.049v1c-13.816 2.637-27.092 3.421-41.137 3.328-2.06-.003-4.122-.005-6.183-.006-4.279-.004-8.557-.018-12.835-.04-5.468-.03-10.936-.04-16.404-.044-5.255-.006-10.51-.02-15.765-.035l-3.002-.006a2689 2689 0 0 1-8.438-.036l-2.486-.003c-4.997-.037-9.802-.45-14.75-1.158v-1l3.776-.031c11.728-.098 23.456-.2 35.184-.308 6.03-.056 12.06-.109 18.09-.158 5.815-.048 11.631-.1 17.447-.156 2.222-.02 4.444-.04 6.666-.056 3.106-.024 6.211-.054 9.317-.086l2.8-.017 2.563-.03 2.226-.02c3.2-.23 5.88-1.259 9.161-1.236Z"/><path fill="#DBECFA" d="M204 59h40v41h-31v-1l2.554-.076c3.118-.095 6.236-.194 9.354-.296 1.351-.044 2.702-.085 4.054-.125 1.938-.058 3.877-.122 5.815-.187l3.54-.11c2.6.093 2.6.093 3.683-1.206.113-2.498.164-4.966.168-7.465l.01-2.268c.005-1.586.007-3.173.007-4.759.002-2.432.02-4.863.04-7.295.003-1.539.005-3.077.005-4.615l.022-2.213c.115-4.148.115-4.148-2.252-7.385-2.72-.246-5.346-.374-8.07-.414l-2.413-.059c-2.547-.06-5.095-.106-7.642-.152l-5.176-.117c-4.233-.096-8.466-.18-12.699-.258v-1Z"/><path fill="#4476AD" d="M14 100c.345 1.33.675 2.665 1 4l.688 2.625L16 109l-2 2c.357 1.931.357 1.931 1 4v4l-2 1a69.17 69.17 0 0 0-1 4l-.992 2.246c-1.133 3.096-1.417 5.783-1.633 9.067l-.227 3.238L9 141H8c-.707-14.416 1.98-27.219 6-41Z"/><path fill="#4374AD" d="m42 53 2 3-1.938 1.875c-2.1 1.951-2.1 1.951-3.062 4.125h-3l.25 2.75C36 68 36 68 34.125 70.375 32 72 32 72 30 72l.813 1.625C31 76 31 76 28.75 79.25L26 82h-3c1.457-5.43 4.054-9.41 7.25-13.938l1.41-2.052C34.853 61.423 38.305 57.192 42 53Z"/><path fill="#4473AE" d="M289 29c8.899 4.548 17.022 10.96 23 19-3.242-.35-4.615-.562-6.813-3.063L304 43l-6 2-1-2h3c-.669-3.113-.669-3.113-3.063-4.188L295 38l-2 2c-1.498-3.371-2-5.204-2-9h-2v-2Z"/><path fill="#3566A1" d="M315 304h3c-.577 3.15-1.408 4.78-3.688 7.016l-1.617 1.601L311 314.25l-1.695 1.68c-4.15 4.07-4.15 4.07-5.305 4.07v-6l2-1 .438-1.875c.66-2.492 1.645-3.458 3.562-5.125l5 2-1-3 1-1Z"/><path fill="#15447D" d="M206 101h14c-4 2-4 2-7.5 2.125-3.514.467-3.514.467-4.734 2.68-1.037 2.172-1.037 2.172-1.844 4.382C205 112 205 112 202 113l-1 15h-1v-19h2l1-3h2l1-5Z"/><path fill="#1D5B9E" d="M29 288c3.796 0 5.629.502 9 2v3h2l-.5 2.813c-.577 3.143-.577 3.143-.5 6.187-3.925-3.7-7.022-7.49-10-12v-2Z"/><path fill="#7397C0" d="M132 8v1a2676.402 2676.402 0 0 1-14.686 3.46c-1.477.345-2.953.691-4.429 1.04-1.897.447-3.797.88-5.698 1.313l-3.332.769c-2.72.398-4.296.329-6.855-.582 24.33-7.395 24.33-7.395 35-7Z"/><path fill="#2F5079" d="m204 102 2 1c-.999 2.997-1.651 4.027-4 6h-2v40h-1c-.124-5.73-.214-11.457-.275-17.188-.025-1.947-.059-3.895-.102-5.842-.061-2.806-.09-5.61-.111-8.415l-.078-2.624c-.002-4.38.245-7.086 3.097-10.528L204 102Z"/><path fill="#5179AB" d="m237.5 348.875 2.492.027c2.003.024 4.006.06 6.008.098v1c-8.778 2.044-17.039 2.218-26 2v-1c5.997-1.747 11.274-2.257 17.5-2.125Z"/><path fill="#5280B5" d="M237 9c6.957.57 13.314 2.013 20 4v1h-20l1-3-1-2Z"/><path fill="#154B87" d="m246 145 2 1c.25 2.313.25 2.313 0 5-2 1.813-2 1.813-4 3l-1-1v-5h-16v-1l3.902-.184 5.036-.254 2.576-.119 2.45-.127 2.27-.11c1.79-.024 1.79-.024 2.766-1.206Z"/><path fill="#638CBB" d="m68 30 2 1c-2 3-2 3-5 5l-1.813 1.938C59.852 41.081 56.629 43 52 43c5.13-4.688 10.253-9.087 16-13Z"/><path fill="#658BB9" d="M97 17c-3 2-3 2-6 2v2c-4.888 4.116-9.77 5.064-16 6 3.298-3.605 7.19-5.218 11.563-7.25l2.365-1.14a434101649.282 434101649.282 0 0 1 4.332-2.037C95 16 95 16 97 17Z"/><path fill="#4A78B0" d="m66 327 2.188.438L71 328l2.625.563c2.464.528 2.464.528 5.375.437 0 3 0 3-1 6-4.557-1.519-8.317-3.954-12-7v-1Z"/><path fill="#396CAC" d="M44 299c2.154 2.622 3.4 4.644 4 8l-4 2-5-6 1.938-.875c2.214-.953 2.214-.953 3.062-3.125Z"/><path fill="#5179AC" d="M337 273h2c-.588 4.4-2.24 7.519-4.5 11.313-.63 1.068-1.258 2.137-1.906 3.238L331 290h-1c-.308-5.542 1.422-8.826 5-13h2v-4Z"/><path fill="#3D6AA5" d="m328 287 2 1c-.414 4.833-2.464 6.827-6 10-.352-5.373-.352-5.373 0-8 2-2 2-2 4-3Z"/><path fill="#5D87B4" d="M10 114h1c.027 2.312.046 4.625.063 6.938l.035 3.902C11 128 11 128 10 129a144.504 144.504 0 0 0-.563 6.063l-.253 3.347L9 141H8c-.209-9.242-.15-17.94 2-27Z"/><path fill="#6085B1" d="M292 330c-2.289 1.339-4.58 2.671-6.875 4l-1.973 1.156C278.227 338 278.227 338 276 338l1-3h3v-3l2 1c1.158-1.053 1.158-1.053 2-3 3.044-1.154 4.926-.857 8 0Z"/><path fill="#356BAA" d="m80 25 2 1c-1.188 2.5-1.188 2.5-3 5-3.594.645-5.904-.166-9-2 6.625-2.875 6.625-2.875 10-4Z"/><path fill="#608AB9" d="m42 53 2 3-1.938 1.875c-2.1 1.951-2.1 1.951-3.062 4.125h-3v5l-3-1c1.52-5.405 5.274-8.985 9-13Z"/><path fill="#386392" d="M237 172h2a668.813 668.813 0 0 1-2 15h-2l-1 3c.676-6.082 1.736-12.013 3-18Z"/><path fill="#638CB9" d="M347 107c1.84 2.76 2.483 4.297 3.188 7.438l.542 2.308c.285 2.384-.001 3.985-.73 6.254h-2l-1-16Z"/><path fill="#658EBB" d="M107 347c11.706-.554 11.706-.554 16 3-3.767 1.38-6.448.596-10.25-.438l-3.266-.87L107 348v-1Z"/><path fill="#5A84B4" d="m22 82 2 3h-2l.688 1.688C23 89 23 89 21.75 91.75L20 94h-3c1.31-4.234 2.944-8.074 5-12Z"/><path fill="#6488B7" d="M325 63c3.263 3.086 6.022 5.935 8 10l-1 2-6-6h-1v-6Z"/><path fill="#5C85B5" d="M86 339c4.58-.467 7.249-.173 10.938 2.5L100 344l-2 1a91.884 91.884 0 0 1-6.125-2.438l-3.32-1.433L86 340v-1Z"/><path fill="#517BAE" d="m34 65 2 3a90.488 90.488 0 0 1-4 4h-2v2l-3 1c1.394-4.435 3.606-6.874 7-10Z"/><path fill="#294F80" d="M199 191h8v1l-6 2-1 14h-1v-17Z"/><path fill="#507BAD" d="M51 44c0 3.15-.455 4.339-2 7l-2 2-4-1 8-8Z"/><path fill="#4D7AAD" d="m341 261 3 1c-.61 3.558-1.578 6.683-3 10-2-3.75-2-3.75-2-6h2l-.563-1.938L340 262l1-1Z"/><path fill="#1E5085" d="M244 160c-1.213 3.724-2.509 7.378-4 11h-1c-.366-6.35-.366-6.35 1.375-9.438C242 160 242 160 244 160Z"/><path fill="#557EB0" d="M14 256h2v2l3 1-2 8a480.028 480.028 0 0 1-1.5-3.813l-.844-2.144C14 259 14 259 14 256Z"/><path fill="#5881B3" d="M312 48c1.15.954 2.294 1.914 3.438 2.875l1.933 1.617C319 54 319 54 320 56l-4 1c-4-6-4-6-4-9Z"/><path fill="#507AB4" d="m33 294 5 1 2 6h-3c-4-4.343-4-4.343-4-7Z"/><path fill="#DCEBF7" d="M194 64c-1.415 2.034-2.55 2.904-4.98 3.422-2.002.24-4.011.413-6.02.578 3.35-3.686 6.035-5.773 11-4Z"/><path fill="#6F90BD" d="M246 11c7.184.456 7.184.456 11 3-4.516.077-8.59.102-13-1l2-2Z"/><path fill="#4B77A9" d="M309 313c-.398 2.886-.79 3.822-3.063 5.75L304 320v-6c3-1 3-1 5-1Z"/><path fill="#6187BE" d="M18 268c3 1 3 1 5 3 .125 3.625.125 3.625 0 7-2.645-3.125-3.844-6.088-5-10Z"/><path fill="#3C5E87" d="m204 102 2 1c-.999 2.997-1.651 4.027-4 6h-2l-1 3c.503-4.401 2.088-6.712 5-10Z"/><path fill="#6D94BF" d="M343 95c4.26 6.391 4.26 6.391 3.625 10.313L346 107l-1-3-2-1v-8Z"/><path fill="#547AAC" d="M302 320c-1.049 2.622-1.65 3.794-4.125 5.25L296 326l1-5c3-1 3-1 5-1Z"/><path fill="#4E7AB0" d="M29 288c4 0 4 0 6 1l-2 5a90.488 90.488 0 0 1-4-4v-2Z"/><path fill="#6586B0" d="m332 281 3 1c-1.186 3.375-2.276 5.647-5 8-.201-3.625.142-5.865 2-9Z"/><path fill="#1E5BAA" d="M70 33c2 3.75 2 3.75 2 6l-6-1 4-5Z"/><path fill="#3F6AA5" d="m290 324 6 2-3 3-3-1v-4Z"/><path fill="#265C9D" d="M18 262c2.5 2.174 3.436 3.73 4 7l-4-1v-6Z"/><path fill="#174D92" d="m237 184 2 4-2 1v3h-3l1-5h2v-3Z"/><path fill="#6387B8" d="m305 41 7 6-2 1-3-1c-1.188-3.063-1.188-3.063-2-6Z"/></svg>