<svg xmlns="http://www.w3.org/2000/svg" width="501" height="498"><path fill="#C83262" d="m174.249 57.855 5.41-.01c4.864-.01 9.728-.012 14.592-.012 3.05-.001 6.099-.003 9.148-.006 10.669-.009 21.337-.013 32.006-.012 9.895 0 19.791-.01 29.687-.026 8.536-.013 17.073-.018 25.609-.018 5.08 0 10.16-.002 15.241-.013 4.785-.01 9.57-.01 14.356-.003 1.74.002 3.48 0 5.22-.007 31.362-.103 31.362-.103 44.732 4.877l2.207.782C384.116 67.703 394.802 73.578 404 82l1.637 1.492C414.323 91.508 421.184 99.714 427 110l1.48 2.54c9.52 17.517 10.824 36.557 10.795 56.041.004 1.947.01 3.893.015 5.84.013 5.252.014 10.504.012 15.756-.001 4.4.003 8.801.008 13.202.011 10.39.012 20.781.006 31.172-.006 10.683.006 21.366.027 32.05.018 9.205.024 18.41.02 27.616-.001 5.483.001 10.966.015 16.45.013 5.16.01 10.32-.002 15.48-.002 1.882 0 3.764.009 5.646.121 29.696-8.407 56.219-29.573 77.832-16.937 16.758-39.562 27.604-63.467 28.927l-2.257.128c-8.534.445-17.063.476-25.607.481l-5.353.015c-4.794.013-9.587.02-14.381.024l-9.022.012c-9.445.013-18.891.023-28.337.027-10.837.004-21.674.022-32.512.05-8.426.023-16.852.033-25.278.034-5.01.001-10.022.007-15.033.025-4.716.016-9.433.018-14.15.01-1.713-.001-3.428.003-5.142.013-31.708.174-59.309-8.524-82.46-31.059C80.39 401.85 75.342 394.996 71 387l-.987-1.816c-7.53-14.201-11.18-29.445-11.147-45.53l-.007-2.43c-.006-2.664-.005-5.33-.004-7.994l-.01-5.758c-.01-5.2-.012-10.401-.012-15.602-.001-3.255-.003-6.51-.006-9.764-.009-11.37-.013-22.739-.012-34.108 0-10.572-.01-21.144-.026-31.717-.013-9.096-.018-18.193-.018-27.29 0-5.424-.002-10.848-.013-16.272-.01-5.107-.01-10.214-.003-15.32.002-1.865 0-3.73-.007-5.595-.04-13.34.502-26.358 4.377-39.242l.64-2.135c7.842-24.698 26.647-45.626 49.425-57.576 19.746-9.896 39.354-11.004 61.059-10.996Z"/><path fill="#C34E5F" d="m174.249 57.855 5.41-.01c4.864-.01 9.728-.012 14.592-.012 3.05-.001 6.099-.003 9.148-.006 10.669-.009 21.337-.013 32.006-.012 9.895 0 19.791-.01 29.687-.026 8.536-.013 17.073-.018 25.609-.018 5.08 0 10.16-.002 15.241-.013 4.785-.01 9.57-.01 14.356-.003 1.74.002 3.48 0 5.22-.007 31.362-.103 31.362-.103 44.732 4.877l2.207.782C384.116 67.703 394.802 73.578 404 82l1.637 1.492C414.323 91.508 421.184 99.714 427 110l1.48 2.54c9.52 17.517 10.824 36.557 10.795 56.041.004 1.947.01 3.893.015 5.84.013 5.252.014 10.504.012 15.756-.001 4.4.003 8.801.008 13.202.011 10.39.012 20.781.006 31.172-.006 10.683.006 21.366.027 32.05.018 9.205.024 18.41.02 27.616-.001 5.483.001 10.966.015 16.45.013 5.16.01 10.32-.002 15.48-.002 1.882 0 3.764.009 5.646.121 29.696-8.407 56.219-29.573 77.832-16.937 16.758-39.562 27.604-63.467 28.927l-2.257.128c-8.534.445-17.063.476-25.607.481l-5.353.015c-4.794.013-9.587.02-14.381.024l-9.022.012c-9.445.013-18.891.023-28.337.027-10.837.004-21.674.022-32.512.05-8.426.023-16.852.033-25.278.034-5.01.001-10.022.007-15.033.025-4.716.016-9.433.018-14.15.01-1.713-.001-3.428.003-5.142.013-31.708.174-59.309-8.524-82.46-31.059C80.39 401.85 75.342 394.996 71 387l-.987-1.816c-7.53-14.201-11.18-29.445-11.147-45.53l-.007-2.43c-.006-2.664-.005-5.33-.004-7.994l-.01-5.758c-.01-5.2-.012-10.401-.012-15.602-.001-3.255-.003-6.51-.006-9.764-.009-11.37-.013-22.739-.012-34.108 0-10.572-.01-21.144-.026-31.717-.013-9.096-.018-18.193-.018-27.29 0-5.424-.002-10.848-.013-16.272-.01-5.107-.01-10.214-.003-15.32.002-1.865 0-3.73-.007-5.595-.04-13.34.502-26.358 4.377-39.242l.64-2.135c7.842-24.698 26.647-45.626 49.425-57.576 19.746-9.896 39.354-11.004 61.059-10.996ZM135 112l-2.477 1.367c-2.95 1.909-5.11 4.08-7.523 6.633l-1.376 1.445a504.819 504.819 0 0 0-4.249 4.555l-1.445 1.54c-2.754 2.982-4.954 5.922-6.93 9.46l-1.684 2.656c-4.43 7.185-7.327 14.145-9.316 22.344l-.508 1.985c-1.784 7.72-1.782 15.329-1.767 23.217l-.015 4.537c-.013 4.083-.014 8.166-.012 12.249.001 3.424-.003 6.848-.008 10.271-.011 8.09-.012 16.178-.006 24.267.006 8.306-.006 16.611-.027 24.917-.018 7.163-.024 14.326-.02 21.49.001 4.263-.001 8.527-.015 12.79-.013 4.018-.01 8.034.002 12.052.002 1.46 0 2.921-.009 4.382-.106 20.081 4.05 43.216 18.697 58.21L119 375c.98 1.105 1.949 2.22 2.91 3.34 6.04 6.942 11.125 12.044 19.727 15.644C144 395 144 395 146 397c1.834.74 3.692 1.421 5.562 2.062 5.34 1.84 5.34 1.84 6.438 2.938 12.55 3.462 25.924 3.15 38.851 3.161l4.244.015c3.794.013 7.587.02 11.38.024 2.382.003 4.763.007 7.144.012 7.482.013 14.965.023 22.447.027 8.579.004 17.157.022 25.735.05 6.675.023 13.35.033 20.025.034 3.967.001 7.935.007 11.902.025 3.734.016 7.468.018 11.202.01 1.994-.002 3.987.012 5.98.026 11.743-.053 23.968-1.363 34.715-6.384l3.29-1.5L358 396l3.113-1.508c21.405-11.064 33.942-30.681 41.7-52.813 2.52-8.137 2.612-16.056 2.575-24.485.004-1.565.01-3.13.016-4.695.014-4.221.009-8.443-.001-12.664-.008-4.439 0-8.878.004-13.317.006-7.455-.002-14.91-.016-22.365-.016-8.587-.01-17.174.006-25.761.013-7.403.015-14.805.007-22.208-.004-4.408-.005-8.816.005-13.223.009-4.15.002-8.299-.015-12.448-.004-1.512-.003-3.023.004-4.535.039-9.671-1.013-18.585-3.398-27.978l-.644-2.777C396.608 135.26 378.78 118.5 362 108c-16.328-9.307-32.76-11.306-51.365-11.29l-4.445-.02c-3.982-.018-7.963-.023-11.945-.025-2.498 0-4.997-.005-7.495-.01-8.747-.019-17.494-.027-26.241-.026-8.105.002-16.21-.02-24.314-.051-7.001-.026-14.002-.037-21.003-.036-4.162 0-8.325-.005-12.488-.026-25.421-.122-45.586 1.67-67.704 15.484Z"/><path fill="#FDF8FB" d="M188.235 96.612c1.48-.004 2.96-.01 4.44-.016 3.982-.014 7.964-.009 11.946.001 4.196.008 8.393 0 12.59-.004 7.05-.006 14.1.002 21.15.016 8.104.016 16.208.01 24.312-.006 7-.013 14-.015 21-.007 4.162.004 8.324.005 12.486-.005 42.997-.09 42.997-.09 59.841 8.409l2.344 1.152c12.772 6.679 24.62 16.176 32.226 28.532 1.425 2.37 1.425 2.37 3.172 4.726 8.03 11.424 11.345 25.577 11.412 39.43l.013 1.974c.013 2.163.02 4.327.026 6.49l.025 4.68c.026 5.106.041 10.213.055 15.32l.017 5.3c.021 7.355.04 14.71.051 22.065.016 10.497.05 20.993.107 31.49.038 7.404.058 14.808.063 22.212.004 4.41.016 8.82.048 13.229.03 4.158.036 8.316.025 12.475 0 1.512.008 3.023.025 4.535.266 23.876-9.428 44.054-25.609 61.39l-1.977 2.176c-12.967 13.741-34.104 22.318-52.948 22.917-3.679.037-7.356.042-11.034.036l-4.245.006c-3.831.004-7.662.003-11.493 0-4.027-.003-8.053 0-12.079 0-6.769.003-13.537 0-20.306-.005-7.79-.005-15.581-.003-23.371.002-6.714.005-13.428.005-20.142.003-3.998-.002-7.996-.002-11.994.001-3.77.003-7.539.001-11.308-.005-2.016-.002-4.033.001-6.05.005-29.855-.068-29.855-.068-41.291-6.202-1.836-1.019-1.836-1.019-4.2-1.872-9.466-3.925-17.379-9.459-24.187-17.062l-3.352-3.688-1.58-1.75c-1.19-1.288-2.435-2.527-3.693-3.75-3.03-3.138-4.757-6.964-6.75-10.812l-1.582-3.008c-7.404-14.376-8.721-28.488-8.709-44.502a3051.264 3051.264 0 0 1-.044-16.716c0-2.55-.005-5.098-.01-7.647-.019-8.923-.027-17.846-.026-26.77.002-8.267-.02-16.535-.051-24.802-.026-7.14-.037-14.28-.036-21.421 0-4.246-.005-8.492-.026-12.738-.196-41.685-.196-41.685 8.547-57.334l1.025-1.99c1.662-3.147 3.346-5.631 5.912-8.072l1.422-2.379c6.59-10.947 16.714-18.403 27.578-24.621l1.809-1.125c13.408-8.232 29.003-10.336 44.426-10.263ZM153.625 126l-1.82 1.04c-3.077 1.783-6.115 3.628-8.805 5.96v2l-1.793.785c-10.9 6-16.888 20.578-20.173 31.89-1.73 6.645-1.702 13.295-1.617 20.12 0 1.503-.003 3.006-.008 4.51-.005 4.028.02 8.056.051 12.085.028 4.242.028 8.484.03 12.726.01 7.113.037 14.225.078 21.338.057 10.006.08 20.013.095 30.02a14907.076 14907.076 0 0 0 .07 25.942c.015 4.787.035 9.573.062 14.36.008 1.444.014 2.888.019 4.331-.812 14.271-.812 14.271 4.186 26.893.694 1.99 1.356 3.993 2 6 2.196 5.808 4.373 9.729 9 14l1.625 2.75c1.233 2.56 1.233 2.56 4.375 3.25l2 3c1.743 1.033 3.489 2.062 5.27 3.027 1.73.973 1.73.973 3.793 2.535 4.198 3.115 8.58 4.766 13.617 5.91 2.32.528 2.32.528 5.55 1.544 6.373 1.582 12.9 1.271 19.425 1.259 1.478.004 2.955.01 4.433.015 3.996.013 7.992.014 11.988.012 3.347-.001 6.694.003 10.041.008 7.905.011 15.81.012 23.714.006 8.126-.006 16.252.006 24.379.027 7 .018 14 .024 21 .02 4.17-.001 8.34.001 12.51.015 3.928.013 7.855.01 11.783-.002 1.431-.002 2.863 0 4.294.009 17.53.094 33.492-3.96 47.203-15.385v-2h2a91.591 91.591 0 0 0 4.75-5.75l1.356-1.776A79.796 79.796 0 0 0 380 341l.765-1.72c2.93-7.426 2.658-14.951 2.623-22.799.004-1.558.01-3.116.016-4.674.014-4.211.009-8.422-.001-12.633-.008-4.423 0-8.845.004-13.268.006-7.428-.002-14.857-.016-22.285-.016-8.563-.01-17.126.006-25.69.013-7.374.015-14.748.007-22.123-.004-4.394-.005-8.789.005-13.183.009-4.136.002-8.272-.015-12.408-.004-1.51-.003-3.018.004-4.528.07-17.532-3.965-32.711-16.398-45.689h-2l-.191-1.754c-2.172-6.033-11.13-10.049-16.559-12.996-11.5-5.27-22.707-6.845-35.253-6.752a1454.198 1454.198 0 0 0-15.81-.003c-4.052.015-8.103.008-12.155.004-6.802-.002-13.605.011-20.407.034-7.817.027-15.634.029-23.45.017-7.576-.01-15.152-.004-22.728.01-3.198.005-6.396.005-9.593 0-28.65-1.217-28.65-1.217-55.229 7.44Z"/><path fill="#D12258" d="M285.852 211.855c12.674 8.832 21.6 21.672 24.746 36.993 2.293 17.969-1.911 33.04-12.16 48.027C290.183 307.456 277.385 315.784 264 318c-3.942.297-7.861.325-11.813.313l-3.08.048c-15.513.01-26.919-5.874-38.107-16.361l-2.375-2.188C207 298 207 298 206 295a811.918 811.918 0 0 0-3-3c-8.236-13.14-11.153-28.534-8.305-43.703 3.11-11.865 7.913-21.499 16.45-30.336 1.91-1.83 1.91-1.83 2.855-3.961a143.265 143.265 0 0 1 7-4l3.25-1.75C227 207 227 207 230 207v-2c17.637-7.797 40.275-3.28 55.852 6.855Z"/><path fill="#FCF8F9" d="M292 189v2l2.5.563c3.966 1.628 6.358 3.69 9.477 6.57 1.89 1.745 3.84 3.368 5.836 4.992 2.789 2.388 4.386 4.649 6.187 7.875a725.92 725.92 0 0 0 3.313 3.938c12.258 15.601 14.934 36.949 13.449 56.14-1.77 13.08-7.07 25.27-14.762 35.922l-1.582 2.297L315 311h-2l-.75 2.254C308.646 321.17 299.366 326.012 292 330l-3.254 1.82c-17.437 9.313-38.437 11.244-57.746 6.743-14.683-4.695-28.626-12.85-38.492-24.766-1.446-1.793-1.446-1.793-3.016-3.219-3.81-4.029-6.029-9.469-8.492-14.39l-1.04-2.042C171.378 277.028 169.767 258.68 174 240l.555-2.504c3.647-14.027 12.275-25.41 22.257-35.559l1.457-1.484C201.755 197 201.755 197 204 197v-2c3.49-2.604 7.26-4.775 11-7l1.984-1.207C239.211 174.45 270.138 177.479 292 189Zm-62 16v2l-2.063.25c-3.152.805-5.433 2.04-8.19 3.715C218 212 218 212 216.061 212.809 205.722 218.782 199.49 233.144 196 244l-1.25 3.688c-3.499 15.76.951 30.57 8.137 44.59 1.01 1.882 1.01 1.882 3.113 2.722l1 3c1.462 1.486 1.462 1.486 3.25 2.875 2.203 1.807 4.119 3.524 6.063 5.625 10.22 9.507 22.147 12.032 35.75 11.875l3.064.035c9.515-.037 17.396-2.258 25.685-6.848l3.208-1.746c13.627-8.305 22.527-22.904 26.355-38.183 3.009-17.488-1.534-33.188-11.126-47.888-8.39-11.722-22.241-18.384-35.999-21.335-10.818-1.365-23.123-1.887-33.25 2.59Z"/><path fill="#7F4FA4" d="m174.249 57.855 5.41-.01c4.864-.01 9.728-.012 14.592-.012 3.05-.001 6.099-.003 9.148-.006 10.669-.009 21.337-.013 32.006-.012 9.895 0 19.791-.01 29.687-.026 8.536-.013 17.073-.018 25.609-.018 5.08 0 10.16-.002 15.241-.013 4.785-.01 9.57-.01 14.356-.003 1.74.002 3.48 0 5.22-.007 31.362-.103 31.362-.103 44.732 4.877l2.207.782C384.116 67.703 394.802 73.578 404 82l1.637 1.492C414.323 91.508 421.184 99.714 427 110l1.48 2.54c9.52 17.517 10.824 36.557 10.795 56.041.004 1.947.01 3.893.015 5.84.013 5.252.014 10.504.012 15.756-.001 4.4.003 8.801.008 13.202.011 10.39.012 20.781.006 31.172-.006 10.683.006 21.366.027 32.05.018 9.205.024 18.41.02 27.616-.001 5.483.001 10.966.015 16.45.013 5.16.01 10.32-.002 15.48-.002 1.882 0 3.764.009 5.646.077 18.937-2.576 36.153-11.385 53.207-1.247-3.741-.583-6.115 0-10 .037-2.333.048-4.667 0-7l3-1c4.165-10.644 3.245-23.147 3.535-34.406l.13-4.786c.14-5.103.269-10.205.397-15.308l.134-5.234c.52-20.462 1.006-40.922 1.054-61.391l.015-2.667c.012-2.406.01-4.81 0-7.216l-.006-3.926c-.025-3.238-.025-3.238-2.259-6.066-.234-2.966-.234-2.966-.211-6.648l.004-2.037c.006-2.23.027-4.46.047-6.69l.016-4.693c.013-4.136.037-8.271.065-12.407a7043.32 7043.32 0 0 0 .115-24.39c.039-11.404-.156-22.76-1.036-34.135h-2l.25-2.75c.113-3.32.113-3.32-2.188-5.063C425.44 123.345 426 118.073 426 113h-3v-5l-4-1-1-6-3-1v-3l-1.875-.688C411 95 411 95 410.187 92.625c-1.79-3.957-4.323-4.727-8.187-6.625l-3-1c-3-4.333-3-4.333-3-7h-7l-.563-1.875c-2.142-3.167-4.834-3.224-8.437-4.125l-2-2a155.915 155.915 0 0 0-5-2l-1.852-.996c-2.387-1.116-4.558-1.597-7.148-2.067-4.85-.894-4.85-.894-6.828-1.46-3.274-.719-6.585-.847-9.922-1.04l-2.113-.13C343.425 62.2 341.712 62.1 340 62v2h-12v-1l-8-1v2h-6v-1a23125.01 23125.01 0 0 0-41.255-.104c-6.385-.01-12.77-.024-19.155-.047-6.16-.022-12.32-.034-18.48-.039-2.352-.003-4.704-.01-7.056-.021-3.29-.015-6.58-.017-9.87-.016l-2.96-.022-2.719.008-2.357-.005c-2.427.278-4.014 1.093-6.148 2.246-2.12.234-2.12.234-4.423.211l-2.633-.01-2.835-.04-2.961-.017c-3.133-.017-6.265-.048-9.398-.082-4.089-.036-8.177-.067-12.266-.09l-2.99-.016c-8.2-.017-16.322.366-24.494 1.044v-2l-2.313.5c-2.95.549-5.69.5-8.687.5v-2l-2-1a640.09 640.09 0 0 1 6.187-1.438l3.481-.808c11.675-2.263 23.74-1.903 35.58-1.9Z"/><path fill="#8853A3" d="M211.15 118.531c3.224 0 6.446-.008 9.67-.017 7.612-.019 15.224-.022 22.836-.015 7.803.007 15.606-.016 23.408-.053 6.75-.031 13.501-.042 20.252-.038 4.01.002 8.018-.004 12.028-.028 22.861-.13 43.455.747 62.406 15.308 2.29 2.354 2.616 3.248 3.25 6.312l1.742.707c3.252 1.862 4.829 4.685 6.758 7.793l1.197 1.9c5.621 9.126 8.4 17.504 8.464 28.288l.015 1.961c.016 2.155.024 4.31.033 6.466l.03 4.654c.03 5.084.051 10.17.07 15.254l.01 2.63c.03 8.198.057 16.397.074 24.595.022 10.449.064 20.897.133 31.345.048 7.367.072 14.733.08 22.1.004 4.39.019 8.778.059 13.167.037 4.14.045 8.277.032 12.416 0 1.506.01 3.012.032 4.517.188 13.877-3.166 26.456-11.604 37.707l-2.367 3.219L368 361l-1-4h2l2-6h2l.312-1.937C374 346 374 346 375.5 342.313c2.33-6.91 2.073-14.163 2.187-21.375.034-1.453.068-2.905.104-4.358.084-3.526.151-7.053.209-10.58h2l-.438-3.875c-.08-.72-.162-1.439-.246-2.18-.229-2.019-.229-2.019-1.316-3.945.121-1.812.121-1.812.437-4 .788-6.329 1.348-12.809-.437-19h2l-.5-3.812c-.322-2.453-.5-4.705-.5-7.188l-.563-2.875c-.442-3.16-.112-5.05.563-8.125.188-4.649.188-4.649-.625-9.187C378 240 378 240 379 238.133c1.373-2.93.735-5.3.29-8.422-.456-4.264-.31-8.51-.228-12.793-.054-2.53-.43-4.497-1.062-6.918l1-1c.1-1.873.13-3.75.133-5.625l.006-3.56-.014-3.815-.006-3.839c-.043-9.418-.368-18.774-1.119-28.161h-2c-.8-3.287-1.097-4.71 0-8l-1.938-.312L372 155l-1-3-1.563-1.437C368 149 368 149 368 145l-5-1 .125-2.687c-.77-3.394-.77-3.394-3.242-4.684-1.78-.848-3.575-1.67-5.38-2.465-2.877-1.338-5.035-3.19-7.503-5.164a132.18 132.18 0 0 0-5-1 220.31 220.31 0 0 1-4.625-1.437c-4.632-1.424-9.249-2.35-14.027-3.133C321 123 321 123 318 122l-2 2c-2.164.195-2.164.195-4.625.125l-2.477-.055L307 124v-2c-4.79-.234-4.79-.234-9 2-2.883-.059-2.883-.059-6.125-.437A146.054 146.054 0 0 0 286 123l-1 1c-1.79.1-3.583.13-5.375.125l-2.96.008C274 124 274 124 271 123l-2 1c-1.79.097-3.583.13-5.375.125l-2.898.008C258 124 258 124 255.773 123.43c-1.863-.654-1.863-.654-3.773.57-4.652.263-7.75-.21-12-2-3.142-.322-4.997-.001-8 1.063-3.21 1.002-4.822.872-8-.063v-2l-5 2v-2l-2.25 1.5C214 124 214 124 210 124l-2-2c-3.144.202-3.144.202-6.625.875l-3.602.617L195 124v-2c-2.416-.167-2.416-.167-5 0l-2 2c-2.688.27-5.291.087-8 0v-2c-5.39-.513-7.666.93-12 4-2.75 1.063-2.75 1.063-6 2l-2.46.855c-.88.296-1.76.59-2.665.895l-2.508.86c-2.838.468-3.98-.092-6.367-1.61 19.691-11.555 41.008-10.48 63.15-10.469Z"/><path fill="#E98523" d="M125 167h1c.177 4.507.136 7.966-2 12l-2 1c-.03 4.562-.05 9.125-.063 13.688l-.005 2.052c-.02 9.702.169 19.366.8 29.05.21 3.398.356 5.946-.732 9.21l2 2c.234 3.016.234 3.016.211 6.94l-.004 2.164c-.006 2.368-.027 4.735-.047 7.103l-.016 4.933c-.013 4.336-.037 8.673-.065 13.01-.043 6.93-.073 13.861-.096 20.792-.01 2.42-.027 4.84-.045 7.26l-.02 4.47-.025 3.93c.093 2.96.493 5.518 1.107 8.398l-.125 3.875c-.109 8.087 1.5 17.874 5.125 25.125l3 2c.7 2.663.777 5.24 1 8h2l3 5c4.041 4.344 7.074 7.039 13 8l-2 2c2.918 1.945 4.625 2.453 8 3v3c1.918-.03 1.918-.03 3.875-.063 3.875-.062 3.875-.062 6.125 1.063v2l3-1a65.305 65.305 0 0 1 4.188-.063L179 377l-1 3 16-1v-2h11l6.102-.035c2.507-.01 5.015-.019 7.523-.027l3.777-.026c5.977-.016 11.746.15 17.668.934 3.044.243 5.928-.36 8.93-.846 2.877-.098 5.748-.05 8.625 0 5.502.15 5.502.15 10.941-.559 3.403-.617 6.343-.044 9.747.497l3.8.59L285 378v-2l3 1c5.242.349 10.514.046 15.75-.297 19.526-1.258 19.526-1.258 27.25 1.297l1 2-8 2v1c-18.986.117-37.972.205-56.958.26-8.817.025-17.634.06-26.452.117-7.693.05-15.386.082-23.08.093-4.066.007-8.132.022-12.198.059-40.857.355-40.857.355-55.312-10.529-1.474-.905-2.953-1.8-4.438-2.688-3.439-2.066-3.439-2.066-4.562-4.312l-1.875-.813c-2.812-1.57-3.54-3.398-5.125-6.187l-2.438-2.813c-4.323-5.066-6.52-10.916-8.562-17.187l-2-3c-1.686-8.063-1.142-16.666-1.13-24.857 0-1.475-.003-2.949-.005-4.423-.004-3.975-.003-7.95 0-11.925.003-4.167 0-8.335 0-12.503-.003-6.99 0-13.98.005-20.969.005-8.082.003-16.164-.002-24.246-.005-6.949-.005-13.898-.003-20.846.002-4.147.002-8.294-.001-12.44-.003-3.892-.001-7.783.005-11.674 0-1.43 0-2.859-.002-4.288-.002-1.947.002-3.894.006-5.84l.001-3.305C120 176 120 176 121 173h2l.438-2.438C124 168 124 168 125 167Z"/><path fill="#ECCE50" d="M60 239h1l.06 3.285c.076 4.047.165 8.093.257 12.139.039 1.746.073 3.493.105 5.24.046 2.52.104 5.04.164 7.559l.035 2.343c.128 4.782.931 8.835 2.379 13.434.23 3.02.23 3.02.188 5.813l-.02 2.832C64 294 64 294 63 296a62.58 62.58 0 0 0-.133 4.176l-.004 2.51.012 2.627-.012 2.591c.007 4.207.31 7.967 1.137 12.096l-1 4c-1.178 16.117-.184 33.615 6.125 48.688C70 375 70 375 70 379l3 1 .25 2.313c.466 2.776.466 2.776 2.563 3.937 2.47 1.977 2.952 3.236 4.124 6.125 1.738 4.258 3.705 6.547 7.063 9.625v2l2.5 1.5L92 407v2l2 1 1.625 1.25c2.797 2.06 5.748 3.75 8.766 5.469L106 418v3l4 1v2l8 2v2l3.25-1.125c3.75-.875 3.75-.875 6.188 0L129 428v3l2.379.148c9.637.686 9.637.686 13.496 1.914 3.974 1.193 7.315 1.348 11.364.43 3.32-.592 6.435-.586 9.808-.555 1.404.01 2.808.018 4.212.026l2.22.019c12.296.099 24.54-.04 36.824-.624 9.902-.456 19.787-.452 29.697-.358l-1 4 1.685-.557c2.768-.53 4.605-.128 7.357.469 8.727 1.569 17.447 1.445 26.286 1.502a5110.563 5110.563 0 0 0 19.971.187c4.928.04 9.856.091 14.783.141 9.64.097 19.279.181 28.918.258v1c-23.662.07-47.325.123-70.987.155-10.99.016-21.978.037-32.966.071-9.586.03-19.172.05-28.757.056-5.069.004-10.137.013-15.205.035-4.786.02-9.572.027-14.358.022-1.742.001-3.483.007-5.225.019-31.803.202-59.456-8.432-82.69-31.046C80.392 401.85 75.344 394.997 71 387l-.987-1.816c-8.932-16.847-11.175-34.046-11.146-52.922l-.003-4.692c-.001-3.289 0-6.578.006-9.867.005-4.1.002-8.2-.004-12.301-.026-22.15.369-44.265 1.134-66.402Z"/><path fill="#7B4F99" d="M390 74c14.2 3.55 26.81 19.007 34.151 31.034.969 1.644 1.91 3.305 2.849 4.966l1.48 2.54c9.52 17.517 10.824 36.557 10.795 56.041.004 1.947.01 3.893.015 5.84.013 5.252.014 10.504.012 15.756-.001 4.4.003 8.801.008 13.202.011 10.39.012 20.781.006 31.172-.006 10.683.006 21.366.027 32.05.018 9.205.024 18.41.02 27.616-.001 5.483.001 10.966.015 16.45.013 5.16.01 10.32-.002 15.48-.002 1.882 0 3.764.009 5.646.077 18.937-2.576 36.153-11.385 53.207-1.247-3.741-.583-6.115 0-10 .037-2.333.048-4.667 0-7l3-1c4.165-10.644 3.245-23.147 3.535-34.406l.13-4.786c.14-5.103.269-10.205.397-15.308l.134-5.234c.52-20.462 1.006-40.922 1.054-61.391l.015-2.667c.012-2.406.01-4.81 0-7.216l-.006-3.926c-.025-3.238-.025-3.238-2.259-6.066-.234-2.966-.234-2.966-.211-6.648l.004-2.037c.006-2.23.027-4.46.047-6.69l.016-4.693c.013-4.136.037-8.271.065-12.407.048-7.342.081-14.683.106-22.025l.01-2.365c.038-11.404-.157-22.76-1.037-34.135h-2l.25-2.75c.113-3.32.113-3.32-2.188-5.063C425.44 123.346 426 118.073 426 113h-3v-5l-4-1-1-6-3-1v-3l-1.875-.688C411 95 411 95 410.187 92.626c-1.79-3.957-4.323-4.727-8.187-6.625l-3-1c-3-4.333-3-4.333-3-7h-7l1-4Z"/><path fill="#C13B23" d="M96 274h1l.044 3.782c.06 4.745.136 9.49.218 14.236.033 2.032.061 4.064.084 6.096.06 27.636.06 27.636 7.654 53.886l.969 2.11c.959 1.995 1.981 3.94 3.031 5.89l1.188 2.316 1.25 2.372 1.12 2.136c1.835 2.769 4.07 4.852 6.442 7.176a273.86 273.86 0 0 1 2.91 3.34c6.04 6.942 11.125 12.044 19.727 15.644C144 394 144 394 146 396c1.834.74 3.692 1.421 5.563 2.063 5.34 1.84 5.34 1.84 6.437 2.937 12.807 3.533 26.446 3.15 39.633 3.13 1.499 0 2.997.003 4.495.005 4.02.004 8.041.003 12.062 0 4.235-.003 8.47 0 12.706 0 7.106.003 14.211 0 21.317-.005 8.184-.005 16.368-.003 24.552.002 7.063.005 14.127.005 21.19.003 4.203-.002 8.406-.002 12.609.001 3.951.003 7.903.001 11.854-.005 1.44 0 2.879 0 4.318.002 7.988.01 15.821-.24 23.765-1.114L349 403l2 2a5623.828 5623.828 0 0 1-8.691 1.465c-5.86.948-11.513 1.664-17.456 1.74l-2.053.03c-2.226.032-4.453.057-6.679.081l-4.722.063c-3.302.044-6.605.085-9.908.124-4.165.048-8.33.102-12.495.158-32.184.428-32.184.428-45.904.273-4.179-.15-4.179-.15-8.092 1.066-2.35-.092-4.696-.25-7.04-.438-8.79-.638-17.527-.645-26.335-.562-2.924.027-5.849.046-8.773.063l-3.85.035C186 409 186 409 184 408c-5.387-.755-10.81-1.051-16.246-.957l-2.17.035a210.5 210.5 0 0 0-4.239.135c-4.884.111-4.884.111-7.31-1.596C153 404 153 404 153 402l-1.719-.41c-2.295-.594-4.53-1.284-6.781-2.027l-2.281-.747c-2.169-.798-4.175-1.743-6.219-2.816v-2l-1.563-.75c-3.209-1.646-6.313-3.448-9.437-5.25v-2l-3-1c-1.188-2.063-1.188-2.063-2-4h-2l-1-3-3-2v-2l-3-1c-1.017-1.715-2.03-3.435-2.938-5.21-.987-1.857-.987-1.857-2.613-3.224-1.855-2.005-2.135-3.59-2.636-6.253l-.481-2.45L102 354l-2 1c-2.014-4.29-2.577-8.526-3.063-13.188-.381-5.059-.381-5.059-1.937-9.812-.099-2.346-.13-4.695-.133-7.043l-.004-2.16c-.002-2.328.005-4.656.012-6.985l.003-2.383c.017-13.163.366-26.286 1.122-39.429Z"/><path fill="#D12D38" d="m203 376 2 1c2 .074 4.003.084 6.004.063l3.685-.024 7.665-.078c5.998-.038 11.775.09 17.719.883 3.042.246 5.926-.358 8.927-.844 2.877-.098 5.748-.05 8.625 0 5.502.15 5.502.15 10.941-.559 3.403-.617 6.343-.044 9.747.497l3.8.59L285 378v-2l3 1c5.242.349 10.514.046 15.75-.297 19.526-1.258 19.526-1.258 27.25 1.297l1 2-8 2v1H176c3.598-3.598 5.9-3.531 10.688-3.688l2.126-.103c1.728-.082 3.457-.147 5.186-.209v-2l3.938.063A59.19 59.19 0 0 0 202 377l1-1Z"/><path fill="#795197" d="m186 90 6 1v5l2.816-.473 3.746-.59 3.692-.597c3.817-.346 6.986-.01 10.746.66 4.903.4 7.762-.496 12-3l2-2c3.625-.125 3.625-.125 7 0v4h9l2-2c2.531-.3 2.531-.3 5.5-.313l2.969-.05L256 92l2 3 1.438-1.438c3.678-2.243 7.324-2.3 11.562-2.562l2 4c5.303.318 8.38-.422 13-3h2l1 3 1.656-.496c2.68-.576 5.104-.6 7.844-.567l2.844.028L304 94h4l1-1a94.868 94.868 0 0 1 5.438-.688l2.996-.324C320 92 320 92 322 94c2.95.4 5.849.7 8.813.938 7.965.727 15.447 2 23.187 4.062l2.25.5c2.257.645 3.177 1.79 4.75 3.5 2.918 1.945 4.625 2.453 8 3v5h4l1 2c2.025.652 2.025.652 4 1l1 5h2v3l1.813.313c2.486.78 3.416 1.836 5.187 3.687h2l.7 1.934.988 2.504.949 2.496L394 135l5 1v12c-2.908-2.908-4.473-5.395-6.5-8.938-8.391-14.08-20.277-24.106-34.5-32.062l-2.059-1.156c-13.9-7.384-29.582-8.14-45.024-8.163l-4.351-.03c-3.89-.027-7.78-.043-11.67-.056-4.082-.015-8.164-.042-12.247-.068-7.71-.046-15.419-.083-23.129-.116-8.786-.039-17.572-.088-26.358-.138C215.108 97.17 197.054 97.08 179 97c1-2 1-2 3.5-2.938L185 93l1-3Z"/><path fill="#D3504A" d="m78 104 2 2c-.974 2.923-1.728 4.745-4 6.875-2.623 2.786-3.02 5.466-4 9.125-.98 1.348-1.98 2.682-3 4-1.389 3.626-2.298 7.189-3 11-.26.918-.26.918-.523 1.855-.524 2.355-.574 4.43-.54 6.84l.024 2.668.039 2.762c.025 1.815.047 3.63.063 5.445l.035 2.43C65 161 65 161 64 163a108.171 108.171 0 0 0-.098 5.564l.01 3.53.026 3.832.017 5.935c.013 4.187.035 8.375.055 12.562.017 3.44.032 6.88.041 10.32.008 2.582.02 5.164.037 7.746l.01 3.56.016 3.123c-.11 2.722-.554 5.17-1.114 7.828.06 2.107.189 4.213.375 6.313l.293 3.46c.265 2.578.61 5.108 1.02 7.665C65 248 65 248 64 250.75c-1.32 4.293-.7 7.843-.227 12.266.292 3.843-.14 7.192-.773 10.984v2h-2c-2.518-2.518-2.251-3.333-2.254-6.816l-.017-3.083.012-3.397-.01-3.568a2306.39 2306.39 0 0 1 0-9.715c.005-3.398 0-6.796-.002-10.194-.004-5.72 0-11.44.01-17.16.011-6.581.008-13.162-.003-19.743-.01-5.666-.01-11.331-.006-16.997.004-3.376.004-6.753-.003-10.129-.043-32.036-.043-32.036 4.648-47.073l.666-2.17c1.561-4.956 3.037-9.616 5.959-13.955a126.235 126.235 0 0 1 6-2c1.452-3.018 1.452-3.018 2-6Z"/><path fill="#A055A1" d="M275 178v2l2.75.375c2.84.546 4.776 1.198 7.25 2.625v2l13 2 1 5 2.313.438C304 193 304 193 307 194v2c2.092 1.12 3.762 1.965 6.125 2.313 1.875.687 1.875.687 3.063 2.75 1.01 3.654 1.428 7.164 1.812 10.937l5 1 1 3h2l.77 3.027c.347 1.304.694 2.607 1.043 3.91l.501 1.999c.551 2.137.551 2.137 1.686 5.064l3 1c3.257 5.67 3.35 10.561 3 17l3 1-1 1c-.381 3.001-.71 5.99-1 9-.25 2.503-.5 5.005-.754 7.508-.164 1.66-.318 3.322-.46 4.984l-.224 2.383-.183 2.117C335 278 335 278 333.96 280.04c-1.224 2.121-1.224 2.121-.899 5.461-.069 3.866-.568 4.718-3.062 7.5l-.875 2.125c-1.55 2.584-3.322 2.99-6.125 3.875 1.5-4.702 3.102-9.282 5.063-13.813 7.517-18.721 4.612-40.96-3.063-59.187-3.278-6.478-6.647-12.093-12-17l-1.25-2.375c-2.765-4.147-6.78-6.684-10.75-9.625l-2.813-2.313c-2.107-1.737-2.107-1.737-4.437-2.812C292 191 292 191 291 189a135.512 135.512 0 0 0-7.938-3c-.722-.26-1.445-.52-2.189-.79-10.143-3.544-19.52-4.513-30.248-4.398l-3.52.002c-6.631-.044-6.631-.044-13.105 1.186l-1-3c3.221-.937 6.23-1.19 9.578-1.316l3.27-.127 3.402-.12 3.355-.13c17.065-.64 17.065-.64 22.395.693Z"/><path fill="#FDF4FD" d="M340 152c4.84 2.94 9.233 6.201 10.777 11.836.154 4.5-.501 7.57-2.402 11.664-3.702 3.897-7.084 5.633-12.438 5.875-5.564-.53-7.691-2.24-11.75-5.938-2.664-3.43-3.018-6.626-2.812-10.898 1.123-4.562 4.074-7.594 7.625-10.539 3.912-2.256 6.452-2.807 11-2Z"/><path fill="#966FBE" d="m400 147 .313 1.938L401 151l3 1c1.632 3.911 2.429 7.824 3.063 12l.472 3c1.635 13.063 1.62 26.122 1.595 39.265-.005 3.266 0 6.533.007 9.8.002 11.072-.15 22.096-.875 33.148-.287 4.762-.078 9.056.738 13.787.46 10.437-.203 20.926-.648 31.353-.37 9.237-.396 18.448-.14 27.69.137 8.907.137 8.907-3.212 12.957-1.405-2.809-1.113-5.115-1.1-8.258l.004-1.968c.005-2.186.018-4.372.03-6.558l.014-4.691c.01-3.375.023-6.75.038-10.125.023-5.347.036-10.694.048-16.042.033-15.208.074-30.417.137-45.625.035-8.394.059-16.789.07-25.183.007-4.438.02-8.876.046-13.314.024-4.186.034-8.372.034-12.558.002-1.527.01-3.053.023-4.579.09-10.817-.877-21.035-4.468-31.316-.968-3.075-.774-4.73.124-7.783Z"/><path fill="#996BAF" d="M211.71 118.696c4.1.019 8.2.02 12.3.024 7.735.01 15.469.034 23.203.064 8.818.034 17.635.05 26.453.065 18.111.031 36.223.084 54.334.151v1l-44 1h17c-3 3-3 3-5.883 3.04-1.07-.138-2.14-.274-3.242-.415-1.955-.24-3.913-.455-5.875-.625l-1 1c-1.79.1-3.583.13-5.375.125l-2.96.008C274 124 274 124 271 123l-2 1c-1.79.097-3.583.13-5.375.125l-2.898.008C258 124 258 124 255.773 123.43c-1.863-.654-1.863-.654-3.773.57-4.652.263-7.75-.21-12-2-3.142-.322-4.997-.001-8 1.062-3.21 1.003-4.822.873-8-.062v-2l-5 2v-2l-2.25 1.5C214 124 214 124 210 124l-2-2c-3.144.202-3.144.202-6.625.875l-3.602.617L195 124v-2c-2.416-.167-2.416-.167-5 0l-2 2c-2.688.27-5.291.087-8 0v-2c-5.39-.513-7.666.93-12 4-2.75 1.062-2.75 1.062-6 2l-2.46.855c-.88.296-1.76.59-2.665.895l-2.508.86c-2.838.468-3.98-.092-6.367-1.61 19.892-11.673 41.385-10.425 63.71-10.304Z"/><path fill="#EBB41E" d="M96 274h1l.044 3.782c.06 4.745.136 9.49.218 14.236.033 2.032.061 4.064.084 6.096.06 27.636.06 27.636 7.654 53.886l.969 2.11c.959 1.995 1.981 3.94 3.031 5.89l1.188 2.316 1.25 2.372 1.12 2.136c1.835 2.769 4.07 4.852 6.442 7.176a273.86 273.86 0 0 1 2.91 3.34c6.04 6.942 11.125 12.044 19.727 15.644C144 394 144 394 146 396c1.834.74 3.692 1.421 5.563 2.063 5.34 1.84 5.34 1.84 6.437 2.937 7.92 2.185 15.83 2.59 24 3v1l-10 1v1c-2.605.08-5.207.14-7.813.188l-2.236.076c-5.46.074-5.46.074-7.963-1.65C153 404 153 404 153 402l-1.719-.41c-2.295-.594-4.53-1.284-6.781-2.027l-2.281-.747c-2.169-.798-4.175-1.743-6.219-2.816v-2l-1.563-.75c-3.209-1.646-6.313-3.448-9.437-5.25v-2l-3-1c-1.188-2.063-1.188-2.063-2-4h-2l-1-3-3-2v-2l-3-1c-1.017-1.715-2.03-3.435-2.938-5.21-.987-1.857-.987-1.857-2.613-3.224-1.855-2.005-2.135-3.59-2.636-6.253l-.481-2.45L102 354l-2 1c-2.014-4.29-2.577-8.526-3.063-13.188-.381-5.059-.381-5.059-1.937-9.812-.099-2.346-.13-4.695-.133-7.043l-.004-2.16c-.002-2.328.005-4.656.012-6.985l.003-2.383c.017-13.163.366-26.286 1.122-39.429Z"/><path fill="#A168B6" d="M438 149h1c.07 25.8.123 51.6.155 77.401.016 11.981.037 23.962.071 35.943.03 10.448.05 20.896.056 31.344.004 5.527.013 11.054.035 16.581.02 5.214.027 10.427.022 15.641.001 1.903.007 3.805.019 5.708.11 19.012-2.513 36.257-11.358 53.382-1.247-3.741-.583-6.115 0-10 .037-2.333.048-4.667 0-7l3-1c4.014-10.258 3.204-22.196 3.446-33.056.055-2.496.116-4.99.177-7.486.13-5.298.254-10.597.377-15.896.143-6.144.288-12.29.44-18.434.058-2.437.113-4.874.167-7.31l.112-4.562.092-3.964c.114-3.375.391-6.722.694-10.086.513-5.927.666-11.81.7-17.758l.03-3.286c.032-3.538.057-7.077.081-10.615l.063-7.415c.055-6.47.105-12.94.153-19.411.05-6.617.106-13.233.161-19.85.108-12.957.21-25.914.307-38.871Z"/><path fill="#9B4C7F" d="M285.852 211.855c12.695 8.846 21.533 21.647 24.753 36.961 1.048 8.456 1.521 17.138-1.605 25.184-4.622-4.622-3.31-14.56-3.518-20.885-.227-5.314-1.102-9.98-2.482-15.115v-3l-1.688-1.563c-2.892-3.048-4.325-6.301-6.066-10.097-1.923-3.612-3.345-5.04-7.246-6.34v-2l-5-1v-2l-1.625-.371C279 211 279 211 276.25 210.027c-7.45-2.498-14.046-3.407-21.875-3.402l-2.621-.004c-4.24.074-6.979.35-10.754 2.379-2 .309-2 .309-4 .438-3.566.355-5.181 1.327-8 3.562l-2.5-.063c-2.647-.22-2.647-.22-4.375 1.938-2.766 2.766-5.37 3.258-9.125 4.125v2l-6 2 1.277-1.46 1.66-1.915 1.653-1.898c1.48-1.683 1.48-1.683 2.41-3.727a143.265 143.265 0 0 1 7-4l3.25-1.75C227 207 227 207 230 207v-2c17.637-7.797 40.275-3.28 55.852 6.855Z"/><path fill="#D82825" d="M343 430c2 2 2 2 2 5l1.5-.5c2.331-.466 4.202-.503 6.563-.438 3.992.293 3.992.293 6.937-2.062 2.7-.414 2.7-.414 5.688-.625l3.011-.227L371 431l-1 3c-12.404 5.126-25.895 4.557-39.05 4.46l-6.58-.002c-4.565-.003-9.131-.02-13.697-.046-5.828-.034-11.656-.042-17.483-.04-4.517-.001-9.034-.012-13.551-.026-2.149-.007-4.297-.01-6.445-.012-3.007-.005-6.013-.022-9.02-.043l-2.637.002c-6.341-.065-12.334-1-18.537-2.293l1-2c7.712-1.364 15.79-1.149 23.602-1.133l3.162-.003c2.18 0 4.36.001 6.54.006 3.347.005 6.695 0 10.044-.007 2.126 0 4.252.002 6.379.004l3.036-.006 2.794.01 2.461.002C304 433 304 433 306 434v2c3.605-.278 7.209-.575 10.813-.875l3.103-.238 2.979-.254 2.745-.222c2.62-.293 2.62-.293 5.36-2.411 1.902-.633 1.902-.633 3.938-1.125l2.027-.508C339 430 339 430 343 430Z"/><path fill="#E7AE19" d="m239 432-1 4 1.61-.559c3.096-.571 5.551-.074 8.64.497l3.266.59L254 437v1c-12.753.046-25.505.082-38.258.104-5.922.01-11.844.024-17.766.047-5.718.022-11.437.034-17.156.039-2.178.003-4.356.01-6.534.021-3.059.015-6.118.017-9.176.016l-2.708.022c-5.749-.019-10.827-.828-16.402-2.249 2-2 2-2 4.813-2.063L154 434l2.248-.492c3.374-.623 6.543-.602 9.975-.57l4.289.025 2.251.019c11.017.087 21.98.074 32.978-.624 11.07-.658 22.174-.443 33.259-.358Z"/><path fill="#C54219" d="M110 131h1v5h-2v2l-1.965 1.273c-2.287 1.576-2.287 1.576-2.539 4.329l-.058 3.023c-.242 4.776-.98 8.594-2.639 13.052-3.035 8.82-3.104 17.714-3.118 26.952l-.03 4.35a3248.32 3248.32 0 0 0-.056 11.719c-.015 4.093-.042 8.186-.068 12.28-.046 7.737-.083 15.475-.116 23.213-.039 8.816-.088 17.63-.138 26.446-.104 18.12-.193 36.242-.273 54.363h-1l-1-38h-1c-.155-11.702-.303-23.403-.443-35.105-.065-5.435-.133-10.87-.205-16.306-.07-5.258-.134-10.517-.195-15.775-.024-1.993-.05-3.986-.078-5.979-.607-43.443-.607-43.443 6.484-56.773 1.318-2.808 1.617-4.153 1.812-7.125.736-4.639 1.976-6.089 5.625-8.937h2v-4Z"/><path fill="#F53217" d="M125 167h1c.177 4.507.136 7.966-2 12l-2 1c-.03 4.562-.05 9.125-.063 13.688l-.005 2.052c-.02 9.702.169 19.366.8 29.05.21 3.398.356 5.946-.732 9.21l2 2a81.51 81.51 0 0 1 .227 7.204v2.247c0 2.456-.016 4.913-.032 7.37l-.008 5.103a4165.02 4165.02 0 0 1-.05 13.444c-.02 4.571-.03 9.143-.04 13.714-.02 8.973-.055 17.945-.097 26.918-3-2-3-2-3.68-5.348-.508-5.681-.46-11.38-.45-17.079l-.005-3.713c-.003-3.339-.003-6.677 0-10.015.003-3.501 0-7.002 0-10.502-.003-5.872 0-11.743.005-17.615.005-6.788.003-13.576-.002-20.364-.005-5.836-.005-11.673-.003-17.509.002-3.483.002-6.965-.001-10.448-.004-3.875.001-7.751.007-11.627l-.007-3.5.009-3.19.001-2.775C120 176 120 176 121 173h2l.438-2.438C124 168 124 168 125 167Z"/><path fill="#DD282A" d="M172 233h1l-.048 2.959c-.055 3.705-.089 7.41-.117 11.116a659.017 659.017 0 0 1-.061 4.764c-.242 14.961.754 28.932 7.726 42.474l1.184 2.45c1.798 3.644 3.388 6.402 6.316 9.237l1.25 2.25c2.06 3.238 4.53 5.59 7.324 8.2C198 318 198 318 198 320l1.625.688C202 322 202 322 204.5 324.25c4.528 3.93 10.118 6.216 15.5 8.75v3l-1.863-.254-2.45-.308-2.425-.317c-2.43-.269-2.43-.269-5.262.879l.188-2.375L208 331c-2.773-1.938-2.773-1.938-5-3l-1.438-1.5c-1.6-1.75-1.6-1.75-4.562-2.5v-2h-4c-2.563-.375-2.563-.375-5-2-1.016-2.466-1.694-4.902-2.324-7.492-1.347-4.997-4.017-9.849-7.676-13.508a206.38 206.38 0 0 1-2-5l-1.438-2.688c-5.834-12.368-6.194-25.827-5.562-39.312l1-2c.393-2.875.746-5.741 1.063-8.625l.275-2.43c.224-1.981.443-3.963.662-5.945Z"/><path fill="#AA88BC" d="M174.55 57.886h5.503c4.941 0 9.883.006 14.824.013 5.178.006 10.357.006 15.535.008 9.788.003 19.577.01 29.365.021 11.152.011 22.303.017 33.454.022 22.923.01 45.846.028 68.769.05v1c-23.823.705-47.629 1.148-71.462 1.2-5.001.01-10.002.03-15.003.052-14.183.061-28.366.117-42.549.15-7.914.018-15.829.047-23.743.087-4.154.021-8.307.037-12.46.04-3.883.001-7.765.017-11.647.044-1.412.007-2.825.009-4.237.005-8.795-.017-16.458 1.01-24.899 3.422-1.663.35-3.33.688-5 1v-2l-2-1a640.09 640.09 0 0 1 6.187-1.438l3.481-.808c11.778-2.281 23.94-1.894 35.882-1.868Z"/><path fill="#FAD193" d="M96 412c2.097 1.049 4.107 2.181 6.125 3.375l2.195 1.273L106 418v3l4 1v2l8 2v2l3.25-1.125c3.75-.875 3.75-.875 6.188 0L129 428v3l2.45.148 3.238.227c1.055.07 2.111.14 3.199.21 3.02.403 5.354 1.156 8.113 2.415v2c8.885 1.276 17.774 1.175 26.729 1.205l5.383.03c4.85.027 9.701.048 14.552.068 5.077.022 10.153.05 15.23.076 9.605.05 19.21.095 28.814.138 10.938.05 21.876.105 32.815.16 22.492.114 44.985.22 67.477.323v1c-23.662.07-47.325.123-70.987.155-10.99.016-21.978.037-32.966.071-9.586.03-19.172.05-28.757.056-5.069.004-10.137.013-15.205.035-4.786.02-9.572.027-14.358.022-1.742.001-3.483.007-5.225.019-17.111.108-33.654-1.53-49.502-8.358l-1.89-.814c-7.034-3.092-11.92-5.465-16.11-12.186-3.1-1.886-3.1-1.886-6-3v-3Z"/><path fill="#FA0017" d="m203 376 2 1c2 .074 4.003.084 6.004.063l3.685-.024 7.665-.078c5.998-.038 11.775.09 17.719.883 3.042.246 5.926-.358 8.927-.844 2.877-.098 5.748-.05 8.625 0 5.502.15 5.502.15 10.941-.559 3.403-.617 6.343-.044 9.747.497l3.8.59L285 378v-2l3 1c1.845.149 3.694.248 5.543.316l3.252.127 3.392.12 3.428.13c2.795.106 5.59.209 8.385.307v2c-31.545.885-63.07 1.091-94.625 1.063l-2.878-.003c-11.832-.012-23.665-.032-35.497-.06v-1l15-1v-2l3.938.063A59.19 59.19 0 0 0 202 377l1-1Z"/><path fill="#8356A5" d="M261 120c9.033-.093 18.065-.164 27.098-.207 4.196-.021 8.391-.05 12.587-.095 4.059-.044 8.117-.067 12.177-.078 1.538-.007 3.076-.021 4.615-.043 16.446-.224 31.085 3.912 44.273 14.11 2.29 2.355 2.616 3.249 3.25 6.313l1.73.707c3.281 1.869 4.968 4.684 6.957 7.793l1.219 1.887c3.112 5.083 4.441 9.587 4.094 15.613l-1-2h-2c-.8-3.287-1.097-4.71 0-8l-1.938-.313L372 155l-1-3-1.563-1.438C368 149 368 149 368 145l-5-1 .125-2.688c-.77-3.393-.77-3.393-3.242-4.683-1.78-.848-3.575-1.67-5.38-2.465-2.877-1.338-5.035-3.19-7.503-5.164a132.18 132.18 0 0 0-5-1 220.31 220.31 0 0 1-4.625-1.438c-4.632-1.423-9.249-2.349-14.027-3.132C321 123 321 123 318 122l-2 2c-2.164.195-2.164.195-4.625.125l-2.477-.055L307 124v-2l-2.823.016c-3.52.017-7.041.03-10.562.039-1.512.005-3.023.012-4.535.02-9.414.054-18.698-.166-28.08-1.075v-1Z"/><path fill="#DE1F15" d="m64 136 2 2-1 3a76.878 76.878 0 0 0-.063 4.598l.024 2.677.039 2.787c.025 1.825.047 3.649.063 5.473l.035 2.45C65 161 65 161 64 163a108.171 108.171 0 0 0-.098 5.564l.01 3.53.026 3.832.017 5.935c.013 4.187.035 8.375.055 12.562.017 3.44.032 6.88.041 10.32.008 2.582.02 5.164.037 7.746l.01 3.56.016 3.123c-.11 2.722-.554 5.17-1.114 7.828.06 2.107.189 4.213.375 6.313l.293 3.46c.265 2.578.61 5.108 1.02 7.665C65 248 65 248 64 250.75c-1.32 4.293-.7 7.843-.227 12.266.292 3.843-.14 7.192-.773 10.984v2h-2c-.07-16.925-.123-33.85-.155-50.775-.016-7.859-.037-15.718-.071-23.577-.03-6.853-.05-13.705-.056-20.558-.004-3.626-.013-7.252-.035-10.878-.024-4.055-.025-8.11-.024-12.165l-.032-3.614c.025-6.804.834-12.106 3.373-18.433Z"/><path fill="#FEDBB6" d="M137 391c6.625-.25 6.625-.25 10 2v2l3.688-1.063c3.433-.872 5.865-1.014 9.312.063l1 4 7 1v2l2.773.184 3.602.253 3.586.247C181 402 181 402 183 403c1.913.106 3.83.147 5.745.158l3.706.03 4.087.017 4.286.03c3.886.027 7.772.048 11.659.068 4.058.022 8.117.05 12.175.076 7.689.05 15.378.095 23.067.138 8.752.05 17.504.105 26.256.16 18.006.114 36.012.22 54.019.323v1c-18.777.023-37.554.041-56.33.052-8.72.005-17.44.012-26.16.023-7.607.01-15.213.017-22.82.02-4.022 0-8.044.003-12.065.01-3.798.008-7.596.01-11.394.008-2.033 0-4.066.006-6.1.011-29.872-.032-29.872-.032-41.365-6.187-1.853-1.024-1.853-1.024-4.266-1.937-3.61-1.444-7.04-3.231-10.5-5v-1Z"/><path fill="#9862A9" d="M275 178v2l2.75.375c2.84.546 4.776 1.198 7.25 2.625v2l13 2 1 5 2.313.438C304 193 304 193 307 194v2c2.092 1.12 3.762 1.965 6.125 2.313C315 199 315 199 316.25 201.188c.814 3.052.896 5.666.75 8.812-3.608-1.336-5.305-3.524-7.652-6.488-2.1-2.356-4.694-3.833-7.348-5.512a146.256 146.256 0 0 1-3.125-2.625c-2.326-1.921-4.21-3.092-6.875-4.375l-1-2a135.512 135.512 0 0 0-7.938-3c-.722-.26-1.445-.52-2.189-.79-10.143-3.544-19.52-4.513-30.248-4.398l-3.52.002c-6.631-.044-6.631-.044-13.105 1.186l-1-3c3.221-.937 6.23-1.19 9.578-1.316l3.27-.127 3.402-.12 3.355-.13c17.065-.64 17.065-.64 22.395.693Z"/><path fill="#8B5CB2" d="M336 149c4.848.162 7.083.278 10.938 3.313 1.845 2.404 2.733 3.726 3.062 6.687l2-1c1.156 7.452 1.113 13.075-2 20l-.902 2.215L348 182c-3.25.625-3.25.625-7 1l-2.75 1.25c-5.082 1.173-9.617.093-14.25-2.25-1.563-3.563-1.563-3.563-2-7l-2-2c-1.045-6.295.246-13.287 3-19l3-1 1.313-1.563c2.464-2.099 4.552-1.573 7.687-1.437l1-1Zm-11.875 9.625c-2.46 3.906-2.967 6.283-2.754 10.832 1.122 4.538 4.074 7.627 7.629 10.543 5.01 1.67 9.33 1.578 14.25-.125 3.487-2.377 4.96-4.02 6.75-7.875.894-4.74 1.298-9.06-1.469-13.195-3.474-3.518-6.812-6.61-11.844-7.18-5.678.577-8.447 3.243-12.562 7Z"/><path fill="#BF3967" d="M131 63v2l3 1c-2.834 1.976-4.64 2.971-8.125 3.25-4.915.951-8.058 3.228-12.129 6.059-2.862 1.762-5.56 2.663-8.746 3.691-9.468 5.517-17.098 14.645-24 23l-3-1c2.175-4.759 5.481-8.183 9-12l1.934-2.168C98.644 76.46 116.166 63 131 63Zm3 1 2 1Z"/><path fill="#FEDDBB" d="m105 148 1 2c-.665 1.667-1.332 3.334-2 5-.349 2.829-.5 5.632-.656 8.477C103 166 103 166 101 169c-1.491 6.835-1.148 13.86-1.145 20.823l-.01 4.2c-.01 3.79-.012 7.58-.012 11.37l-.006 7.118c-.009 8.294-.013 16.588-.012 24.881 0 7.706-.01 15.411-.026 23.116a9600.54 9600.54 0 0 0-.018 19.907c0 3.954-.002 7.908-.013 11.862-.01 3.724-.01 7.448-.003 11.172.002 2-.006 3.998-.015 5.997.034 9.902 1.187 19.264 3.885 28.804 1.249 4.77 1.658 8.837 1.375 13.75-8.59-9.762-7.3-27.406-7.29-39.51l-.02-4.53c-.018-4.062-.023-8.124-.025-12.186 0-2.55-.005-5.098-.01-7.647-.019-8.923-.027-17.846-.026-26.77.002-8.267-.02-16.535-.051-24.802-.026-7.14-.037-14.28-.036-21.421 0-4.246-.005-8.492-.026-12.738-.188-40.051-.188-40.051 7.484-54.396Z"/><path fill="#E9B358" d="M96 274h1l.044 3.782c.06 4.745.136 9.49.218 14.236.033 2.032.061 4.064.084 6.096.286 27.57.286 27.57 7.654 53.886.558 1.598 1.1 3.203 1.625 4.813l.734 2.19c.557 1.734 1.043 3.49 1.516 5.247 1.398 3.417 3.5 5.19 6.125 7.75 1.313 2.813 1.313 2.813 2 5l-3-1v-2l-3-1c-1.017-1.715-2.03-3.435-2.938-5.21-.987-1.857-.987-1.857-2.613-3.224-1.855-2.005-2.135-3.59-2.636-6.253l-.481-2.45L102 354l-2 1c-2.014-4.29-2.577-8.526-3.063-13.188-.381-5.059-.381-5.059-1.937-9.812-.099-2.346-.13-4.695-.133-7.043l-.004-2.16c-.002-2.328.005-4.656.012-6.985l.003-2.383c.017-13.163.366-26.286 1.122-39.429Z"/><path fill="#AB3FB9" d="m148.41 60.741 3.863-.019 4.145.012 4.269-.005c2.975-.003 5.95 0 8.924.01 3.817.012 7.633.005 11.45-.007a2083 2083 0 0 1 8.804 0c1.408.002 2.816 0 4.224-.005 1.963-.005 3.925.004 5.888.014l3.386.005C206 61 206 61 208 63c-2.95 1.689-5.034 2.244-8.423 2.211l-2.633-.01-2.835-.04-2.961-.017c-3.133-.017-6.265-.048-9.398-.082-4.089-.036-8.177-.067-12.266-.09l-2.99-.016c-8.2-.017-16.322.366-24.494 1.044v-2l-5 1v-2c3.944-1.848 7.071-2.253 11.41-2.259Z"/><path fill="#8346AF" d="M434 142c2.47 3.704 2.305 5.7 2.41 10.129l.06 2.195c.064 2.413.114 4.826.163 7.238.041 1.706.083 3.411.126 5.117.088 3.601.17 7.203.246 10.804.097 4.504.204 9.006.316 13.51.57 23.005.804 45.995.679 69.007-2-2-2-2-2.195-4.842l.07-3.592c.015-1.288.03-2.576.047-3.904.037-2.052.078-4.104.119-6.155.036-1.98.06-3.96.084-5.94l.07-3.596c.04-3.158.04-3.158-2.195-5.971a103.349 103.349 0 0 1-.227-8.052v-2.484c0-2.71.016-5.421.032-8.132l.008-5.637c.008-4.947.028-9.893.05-14.84.02-5.047.03-10.095.04-15.142.02-9.904.055-19.809.097-29.713Z"/><path fill="#A1508C" d="M379 293h2c1.873 5.618 1.601 11.836 1.832 17.728.07 1.617.152 3.233.248 4.849.892 15.034-1.731 27.624-10.955 39.923l-2.367 3.219L368 361l-1-4h2l2-6h2l.313-1.938C374 346 374 346 375.5 342.313c2.33-6.909 2.073-14.162 2.188-21.375.033-1.452.067-2.904.103-4.357.084-3.526.151-7.053.209-10.58h2l-.438-3.875-.246-2.18c-.229-2.019-.229-2.019-1.316-3.945l1-3Z"/><path fill="#B04978" d="M247 204c1.408.08 2.82.108 4.23.098l2.432-.01 2.525-.025 2.561-.014c2.084-.012 4.168-.03 6.252-.049v3c-.585-.01-1.17-.02-1.772-.032-2.66-.041-5.319-.067-7.978-.093-.92-.017-1.84-.034-2.79-.05l-2.694-.02-2.476-.032c-2.523.25-4.088 1.013-6.29 2.227-2 .309-2 .309-4 .438-3.566.355-5.181 1.327-8 3.562l-2.5-.063c-2.647-.22-2.647-.22-4.375 1.938-2.766 2.766-5.37 3.258-9.125 4.125v2l-6 2 1.277-1.46 1.66-1.915 1.653-1.898c1.48-1.683 1.48-1.683 2.41-3.727a143.265 143.265 0 0 1 7-4l3.25-1.75C227 207 227 207 230 207v-2c5.92-1.633 10.985-3.005 17-1Z"/><path fill="#974B83" d="m183.258 119.805 3.118.008c3.25.011 6.5.036 9.749.062 2.219.01 4.437.02 6.656.027 5.407.022 10.813.056 16.219.098-4.5 4-4.5 4-9 4l-2-2c-3.144.202-3.144.202-6.625.875l-3.602.617L195 124v-2c-2.416-.167-2.416-.167-5 0l-2 2c-2.688.27-5.291.087-8 0v-2c-5.39-.513-7.666.93-12 4-2.75 1.063-2.75 1.063-6 2l-2.46.855c-.88.296-1.76.59-2.665.895l-2.508.86c-2.838.468-3.98-.092-6.367-1.61a538.185 538.185 0 0 1 6.375-3.375l1.77-.96c8.617-4.449 17.565-4.961 27.113-4.86Z"/><path fill="#D77719" d="M168 405c7.452-.026 14.905-.043 22.357-.055 2.53-.005 5.06-.012 7.591-.02 3.657-.013 7.313-.018 10.97-.023l3.376-.015c7.61 0 15.127.428 22.706 1.113-7.894 5.263-21.579 3.158-30.97 3.13-2.253-.005-4.506 0-6.759.007-1.438 0-2.876-.002-4.314-.004l-3.907-.004C186 409 186 409 184 408a294.617 294.617 0 0 0-8.125-1.063l-2.285-.275c-1.863-.224-3.726-.443-5.59-.662v-1Z"/><path fill="#D0252C" d="M125 167h1c.177 4.507.136 7.966-2 12l-2 1c-.03 4.562-.05 9.125-.063 13.688l-.005 2.051c-.02 9.731.173 19.425.8 29.139.365 5.929.365 5.929-.732 8.122-.12 2.185-.177 4.373-.205 6.561l-.03 2.04c-.032 2.23-.057 4.459-.081 6.688l-.063 4.632c-.056 4.068-.105 8.135-.153 12.202-.05 4.15-.106 8.298-.161 12.447-.108 8.143-.21 16.287-.307 24.43h-1c-.023-16.377-.041-32.753-.052-49.13-.005-7.603-.012-15.207-.023-22.81-.01-6.627-.017-13.253-.02-19.88 0-3.51-.003-7.019-.01-10.528-.009-3.915-.009-7.83-.009-11.745l-.01-3.538.004-3.225-.003-2.807C120 176 120 176 121 173h2l.438-2.438C124 168 124 168 125 167Z"/><path fill="#C22C61" d="M306 266h1c2.077 6.597 2.354 11.115-.605 17.43C300.129 294.979 292.67 306.823 280 312l-3-1h2v-2h2l.438-1.875C282 305 282 305 283 303l2.313.313L288 303c1.681-2.358 1.681-2.358 3-5l3-2 1.375-2.875C297 290 297 290 299.5 288.375c5.546-5.269 5.793-15.022 6.5-22.375Z"/><path fill="#814CBB" d="M206 61h133l1 3h-12v-1l-8-1v2h-6v-1l-108-1v-1Z"/><path fill="#FCFDE5" d="M242.943 400.938c4.845-.043 9.284.161 14.057 1.062 3.121.258 6.247.41 9.375.563l2.52.13c2.035.106 4.07.207 6.105.307v1h-92v-1c6.6-.828 13.091-1.199 19.738-1.316l3.037-.063c2.108-.043 4.217-.084 6.325-.124 3.193-.06 6.385-.124 9.578-.19 7.088-.144 14.176-.258 21.265-.369Z"/><path fill="#A63F77" d="M405 334h2c.054 1.604.093 3.208.125 4.813l.07 2.707C407 344 407 344 405 347l-.438 2.5c-.562 2.5-.562 2.5-2 3.813-2.07 2.236-2.196 4.51-2.843 7.414-1.323 4.184-3.57 8.203-6.719 11.273-2.7.25-2.7.25-5 0l-1 3-1-2 1.781-2.082c5.994-7.883 9.724-17.71 13.219-26.918.747-1.876 1.497-3.751 2.25-5.625l1.016-2.54L405 334Z"/><path fill="#D98628" d="M120 302h1l.313 3.688c.345 2.905.636 4.233 2.25 6.75 1.727 3.079 1.481 5.296 1.347 8.753.214 6.687 1.956 13.58 3.684 20.024.662 2.91.463 5.816.406 8.785-3.122-3.538-4.633-6.509-6-11l-2-3c-1.491-7.373-1.122-15.142-1.063-22.625l.014-3.332c.012-2.681.028-5.362.049-8.043Z"/><path fill="#EA9841" d="M60 239h1l.06 3.285c.076 4.047.165 8.093.257 12.139.039 1.746.073 3.493.105 5.24.046 2.52.104 5.04.164 7.559l.035 2.343c.128 4.782.931 8.835 2.379 13.434.23 3.02.23 3.02.188 5.813l-.02 2.832C64 294 64 294 63 296a62.58 62.58 0 0 0-.133 4.176l-.004 2.51.012 2.627-.012 2.591c.007 4.159.084 8.042 1.137 12.096l-4 2v-83Z"/><path fill="#A9477D" d="m427 376 2 1c-.79 15.277-13.635 27.79-24.313 37.536-3.658 3.174-7.562 5.936-11.687 8.464l-1-2 5-2v-3l5-1v-2l1.813-1.313c3.308-2.552 4.79-5.521 6.125-9.437L411 400l4-1c.674-1.664 1.34-3.33 2-5l2.438-1.563c3.6-3.425 3.934-6.98 4.886-11.757C425 378 425 378 427 376Z"/><path fill="#774EA5" d="m400 147 .313 1.938L401 151l3 1c5.675 13.604 5.076 30.226 5.125 44.75l.014 2.963-.006 2.771-.004 2.492C409 207 409 207 408 209h-2l-.044-2.484c-.322-26.643-.322-26.643-6.503-52.438-.568-2.605-.115-4.52.547-7.078Z"/><path fill="#F5FDE9" d="M100 171h2l-.195 5.86c.058 2.174.058 2.174 1.19 4 1.112 2.368 1.263 3.912 1.27 6.511l.008 2.49-.023 2.577.023 2.564c-.013 4.439-.186 7.965-2.273 11.998h-1l-1 17h-1c-.025-6.744-.043-13.489-.055-20.233-.005-2.294-.012-4.588-.02-6.882-.013-3.299-.018-6.598-.023-9.897l-.015-3.103v-2.911l-.007-2.55c.127-2.558.558-4.929 1.12-7.424Z"/><path fill="#D41A39" d="m199 245 2 1-2 2v-3Zm-2 3 2 1-.48 1.988c-1.804 10.454-1.403 20.531 3.48 30.012l1.008 2.703c.767 2.453.767 2.453 2.992 3.297v3l4 2v3l1.813.563c3.287 2.16 3.836 4.788 5.187 8.437-4.834-.414-6.895-2.378-10-6l-1-3-1.402-1.387c-1.946-1.965-2.945-3.945-4.16-6.425l-1.254-2.52c-2.286-5.153-3.436-9.465-3.414-15.125l.005-3.62.037-3.736.002-3.794c.046-9.253.046-9.253 1.186-10.393Z"/><path fill="#F94F08" d="m263.207 432.867 3.52-.003c2.445 0 4.89.001 7.335.006 3.755.005 7.51 0 11.264-.007 2.377 0 4.754.002 7.131.004l3.415-.006 3.147.01 2.776.002C304 433 304 433 306 434v2c-7.623.177-15.247.343-22.87.495-3.54.07-7.08.145-10.62.229-4.071.095-8.142.174-12.213.253l-3.848.097-3.579.061-3.15.068c-2.765-.206-4.37-.777-6.72-2.203 3.878-3.878 15.213-2.142 20.207-2.133Z"/><path fill="#9F4882" d="M179 96v1l-1.937.38c-16.626 3.048-16.626 3.048-32.063 9.62l-2.797 1.613a287.142 287.142 0 0 0-5.207 3.153C135 113 135 113 133 114l-1-3 2-1 1-3c9.853-6.935 20.897-9.77 32.703-10.777 2.498-.21 2.498-.21 5.734-.848C176 95 176 95 179 96Z"/><path fill="#964E83" d="M240 202c21.241-.572 37.18 2.107 54 16 3.09 3.047 5.605 5.816 7 10h-4l-1.313-3.313c-1.194-2.775-2.218-4.835-4.687-6.687l-3-1v-2l-5-1v-2l-1.582-.379c-3.057-.785-6.08-1.66-9.106-2.559l-3.511-1.027C266 207 266 207 265 205l-2.08.048c-3.098.062-6.196.1-9.295.14l-3.273.076-3.125.029-2.889.048L242 205l-2-3Z"/><path fill="#E21314" d="M220 336c1.376.287 2.75.58 4.125.875l2.32.492c2.555.633 2.555.633 5.118 1.66 4.415 1.25 8.429 1.223 12.992 1.168l2.732-.008c2.863-.011 5.725-.036 8.588-.062 1.948-.01 3.896-.02 5.844-.027 4.76-.022 9.52-.057 14.281-.098l-4 1v3c-3.812.17-7.625.335-11.438.5l-3.24.145c-6.114.261-12.202.406-18.322.355l-1-2-3.063-.438c-5.827-.832-10.9-2.102-14.937-6.562Z"/><path fill="#E71219" d="M96 167h1v75c-2.878-2.878-2.317-5.007-2.414-9.035l-.059-2.156c-.06-2.29-.106-4.58-.152-6.871-.038-1.486-.077-2.97-.117-4.456-.684-26.822-.684-26.822.18-39.732l.119-2.098c.225-3.627.626-7.11 1.443-10.652Z"/><path fill="#FFFCDD" d="M137 391c6.625-.25 6.625-.25 10 2v2l3.688-1.063c3.433-.872 5.865-1.014 9.312.063l1 4 7 1v2l13 1v1c-2.52.027-5.042.047-7.563.063l-2.134.025c-6.063.028-12.002-.018-17.428-3.026-2.123-1.134-4.136-2.167-6.375-3.062-3.61-1.444-7.04-3.231-10.5-5v-1Z"/><path fill="#C03546" d="M220 334c2.605.644 5.209 1.29 7.813 1.938l2.236.552c3.022.752 5.996 1.525 8.951 2.51 14.628 1.234 28.352-.13 42.48-3.906 3.59-.95 6.783-1.339 10.52-1.094-3.813 2.996-7.238 4.98-12 6v2l-3-1a58.238 58.238 0 0 0-4.021-.066l-2.44.03-2.633.044-5.562.05c-2.912.031-5.823.067-8.735.113-23.016.35-23.016.35-33.609-5.171v-2Z"/><path fill="#C22942" d="m377 385 2 1-3 2 1-3Zm-3 3 2 1c-3.705 5.362-7.148 7.937-13.34 9.98-2.837.969-2.837.969-5.668 3.086-5.201 3.058-11.059 2.61-16.93 2.684l-3.517.09c-2.848.07-5.696.123-8.545.16v-1l3.078-.48c7.824-1.299 14.65-2.996 21.899-6.332 4.532-1.78 9.193-2.484 13.992-3.22 3.709-1.185 4.914-2.772 7.031-5.968Z"/><path fill="#C9243C" d="M230 311c1.48.308 2.96.622 4.438.938l2.496.527C239 313 239 313 240 314c1.489.087 2.981.107 4.473.098l2.724-.01 2.865-.026 2.877-.013c2.354-.012 4.707-.028 7.061-.049v2l2.047-.656 2.703-.844 2.672-.844C270 313 270 313 274 313v2c-7.526 2.764-14.269 3.437-22.25 3.313l-3.18.01c-6.972-.05-12.379-.99-18.57-4.323v-3Z"/><path fill="#D61820" d="M172 233h1l-.048 2.959c-.055 3.705-.089 7.41-.117 11.116a659.017 659.017 0 0 1-.061 4.764c-.203 12.537 1.072 23.982 4.226 36.161h-4c-4.11-11.684-4.577-23.682-4-36l1-2c.393-2.875.746-5.741 1.063-8.625l.275-2.43c.224-1.981.443-3.963.662-5.945Z"/><path fill="#C42256" d="m136 142 3 1c-1.556 3.44-3.067 6.077-5.563 8.938-2.683 3.371-3.455 5.907-4.437 10.062-1.571 4.714-1.571 4.714-5 7-.724 2.06-.724 2.06-1 4h-2l-1 3c.727-9.45 3.312-20.872 10-28h3v-2l2-1 1-3Z"/><path fill="#FCFBD9" d="M118 229h1l.031 3.271c.099 10.238.201 20.475.308 30.712.055 5.262.109 10.524.158 15.785.049 5.09.1 10.18.156 15.27.02 1.93.039 3.858.056 5.788.103 11.426.434 22.777 1.291 34.174a174.883 174.883 0 0 1-2-4l-1.117-2.164c-1.275-4.095-1.098-7.954-1.018-12.216l.028-2.84c.034-3.09.082-6.179.13-9.268a6413.275 6413.275 0 0 1 .303-23.357c.081-5.758.15-11.516.22-17.274.14-11.294.293-22.587.454-33.881Z"/><path fill="#F53F07" d="m203 376 2 1c1.813.085 3.63.107 5.445.098l3.262-.01 3.418-.026 3.441-.013c2.812-.012 5.623-.028 8.434-.049l-2 1v2c-10.259 1.13-20.447 1.117-30.75 1.063A5048.344 5048.344 0 0 1 179 381v-1l15-1v-2l3.938.063A59.19 59.19 0 0 0 202 377l1-1Z"/><path fill="#E57501" d="M213 432h26l-1 4 1.688-.563c2.711-.513 4.656-.101 7.312.563v1h-52v-1l21-1-3-1v-2Z"/><path fill="#A64379" d="M131 63v2l3 1c-4.01 2.795-7.22 3.317-12 4-1.693.955-3.359 1.96-5 3-3.713 1.618-6.92 3-11 3v-3c2.561-1.294 5.124-2.585 7.688-3.875l2.185-1.105C125.866 63 125.866 63 131 63Zm3 1 2 1Z"/><path fill="#B63770" d="m227 179 8 1-1 2a66.547 66.547 0 0 1-4.563 1.063c-7.656 1.929-14.055 5.984-20.784 9.977A75.342 75.342 0 0 1 203 196c.245-3.591.537-5.493 3-8.188 6.63-4.005 13.36-5.206 21-5.812v-3Z"/><path fill="#A64D88" d="m434 349 2 1c3.25 10.7-1.595 22.446-6.313 32L428 385c-1.247-3.741-.583-6.115 0-10 .037-2.333.048-4.667 0-7l3-1c2.272-5.806 2.575-11.822 3-18Z"/><path fill="#EE170D" d="M241.86 406.886h2.96c3.213 0 6.427.008 9.64.016l6.701.005c5.87.003 11.738.013 17.607.024 5.993.01 11.985.015 17.978.02 11.751.01 23.503.028 35.254.049v1c-9.138.132-18.276.263-27.414.391-4.246.06-8.492.12-12.737.182-4.91.071-9.821.14-14.732.208l-2.413.034c-10.545.147-21.088.245-31.634.123-4.168-.152-4.168-.152-8.07 1.062a64.583 64.583 0 0 1-4.625-.438l-2.477-.308L226 409v-1c5.324-1.1 10.453-1.135 15.86-1.114Z"/><path fill="#FDBBAE" d="m105 148 1 2c-.665 1.667-1.332 3.334-2 5-.349 2.829-.5 5.632-.656 8.477C103 166 103 166 101 169c-.848 4.54-1.14 8.967-1.205 13.578l-.06 3.82c-.018 1.356-.035 2.711-.051 4.067l-.063 4.207c-.055 3.671-.105 7.342-.153 11.013-.05 3.754-.106 7.508-.161 11.262-.108 7.351-.21 14.702-.307 22.053h-1c-.094-8.425-.164-16.85-.207-25.275-.02-3.914-.049-7.828-.095-11.742-.45-39.497-.45-39.497 7.302-53.983Z"/><path fill="#F71910" d="M236.313 377.5c4.462.468 8.247.254 12.687-.5 2.674-.085 5.324-.047 8 0l1 3 4 1h-47v-1h12v-2c3.31-1.054 5.884-.927 9.313-.5Z"/><path fill="#F51B01" d="M63 152c2 2 2 2 2.188 5.5C65 161 65 161 64 163c-.091 1.88-.118 3.762-.114 5.643v3.58l.016 3.879.005 3.96c.003 3.475.013 6.95.024 10.425.01 3.546.015 7.092.02 10.638.01 6.958.028 13.917.049 20.875l-2 1c-.023-9.11-.04-18.22-.052-27.329-.005-4.23-.012-8.459-.023-12.688-.011-4.079-.017-8.157-.02-12.235-.002-1.56-.005-3.12-.01-4.679-.008-2.176-.009-4.353-.009-6.53l-.006-3.761C62 153 62 153 63 152Z"/><path fill="#9D4C96" d="M275 178v2l2 1c-4.734.852-8.3.801-13 0-2.043-.088-4.088-.13-6.133-.133l-3.441-.004-3.551.012-3.574-.012-3.434.004-3.121.004c-2.417.113-4.44.435-6.746 1.129l-1-3c3.221-.937 6.23-1.19 9.578-1.316l3.27-.127 3.402-.12 3.355-.13c17.065-.64 17.065-.64 22.395.693Z"/><path fill="#A54377" d="M378 324h3c1.03 15.467-3.503 25.029-13 37l-1-4h2l2-6h2l.313-1.938c.566-2.521 1.28-4.66 2.187-7.062 2.032-5.86 2.224-11.847 2.5-18Z"/><path fill="#FEEDD3" d="M143 369c3.026.595 4.945 1.493 7.375 3.375 5.537 4.079 10.942 6.145 17.625 7.625l7 1.625c2 .46 4 .918 6 1.375v1c-19.005-.779-19.005-.779-27-3v-2l-1.875-.188L150 378l-.938-2.438c-.836-2.807-.836-2.807-3.687-3.875L143 371v-2Z"/><path fill="#A04F89" d="M333 269h2c.054 1.416.093 2.833.125 4.25l.07 2.39c-.214 2.59-1.02 4.075-2.195 6.36l.063 3.5c-.07 3.866-.569 4.718-3.063 7.5l-.875 2.125c-1.55 2.584-3.322 2.99-6.125 3.875 1.51-4.733 3.126-9.36 5.063-13.938 1.773-4.318 2.775-8.53 3.542-13.128C332 270 332 270 333 269Z"/><path fill="#D72B50" d="m395 415 4 1h-2v3l-5 2v3c-16.708 9-16.708 9-25 9l4-1v-2h2l1-3c1.885-.471 3.773-.934 5.672-1.348 6.357-1.781 11.679-5.098 15.328-10.652Z"/><path fill="#F59402" d="M185 433c4.48-.059 8.958-.094 13.438-.125l3.818-.05c6.924-.037 13.062.328 19.744 2.175v1c-4.305.193-8.61.372-12.915.537-1.463.058-2.925.12-4.388.187-2.11.094-4.22.175-6.33.253l-3.84.158C190.965 437 188.3 436.301 185 435v-2Z"/><path fill="#CD2444" d="M110 131h1v5h-2v2l-1.965 1.273c-2.287 1.576-2.287 1.576-2.539 4.329l-.058 3.023c-.244 4.728-.953 8.459-2.606 12.863C100.055 164.853 99.11 170.466 98 176h-1a708.505 708.505 0 0 1-.125-7.063l-.07-3.972c.254-5.16 1.334-9.347 3.757-13.903 1.319-2.808 1.618-4.153 1.813-7.125.736-4.639 1.976-6.089 5.625-8.937h2v-4Z"/><path fill="#F28E2C" d="M129 344c1.953.742 1.953.742 4 2 .839 2.678.818 5.174 1 8h2c.672 1.29 1.337 2.581 2 3.875l1.125 2.18C140 362 140 362 140 364l4 2v2h4l1 3c-5.75-1.625-5.75-1.625-8-5l-1.938-.875c-2.783-1.518-3.503-3.381-5.062-6.125l-2.688-2.75c-3.01-4.232-2.814-7.228-2.312-12.25Z"/><path fill="#FDD8D6" d="m224 312 2.185.9c8.759 3.424 16.753 4.539 26.127 4.35l3.167-.016c4.937-.05 9.672-.2 14.521-1.234v4c-15.342.26-30.172.456-45-4l-1-4Z"/><path fill="#EA7D16" d="M96 274h1l1 58c-3.262-4.349-3.37-5.205-3.328-10.363l.014-3.848c.02-1.367.042-2.734.064-4.101l.033-4.178c.111-11.848.56-23.68 1.217-35.51Z"/><path fill="#744C98" d="M365 62c6.436 1.162 12.004 3.08 17.875 5.938l2.258 1.052c3.516 1.68 6.198 3.115 8.867 6.01h-3l-3 2-1-3a171.521 171.521 0 0 0-7-2l-2-2a155.915 155.915 0 0 0-5-2 174.883 174.883 0 0 1-4-2v-2h-4v-2Z"/><path fill="#9D44C7" d="m194.438 60.813 3.26-.038 3.11-.005 2.87-.013C206 61 206 61 208 63c-3.195 1.884-5.515 2.238-9.203 2.195l-2.969-.02-3.078-.05-3.125-.027A1094.76 1094.76 0 0 1 182 65c0-6.516 7.355-4.184 12.438-4.188Z"/><path fill="#F8070D" d="M343 430c2 2 2 2 2 5l4-1v2c-11.955 1.704-23.995.642-36 0v-1l3.176-.148 4.137-.227c.69-.03 1.38-.062 2.091-.094 3.666-.212 5.475-.45 8.596-2.531 1.902-.633 1.902-.633 3.938-1.125l2.027-.508C339 430 339 430 343 430Z"/><path fill="#D11D34" d="m371 431-1 3a49.288 49.288 0 0 1-6.875 2.188l-2.115.528c-8.61 1.934-17.244 1.627-26.01 1.284 2.803-1.558 5.033-2.292 8.223-2.563l2.38-.226 4.93-.422 2.377-.226 2.16-.184c2.247-.313 2.247-.313 4.93-2.379 3.703-1 7.176-1.089 11-1Z"/><path fill="#F46417" d="M62 232c2.889 4.949 2.97 10.373 3 16l-2 6c.134 3.024.451 6.006.773 9.016.292 3.843-.14 7.192-.773 10.984v2h-2c-.025-5.141-.043-10.282-.055-15.424-.005-1.746-.012-3.493-.02-5.24-.013-2.52-.018-5.039-.023-7.559l-.015-2.343c0-4.583.356-8.912 1.113-13.434Z"/><path fill="#8D5A9B" d="M304 194h3v2c2.092 1.12 3.762 1.965 6.125 2.313C315 199 315 199 316.25 201.188c.814 3.052.896 5.666.75 8.812-3.557-1.317-5.374-3.469-7.695-6.402-1.94-2.376-4.107-4.462-6.305-6.598l1-3Z"/><path fill="#BF345F" d="M118 123h2c-.49 4.408-1.824 6.011-5 9-2.992 4.746-5.692 9.68-8.477 14.55L105 149h-1c-.367-7.466-.367-7.466 1.375-10 1.625-1 1.625-1 3.625-1v-2h2v-7l2.375-.188L116 128c1.375-2.476 1.375-2.476 2-5Z"/><path fill="#8C59A2" d="M219 120h41v1c-7.753 1.513-14.559 2.065-22.406 1.156-3.23-.194-5.606.678-8.594 1.844-2.875-.375-2.875-.375-5-1v-2l-5 2v-3Z"/><path fill="#7E4E89" d="m186 90 6 1v5l2.816-.473 3.746-.59 3.692-.597c3.8-.345 7.005-.028 10.746.66v2h-34c1-2 1-2 3.5-2.938L185 93l1-3Z"/><path fill="#AB3D76" d="M306 266h1c2.072 6.581 2.351 11.092-.582 17.398C299.381 296.31 299.381 296.31 296 298c.607-4.128 1.94-7.374 4-11l2-1c2.166-6.478 3.348-13.215 4-20Z"/><path fill="#ED9709" d="M61 276c2.877 5.754 3.304 11.621 3 18l-1 2a62.58 62.58 0 0 0-.133 4.176l-.004 2.51.012 2.627-.012 2.591c.007 4.159.084 8.042 1.137 12.096l-3 2v-46Z"/><path fill="#9562A6" d="m313 208 5 2v2l5 1 1 3h2l4 14-3 1-1.285-2.781c-3.166-6.68-6.223-12.497-11.43-17.864C313 209 313 209 313 208Z"/><path fill="#E8CE57" d="M118 429h9l1 4 3.938.313c7.757.76 15.402 2.274 23.062 3.687v1c-12.72.99-25.685-2.24-37-8v-1Z"/><path fill="#E7D94C" d="m80 400 5 1v3l2.938.813L91 406l1 3 2 1 1.25 2.375c1.603 2.874 1.603 2.874 4.875 4.188L103 418c.68 2.09.68 2.09 1 4-9.305-5.069-17.024-13.113-24-21v-1Z"/><path fill="#A73F61" d="M415 397c1 3 1 3 .375 5.352C410.833 411.1 401.125 417.836 393 423l-1-2 5-2v-3l5-1v-2l1.813-1.313c3.308-2.552 4.79-5.521 6.125-9.437C411 400 411 400 413.125 399.187L415 399v-2Z"/><path fill="#A24EB1" d="M407 295h1c.074 4.893.129 9.786.165 14.679.015 1.663.035 3.327.061 4.99.037 2.396.054 4.79.067 7.186.015.74.03 1.48.047 2.242.001 4.499-.644 7.28-3.34 10.903-1.41-2.82-.669-5.117-.29-8.156.717-7.046.704-14.167.895-21.242l.114-3.696.092-3.365C406 296 406 296 407 295Z"/><path fill="#C2263F" d="m178 219 2 1a2649.79 2649.79 0 0 1-1.875 8.688l-.527 2.474c-.906 4.141-1.992 7.907-3.598 11.838-.443 2.432-.443 2.432-.625 4.813l-.227 2.394L173 252h-1c-.193-12.466.21-21.76 6-33Z"/><path fill="#EDD2EE" d="M329 238c7.068 10.601 4.685 28.056 2.438 39.902L331 280h-1l.016-2.26c.02-3.413.034-6.827.046-10.24l.026-3.555c.017-6.083-.143-11.933-1.088-17.945h-1c-.125-5.75-.125-5.75 1-8Z"/><path fill="#8856AF" d="M230.563 89.938 234 90v4h5l1 2h-21c2.159-2.159 4.38-3.455 7-5 1-1 1-1 4.563-1.063Z"/><path fill="#E37E29" d="m162 375 6 1v2l3-1a65.305 65.305 0 0 1 4.188-.063L179 377v3l12 1v1c-3.23.058-6.458.094-9.688.125l-2.763.05c-8.906.066-8.906.066-12.549-2.175l-1-3-3-2Z"/><path fill="#7C549D" d="M388 126h2l.7 1.934.988 2.504.949 2.496L394 135l5 1v12c-5.843-5.843-10.808-13.562-11-22Z"/><path fill="#7742B9" d="M303 61h36l1 3h-12v-1l-8-1v2h-6v-1l-5.957.195C306 63 306 63 303 61Z"/><path fill="#B2548B" d="M306 246c2.397 2.397 2.283 3.07 2.414 6.352l.117 2.578.094 2.695.117 2.719c.095 2.218.177 4.437.258 6.656l1-15h1c.054 2.542.094 5.083.125 7.625l.05 2.16c.042 4.476-.484 7.994-2.175 12.215-3.592-3.592-3.053-8.986-3.098-13.84.007-1.7.019-3.398.036-5.098l.013-2.65c.012-2.137.03-4.275.049-6.412Z"/><path fill="#F0BD19" d="m61 322 3 1-1 1c-.255 3.471-.185 6.958-.188 10.438l-.037 2.912c-.011 5.692.536 10.86 1.777 16.411.596 2.98.643 5.833.573 8.864l-.055 3.102L65 368h-1c-4.056-15.113-3.295-30.496-3-46Z"/><path fill="#BD3650" d="M198 238c2 2 2 2 2.047 3.91l-.297 2.153-.266 2.16L199 248l-2 1-1 23c-4.863-9.726-2.056-21.603 1.125-31.5L198 238Z"/><path fill="#D0204D" d="m377 385 2 1-3 2 1-3Zm-3 3 2 1c-4.359 6.308-8.844 8.607-16 11l-2.684 1.168c-.764.275-1.528.55-2.316.832l-2-1 1-3c3.44-1.475 6.84-2.658 10.426-3.715 4.81-1.387 4.81-1.387 8.637-4.473L374 388Z"/><path fill="#F9DCDB" d="M183 219c1.515 3.03.38 5.143-.438 8.375-.947 3.764-1.562 6.723-1.562 10.625l-6 2c1.009-8.02 3.838-14.116 8-21Z"/><path fill="#B14277" d="M170 123c-1.568 2.53-2.427 3.812-5.305 4.758l-2.57.367c-2.973.475-5.22.916-8 2.125-2.125.75-2.125.75-4.258-.203L148 129c1.559-.82 3.122-1.63 4.688-2.438l2.636-1.37c4.917-2.19 9.333-2.297 14.676-2.192Z"/><path fill="#F82905" d="m283.91 432.867 3.498-.004 3.654.012 3.667-.012 3.494.004 3.21.004C304 433 304 433 306 434v2h-31v-2c3.209-1.07 5.538-1.13 8.91-1.133Z"/><path fill="#A14D84" d="M405 334h2c.054 1.604.093 3.208.125 4.813l.07 2.707C407 344 407 344 405 347a75.316 75.316 0 0 0-1 5l-4-2c.975-5.802 2.013-10.84 5-16Z"/><path fill="#FEEED0" d="M99 320h1l.332 2.203c.857 5.436 1.862 10.73 3.293 16.047 1.249 4.77 1.658 8.837 1.375 13.75-7.4-8.41-6.143-21.543-6-32Z"/><path fill="#E46C09" d="M121 310c2 1.375 2 1.375 4 4 .19 2.335.049 4.586-.066 6.926.11 5.112 1.436 9.993 2.605 14.949L128 339l-2 2-1-11h-2c-1.258-6.742-2.264-13.135-2-20Z"/><path fill="#B3436D" d="m113 73 2 1c-3.145 2.661-6.101 3.756-10 5l-3 2-2.813.75C94.984 83.399 93.03 85.681 90 89l-2-1c5.192-5.574 10.497-10.026 17-14l1 2 3.375-1.563L113 73Z"/><path fill="#FDE9A5" d="M137 391c6.625-.25 6.625-.25 10 2v3h5v2l3.375-.125C159 398 159 398 161 400c1.984.714 3.983 1.386 6 2-3.194 1.597-5.553.723-9 0-2.117-.914-4.13-1.94-6.164-3.027-1.911-1.054-1.911-1.054-4.336-1.973-3.61-1.444-7.04-3.231-10.5-5v-1Z"/><path fill="#F80510" d="m121 234 3 2c.34 1.971.34 1.971.293 4.352l-.03 2.578c-.024.89-.05 1.779-.076 2.695l-.04 2.719c-.036 2.22-.085 4.437-.147 6.656l-2 1c-.941-2.824-1.117-4.53-1.098-7.45l.01-2.568.025-2.67.014-2.705c.012-2.202.028-4.405.049-6.607Z"/><path fill="#A93E83" d="M131 63v2l3 1c-4.802 3.347-9.219 4-15 4 1-2 1-2 4-3l-4-1a344.566 344.566 0 0 1 3.75-1.5l2.11-.844C127 63 127 63 131 63Zm3 1 2 1Z"/><path fill="#F2401E" d="M121 286c4.24 7.893 3.11 17.295 3 26l-3-2c-.34-2.43-.34-2.43-.293-5.445l.03-3.262c.024-1.128.05-2.256.076-3.418l.04-3.441c.036-2.812.085-5.623.147-8.434Z"/><path fill="#CB3638" d="M220 334c2.605.644 5.209 1.29 7.813 1.938l2.236.552c3.022.752 5.996 1.525 8.951 2.51 1.626.147 3.256.247 4.887.316l2.842.127 2.958.12 2.995.13c2.439.106 4.878.208 7.318.307v1c-3.937.088-7.874.14-11.813.188l-3.333.076c-8.885.078-16.932-1.054-24.854-5.264v-2Z"/><path fill="#DA2E33" d="M206 328c4.065-.289 6.33.421 9.813 2.5l2.394 1.406L220 333v3l-1.863-.254-2.45-.308-2.425-.317c-2.43-.269-2.43-.269-5.262.879l.125-2.313c.096-2.914.096-2.914-2.125-5.687Z"/><path fill="#B13B59" d="M375 384c.813 1.688.813 1.688 1 4-3.537 4.833-8.207 6.984-14 8-2.277-.43-2.277-.43-4-1l2.375-1.063c5.082-2.522 10.604-5.916 14.625-9.937Z"/><path fill="#A44479" d="m227 179 8 1-1 2c-2.223.71-2.223.71-5.063 1.375-3.773.953-7.064 2.044-10.5 3.875L215 189l-2-1c2.172-2.733 3.858-4.729 7.336-5.555A83.325 83.325 0 0 1 227 182v-3Z"/><path fill="#8359A9" d="M354 99v1c-5.83 1.81-8.165 2.06-14 0-2.45-.425-4.91-.8-7.375-1.125l-3.773-.508L326 98v-1c10.216-1.289 18.056-.675 28 2Z"/><path fill="#FAD7EE" d="M138 110c1 3 1 3 .375 5.125C137 117 137 117 134.562 117.438c-2.796.32-2.796.32-4.375 3-1.327 2.394-1.327 2.394-1.187 4.562l-3-1v-2l-2-1 2.313-1.813c2.556-1.989 2.556-1.989 4.124-3.687 2.284-2.192 4.91-3.79 7.563-5.5Z"/><path fill="#94549A" d="M382 272v24c-3.47-5.204-3.088-10.575-2.938-16.633-.06-2.284-.418-4.183-1.062-6.367 2-1 2-1 4-1Z"/><path fill="#974A92" d="m210.375 119.875 2.52.027c2.035.024 4.07.06 6.105.098-4.5 4-4.5 4-9 4l-2-2c-3.144.202-3.144.202-6.625.875l-3.602.617L195 124v-2c5.25-2.158 9.808-2.24 15.375-2.125Z"/><path fill="#FEDFE7" d="m287 307 2 4-3.188 1.25c-3.399 1.444-6.026 3.302-8.812 5.75l-4-2c2.516-2.86 5.339-4.415 8.688-6.188l3.011-1.605L287 307Z"/><path fill="#915BA7" d="M381 240h1v32h-2c-1.273-8.435-1.273-8.435-.535-12.664.626-3.905.88-7.766 1.098-11.711l.13-2.23c.105-1.798.207-3.597.307-5.395Z"/><path fill="#E3C15A" d="M107 359c3.082 2.055 3.495 2.619 4.875 5.813 1.82 3.84 3.989 6.28 7.125 9.187 1.715 1.964 3.354 3.977 5 6l-1.813-.938c-2.277-1.164-2.277-1.164-5.187-2.062-1.387-1.559-1.387-1.559-2.688-3.438l-1.324-1.87C112 370 112 370 112 368l-3-1c-.73-1.848-.73-1.848-1.188-4.063l-.48-2.222L107 359Z"/><path fill="#F3A617" d="M95 328c6.137 7.117 6.55 17.984 6 27-2.647-2.647-2.521-4.442-3-8.125-.54-3.88-1.11-7.653-2.125-11.438C95 332 95 332 95 328Z"/><path fill="#F41019" d="M186 309c2.438 1.25 2.438 1.25 5 3 .625 2 .625 2 1 4 1.479 1.73 1.479 1.73 3 3-1 2-1 2-3 3-2-.5-2-.5-4-2-1.442-3.894-2-6.835-2-11Z"/><path fill="#8553A6" d="m271 91 2 5h-15c4.835-4.835 6.455-5 13-5Z"/><path fill="#8656A9" d="m247.7 91.61 2.988.14 3.011.11L256 92l1 4h-15c3-4 3-4 5.7-4.39Z"/><path fill="#CE2650" d="M343 376c-.613 1.887-.613 1.887-2 4-6.478 2.51-13.227 3.733-20 2v-1l2.957-.586 3.856-.789 3.832-.773c11.257-2.857 11.257-2.857 11.355-2.852Z"/><path fill="#CC1E44" d="M125 167h1c.177 4.507.136 7.966-2 12l-2 1c-.465 1.895-.465 1.895-.625 4.063L121 188h-1c-.027-1.937-.046-3.875-.063-5.813l-.035-3.269C120 176 120 176 121 173h2l.438-2.438C124 168 124 168 125 167Z"/><path fill="#EDB618" d="M103 356c2.33 2.12 3.612 4.002 4.875 6.875 1.804 3.795 4.108 6.188 7.125 9.125 1.313 2.813 1.313 2.813 2 5l-3-1v-2l-3-1c-1.037-1.75-2.07-3.506-3.02-5.305-.924-1.804-.924-1.804-2.668-3.195-2.158-2.467-2.013-5.336-2.312-8.5Z"/><path fill="#FDE5DF" d="M196 276c2.352 2.352 2.916 4.183 4 7.313 1.257 3.599 2.56 7.157 4 10.687l-4-1v-4h-3c-.702-4.386-1.108-8.558-1-13Z"/><path fill="#EAB657" d="m151 399 2.973.84c9.415 2.56 18.264 3.88 28.027 4.16v1c-15.157.17-15.157.17-21.688-.188l-2.199-.105c-3.177-1.063-4.895-3.272-7.113-5.707Z"/><path fill="#AA44B3" d="M335 242c.553 2.076 1 3.844 1 6l3 1-1 1c-.244 2.483-.384 4.966-.523 7.457-.547 2.916-1.65 4.256-3.477 6.543-.029-3.48-.047-6.958-.063-10.438l-.025-3.01-.01-2.86-.016-2.65C334 243 334 243 335 242Z"/><path fill="#FDD5D8" d="M195 242h2l-.438 1.625c-1.322 5.585-1.755 10.911-1.75 16.625l-.001 2.04A64.13 64.13 0 0 0 196 274l-3-2c-.372-2.335-.372-2.335-.363-5.234l.002-3.18.048-3.336-.01-3.29c.037-5.347.136-9.977 2.323-14.96Z"/><path fill="#B7476B" d="m218 212 1 2 4-1c-1.894 3.342-2.94 3.98-6.688 5.25L213 219v2l-6 2 1.277-1.46 1.66-1.915 1.653-1.898c1.48-1.683 1.48-1.683 2.41-3.727 2.063-1.125 2.063-1.125 4-2Z"/><path fill="#FBC7CE" d="m105 148 1 2c-.665 1.667-1.332 3.334-2 5-.349 2.829-.5 5.632-.656 8.477C103 166 103 166 101 169a128.213 128.213 0 0 0-1 7h-1c-.582-9.699 1.362-19.451 6-28Z"/><path fill="#FD062C" d="m303.813 377.438 2.388.158c1.934.129 3.866.265 5.799.404v2h-23l1-2c4.544-1.474 9.127-.904 13.813-.563Z"/><path fill="#FDF5D0" d="M106 355c3.906 1.267 6.06 2.315 8 6 .529 2.68.772 5.268 1 8h2l-1 2c-5.303-3.535-7.901-10.086-10-16Z"/><path fill="#764B9A" d="m353.375 99.75 2.398-.078c2.771.408 3.457 1.212 5.227 3.328l1.688 1.688L364 106c-2.106-.255-4.21-.53-6.313-.813l-3.55-.457c-3.131-.729-4.233-1.222-6.137-3.73 1.58-1.58 3.194-1.208 5.375-1.25Z"/><path fill="#F0A221" d="m154 402 2 1c1.58.179 3.164.32 4.75.438 4.009.36 7.481 1.074 11.25 2.562v1c-2.625.027-5.25.047-7.875.063l-2.262.025c-5.636.025-5.636.025-7.863-1.088v-4Z"/><path fill="#BB2F52" d="m283 303 6 1c-1.043 3.244-2.612 4.602-5.438 6.313C280 312 280 312 277 311h2v-2h2l.438-1.875C282 305 282 305 283 303Z"/><path fill="#BA3368" d="m130 110 1 2h2l-1 3h-2l-.688 1.938C128 119 128 119 125.376 119.75L123 120v-3l3-2c.683-1.325 1.35-2.658 2-4l2-1Z"/><path fill="#B04C7E" d="M329 287h4l-2 5-.75 2.688C329 297 329 297 325.875 298.313L323 299c.423-1.484.864-2.962 1.313-4.438l.738-2.496L326 290l3-1v-2Z"/><path fill="#AA609E" d="m149 59-1 2c-2.547.816-2.547.816-5.75 1.563l-3.172.753A311.35 311.35 0 0 1 131 65v-2l-2-1c2.207-.508 4.415-1.006 6.625-1.5l3.727-.844c3.32-.597 6.287-.78 9.648-.656Z"/><path fill="#C52953" d="m395 415 4 1h-2v3l-5 2v3c-2.647 1.46-3.894 2-7 2 1.424-3.561 2.661-4.33 6-6 2.228-2.534 2.228-2.534 4-5Z"/><path fill="#F9CFE9" d="M379 341c.955 2.17 1.144 3.563.398 5.824-.757 1.744-1.574 3.462-2.398 5.176h-2l1 4-4 3-2-2 1.46-2.23 1.915-2.957 1.898-2.918c1.547-2.593 2.702-5.064 3.727-7.895Z"/><path fill="#FDE9C7" d="M118 312h1c2.296 14.597 2.296 14.597 2 22a174.883 174.883 0 0 1-2-4l-1.094-2.219c-1.12-3.436-.893-6.01-.531-9.594l.336-3.519L118 312Z"/><path fill="#D86F34" d="M120 302h1l.184 3.078c.503 8.317 1.077 16.622 1.816 24.922h-2c-.982-3.276-1.116-6.228-1.098-9.64l.01-3.243.025-3.367.014-3.414c.012-2.779.028-5.557.049-8.336Z"/><path fill="#9547A9" d="M333 248h1l1 13h1v8l-4 1 1-22Z"/><path fill="#FCEAEF" d="m190 209 3 2a56.54 56.54 0 0 1-4 7h-2v2l-3-1c1.37-3.995 3.257-6.8 6-10Z"/><path fill="#B54558" d="M125 156h1c.054 1.791.093 3.583.125 5.375l.07 3.023C126 167 126 167 124 169c-.643 2.069-.643 2.069-1 4h-2l-1 3c.545-7.087 2.61-13.328 5-20Z"/><path fill="#FAE8DF" d="M270 316v4h-23v-1l2.598-.148C256.393 318.407 263.39 316 270 316Z"/><path fill="#AE3B7F" d="M247 204h18v3h-19l1-3Z"/><path fill="#F30A02" d="M63 152c2 2 2 2 2.188 5.5C65 161 65 161 64 163c-.23 2.371-.411 4.747-.563 7.125l-.253 3.883L63 177h-1c-.029-3.98-.047-7.958-.063-11.938l-.025-3.443-.01-3.271-.016-3.031C62 153 62 153 63 152Z"/><path fill="#754A9D" d="m400 147 .313 1.938L401 151l3 1c1.522 3.604 2 6.052 2 10h-2l-1-5h-2c-1.837-3.782-2.158-5.946-1-10Z"/><path fill="#FADCFA" d="m174.25 97.875 3.266.055L180 98v2h5v1c-7.094.097-13.982.1-21-1 3.477-2.143 6.212-2.213 10.25-2.125Z"/><path fill="#EBD35D" d="M67 377h2l.988 2.082 1.325 2.73 1.3 2.708c1.239 2.48 1.239 2.48 3.012 4.105 2.124 2.124 2.054 4.482 2.375 7.375-3.512-3.154-5.552-6.464-7.75-10.625l-1.86-3.477C67 379 67 379 67 377Z"/><path fill="#FBEDB1" d="M126 382c6.879 1.18 6.879 1.18 10 3 .813 3.125.813 3.125 1 6-5.201-2.177-7.68-4.607-11-9Z"/><path fill="#AE456B" d="M303 280h2c-.894 7.522-2.965 12.331-8 18-.586-1.871-.586-1.871-1-4 1.375-2.063 1.375-2.063 3-4l1-3 2-1c.658-3.03.658-3.03 1-6Z"/><path fill="#934FA1" d="M219 120c1.916-.054 3.833-.093 5.75-.125l3.234-.07c2.94.19 4.54.668 7.016 2.195-4.122 1.63-6.707 2.263-11 1v-2l-5 2v-3Z"/><path fill="#975098" d="m186 90 6 1v5h-12l4-2c1.268-2.034 1.268-2.034 2-4Z"/><path fill="#F9E1BB" d="M131 355c4.763 4.513 4.763 4.513 6.063 7.188 1.215 2.35 2.607 2.684 4.937 3.812l1 3h-2v-2l-2.813-.188c-3.187-.812-3.187-.812-5-3-1.25-2.962-1.816-5.625-2.187-8.812Z"/><path fill="#AA3D64" d="m141 135 3 2h-2l-1 4-5 1-1 4h-2v2l-2-1c2.88-4.653 6.04-8.22 10-12Z"/><path fill="#7B4C9A" d="M326 121c2.313-.328 2.313-.328 5-.25l2.688.047C336 121 336 121 338 122v2c-5.023 1.13-8.979.78-14 0l2-3Z"/><path fill="#EEB506" d="M171 434c6.95-.266 13.235.388 20 2v1c-2.396.054-4.791.094-7.188.125l-2.04.05c-4.06.04-7.122-.375-10.772-2.175v-1Z"/><path fill="#D71829" d="M351 404v1c-7.411 1.426-14.449 2.3-22 2l1-2c2.42-.51 4.74-.888 7.188-1.188l2.001-.287c4.162-.538 7.717-.423 11.811.475Z"/><path fill="#FBDAA4" d="M121 336c3.55 3.077 4.73 5.513 6 10a667.712 667.712 0 0 0 1.625 4.875L130 355c-5.923-5.873-5.923-5.873-6.188-9.75L124 343h-2l-1-7Z"/><path fill="#EFCCEB" d="M264 200v2h5v2l-21-2v-1c5.385-.917 10.542-1.111 16-1Z"/><path fill="#E6BB53" d="m133 389 18 9c-2.953 1.477-5.013.498-8.11-.332-2.28-.806-3.345-1.829-4.89-3.668l-2.688-1.563L133 391v-2Z"/><path fill="#DD4053" d="M219 308h7l1 2 3 1v3h5l-1 2c-5.48-1.545-10.114-4.155-15-7v-1Z"/><path fill="#BC3D60" d="m206 224 2 3c-2.485 4.785-4.48 7.86-9 11 1.293-5.76 3.38-9.332 7-14Z"/><path fill="#A9335D" d="M232 209c-.648 1.953-.648 1.953-2 4-2.602.61-2.602.61-5.625.75l-3.04.172L219 214l1-3c4.092-1.808 7.557-2.212 12-2Z"/><path fill="#BD5286" d="m141 103 2 1c-2.225 5.758-4.669 7.385-10 10l-1-3 2-1 1-3a107.027 107.027 0 0 1 6-4Z"/><path fill="#DE9243" d="M151 373c2.316.421 4.627.862 6.938 1.313l3.902.738L165 376l1 3c-6.106.783-10.005-1.892-15-5v-1Z"/><path fill="#D91236" d="M292 334c-3.813 2.996-7.238 4.98-12 6v2l-4-2c2.647-1.46 3.894-2 7-2v-3c3.196-1.065 5.657-1.074 9-1Z"/><path fill="#D0362B" d="M174 288h4c3.077 5.415 3.077 5.415 2.688 8.375L180 298c-3.483-3.019-4.792-5.57-6-10Z"/><path fill="#8156AF" d="m336.75 180.875 2.984.055L342 181c-2 3-2 3-5.25 3.813-3.842.192-6.229-.353-9.75-1.813 3.35-2.026 5.87-2.217 9.75-2.125Z"/><path fill="#825EA9" d="M365 62c4.836.99 9.476 1.957 14 4l-2 1v2c-2.929-.628-5.361-1.586-8-3v-2h-4v-2Z"/><path fill="#A96498" d="M291 216c4.595 3.55 7.765 6.477 10 12h-4l-1.313-3.313c-1.196-2.825-2.394-4.613-4.687-6.687v-2Z"/><path fill="#7C4EAC" d="m396 135 3 2c.293 2.602.293 2.602.188 5.625l-.083 3.04L399 148c-3.067-2.934-3.97-4.153-4.125-8.563C395 136 395 136 396 135Z"/><path fill="#BC325E" d="m88 94-7 8-3-1c4.429-8.857 4.429-8.857 10-7Z"/><path fill="#FD3C08" d="m269.813 432.938 2.957.027L275 433v3c-1.916.054-3.833.093-5.75.125l-3.234.07c-2.94-.19-4.54-.668-7.016-2.195 3.674-.853 7.045-1.108 10.813-1.063Z"/><path fill="#FCCF1B" d="M128 431c2.063.115 4.125.242 6.188.375 1.148.07 2.297.14 3.48.21 3.132.39 5.485 1.096 8.332 2.415v1c-6.283.233-11.88-.595-18-2v-2Z"/><path fill="#F5B12F" d="M117 377c4.387.506 6.844 3.13 10 6v1h-6l-1-3h-2l-1-4Z"/><path fill="#BA3868" d="m388 372 4 1a242.9 242.9 0 0 1-2.813 3l-1.582 1.688C386 379 386 379 383 379v2l-2-1c2.625-4.875 2.625-4.875 6-6l1-2Z"/><path fill="#F9D9CD" d="M220 333c5.955.392 10.628 1.371 16 4v1c-6.003.632-10.634-1.625-16-4v-1Z"/><path fill="#CD2258" d="M311 318h2l-2 4h-2v3c-2.652 1.075-5.284 2.095-8 3v-2h2v-3c2.647-1.46 3.894-2 7-2l1-3Z"/><path fill="#D61220" d="M122 227c1.125 3.75 1.125 3.75 0 6a98.547 98.547 0 0 0-.316 5.008l-.127 2.988-.12 3.129-.13 3.152A2507.25 2507.25 0 0 0 121 255h-1a1903.79 1903.79 0 0 1-.125-12.313c-.017-1.167-.034-2.334-.05-3.537l-.02-3.388-.032-3.127C120 230 120 230 122 227Z"/><path fill="#955E9A" d="M328 231h5c-.114 1.48-.241 2.96-.375 4.438-.07.823-.14 1.647-.21 2.496L332 240l-2 1-2-10Z"/><path fill="#C8274D" d="M130 150h1c-.326 6.323-.615 11.555-4 17h-1v-11l1 3h2l-.063-3.375C129 152 129 152 130 150Z"/><path fill="#B2384F" d="M109 138c-.508 4.371-1.452 7.39-4 11h-1c-.367-7.466-.367-7.466 1.375-10 1.625-1 1.625-1 3.625-1Z"/><path fill="#894DAC" d="M304 121h14l-2 3c-2.164.293-2.164.293-4.625.188l-2.477-.083L307 124v-2l-3-1Z"/><path fill="#B2324E" d="M198 238c2 2 2 2 2.047 3.91l-.297 2.153-.266 2.16L199 248l-2 1-2 3c.514-4.97 1.234-9.29 3-14Z"/><path fill="#FC4C0E" d="M62 232c1.885 3.77 2.429 5.905 2.813 10l.332 3.125C65 248 65 248 62 252v-20Z"/><path fill="#7E45AE" d="M435 203h1l1 25-2 1c-1.243-5.542-.911-10.759-.563-16.375l.159-2.809c.129-2.272.263-4.544.404-6.816Z"/><path fill="#956EB5" d="M341 151c2.664.36 4.582.712 6.813 2.25 1.58 2.33 1.41 3.995 1.187 6.75-6.571-5.143-6.571-5.143-8-9Z"/><path fill="#EBDB3A" d="m80 400 5 1v3l2.938.813L91 406l1 3 2 1h-3v-2l-2.688-.625c-4.235-1.758-5.617-3.729-8.312-7.375Z"/><path fill="#FADAA6" d="m155 376 2 .875c3.025 1.134 5.983 1.876 9.133 2.563C168 380 168 380 171 382l-16-2v-4Z"/><path fill="#F97506" d="M171 377h8v4c-6.75.125-6.75.125-9-1l1-3Z"/><path fill="#AC5C8D" d="m399 350 2 4h-2l-1 7h-2l-1 3c-1.305-3.916-.322-5.039 1.438-8.688l1.433-3.011L399 350Z"/><path fill="#845EA9" d="M401 157h2l1 5h2v9l-2 1-3-15Z"/><path fill="#BC437E" d="m113 73 2 1c-3.563 3.408-8.153 4.673-13 5l-2-2 6-3v2l3.375-1.563L113 73Z"/><path fill="#A340D1" d="M182 62h14l-1 2c-2.941.414-2.941.414-6.563.625l-3.628.227L182 65v-3Z"/><path fill="#F24309" d="m241.375 406.938 2.52.013c2.035.012 4.07.03 6.105.049v1l-2.773.184-3.602.253-3.586.247c-2.954.127-2.954.127-5.039 1.316a64.583 64.583 0 0 1-4.625-.438l-2.477-.308L226 409v-1c5.173-1.063 10.124-1.117 15.375-1.063Z"/><path fill="#F7D9C0" d="m174 278 3 1v4h2l1 6-2 1a1150.52 1150.52 0 0 1-2-4.875l-1.125-2.742C174 280 174 280 174 278Z"/><path fill="#F6171B" d="m121 253 3 2-1 12-2-1v-13Z"/><path fill="#884FAD" d="M288 121h13c-3 3-3 3-5.227 3.145l-2.398-.332-2.414-.293L289 123l-1-2Z"/><path fill="#B24E79" d="M392 364c.826 2.892 1 4.887 1 8h-5l-1 3-1-2 1.875-2.25c1.73-2.238 2.986-4.187 4.125-6.75Z"/><path fill="#F9CE15" d="M70 366h3l2 6-5 1c-1.125-4.75-1.125-4.75 0-7Z"/><path fill="#C75982" d="M318 306c1 3 1 3 0 6h-4v2h2v2h-5l2-5h2l.938-1.938C317 307 317 307 318 306Z"/><path fill="#F4CCE6" d="M227 185c-1.827 2.463-3.23 3.834-6.27 4.488-2.245.237-4.475.416-6.73.512 1.25-2.502 2.35-2.922 4.813-4.188l2.082-1.105c2.465-.828 3.688-.56 6.105.293Z"/><path fill="#FEDEE8" d="m127 148 2 1c-1.418 4.472-3.113 8.711-5 13h-1l1-10 3-1v-3Z"/><path fill="#D6315A" d="m70 112 1 2h2v4h-2v3l-4-1c1.875-5.75 1.875-5.75 3-8Z"/><path fill="#AF3DA8" d="M144 62v2h14v1l-16 1v-2l-5 1v-2c4.75-1 4.75-1 7-1Z"/><path fill="#BB5764" d="m358 397-1.813.813c-2.232 1.03-2.232 1.03-3.5 2.812-2.685 2.188-5.36 1.563-8.687 1.375 2.25-2.25 4.063-3.005 7-4.188l2.688-1.105C356 396 356 396 358 397Z"/><path fill="#A45E90" d="M430 372h3c-.428 1.42-.868 2.836-1.313 4.25l-.738 2.39C430 381 430 381 427 385l1-10h2v-3Z"/><path fill="#C4415A" d="m294 330-1 4-11 1c7.5-5 7.5-5 12-5Z"/><path fill="#C21D45" d="m202 234 4 1-5 9c-2-4-2-4-1.188-6.688C201 235 201 235 202 234Z"/><path fill="#EBDF24" d="M78 394c4.12 1.373 7.043 4.086 9 8l-2 2-1-3-2.5-.875L79 399c-.813-2.625-.813-2.625-1-5Z"/><path fill="#FBDCF6" d="M311 263h1c.054 1.75.093 3.5.125 5.25l.07 2.953c-.196 2.817-.75 4.406-2.195 6.797h-2l3-15Z"/><path fill="#AD3C52" d="M75 104h3c-.562 3.262-1.414 4.911-4 7l-3 1c1.125-2.972 2.223-5.334 4-8Z"/><path fill="#A96288" d="M119 67c-1 3-1 3-2.707 4.203l-2.106 1.047-2.082 1.078c-2.456.784-3.705.513-6.105-.328 1.789-1.005 3.581-2.004 5.375-3l3.023-1.688C117 67 117 67 119 67Z"/><path fill="#F0DB15" d="M116 426h2v2l3.25-1.125c3.75-.875 3.75-.875 6.188 0L129 428l-1 3-1-1a103.535 103.535 0 0 0-5.063-.563l-2.785-.253L117 429l-1-3Z"/><path fill="#BD2F64" d="m415 397 1 3-3 1v3h-2l-.875 1.938C409 408 409 408 407 409l.875-1.688c1.198-2.328 1.198-2.328 2-5C411 400 411 400 413.125 399.188L415 399v-2Z"/><path fill="#DA9B4F" d="m137 361 3 1v2l4 2v2h4l1 3c-5.75-1.625-5.75-1.625-8-5-2.05-1.192-2.05-1.192-4-2v-3Z"/><path fill="#E7AE35" d="m101 349 1.875 2.375c2.024 2.593 2.024 2.593 4.125 4.625.4 2.323.74 4.657 1 7-2.622-1.311-3.201-2.77-4.625-5.313l-1.352-2.363C101 353 101 353 101 349Z"/><path fill="#EF1009" d="m209 331 11 3v2l-1.863-.254-2.45-.308-2.425-.317c-2.43-.269-2.43-.269-5.262.879l1-5Z"/><path fill="#BD2D5D" d="M314 315v3l-3 1-1 2c-1.875 1.188-1.875 1.188-4 2l-3-1a790.547 790.547 0 0 1 4.375-3.5l2.46-1.969C312 315 312 315 314 315Z"/><path fill="#E65F19" d="M121 310c2.125 1.375 2.125 1.375 4 4-.249 3.448-1.062 6.68-2 10h-1c-.953-4.763-1.083-9.167-1-14Z"/><path fill="#BD3451" d="M181 217h2c-.543 4.565-1.795 7.973-4 12h-1c.115-1.438.242-2.876.375-4.313.07-.8.14-1.6.21-2.425C179 220 179 220 181 217Z"/><path fill="#B52853" d="m216 217 3 1-3 1v2l-9 5v-3l6-2v-2l3-2Z"/><path fill="#9154AA" d="M312 199h3c1.802 3.83 2.196 6.781 2 11l-2-1v-5h-2l-1-5Z"/><path fill="#F9D2DD" d="m115 131 2 3-1.313 1.188c-1.833 1.834-1.833 1.834-3.25 4.5L111 142h-2c1.45-4.11 3.511-7.433 6-11Z"/><path fill="#EE8212" d="M139 360c3 1 3 1 5.375 3.5 2.722 2.592 3.964 3.186 7.625 3.5v1c-7.066.719-7.066.719-9.645-1.266C139 362.75 139 362.75 139 360Z"/><path fill="#9763B4" d="M326 220c2.458 3.687 3.012 6.697 4 11h-3c-1.63-4.122-2.263-6.707-1-11Z"/><path fill="#FBEDEA" d="M107 144h1c.081 1.437.14 2.874.188 4.313l.105 2.425c-.355 2.74-1.187 3.554-3.293 5.262l-2-1c.477-1.459.957-2.917 1.438-4.375l.808-2.46C106 146 106 146 107 144Z"/><path fill="#A3458A" d="m190 121-2 3c-1.945.293-1.945.293-4.125.188L180 124v-2c3.215-1.607 6.436-1.057 10-1Z"/><path fill="#F7E7F1" d="m129 117 3 1-1.5 2.375c-1.665 2.41-1.665 2.41-1.5 4.625l-3-1v-2l-2-1c2.313-2.063 2.313-2.063 5-4Z"/><path fill="#EDDD37" d="M106 423c4.355.506 7.442 1.384 11 4v2c-4.508-1.258-7.491-2.904-11-6Z"/><path fill="#A75B8A" d="M240 202c5.152-.09 9.92.153 15 1v1l-13 1-2-3Z"/><path fill="#BE2C41" d="M361 433h9c-3.146 2.097-5.015 2.52-8.688 3.125l-3.011.508L356 437l2-2h3v-2Z"/><path fill="#EBDA51" d="M118 429h9l1 3c-5.415.37-5.415.37-8.375-1.5L118 429Z"/><path fill="#BA334E" d="m334 380-1 2c-1.96.484-1.96.484-4.375.75l-2.398.297C324 383 324 383 321 381c4.394-.857 8.526-1.09 13-1Z"/><path fill="#FE2304" d="M239 378c-3.204 2.136-4.02 2.231-7.688 2.125l-2.449-.055L227 380v-2c4.084-1.532 7.795-.63 12 0Z"/><path fill="#B63557" d="M350 373v3c-2.647 1.46-3.894 2-7 2 .313-1.938.313-1.938 1-4 3-1 3-1 6-1Z"/><path fill="#E88506" d="m129 344 4 2v5h-4v-7Z"/><path fill="#FBE7DE" d="M189 305c3.254 2.834 4.52 4.686 5 9l-6-5 1-4Z"/><path fill="#F9511B" d="M121 303h3v9l-3-2c-.188-3.625-.188-3.625 0-7Z"/><path fill="#F7D6F5" d="m278 203 3 1v2h-2l-1 2-8-3v-1l8 1v-2Z"/><path fill="#9A3F68" d="M212 189v2l-9 5v-3h3l1-3c2-1 2-1 5-1Z"/><path fill="#8A68AE" d="M378 158c3.459 3.459 4 7.219 4 12h-3l-1-12Z"/><path fill="#AD5A8A" d="m174 120-1 3-12 1 1-2c2.215-.633 2.215-.633 4.938-1.125l2.714-.508C172 120 172 120 174 120Z"/><path fill="#8052A0" d="m288 92 1 4h-9c2.824-2.824 4.03-4 8-4Z"/><path fill="#AF6599" d="m129 63-1 5-9-1c3.137-2.092 6.145-4 10-4Z"/><path fill="#FD1B0A" d="M306 434v2h-11l1-2c3.82-.778 6.268-1.244 10 0Z"/><path fill="#FBEDC7" d="M137 391c6.625-.25 6.625-.25 10 2v2c-4.22-.48-6.797-1.166-10-4Z"/><path fill="#BD4D70" d="M381 378c1 2 1 2 .313 4.563C380 385 380 385 377.875 385.813L376 386c.542-3.796 2.201-5.472 5-8Z"/><path fill="#F80323" d="m285 376 5 2-1 2h-9l1-2h4v-2Z"/><path fill="#F7D19F" d="M143 369c3.153.607 5.189 1.642 7.75 3.563l1.86 1.378L154 375l-4 1-2-3c-2.552-1.205-2.552-1.205-5-2v-2Z"/><path fill="#F2D124" d="m62 354 1 2h2v12h-1c-.338-1.582-.67-3.166-1-4.75l-.563-2.672C62 358 62 358 62 354Z"/><path fill="#A0458F" d="m434 349 2 1c.594 2.649.742 5.292 1 8h-2l-1 2v-11Z"/><path fill="#A93766" d="M371 351h2c-.414 4.833-2.464 6.827-6 10v-4h2l2-6Z"/><path fill="#A355A7" d="M405 324h2c.947 3.702 1.304 5.391-.438 8.875L405 335c-1.26-2.52-.919-3.854-.563-6.625l.31-2.477L405 324Z"/><path fill="#D04E47" d="m191 312 7 6-1 2-3-1v-2l-3-1v-4Z"/><path fill="#D91825" d="M230 311c1.481.281 2.96.575 4.438.875l2.496.492L239 313l1 2-10-1v-3Z"/><path fill="#FDB4C4" d="M196 276c2.35 2.35 2.731 3.957 3.625 7.125.26.91.52 1.82.79 2.758L201 288c-1.953-.68-1.953-.68-4-2-.61-2.383-.61-2.383-.75-5.125l-.172-2.758L196 276Z"/><path fill="#EF2418" d="M121 266h3v7l-3 1v-8Z"/><path fill="#7349A4" d="M376 156h2l1 10-1-2h-2c-.8-3.287-1.097-4.71 0-8Z"/><path fill="#8D62B2" d="m323 154 4 3-5 6c-1.033-2.788-1.045-3.868-.063-6.75L323 154Z"/><path fill="#C7465B" d="M65 123h1c.492 7.262.492 7.262-2 11l-2 2c.31-1.605.623-3.209.938-4.813l.527-2.707C64 126 64 126 65 123Z"/><path fill="#E6CEEB" d="M332 120c8.571-.143 8.571-.143 12 1l-1 3-11-3v-1Z"/><path fill="#DD0C39" d="M71 118h2c-.542 3.796-2.201 5.472-5 8l-1-6 2-1v2h2v-3Z"/><path fill="#CA2E5F" d="M407 410c-1.375 1.5-1.375 1.5-3 3h-2v2h-3c.188-1.875.188-1.875 1-4 4.333-2.333 4.333-2.333 7-1Z"/><path fill="#F8C3D6" d="M357 370c0 3 0 3-1 6l-9 1c3.235-2.489 6.593-4.754 10-7Z"/><path fill="#A35C93" d="M435 358h2l-2 10-2-1 2-9Z"/><path fill="#FEF6D7" d="M126 350c4.004 3.49 5.627 5.65 6 11l-1-3-3-1v-2h-2v-5Z"/><path fill="#A74665" d="M296 298c0 2 0 2-2.375 4.563C291 305 291 305 289 306l-1-3 3-1 1-3c2-1 2-1 4-1Z"/><path fill="#A76FB6" d="m313 208 5 2v2l5 1v2l-4 1-6-8Z"/><path fill="#B73A67" d="m202 192 2 4-5 4c-.37-4.554-.37-4.554 1.5-6.813L202 192Z"/><path fill="#994271" d="M170 123c-3.505 1.963-7.134 2.959-11 4l-1-3c4.053-.982 7.839-1.082 12-1Z"/><path fill="#8B5EAA" d="M369 111h4l2 6c-2.884-1.293-4.872-2.66-7-5l1-1Z"/><path fill="#FCE6F0" d="M364 366c-1.668 3.941-4.227 6.79-7 10l-1-3c1.145-1.824 1.145-1.824 2.813-3.688l1.644-1.886C362 366 362 366 364 366Z"/><path fill="#B54A6E" d="m360 364 4 2h-2l-1 3-3 1-2-3 3-1 1-2Z"/><path fill="#F9AD1B" d="M103 356c2.969 2.545 4.362 5.49 6 9-1.875-.25-1.875-.25-4-1-2.028-2.94-2-4.277-2-8Z"/><path fill="#FDEEAC" d="M106 355c1.875.5 1.875.5 4 2 .985 2.652 1.46 5.205 2 8-2.554-1.277-2.9-2.458-4.125-5l-1.07-2.188C106 356 106 356 106 355Z"/><path fill="#FCE5B3" d="m101 342 4 2v8c-2.834-3.203-3.52-5.78-4-10Z"/><path fill="#FFFBDE" d="M120 334c1.858 3.135 2.201 5.375 2 9h2v2l-3-1c-2.28-6.158-2.28-6.158-1-10Z"/><path fill="#FAE0F6" d="M383 330c.96 3.392.992 5.572 0 9l-2 2c-1.136-3.41-.867-4.003.438-7.188l.87-2.167L383 330Z"/><path fill="#FED1E4" d="m300 320 5 1c-2.615 2.12-5.196 4.13-8 6l-1-3h3l1-4Z"/><path fill="#B3456F" d="m321 301 2 3-2 4h-3l3-7Z"/><path fill="#A048A1" d="M335 261h1v8l-4 1 1-6h2v-3Z"/><path fill="#FBDAF6" d="M240 183c-2.882.96-4.699 1.106-7.688 1.063l-2.449-.028L228 184c4.379-2.92 7.394-3.9 12-1Z"/><path fill="#C34666" d="M130 148c1.316 2.633.748 3.802.063 6.625l-.59 2.477L129 159h-2c-.75-1.563-.75-1.563-1-4 1.13-2.503 2.521-4.67 4-7Z"/><path fill="#ECD2FB" d="m340 152 1 2-10 1v-2c2.957-1.478 5.742-1.06 9-1Z"/><path fill="#F1D9FB" d="M396 145c3 3 3 3 3.188 5.688L399 153l-3 1v-9Z"/><path fill="#B93875" d="M423 387h1c.375 2.25.375 2.25 0 5-2.575 2.016-5.083 3.541-8 5 1.417-3.423 3.068-4.825 6-7l1-3Z"/><path fill="#F9C1CA" d="m339 381-1 2h-10v-1c7.429-2.429 7.429-2.429 11-1Z"/><path fill="#E58B38" d="M133 356c2.867.573 3.861.861 6 3l-1 3a105.022 105.022 0 0 1-5-4v-2Z"/><path fill="#FCD7D2" d="M200 320h4v2h2v2l2 1-2 1a317.62 317.62 0 0 1-6-5v-1Z"/><path fill="#B03249" d="M274 313v2l-9 2v-2c3.371-1.498 5.204-2 9-2Z"/><path fill="#DF0D2D" d="m218 303 3 1v2l4 1c-1 1-1 1-3.563 1.063L219 308l-1-5Z"/><path fill="#FBCADB" d="m190 209 2 1c-1.049 2.622-1.65 3.794-4.125 5.25L186 216c1.074-2.915 1.778-4.778 4-7Z"/><path fill="#834FA8" d="M368 146c4.214 2.883 5.76 5.043 7 10l-3-1-1-3-1.563-1.5C368 149 368 149 368 146Z"/><path fill="#AB5C78" d="M137 139c0 3.106-.54 4.353-2 7h-2v2l-2-1c3.75-5.75 3.75-5.75 6-8Z"/><path fill="#8C67A5" d="M349 127c4.43 1.208 6.981 2.517 10 6a259.725 259.725 0 0 1-4.438-1.313l-2.496-.738L350 130l-1-3Z"/><path fill="#FDF5C7" d="m121 376 4 1v2l3 1v2c-1.813-.188-1.813-.188-4-1-1.75-2.563-1.75-2.563-3-5Z"/><path fill="#D09A54" d="M121 330h2l1 9c-3-3-3-3-3.188-6.188L121 330Z"/><path fill="#E30521" d="m209 292 1 3c2 1.209 2 1.209 4 2v2c-2.169-.506-4-1-6-2l1-5Z"/><path fill="#B86C85" d="m218 212 2 3a100.644 100.644 0 0 1-6 3l-2-1c2.007-3.01 2.839-3.63 6-5Z"/><path fill="#8961B1" d="m338 149 6 1-2 2 1 2-7-2 2-3Z"/><path fill="#B83677" d="m141 103 2 1c-1.188 2.5-1.188 2.5-3 5-2.688.313-2.688.313-5 0v-2a125.024 125.024 0 0 1 6-4Z"/><path fill="#FEDFEC" d="m371 383 4 2-5 4-1-3 2-3Z"/><path fill="#F0FFF3" d="M126 375h2l2 7c-2 0-2 0-3.688-1.25-1.312-1.75-1.312-1.75-1-3.938L126 375Z"/><path fill="#FFF4DC" d="m105 346 1 4h2v5h-2c-1.478-2.957-1.06-5.742-1-9Z"/><path fill="#FEDBF5" d="M397 348h3l-2 6h-2l1-6Z"/><path fill="#EEFFEF" d="m179 284 4 4-1 3h-3v-7Z"/><path fill="#A03873" d="m331 281 2 1v5h-4l-1 2 1-5h2v-3Z"/><path fill="#B13466" d="M303 280h2l-2 10h-2l2-10Z"/><path fill="#944571" d="M244 203c-1.188 1.5-1.188 1.5-3 3-2.688.188-2.688.188-5 0v-2c2.709-1.354 5.01-1.065 8-1Z"/><path fill="#B84368" d="M194 200h4c-1.37 3.161-1.99 3.993-5 6l1-6Z"/><path fill="#87539E" d="M296 187v3c-4.75-.75-4.75-.75-7-3 2.667-1.333 4.167-.671 7 0Z"/><path fill="#7C5391" d="M372 148c2.799 2.528 4.458 4.204 5 8-1.938-.625-1.938-.625-4-2-.75-3.125-.75-3.125-1-6Z"/><path fill="#CA1739" d="M101 149h1v8l-2 1c-.81-2.915-1.218-4.461-.063-7.313L101 149Z"/><path fill="#FBDAEC" d="M150.188 127.375 152 128c-5.75 3.875-5.75 3.875-8 5 .313-1.875.313-1.875 1-4 3-2 3-2 5.188-1.625Z"/><path fill="#7A4A98" d="M374 114h4l1 5-4-1-1-4Z"/><path fill="#835B96" d="M364 108h5v4c-1.938-.313-1.938-.313-4-1l-1-3Z"/><path fill="#82579C" d="M271 94v2h-9c5-3.333 5-3.333 9-2Z"/><path fill="#7644A0" d="M407 88c2.867.573 3.861.861 6 3 .125 2.625.125 2.625 0 5-2.788-1.394-2.893-3.162-4-6l-2-2Z"/><path fill="#8E65AB" d="M387 72c4.75.75 4.75.75 7 3h-3l-3 2-1-5Z"/></svg>