<svg xmlns="http://www.w3.org/2000/svg" width="231" height="218"><path fill="#9C9C9C" d="M0 0h231v218H0V0Z"/><path fill="#7B524F" d="M0 0h231v77c-26.875.313-26.875.313-35.363.388-2.21.032-4.42.066-6.63.1l-3.501.02-3.322.06-2.893.033L177 78l-2 3 2 1 1-3h27v3l-2 1 3 1v5l-2.37.076c-3.523.115-7.045.238-10.567.362l-3.733.119-3.545.127-3.285.11c-2.44-.07-2.44-.07-3.5 1.206l2 1v-2h26v2l-2 1 2 2-2.3.113-3.012.2-2.989.175c-2.943.558-3.88 1.197-5.699 3.512l3 2H0V0Z"/><path fill="#121212" d="M18 182h191v1l-191 1v-2Zm0 2v2h194l-2 3h21v29H0v-33c16-1 16-1 18-1Z"/><path fill="#A7A6A6" d="M54 77h177v45h-18v4h-79c1.035-3.105 1.786-3.786 4-6l2-4H95l1 2H0v-17l34-1v-3l2.512-.013c20.137-.103 40.274-.212 60.412-.326 9.738-.056 19.476-.11 29.214-.158 8.485-.043 16.97-.09 25.454-.14 4.495-.027 8.99-.051 13.486-.072 4.226-.02 8.452-.044 12.678-.071 1.556-.01 3.112-.018 4.667-.023 2.115-.009 4.23-.023 6.345-.039l3.595-.02c2.561.16 2.561.16 3.637-1.138l-15-1v-1l26-1v-2h-26v2H51v-1l1.996-.013c16.007-.103 32.013-.212 48.02-.326 7.74-.056 15.48-.11 23.221-.158 6.744-.043 13.489-.09 20.233-.14 3.573-.026 7.146-.051 10.72-.072 3.982-.023 7.964-.054 11.946-.086l3.617-.017 3.267-.03 2.858-.02c2.107.097 2.107.097 3.122-1.138 1.927-.087 3.857-.107 5.785-.098l3.545.01 3.732.025 3.745.014c3.064.012 6.129.028 9.193.049v-2l-2-1h2v-2H54v-1l151-1v-3l-27 1-1 2H54v-5Z"/><path fill="#A5A5A5" d="M231 162v27a629.31 629.31 0 0 1-38.966 1.114h-5.742c-5.13 0-10.262-.006-15.393-.013-5.386-.006-10.773-.006-16.16-.008-10.17-.003-20.34-.01-30.512-.021-11.591-.011-23.183-.017-34.774-.022-23.818-.01-47.635-.028-71.453-.05l1-3-1-3-2 1c-2.72.072-5.407.093-8.125.063L0 185v-18h21v1h200v-2h-12v-1l-186-1v-1a2777614.138 2777614.138 0 0 1 159.353-.815 171247.867 171247.867 0 0 1 28.845-.147l2.226-.012c5.859-.029 11.717-.026 17.576-.026ZM18 182l1 2 190-1v-1H18Zm-2 4 2 1Z"/><path fill="#52312F" d="M49 68h132c-1 2-1 2-2 3a79.64 79.64 0 0 1-4.805.165l-3.154.034-3.492.022-3.657.035c-3.328.03-6.656.057-9.984.08-2.794.02-5.587.044-8.38.068-6.621.056-13.242.106-19.863.154-6.765.048-13.53.104-20.296.165-5.842.052-11.685.1-17.527.143-3.473.026-6.946.053-10.419.085C59.917 72.106 42.487 71.856 25 71v-1h24v-2Zm3 5c2.017.103 4.036.146 6.055.158l3.837.03 4.218.017 4.435.03c4.016.027 8.032.048 12.049.068 4.196.022 8.392.05 12.588.076 7.947.05 15.894.095 23.841.138 9.048.05 18.095.105 27.142.16 18.611.114 37.223.22 55.835.323v3l-2.263.044c-3.371.074-6.741.171-10.112.269l-3.563.068-3.398.107-3.142.08L177 78l-2 3 2 1 1-3h27v3l-2 1 3 1v5l-2.37.076c-3.523.115-7.045.238-10.567.362l-3.733.119-3.545.127-3.285.11c-2.44-.07-2.44-.07-3.5 1.206l2 1v-2h26v2l-2 1 2 2-2.3.113-3.012.2-2.989.175c-2.943.558-3.88 1.197-5.699 3.512l3 2H0V76h24l1-3c3.937-.197 7.875-.38 11.813-.563l3.392-.17 3.252-.146 3-.143C49 72 49 72 52 73Zm-27 2v1h153v-1c-16.257-.155-32.515-.303-48.772-.443-7.552-.065-15.103-.132-22.655-.205-6.594-.064-13.19-.123-19.785-.177-3.48-.029-6.96-.06-10.44-.096-17.15-.176-34.219.035-51.348.921Z"/><path fill="#5F4B49" d="m199 116-2 4 3 3-2 2 15 1v1l-2.3.113-3.012.2-2.989.175c-2.943.558-3.88 1.197-5.699 3.512l3 2-174 1v1l185 1v1c-23.933.155-47.865.303-71.798.443-11.115.065-22.23.133-33.346.205-9.7.064-19.4.123-29.1.177-5.126.029-10.25.06-15.375.096-21.158.146-42.246.212-63.381-.921v-19h17v-2h13c1.827-.029 3.653-.06 5.48-.092 54.54-.942 108.982-.977 163.52.092Zm14 6h18v4c-2.959.054-5.916.094-8.875.125l-2.55.05-2.442.02-2.254.032C213 126 213 126 211 124h2v-2ZM24 138l2 1Z"/><path fill="#D29D99" d="M54 77h177v29h-21v4h-67l1-3-111-1v-1l176-1v-2h-13v2H19v2H0v-5l34-1v-3l2.512-.013c20.137-.103 40.274-.212 60.412-.326 9.738-.056 19.476-.11 29.214-.158 8.485-.043 16.97-.09 25.454-.14 4.495-.027 8.99-.051 13.486-.072 4.226-.02 8.452-.044 12.678-.071 1.556-.01 3.112-.018 4.667-.023 2.115-.009 4.23-.023 6.345-.039l3.595-.02c2.561.16 2.561.16 3.637-1.138l-15-1v-1l26-1v-2h-26v2H51v-1l1.996-.013c16.007-.103 32.013-.212 48.02-.326 7.74-.056 15.48-.11 23.221-.158 6.744-.043 13.489-.09 20.233-.14 3.573-.026 7.146-.051 10.72-.072 3.982-.023 7.964-.054 11.946-.086l3.617-.017 3.267-.03 2.858-.02c2.107.097 2.107.097 3.122-1.138 1.927-.087 3.857-.107 5.785-.098l3.545.01 3.732.025 3.745.014c3.064.012 6.129.028 9.193.049v-2l-2-1h2v-2H54v-1l151-1v-3l-27 1-1 2H54v-5Z"/><path fill="#111" d="M3 205h228v13H0v-9l3-2v-2Z"/><path fill="#888080" d="M231 126v16c-12.458.859-24.79 1.112-37.273 1.022l-5.914-.03c-5.297-.026-10.593-.058-15.89-.093-5.556-.034-11.113-.063-16.67-.092-10.5-.056-20.998-.117-31.497-.18-11.96-.072-23.919-.138-35.878-.203-20.417-.112-40.833-.228-61.25-.35l-2.588-.015-4.756-.028c-3.142-.022-3.142-.022-6.284-.031H0v-5h27l1-4 3.859-.018c11.978-.057 23.957-.13 35.935-.218 6.159-.045 12.317-.084 18.476-.11 5.94-.026 11.878-.067 17.818-.117 2.27-.017 4.54-.028 6.81-.035 3.171-.01 6.341-.037 9.512-.07l2.868.005c1.292-.02 1.292-.02 2.61-.038l2.273-.014c2.253-.248 2.253-.248 3.839-3.385 2.853-.392 2.853-.392 6.545-.417l2.036-.026c2.224-.025 4.448-.029 6.673-.034 1.542-.014 3.083-.03 4.625-.047 4.062-.042 8.124-.067 12.186-.087 6.506-.036 13.012-.097 19.517-.159 2.279-.019 4.557-.03 6.836-.041l4.166-.031 3.69-.02c2.64.172 2.64.172 3.726-1.138 9.516-1.61 19.386-1.095 29-1Z"/><path fill="#BEBEBE" d="M231 162v20h-19v-1l-192-1v-1l2.965-.013c23.767-.103 47.535-.212 71.302-.326 11.494-.056 22.987-.11 34.48-.158a39229.8 39229.8 0 0 0 30.043-.14c5.305-.027 10.611-.051 15.917-.072 4.988-.02 9.976-.044 14.964-.071 1.836-.01 3.672-.018 5.508-.023 2.496-.009 4.992-.023 7.488-.039l2.231-.003c3.336.263 3.336.263 6.102-1.155a85.688 85.688 0 0 1 4.563-.563l2.503-.253L220 176v-2h2v-2h-12v-1l-190-1c1.692 1.692 3.792 1.122 6.05 1.13l2.207-.01 2.33.003c2.594.002 5.19-.004 7.784-.01l5.557.001c5.046 0 10.09-.006 15.136-.013 5.267-.006 10.533-.006 15.8-.008 9.98-.003 19.96-.011 29.94-.021 11.359-.011 22.718-.017 34.077-.022 23.373-.01 46.746-.028 70.119-.05l1 5H19v4c-3.093 1.546-6.367 1.39-9.785 1.621L7 182l-1 2H0v-17h21v1h200v-2h-12v-1l-186-1v-1a2777614.138 2777614.138 0 0 1 159.353-.815 171247.867 171247.867 0 0 1 21.093-.108c9.185-.047 18.369-.09 27.554-.077ZM8 172v1h12v-1H8Z"/><path fill="#090909" d="M0 198h224v1l7 1c.313 2.313.313 2.313 0 5-2.5 1.75-2.5 1.75-5 3v1H0v-11Z"/><path fill="#A5A0A0" d="M0 143h204v4l11 1v1l-1.934.148-2.504.227c-.823.07-1.647.14-2.496.21L206 150l-1 2H12l-1 2H0v-11Z"/><path fill="#3C3C3C" d="M13 140h13v1l205 1v20c-10.213 1.178-20.344 1.134-30.608 1.114h-5.916c-5.326 0-10.652-.006-15.977-.013-5.576-.006-11.152-.006-16.728-.008a48032.3 48032.3 0 0 1-31.64-.021 70032.51 70032.51 0 0 0-36.036-.022c-24.698-.01-49.397-.028-74.095-.05v-1l-10-1v-1c25.39-.047 50.78-.082 76.17-.104 11.79-.01 23.578-.024 35.366-.047 10.272-.02 20.543-.033 30.814-.037 5.442-.003 10.884-.009 16.325-.023 5.117-.014 10.234-.018 15.35-.015 1.883 0 3.766-.005 5.648-.012 2.562-.01 5.122-.008 7.684-.003l2.281-.017c5.134.03 5.134.03 7.362 2.258v-2l2.117-.184 2.758-.254c.905-.08 1.81-.162 2.742-.246 2.394-.186 2.394-.186 4.383-1.316v-2h-12v-1l-196-1 1-3 193 1 1-3c-2.986-1.493-5.703-1.142-9.036-1.158l-2.22-.015c-2.468-.016-4.935-.024-7.403-.032l-5.291-.03c-4.8-.027-9.599-.048-14.398-.068-5.012-.022-10.023-.05-15.035-.076-9.495-.05-18.99-.095-28.485-.138-10.807-.05-21.615-.105-32.422-.16-22.237-.114-44.473-.22-66.71-.323v-1h179v-3l-2.726.018c-21.998.149-43.996.29-65.995.425-10.639.065-21.277.133-31.916.205-9.285.064-18.57.123-27.854.177-4.905.029-9.81.06-14.716.096-20.292.146-40.524.241-60.793-.921v-1h13v-2Zm10 4 2 1ZM0 154h11v1H0v-1Z"/><path fill="#87625F" d="M0 89h51l-4 3 2.02.013c16.35.104 32.698.213 49.047.326 7.907.055 15.814.109 23.72.158 6.906.044 13.811.09 20.716.14 3.644.026 7.288.05 10.932.072 17.871.105 35.71.467 53.565 1.291v1l-2.3.113-3.012.2-2.989.175c-2.943.558-3.88 1.197-5.699 3.512l3 2H0V89Z"/><path d="M49 68h132c-1 2-1 2-2 3a79.64 79.64 0 0 1-4.805.165l-3.154.034-3.492.022-3.657.035c-3.328.03-6.656.057-9.984.08-2.794.02-5.587.044-8.38.068-6.621.056-13.242.106-19.863.154-6.765.048-13.53.104-20.296.165-5.842.052-11.685.1-17.527.143-3.473.026-6.946.053-10.419.085C59.917 72.106 42.487 71.856 25 71v-1h24v-2Zm3 5c2.017.103 4.036.146 6.055.158l3.837.03 4.218.017 4.435.03c4.016.027 8.032.048 12.049.068 4.196.022 8.392.05 12.588.076 7.947.05 15.894.095 23.841.138 9.048.05 18.095.105 27.142.16 18.611.114 37.223.22 55.835.323v3l-2.263.044c-3.371.074-6.741.171-10.112.269l-3.563.068-3.398.107-3.142.08L177 78l-2 3 2 1 1-3h27v3c-2.627 1.314-4.726 1.213-7.664 1.316l-3.399.127-3.562.12-3.586.13c-2.93.107-5.86.209-8.789.307v1H51v-1l-28-1v-1l28-1v-3L0 77v-1h24l1-3c3.937-.197 7.875-.38 11.813-.563l3.392-.17 3.252-.146 3-.143C49 72 49 72 52 73Zm-27 2v1h153v-1c-16.257-.155-32.515-.303-48.772-.443-7.552-.065-15.103-.132-22.655-.205-6.594-.064-13.19-.123-19.785-.177-3.48-.029-6.96-.06-10.44-.096-17.15-.176-34.219.035-51.348.921Z"/><path fill="#382523" d="M32 102c21.088-.047 42.175-.082 63.263-.104 9.79-.01 19.581-.024 29.372-.047 8.531-.02 17.062-.033 25.593-.037 4.52-.003 9.04-.009 13.559-.023 4.25-.014 8.5-.018 12.75-.015 1.563 0 3.126-.005 4.69-.012 2.127-.01 4.255-.008 6.382-.003l3.615-.005C194 102 194 102 196 104v-2h13v2c-3.066 1.533-6.296 1.336-9.688 1.523-2.682.27-2.682.27-4.312 3.477-2.792.385-2.792.385-6.429.399l-2.022.02c-2.246.019-4.492.016-6.739.013l-4.818.031c-4.37.028-8.74.037-13.11.043-4.562.01-9.125.036-13.688.06-8.645.044-17.29.072-25.935.095-9.84.027-19.68.071-29.521.117-20.246.093-40.492.164-60.738.222v1l166 1v1c-21.386.155-42.773.303-64.16.443-9.933.065-19.866.132-29.8.205-8.673.064-17.346.123-26.02.177-4.578.029-9.157.06-13.735.096-21.459.167-42.843.025-64.285-.921v-7h19v-2h13v-2Z"/><path fill="#714643" d="m183.018 67.88 2.685.006h3.034l3.298.016 3.359.005c3.556.005 7.112.018 10.668.03 2.405.006 4.81.01 7.213.014 5.909.011 11.817.028 17.725.049v9c-17.368.12-34.654-.036-52-1v-1L52 74l-1-5 2.012.003c16.131.022 32.263.038 48.395.049 7.8.005 15.602.012 23.403.023 6.797.01 13.594.017 20.39.02 3.602 0 7.203.003 10.804.01 4.014.009 8.027.009 12.04.009l3.645.01 3.293-.004 2.88.003c2.506-.144 2.69-1.096 5.156-1.243ZM78.382 74.1c3.52.036 7.041.064 10.562.093 6.622.055 13.244.117 19.865.18 7.558.073 15.116.138 22.674.203 15.506.134 31.011.276 46.517.424v1H25v-1c17.808-.921 35.554-1.084 53.382-.9Z"/><path fill="#353535" d="M229 212h2v6H0l1-4h228v-2Z"/><path fill="#826C6B" d="M16 129c114.509-.195 114.509-.195 154.465.29 2.097.022 4.194.04 6.292.056 3.79.03 7.581.084 11.372.142l3.278.02 2.943.06 2.526.033C199 130 199 130 202 133l-174 1v1l185 1v1c-23.933.155-47.865.303-71.798.443-11.115.065-22.23.133-33.346.205-9.7.064-19.4.123-29.1.177-5.126.029-10.25.06-15.375.096-21.154.146-42.25.246-63.381-.921v-6l16-1v-1Zm8 9 2 1Z"/><path fill="#BE7671" d="M54 77h177v12h-25v-2l-2-1h2v-2H54v-1l151-1v-3l-27 1-1 2H54v-5Z"/><path fill="#E4E4E4" d="M231 162v20h-19v-1l-192-1v-1l2.965-.013c23.767-.103 47.535-.212 71.302-.326 11.494-.056 22.987-.11 34.48-.158a39229.8 39229.8 0 0 0 30.043-.14c5.305-.027 10.611-.051 15.917-.072 4.988-.02 9.976-.044 14.964-.071 1.836-.01 3.672-.018 5.508-.023 2.496-.009 4.992-.023 7.488-.039l2.231-.003c3.336.263 3.336.263 6.102-1.155a85.688 85.688 0 0 1 4.563-.563l2.503-.253L220 176v-2h2v-2h-12v-1l-188-1v-1l199-1v-2h-12v-1l-186-1v-1a2777614.138 2777614.138 0 0 1 159.353-.815 171247.867 171247.867 0 0 1 21.093-.108c9.185-.047 18.369-.09 27.554-.077Z"/><path fill="#9E9E9E" d="M231 126v6l-15 1v1h-14v2H28v-3l3.859-.018c11.978-.057 23.957-.13 35.935-.218 6.159-.045 12.317-.084 18.476-.11 5.94-.026 11.878-.067 17.818-.117 2.27-.017 4.54-.028 6.81-.035 3.171-.01 6.341-.037 9.512-.07l2.868.005c1.292-.02 1.292-.02 2.61-.038l2.273-.014c2.253-.248 2.253-.248 3.839-3.385 2.853-.392 2.853-.392 6.545-.417l2.036-.026c2.224-.025 4.448-.029 6.673-.034 1.542-.014 3.083-.03 4.625-.047 4.062-.042 8.124-.067 12.186-.087 6.506-.036 13.012-.097 19.517-.159 2.279-.019 4.557-.03 6.836-.041l4.166-.031 3.69-.02c2.64.172 2.64.172 3.726-1.138 9.516-1.61 19.386-1.095 29-1Z"/><path fill="#B0B0B0" d="M18 184h206l-2 3 9 1v1c-13.003.808-25.94 1.141-38.966 1.114h-5.742c-5.13 0-10.262-.006-15.393-.013-5.386-.006-10.773-.006-16.16-.008-10.17-.003-20.34-.01-30.512-.021-11.591-.011-23.183-.017-34.774-.022-23.818-.01-47.635-.028-71.453-.05l1-3-1-3Zm-2 2 2 1Z"/><path d="M17 188h193v1l15 1-1 3H16l-1-3h2v-2Z"/><path fill="#787878" d="M11 154c26.677-.07 53.354-.123 80.03-.155 12.387-.016 24.772-.037 37.158-.071 10.793-.03 21.585-.05 32.378-.056 5.717-.004 11.434-.013 17.152-.035 5.377-.02 10.753-.027 16.13-.022 1.978-.001 3.955-.007 5.932-.019 2.693-.014 5.384-.011 8.077-.003l2.39-.026c5.3.044 5.3.044 7.762 1.91L219 157c-10.398 1.007-20.699 1.149-31.135 1.145l-5.37.01c-4.822.01-9.644.012-14.465.012-3.015.001-6.03.003-9.044.006-10.52.009-21.04.013-31.56.012-9.806 0-19.61.01-29.416.026-8.43.013-16.862.018-25.292.018-5.031 0-10.062.002-15.093.013-4.72.01-9.439.01-14.158.003-1.734-.002-3.468 0-5.202.007-2.36.008-4.721.003-7.082-.005l-2.093.016c-3.602-.026-4.997-.2-8.09-2.263-2.509-.456-2.509-.456-5.188-.625l-2.73-.227L11 155v-1Z"/><path fill="#7A7A7A" d="M12 148h203v1l-1.934.148-2.504.227c-.823.07-1.647.14-2.496.21L206 150l-1 2c-23.417.047-46.835.082-70.252.104-10.872.01-21.745.024-32.617.047-9.475.02-18.949.033-28.423.037-5.018.003-10.037.009-15.056.023-4.72.014-9.44.018-14.16.015-1.736 0-3.471.005-5.207.012-2.364.01-4.727.008-7.09.003l-2.097.017c-3.606-.023-5.002-.194-8.098-2.258-2.509-.456-2.509-.456-5.188-.625l-2.73-.227L12 149v-1Z"/><path fill="#222" d="M3 205h228v5H0l3-3v-2Z"/><path fill="#010101" d="M0 204h231c-5 5-5 5-7.07 5.621l-2.075-.006-2.416.03-2.62-.044-2.81.013c-3.108.008-6.215-.02-9.323-.046-2.227-.002-4.454-.001-6.682.002-6.049.001-12.098-.028-18.147-.063-6.32-.031-12.641-.034-18.962-.04-10.61-.014-21.22-.045-31.83-.09a14526.535 14526.535 0 0 0-34.824-.106l-10.14-.02C56.067 209.2 28.034 209.112 0 209v-5Z"/><path d="M20 170c25.895-.047 51.79-.082 77.684-.104 12.022-.01 24.045-.024 36.068-.047 10.476-.02 20.952-.033 31.428-.037 5.55-.003 11.1-.009 16.649-.023 5.22-.014 10.438-.018 15.658-.015 1.92 0 3.838-.005 5.758-.012 2.613-.01 5.226-.008 7.84-.003l2.32-.017c3.75.021 5.392.123 8.595 2.258v4l-202-1v-1l187-1v-1H20v-2Zm-12 2h12v1H8v-1Zm11 4h191v1l-191 1v-2Zm-2 2 2 1Z"/><path fill="#4C4241" d="M213 122h18v4c-2.959.054-5.916.094-8.875.125l-2.55.05-2.442.02-2.254.032C213 126 213 126 211 124h2v-2Zm-185 4h185v1l-2.371.184-3.066.254c-1.01.08-2.02.162-3.06.246-2.44.048-2.44.048-3.503 1.316-2.24.11-4.483.147-6.726.158l-2.156.015c-2.401.016-4.803.024-7.204.032l-5.143.03c-4.67.027-9.339.048-14.008.068-4.874.022-9.748.05-14.622.076-9.237.05-18.473.095-27.71.138-10.512.05-21.025.105-31.537.16-21.631.114-43.263.22-64.894.323v1H0v-1h15v-2h13v-2Z"/><path fill="#4C4C4C" d="M208 164c1.604-.054 3.208-.093 4.813-.125l2.707-.07C218 164 218 164 221 166v2c-3.114 1.557-6.416 1.133-9.833 1.12l-2.48.003c-2.758.001-5.516-.004-8.273-.01l-5.913.001c-5.363 0-10.726-.006-16.09-.013-5.6-.006-11.2-.006-16.8-.008-10.61-.003-21.221-.011-31.832-.021a71269.35 71269.35 0 0 0-36.231-.022c-24.85-.01-49.699-.028-74.548-.05v-1l-10-1v-1h199v-2Z"/><path d="M32 102c21.088-.047 42.175-.082 63.263-.104 9.79-.01 19.581-.024 29.372-.047 8.531-.02 17.062-.033 25.593-.037 4.52-.003 9.04-.009 13.559-.023 4.25-.014 8.5-.018 12.75-.015 1.563 0 3.126-.005 4.69-.012 2.127-.01 4.255-.008 6.382-.003l3.615-.005C194 102 194 102 196 104v-2h13v2c-2.434 1.217-4.418 1.32-7.125 1.563l-2.758.253L197 106v1c-21.108.155-42.217.303-63.325.443-9.805.065-19.609.132-29.414.205-8.561.064-17.123.123-25.685.177-4.519.029-9.037.06-13.556.096-21.702.17-43.335-.006-65.02-.921v-1h19v-2h13v-2Z"/><path fill="#97706D" d="M210 106h21v5c-22.996.9-45.955 1.139-68.967 1.101-4.595-.006-9.19-.006-13.785-.008-8.644-.003-17.288-.01-25.932-.021-9.865-.011-19.73-.017-29.595-.022-20.24-.01-40.48-.028-60.721-.05v-3l2.743.003c21.999.022 43.997.038 65.996.049 10.638.005 21.277.012 31.915.023 9.27.01 18.539.017 27.808.02 4.91 0 9.821.003 14.732.01 4.618.007 9.235.01 13.853.008 1.699 0 3.398.002 5.097.006 2.311.005 4.622.004 6.934.001l3.927.003c2.92.085 2.92.085 4.995-1.123v-2Z"/><path d="M33 96h162l-2 3 3 2H0v-1h20v-2h13v-2Z"/><path fill="#907C7A" d="M0 113c17.434-.024 34.868-.041 52.303-.052 8.102-.005 16.204-.012 24.306-.023 39.81-.057 79.589.142 119.391 1.075v1l-101 1 1 2H0v-5Z"/><path fill="#AF5C56" d="M52 71h127l-1 3H52v-3Zm26.382 3.1c3.52.036 7.041.064 10.562.093 6.622.055 13.244.117 19.865.18 7.558.073 15.116.138 22.674.203 15.506.134 31.011.276 46.517.424v1H25v-1c17.808-.921 35.554-1.084 53.382-.9Z"/><path fill="#AC807D" d="M0 67h231v1H49v2l2 2c-2.572 1.286-4.57 1.21-7.445 1.316l-3.262.127-3.418.12-3.441.13c-2.811.107-5.623.209-8.434.307l-1 2H0v-9Z"/><path d="M13 140h13v1l205 1v2h-14v4l-192-1v-1h179v-3l-2.726.018c-21.998.149-43.996.29-65.995.425-10.639.065-21.277.133-31.916.205-9.285.064-18.57.123-27.854.177-4.905.029-9.81.06-14.716.096-20.292.146-40.524.241-60.793-.921v-1h13v-2Zm10 4 2 1Z"/><path fill="#757575" d="M19 180h202v1l10 1v6h-18v-3l-194-1v-1l190-1-190-1v-1Z"/><path fill="#2E0C0A" d="m199 116-2 3c-2.789.388-2.789.388-6.423.405l-2.022.023c-2.248.02-4.496.02-6.744.02a2596.68 2596.68 0 0 1-17.983.09c-4.612.014-9.224.043-13.837.07-7.775.044-15.55.076-23.326.1-8.916.029-17.831.07-26.746.122-9.553.054-19.105.1-28.658.142-2.714.012-5.429.026-8.143.04C42.05 120.118 21.05 119.952 0 119v-1h17v-2h13c1.827-.029 3.653-.06 5.48-.092 54.54-.942 108.982-.977 163.52.092Z"/><path fill="#313131" d="M0 77h53v7c-2.791 1.396-5.202 1.218-8.32 1.316l-3.809.127-3.996.12-4.02.13c-3.285.107-6.57.209-9.855.307l-1 2H0V77Z"/><path fill="#727272" d="m10 163 198 1v2H9l1-3Zm-10 3h9v1H0v-1Z"/><path fill="#A7A6A6" d="M200 117h31v5h-18v4h-79c1-3 1-3 3-5 2.594-.278 2.594-.278 5.918-.319l3.761-.06 4.079-.035a2811.303 2811.303 0 0 1 15.12-.187c3.727-.04 7.454-.091 11.18-.141 7.314-.097 14.628-.181 21.942-.258l1-3Z"/><path fill="#8B6764" d="M30 119c16.77-.03 33.542-.05 50.313-.063l3.734-.002c37.662-.023 75.301.131 112.953 1.065v1c-39.25.95-78.489 1.09-117.75 1.063l-3.758-.003A43070.07 43070.07 0 0 1 29 122l1-3Zm-3 3 2 1Z"/><path fill="#010101" d="M27 132h175v1l-175 1v-2Zm1 3c2.47.105 4.913.155 7.384.158l2.297.015c2.547.016 5.095.024 7.642.032l5.47.03c4.955.027 9.912.048 14.868.068 5.177.022 10.354.05 15.531.076 9.807.05 19.613.095 29.42.138 11.163.05 22.326.105 33.49.16 22.965.114 45.932.22 68.898.323v1l-187 1v-2H15v-1c1.603-.196 3.208-.381 4.813-.563l2.707-.316C25 134 25 134 28 135Zm-4 3 2 1Z"/><path fill="#CCCBCB" d="M0 143h25l-2 3 181 1v1l-2.806.01c-22.499.08-44.998.173-67.498.278-10.88.05-21.76.096-32.64.134-9.481.033-18.962.073-28.442.12a6400.7 6400.7 0 0 1-15.067.061c-4.723.013-9.446.035-14.169.064-1.737.01-3.475.015-5.212.017-2.364.004-4.728.019-7.092.038l-2.105-.006c-3.925-.047-3.925-.047-6.969 2.284-2.596.38-5.166.506-7.785.656L12 152l-1 2H0v-11Z"/><path fill="#C5AAA8" d="M231 104v2h-21v4h-67l1-3-111-1v-1a963333.578 963333.578 0 0 1 99.145-.573 256818.61 256818.61 0 0 1 41.934-.242c38.656-.227 38.656-.227 56.921-.185Z"/><path fill="#877371" d="M28 133c15.354-.03 30.708-.051 46.063-.063l3.45-.002c31.104-.02 62.2.077 93.3.565l2.31.036c8.96.142 17.918.295 26.877.464v1a9912.768 9912.768 0 0 1-32.082.536c-31.473.48-62.942.55-94.418.526l-3.437-.002c-14.02-.011-28.042-.032-42.063-.06v-3Z"/><path fill="#BF8480" d="M54 83h177v6h-25v-2l-2-1h2v-2H54v-1Z"/><path fill="#FAB9B4" d="M0 101h196v1H32v2H19v2H0v-5Z"/><path fill="#272727" d="M228 201h3v3H0v-1l3.542-.013a201335.776 201335.776 0 0 0 93.388-.36l2.056-.008c11.002-.044 22.005-.084 33.007-.124 11.28-.04 22.562-.084 33.842-.132 6.34-.027 12.68-.051 19.02-.072 5.96-.02 11.92-.044 17.879-.071 2.194-.01 4.388-.018 6.583-.023 2.981-.009 5.963-.023 8.945-.039l2.668-.003c3.845.35 3.845.35 7.07-1.155Z"/><path fill="#CCCBCB" d="M215 129h16v3h-17l1-3Zm-9.339 2.916 3.285-.055c.936-.02 1.872-.042 2.836-.064C214 132 214 132 216 134h-14v2h-74l1-3a126900.003 126900.003 0 0 1 40.906-.573 38095.124 38095.124 0 0 1 17.306-.242c3.63-.051 7.26-.1 10.89-.138 2.52-.03 5.04-.073 7.56-.13Z"/><path fill="#B5B5B5" d="M211 114h20v3l-31 1-1 2h-61l1-3 72-1v-2Z"/><path fill="#838383" d="M204 71h27v6c-17.368.12-34.654-.036-52-1v-1l25-1v-3Z"/><path fill="#959595" d="M200 117h31v3c-21.65 2.035-43.276 2.177-65 2.125l-2.164-.005A7214.24 7214.24 0 0 1 137 122v-1l62-1 1-3Z"/><path fill="#5B5B5B" d="M0 67h49v3c-16.344.83-32.635 1.136-49 1v-4Z"/><path fill="#686868" d="M0 83h53c-2.754 2.754-4.466 2.31-8.32 2.414l-3.809.117-3.996.094-4.02.117c-3.285.095-6.57.18-9.855.258l-1 2H0v-5Z"/><path fill="#2D2D2D" d="M0 167h21l1 3h-2v4c-3.093 1.546-6.367 1.39-9.785 1.621L8 176l-1 2H0v-11Z"/><path fill="#919191" d="M214 132h17v3l-3.246.148-4.191.227c-.708.03-1.415.062-2.143.094-1.812.104-3.618.31-5.42.531l-1 2h-89v-1l76-1v-2l12-1v-1Z"/><path fill="#595959" d="M207 90h24v5c-16.694.148-33.323-.237-50-1v-1l26-1v-2Z"/><path fill="#727272" d="M0 101h34l-2 1v2H19v2H0v-5Z"/><path fill="#717171" d="M0 107h31v3H18v2H0v-5Z"/><path fill="#636363" d="M0 77h53c-2.572 2.572-3.676 2.298-7.258 2.414l-3.303.117-3.564.094-3.628.115c-11.749.34-23.495.365-35.247.26v-3Z"/><path fill="#6F6F6F" d="M0 113h30v3H17v2H0v-5Z"/><path fill="#616161" d="M0 89h51c-3.268 2.179-4.398 2.286-8.207 2.414l-3.188.117-3.417.094-3.488.115c-10.9.33-21.796.358-32.7.26v-3Z"/><path fill="#5D5D5D" d="M196 100h35v4h-22v-2h-13v-2Zm-2 2 2 1Zm13 2 2 1Z"/><path fill="#0F0F0F" d="M178 84h28v4l-28 1v-2l-2-1h2v-2Z"/><path fill="#101010" d="M178 79h27v3c-2.818 1.41-5.173 1.112-8.32 1.098l-3.809-.01-3.996-.025c-1.34-.006-2.68-.01-4.02-.014-3.285-.012-6.57-.028-9.855-.049l2-1 1-3Z"/><path fill="#5E5E5E" d="M210 106h21v5h-21v-2l-2-1h2v-2Z"/><path fill="#424242" d="M0 132h25l1 5H0v-5Z"/><path fill="#636363" d="M0 96h33v2H20v2H0v-4Z"/><path fill="#323232" d="M231 142v2h-14v4c-2.125.054-4.25.093-6.375.125l-3.586.07C204 148 204 148 202 146h2l1-3c8.7-1.013 17.255-1.106 26-1Z"/><path fill="#737373" d="M0 137h26c-2.926 2.926-5.783 2.427-9.785 2.656L14 140l-1 2H0v-5Z"/><path fill="#686868" d="M0 119h29v3H0v-3Z"/><path fill="#4F4F4F" d="M204 74h27v3h-29l2-1v-2Z"/><path fill="#6E6E6E" d="M0 149h24c-2.926 2.926-5.783 2.427-9.785 2.656L12 152l-1 2H0v-5Z"/><path fill="#717171" d="M213 122h18v4c-2.959.054-5.916.094-8.875.125l-2.55.05-2.442.02-2.254.032C213 126 213 126 211 124h2v-2Zm-2 4 2 1Z"/><path fill="#505050" d="M206 86h25v3h-25v-3Z"/><path fill="#585858" d="M217 144h14v5h-16v-3h2v-2Z"/><path fill="#4E4E4E" d="M211 183h20v5h-18v-3l-2-2Z"/><path fill="#696969" d="M0 126h26v1l-2.152.148-2.785.227c-.917.07-1.834.14-2.778.21-.754.138-1.508.274-2.285.415l-1 2H0v-4Z"/><path fill="#373737" d="M0 122h27l1 3H0v-3Z"/><path fill="#111" d="M210 178h21v4h-19l-2-4Z"/><path fill="#686868" d="M0 161h22c-2.926 2.926-5.783 2.427-9.785 2.656L10 164l-1 2H0v-5Z"/><path fill="#6C6C6C" d="M0 143h25c-4.416 4.416-13.246 3.056-19.125 3.063A975.537 975.537 0 0 1 0 146v-3Z"/><path fill="#606060" d="M0 173h20c-2.926 2.926-5.783 2.427-9.785 2.656L8 176l-1 2H0v-5ZM219 158h12v4h-23v-1h11v-3Z"/><path fill="#5B5B5B" d="M0 179h19c-2.926 2.926-5.783 2.427-9.785 2.656L7 182l-1 2H0v-5Z"/><path fill="#656565" d="M0 155h23c-4.236 4.236-12.438 3.055-18.125 3.063-1.625-.016-3.25-.035-4.875-.063v-3Z"/><path fill="#0F0F0F" d="M8 175h13l-2 1v2c-3.31 1.655-6.991 1.1-10.625 1.063l-2.43-.014c-1.981-.012-3.963-.03-5.945-.049v-1h7l1-3ZM7 181h13l-2 1v2c-3.188 1.594-6.629 1.102-10.125 1.063l-2.285-.014c-1.863-.012-3.727-.03-5.59-.049v-1h6l1-3Z"/><path fill="#7C7C7C" d="M206 149h25v3h-13v-2h-12v-1Zm10 3 2 1Z"/><path fill="#111" d="M205 150h13v4c-2.125.054-4.25.093-6.375.125l-3.586.07C205 154 205 154 203 152h2v-2Z"/><path fill="#545454" d="M0 185h18c-2.926 2.926-5.783 2.427-9.785 2.656L6 188l-1 2H0v-5Z"/><path fill="#5D5D5D" d="M0 167h21c-4.053 4.053-11.64 3.054-17.125 3.063L0 170v-3Z"/><path fill="#4A4A4A" d="M0 191h18c-3.05 3.05-6.396 2.44-10.566 2.656L5 194l-1 2H0v-5Z"/><path fill="#3C3C3C" d="M231 168v3c-7.737.122-15.307-.152-23-1v-1c7.685-.675 15.284-1.157 23-1Z"/><path fill="#747474" d="M209 165h22v3h-10v-2h-12v-1Zm10 3 2 1Z"/><path fill="#6E6E6E" d="M210 171h21v3h-9v-2h-12v-1Zm10 3 2 1Z"/><path fill="#484848" d="M218 152h13v3h-15l2-1v-2Z"/><path fill="#0B0B0B" d="M203 138h12l1 4h-13l-1-2 1-2Z"/><path fill="#0A0A0A" d="M196 102h13v2c-2.884 1.442-5.417 1.094-8.625 1.063l-3.602-.028L194 105l2-1v-2Z"/><path fill="#161616" d="M209 173h13v3h-12l-1-3Zm-1 3 2 1ZM206 157h13v3h-12l-1-3Zm-1 3 2 1Z"/><path fill="#5C5C5C" d="M212 189h19v3h-6v-2h-13v-1Z"/><path fill="#515151" d="M226 194h5v4l-7-1 2-1v-2Zm-2 4 2 1Z"/><path fill="#969696" d="M224 179h7v3h-8l1-3Z"/></svg>