<svg xmlns="http://www.w3.org/2000/svg" width="101" height="57"><path fill="#049FDF" d="M45.625 31.5c4.763.376 9.184.563 13.938-.125 4.77-.61 7.297.141 11.437 2.625 3.862 4.071 6.289 7.822 6.25 13.5l.016 2.281C76.968 52.27 76.32 53.88 75 56c-2.324 1.162-3.721 1.145-6.31 1.177l-2.7.039-2.924.022-2.996.025c-2.094.014-4.188.024-6.282.032-3.21.017-6.417.061-9.626.105-2.032.01-4.064.019-6.096.026l-2.916.053-2.71-.009-2.384.018C28 57 28 57 26.25 55.116 23.985 51.28 24.403 47.306 25 43c1.702-4.842 4.716-8.215 9-11 3.829-1.442 7.64-.847 11.625-.5Z"/><path fill="#049DDE" d="m50.938-.438 2.458-.06c5.95.005 5.95.005 9.045 2.338C66.445 7.389 66.774 11.247 66 18c-2.297 4.859-5.159 7.67-10 10-4.994.797-8.797.58-13.375-1.625-3.918-3.545-6.118-6.665-7.625-11.75 0-5.266 1.971-9.188 5.32-13.21 3.054-2.571 6.788-1.886 10.617-1.853Z"/><path fill="#089BD9" d="M28.938 27.5 31 29l-3 6h-2l-.445 1.898c-1.814 6.608-1.814 6.608-5.18 8.852C15.76 46.092 12.228 44.747 8 43c-.246-4.188-.39-7.88 1-11.875 5.03-5.344 13.385-6.97 19.938-3.625Z"/><path fill="#049DDF" d="m79.875 26.625 3.68-.023C87.2 27.023 89.077 27.836 92 30c2.808 3.61 2.346 7.637 2 12-1.164 1.734-1.164 1.734-3 3-2.7.293-2.7.293-5.688.188l-3.011-.083L80 45l-3-9h-2a158.814 158.814 0 0 1-5-6c2.702-3.727 5.496-3.403 9.875-3.375Z"/><path fill="#059EE0" d="M84 6c2.93 1.995 4.645 3.428 5.445 6.973.19 3.366-.187 5.625-2.007 8.464C84.19 23.52 81.847 23.933 78 24c-2.88-1.216-4.452-2.303-6.375-4.75-.953-3.432-.542-5.828.375-9.25 3.596-4.125 6.643-4.86 12-4Z"/><path fill="#039FE1" d="M27 7c2.965 3.11 4 4.81 4 9.125-1.356 3.898-3.317 6.033-7 7.875-3.934.525-5.545.307-8.875-1.938-2.481-3.576-2.932-5.685-2.668-9.964C13 10 13 10 15.5 7.375 19.728 5.715 22.738 5.29 27 7Z"/><path fill="#1B7EAE" d="M45.75 31.438c4.694.405 9.13.62 13.813-.063 4.77-.61 7.297.141 11.437 2.625 3.862 4.071 6.289 7.822 6.25 13.5l.016 2.281c-.299 2.49-.928 4.104-2.266 6.219-2.125.75-2.125.75-4 1l1-4h3c-.261-6.606-.931-10.75-5-16v-2c-1.75-.196-3.5-.381-5.25-.563l-2.953-.316c-2.625-.114-4.3.21-6.797.879-1.894.091-3.791.13-5.688.125l-2.949.008C44 35 44 35 43 34c-3.836-.145-7.323-.177-11 1v-2c4.787-1.955 8.697-2.076 13.75-1.563Z"/><path fill="#0B8CC3" d="M27 7c2.965 3.11 4 4.81 4 9.125-1.356 3.898-3.317 6.033-7 7.875-3.934.525-5.545.307-8.875-1.938-2.481-3.576-2.932-5.685-2.668-9.964C13 10 13 10 15.5 7.375 19.728 5.715 22.738 5.29 27 7Zm-13 5c-.417 3.542-.417 3.542 0 7 1.88 2.298 1.88 2.298 4.938 2.313C22.35 20.963 22.884 20.518 25 18l3-1c.2-3.716.152-4.772-2-8-2.098-.477-2.098-.477-4.438-.375l-2.37-.023C16.49 9.092 15.601 9.794 14 12Z"/><path fill="#3192B9" d="m76.18 26.504 3.695.058 3.68.004c4.217.531 7.115 1.725 9.757 5.122 1.074 3.61.988 6.537.688 10.312-1.164 1.734-1.164 1.734-3 3-2.7.293-2.7.293-5.688.188l-3.011-.083L80 45l-2-7 3 2v3h10l-2-13H75l-1 3-4-2c1.743-3.213 2.488-3.92 6.18-4.496Z"/><path fill="#2793BF" d="M84 6c2.93 1.995 4.645 3.428 5.445 6.973.19 3.366-.187 5.625-2.007 8.464C84.19 23.52 81.847 23.933 78 24c-2.88-1.216-4.452-2.303-6.375-4.75-.953-3.432-.542-5.828.375-9.25 3.596-4.125 6.643-4.86 12-4Zm-8 2v2l-3 1 1 10c2.915.81 4.461 1.218 7.313.063L83 20l-1-2h4v-2h-2v-2h2c-.575-3.93-.575-3.93-3-7-3.895-.21-3.895-.21-7 1Z"/><path fill="#0D77A7" d="M28.938 27.5 31 29l-3 6h-2l-.445 1.898c-1.827 6.655-1.827 6.655-5.305 8.79C16.377 46.06 13.638 45.31 10 44v-1h11v-5h2v-4l4-1v-4H13c4.21-4.21 10.8-4.123 15.938-1.5Z"/><path fill="#0D92C8" d="M44 0c-.75 4.75-.75 4.75-3 7-2.706 5.412-2.359 10.225-1 16-3.253-2.857-4.084-5.41-4.914-9.582-.172-4.847 2.319-8.606 5.434-12.145C42 0 42 0 44 0Z"/><path fill="#0C82B8" d="m63 17 2 1c-1.353 4.427-3.233 6.363-7 9-2.454 1.227-4.2 1.202-6.938 1.25l-2.652.078C46 28 46 28 43 25h15v-2h2l.938-2.438C62 18 62 18 63 17Z"/><path fill="#2E90BC" d="M71 37h3c3.06 4.971 3.8 9.288 3 15-.887 2.227-.887 2.227-2 4-2.125.75-2.125.75-4 1l1-4h3a260.428 260.428 0 0 0-.313-4.75l-.175-2.672c-.579-2.915-1.665-4.3-3.512-6.578v-2Z"/><path fill="#137BAC" d="M27 7c1.5 2.063 1.5 2.063 2 4l-2-1a76.728 76.728 0 0 0-5-.188l-2.688-.042c-2.507.003-2.507.003-4.312 2.23-.4 2.323-.74 4.657-1 7h-1c-.355-3.074-.495-5.936 0-9 4.459-4.682 8.12-4.568 14-3Z"/><path fill="#1B81B2" d="M23 34h2l-2 10c-5.045 2.215-7.86 1.85-13 0v-1h11v-5h2v-4Z"/><path fill="#166E98" d="M79 6v2h-3v2l-2 1v10l-2-1c-1.629-6.98-1.629-6.98.813-10.938C76.06 6 76.06 6 79 6Z"/><path fill="#2D81AD" d="m76.355 26.61 3.832.14 3.856.11L87 27v1l-12 1-1 4-4-2c1.775-3.352 2.497-3.941 6.355-4.39Z"/><path fill="#1677A7" d="m14 19 12 3c-2 2-2 2-4.875 2.313-3.401-.34-4.733-.921-7.125-3.313v-2Z"/><path fill="#146E97" d="M36 8h1l.148 1.898.227 2.477c.07.812.14 1.624.21 2.46.244 2.368.244 2.368 2.415 4.165-.375 2.125-.375 2.125-1 4-2.757-3.956-3.644-7.2-4-12l1-3Z"/><path fill="#079CDA" d="m73 13 3 1v7h-2l-1-8Z"/></svg>