<svg xmlns="http://www.w3.org/2000/svg" width="105" height="95"><path fill="#049FDF" d="M69 39c6.672 4.152 11.346 11.083 13.535 18.57C83.805 64.204 83.705 70.744 81 77h-2l-.688 2.188C75.942 84.27 71.5 87.767 67 91c-2.313.75-2.313.75-4 1v2c-3.396.117-6.79.187-10.188.25l-2.908.102c-7.184.099-7.184.099-10.861-2.204L37 90l-1.844-1.352C28.74 83.714 25.276 76.954 24 69c-.768-9.595 2.193-18.185 7.895-25.832C42.055 32.706 56.655 33.143 69 39ZM52 50l-2 6h-2v2l-2.813.438C41.993 58.92 41.993 58.92 39 60c1.03 2.22 1.916 3.913 3.625 5.688C44.761 69.28 44.235 72.918 44 77c3.29-.379 3.29-.379 6-2 4.862-.452 7.793.596 12 3l-.176-2.23c-.374-8.096-.374-8.096 2.676-11.832L67 62v-2l-2.082-.664c-7.451-2.622-7.451-2.622-10.043-6.586L54 50h-2Z"/><path fill="#029FE1" d="M95 9c1 1 1 1 1.063 3.563L96 15l-3 1c-.721 1.305-1.371 2.648-2 4-1.565 2.519-3.224 4.975-4.875 7.438l-1.316 1.986C82.359 33.09 79.817 36.6 77 40c-3.652-1.124-7.097-2.469-10.563-4.063C63.301 34.513 60.446 33.446 57 33c.619-4.023 2.736-6.681 5-10l2.105-3.176 2.082-3.137 2.106-3.175C70 11 70 11 71 10c7.88-1.084 16.057-1.459 24-1Z"/><path fill="#039FE0" d="M19.268 8.758c14.233.232 14.233.232 18.67 3.222C39.681 14.585 40.834 17.095 42 20a148.432 148.432 0 0 0 3.437 4.938C48 28.623 48 28.623 48 32l-1.758.734c-3.797 1.63-7.107 3.17-10.492 5.578C33 40 33 40 30.613 39.965c-3.693-1.364-4.935-3.52-7.176-6.715l-2.253-3.172L19 27l-2.176-2.688C14.77 21.707 13.48 18.96 12 16l-2-1a99.984 99.984 0 0 1 0-5c2.115-2.115 6.448-1.232 9.268-1.242Z"/><path fill="#3889AC" d="M52 48c2.625.938 2.625.938 5 2l1 7c-2.5-2.174-3.436-3.73-4-7h-2l-2 6h-2v2l-9 2 3.063 3.438c2.58 3.377 3.329 5.326 2.812 9.562A69.317 69.317 0 0 1 44 77l2.625-1.5C50.208 73.907 52.14 73.507 56 74c2.875 1.5 2.875 1.5 5 3-.07-.64-.14-1.281-.21-1.941-.321-5.116-.257-8.22 3.21-12.184.977-.982 1.97-1.95 3-2.875l-6-1v-1h7c.265 3.09.285 4.584-1.5 7.188-1.962 3.678-1.65 6.51-1.41 10.605C65 78 65 78 63 80c-2.625-.375-2.625-.375-5-1v-2c-4.97.514-9.29 1.234-14 3-2-2-2-2-2.02-4.496l.208-2.942c.13-2.934.13-2.934-.188-5.562-2.338-1.953-2.338-1.953-5-3-.938-2.563-.938-2.563-1-5 2-2 2-2 4.164-2.195l2.461.07 2.477.055L47 57v-3h2l.375-2.438L50 49l2-1Z"/><path fill="#4182A0" d="M69 39c6.672 4.151 11.34 11.08 13.535 18.563C83.675 63.544 84.147 69.62 81 75c-.988-4.074-1-7.82-1-12-.269-3.009-.62-6.004-1-9h-2l-1.066-2.266C72.759 45.401 70.66 41.664 64 39c-8.367-2.574-17.949-.963-26 2-2.776 2.04-4.93 4.253-7 7 0-3 0-3 2-5.438 10.9-9.31 23.306-9.585 36-3.562Z"/><path fill="#4183A7" d="M37 14c3.126 2.926 5.452 5.954 7.75 9.563l1.86 2.878C48 29 48 29 48 32l-1.758.734c-3.797 1.63-7.107 3.17-10.492 5.578C33 40 33 40 30.375 40.126 27.012 38.532 25.819 36.167 24 33l5 1v3h5l1-3c2.285-.95 2.285-.95 5.063-1.688.919-.25 1.838-.502 2.785-.761L45 31c-.746-4.624-3.55-7.31-6.504-10.781C37 18 37 18 37 14Z"/><path fill="#2193C1" d="M93 16c-1.853 4.09-4.382 7.72-6.875 11.438l-1.316 1.986C82.359 33.09 79.817 36.6 77 40c-5.75-1.75-5.75-1.75-8-4l7 1v-2h3v-3h2v-4h2l-1-3a90.488 90.488 0 0 1 4-4h2l.375-1.938L89 17c2-1 2-1 4-1Z"/><path fill="#2492BE" d="M86.414 8.926c5.754-.09 5.754-.09 8.586.074 1 1 1 1 1.063 3.563L96 15l-3 1v-5c-3.106.052-6.208.147-9.313.25l-2.67.043c-5.051.007-5.051.007-8.997 2.754L71 16h-2l-.813 2.438L67 21l-3 1c.688-2.063.688-2.063 2-5l.824-1.855C68.031 12.968 69.057 11.57 71 10c5.068-1.315 10.216-.961 15.414-1.074Z"/><path fill="#398AAC" d="m13.317 8.978 3.03.143 3.272.147 3.444.17 3.455.158c2.827.13 5.655.265 8.482.404l2 4-1.702-.974c-2.517-1.124-4.321-1.335-7.064-1.44l-2.695-.117-2.789-.094-2.836-.117c-2.304-.094-4.609-.18-6.914-.258 1.958 4.897 4.19 9.063 7.188 13.438l2.167 3.183L24 30l-1 2c-4.272-5.134-8.197-9.927-11-16l-2-1a99.984 99.984 0 0 1 0-5c1-1 1-1 3.317-1.022Z"/><path fill="#3387B3" d="M74 47c3.715 2.712 6.52 4.935 8.438 9.188C84.37 69.287 84.37 69.287 81 75c-.988-4.074-1-7.82-1-12-.269-3.009-.62-6.004-1-9h-2c-3-4.385-3-4.385-3-7Z"/><path fill="#3982AB" d="M63 22c.688 1.688.688 1.688 1 4-1.438 2.75-1.438 2.75-3 5h5v3l3 1c-2.818 1.41-4.173.509-7.125-.438l-2.758-.87L57 33c.888-4.265 2.888-7.888 6-11Z"/><path fill="#2393C2" d="M25 57h1l.367 3.691.508 4.871.238 2.424C27.631 72.868 28.505 77.322 30 82c-4.037-3.483-4.884-7.944-6-13-.276-4.214.006-7.901 1-12Z"/><path fill="#2B8BB0" d="m69 87 2 1c-5.75 4-5.75 4-8 4v2H42l1-2 3.324.035 4.364.028 2.185.025c3.843.017 7.393-.153 11.127-1.088v-2c2.375-1.063 2.375-1.063 5-2Z"/><path fill="#3984A6" d="m89.125 8.813 3.258.019C95 9 95 9 96 10c.04 1.666.043 3.334 0 5l-3 1v-5H80c3.5-2.334 4.996-2.242 9.125-2.188Z"/><path fill="#109AD3" d="M66 40c3.914 1.27 5.79 2.512 8 6l-2 4h-3l1-7h-3l-1-3Z"/><path fill="#2591BF" d="M14 10h21l2 4-1.716-.974c-2.446-1.099-4.166-1.332-6.83-1.44l-2.56-.117-2.644-.094-2.691-.117c-2.186-.094-4.372-.18-6.559-.258v-1Z"/><path fill="#2A88BC" d="M37 14c3.67 3.277 5.693 6.715 8 11-1.75-.125-1.75-.125-4-1-2.934-3.667-4-5.231-4-10Z"/><path fill="#2591BF" d="m24 33 5 1v3h3v2c-2.313-.188-2.313-.188-5-1-1.813-2.563-1.813-2.563-3-5Z"/></svg>