<svg xmlns="http://www.w3.org/2000/svg" width="294" height="300"><path fill="#27A919" d="M239.773 43.432c1.89 1.33 3.794 2.63 5.723 3.904 4.04 2.685 6.103 4.481 7.691 9.164 1.339 3.936 3.378 6.735 5.938 10 22.388 28.977 28.66 65.584 24.106 101.452-3.575 23.087-14.677 44.942-29.434 62.857-1.82 2.165-1.82 2.165-3.406 4.476L249 237h-2l-.648 1.68c-1.806 3.1-4.257 5.174-6.977 7.445l-1.731 1.448C207.011 272.564 170.707 280.143 132 278c-6.527-.672-12.738-2.074-19-4l-2.03-.6c-6.639-1.986-12.919-4.37-19.158-7.4-4.118-1.704-6.535-2.264-10.835-1.059l-3.17.888c-8.45 2.6-16.85 5.336-25.245 8.109a7043.523 7043.523 0 0 1-19.202 6.291c-1.49.487-2.978.976-4.466 1.468-1.786.59-3.576 1.167-5.367 1.744l-2.855.932c-2.986.7-5.616.807-8.672.627l-1-1c.414-6.58 1.819-12.243 4-18.437l.921-2.69A1944.86 1944.86 0 0 1 19 254l2.324-6.727c1.156-3.347 2.314-6.694 3.479-10.038 1.07-3.077 2.135-6.156 3.197-9.235l1.156-3.313 1.11-3.23 1.005-2.903c1.035-3.626.9-5.974-.271-9.554a103.068 103.068 0 0 0-2.34-3.602c-2.838-4.46-4.605-9.028-6.285-14.023l-.907-2.652c-11.15-33.373-9.097-72.233 6.582-103.887C32.712 75.828 38.403 67.69 45 60l2.082-2.453c21.478-24.612 53.375-44.107 86.62-46.434 41.634-2.043 72.184 8.268 106.071 32.319Z"/><path fill="#F7F7F6" d="M239.773 43.432c1.89 1.33 3.794 2.63 5.723 3.904 4.04 2.685 6.103 4.481 7.691 9.164 1.339 3.936 3.378 6.735 5.938 10 22.388 28.977 28.66 65.584 24.106 101.452-3.575 23.087-14.677 44.942-29.434 62.857-1.82 2.165-1.82 2.165-3.406 4.476L249 237h-2l-.648 1.68c-1.806 3.1-4.257 5.174-6.977 7.445l-1.731 1.448C207.011 272.564 170.707 280.143 132 278c-6.527-.672-12.738-2.074-19-4l-2.03-.6c-6.639-1.986-12.919-4.37-19.158-7.4-4.118-1.704-6.535-2.264-10.835-1.059l-3.17.888c-8.45 2.6-16.85 5.336-25.245 8.109a7043.523 7043.523 0 0 1-19.202 6.291c-1.49.487-2.978.976-4.466 1.468-1.786.59-3.576 1.167-5.367 1.744l-2.855.932c-2.986.7-5.616.807-8.672.627l-1-1c.414-6.58 1.819-12.243 4-18.437l.921-2.69A1944.86 1944.86 0 0 1 19 254l2.324-6.727c1.156-3.347 2.314-6.694 3.479-10.038 1.07-3.077 2.135-6.156 3.197-9.235l1.156-3.313 1.11-3.23 1.005-2.903c1.035-3.626.9-5.974-.271-9.554a103.068 103.068 0 0 0-2.34-3.602c-2.838-4.46-4.605-9.028-6.285-14.023l-.907-2.652c-11.15-33.373-9.097-72.233 6.582-103.887C32.712 75.828 38.403 67.69 45 60l2.082-2.453c21.478-24.612 53.375-44.107 86.62-46.434 41.634-2.043 72.184 8.268 106.071 32.319ZM77 60c-.73.59-1.462 1.178-2.215 1.785-20.758 17.183-33.164 43.946-36.469 70.297-2.092 25.913 2.256 48.346 15.75 70.705 2.07 3.455 3.605 6.19 3.934 10.213a89.333 89.333 0 0 1-2.527 8.04l-.812 2.31c-.855 2.43-1.726 4.852-2.599 7.275-.866 2.43-1.73 4.863-2.588 7.296a642.335 642.335 0 0 1-1.619 4.531C46.795 245.434 46 247.81 46 251c8.775-1.383 17.006-4.191 25.375-7.062 2.031-.692 4.063-1.381 6.095-2.07 1.828-.619 3.654-1.243 5.48-1.868 2.346-.77 4.646-1.453 7.05-2v2c8.21 4.407 16.405 8.401 25.25 11.375l2.105.721c10.957 3.537 21.938 4.295 33.395 4.279l2-.002c10.431-.04 19.424-.847 29.25-4.373l4.121-1.39c26.608-9.247 50.07-28.201 62.879-53.61 13.762-29.659 16.243-60.272 5.871-91.387-1.14-2.976-2.429-5.77-3.871-8.613l-.953-1.885C245.35 85.96 240.22 78.4 233 71a282.64 282.64 0 0 1-2.875-3.562c-4.082-4.81-9.141-8.61-14.125-12.438l-1.55-1.208c-4.865-3.652-10.081-6.274-15.575-8.854l-2.816-1.329c-14.89-6.895-29.318-10-45.747-9.921l-3.745.017C121.217 34.04 96.1 43.018 77 60Z"/><path fill="#F5F6F5" d="M115 85c4.668 4.25 6.746 10.682 9.188 16.375.45 1.016.9 2.032 1.365 3.078 4.392 10.141 4.392 10.141 4.447 15.547-1.074 2.512-1.074 2.512-2.688 4.688L125.641 127c-1.641 2-1.641 2-4.079 4.188-1.836 1.753-1.836 1.753-1.687 4.5 5.915 17.416 23.68 30.29 39.234 38.414 3.79 1.794 6.74 2.507 10.891 1.898 2.309-1.835 4.021-4.046 5.813-6.375l1.482-1.828c2.602-3.233 2.602-3.233 4.705-6.797 6.07-.666 10.466 1.668 15.813 4.188l2.58 1.173c5.689 2.622 11.176 5.521 16.607 8.639.398 8.603.004 16.084-6 22.75-7.846 7.194-18.106 9.868-28.496 9.781-20.256-1.67-41.67-13.079-56.504-26.531l-2.914-2.484c-16.179-13.974-35.619-36.474-37.516-58.555-.537-10.9 1.695-20.738 8.746-29.3C99.815 85.237 107.425 83.105 115 85Z"/><path fill="#3FAA2D" d="M59 207c1.488 1.082 1.488 1.082 3 3 .293 3.137.293 3.137.188 6.688l-.083 3.574L62 223l2 1-1.875.875c-2.258 1.062-2.258 1.062-4.125 3.125l-1-1c-1.193 3.877-2 6.916-2 11l-3-1v3l5-1 1 2-3 1v3l13-3v-2l4 1v-2l7-1 1-6c4.136-.098 7.936.226 12 1v2l2 2 1.125 1.625c3.076 2.256 6.14 1.559 9.875 1.375v2l6-2v5c2.443 2.443 3.501 2.382 6.875 2.688l2.617.261c2.398.049 4.23-.244 6.508-.949l1 2c2.552.356 5.079.444 7.652.559.775.145 1.55.29 2.348.441l2 3c2.896.365 2.896.365 6.125.188l3.32-.083L152 253v-4h10l1 2 2-1 3-1v2l3.063-1.5c3.746-1.635 6.86-1.5 10.937-1.5 2.91-1.029 2.91-1.029 5-3 .887-2.591.887-2.591 1-5l1 2c1.979.727 3.98 1.398 6 2l1-4 7 1v-2l3-1 1.875-3c2.125-3 2.125-3 4.875-3.875L215 231l1-7 1.75.625c2.253.532 2.253.532 4.438-.188 2.142-1.395 2.142-1.395 2.562-4.562L225 217c1.392.03 1.392.03 2.813.063 3.21.095 3.21.095 6.187-1.063l1-6 5-1c-4.633 15.522-24.874 27.893-38.313 35.313-15.865 8.353-32.47 12.078-50.312 12l-2.015-.007c-22.092-.115-40.034-6.1-59.36-16.306v-2a27324.078 27324.078 0 0 0-17.65 5.501l-6.471 2.019-2.109.657a408.313 408.313 0 0 0-11.118 3.647C49 251 49 251 46 251c.635-4.692 1.905-8.973 3.504-13.41l1.494-4.248c.783-2.209 1.569-4.416 2.357-6.623.765-2.145 1.52-4.293 2.274-6.442l.72-1.986c1.248-3.573 1.804-6.517 1.651-10.291l1-1Z"/><path fill="#48B236" d="M219.742 57.98 222 60l2.508 2.113C234.67 70.863 242.636 81.226 249 93v2h-2l-1-4h-2l-1-5-3-1c-.688-2.063-.688-2.063-1-4l-7 1a99.984 99.984 0 0 1 0-5l1-1-2-3v-2c-2.39-1.106-2.39-1.106-5-2l-2 1-1-6h-7v-6c-5.57-1.592-10.211-2.207-16-2v-2h2c-2.038-4.06-2.038-4.06-6-6l-1.922.496c-3.574.867-6.594-.509-10.078-1.496l-1-5h-7l-1-3c-.687.095-1.374.19-2.082.29-.901.11-1.802.22-2.73.335l-2.708.352C165 40 165 40 162 38v2h-2v-2l-3 2a87.451 87.451 0 0 1-5-1c-3.707-.128-6.473-.176-10 1l-3.438-.5c-3.22-.452-4.572-.275-7.562.5l-2-2-1.504.84c-4.59 2.447-8.312 3.728-13.496 4.16l-1 5H97v2l-6 1c6.49-7.434 18.227-10.624 27.375-13.375l2.52-.759c32.807-9.431 72.802-1.267 98.847 21.114Z"/><path fill="#DBDBDB" d="M277 182h1c-.354 19.85-16.199 40.752-29 55h-2l-.648 1.68c-1.806 3.1-4.257 5.174-6.977 7.445l-1.731 1.448C207.011 272.564 170.707 280.143 132 278c-6.527-.672-12.738-2.074-19-4l-2.03-.6c-6.639-1.986-12.919-4.37-19.157-7.4-4.12-1.704-6.536-2.264-10.836-1.059l-3.17.888c-8.45 2.6-16.85 5.336-25.245 8.108a7184.635 7184.635 0 0 1-19.197 6.292c-1.497.488-2.992.977-4.487 1.468-1.802.589-3.608 1.167-5.413 1.744l-2.891.932c-2.624.64-4.885.748-7.574.627 1-2 1-2 2.72-2.743l2.276-.702 2.592-.813 2.85-.867 2.96-.922c3.198-.993 6.4-1.974 9.602-2.953l9.783-2.996c2.187-.67 4.375-1.337 6.563-2.002 5.295-1.62 10.561-3.29 15.795-5.1.959-.33 1.918-.66 2.906-1.002 1.793-.624 3.584-1.259 5.37-1.906 6.74-2.349 10.265-1.707 16.77 1.193 33.22 14.029 69.61 17.083 103.876 4A262.819 262.819 0 0 0 204 265l1.994-.918c10.734-4.956 20.125-10.775 29.069-18.582C238 243 238 243 240 243l1-3h2l.813-1.938C245 236 245 236 248 235a83.385 83.385 0 0 0 2-4 160.44 160.44 0 0 1 3.75-4.625c10.507-13.001 17.667-28.7 23.25-44.375Z"/><path fill="#D4D4D4" d="M173 14c6.337-.236 11.345.277 17.313 2.375l2.33.809c17.285 6.24 32.206 15.656 47.13 26.248 1.89 1.33 3.794 2.63 5.723 3.904 4.04 2.685 6.103 4.481 7.691 9.164 1.339 3.936 3.378 6.735 5.938 10 21.914 28.363 28.696 64.426 24.203 99.621A226.86 226.86 0 0 1 281 179h-2l-1 2c.488-4.885 1.11-9.66 2.02-14.484 5.54-33.01-1.638-67.854-20.957-95.203l-1.778-2.387C256 67 256 67 256 65h-2c-1.086-1.328-1.086-1.328-2.375-3.25C233.374 36.797 202.633 21.219 173 15v-1Z"/><path fill="#E3E3E3" d="m150.438 10.75 3.703-.029c5.991.022 11.218.185 16.859 2.279v1l-2.927-.048c-23.624-.612-23.624-.612-46.975 2.392C118 17 118 17 114 17v2l-2.063.375C102.442 21.395 94.477 25.448 86 30l-2.773 1.457c-3.568 1.918-6.894 3.966-10.165 6.355C70 40 70 40 68 40v2l-1.875.25c-2.283.527-2.283.527-3.027 2.594-1.268 2.49-2.623 3.656-4.785 5.406C52.187 55.442 47.31 61.226 43 68c-1.625 2.375-1.625 2.375-3 4h-2l-.688 2.438C35.664 78.912 33.395 82.888 31 87h-2c1.488-10.342 9.383-19.305 16-27l2.086-2.457c21.457-24.595 53.35-44.094 86.567-46.435 5.593-.258 11.186-.322 16.785-.358Z"/><path fill="#20851F" d="m125 103 3 1a89.67 89.67 0 0 1 3.188 7.563l.826 2.154c.672 1.757 1.33 3.52 1.986 5.283l-2 1-.438 2.25c-1.247 6.1-4.858 9.091-9.562 12.75.791 2 .791 2 2 4l3 1-1 4h11l-1 8 2.375.438C141 153 141 153 143 154c.594 2.649.742 5.292 1 8l2.375-.563C149 161 149 161 151 162l1-2-1 7c-7.257-1.764-11.801-4.702-17-10l-2.29-2.328c-4.912-5.226-10.09-10.896-12.71-17.672.222-4.118 1.636-6.133 4.438-9.063 2.385-2.514 4.292-4.684 5.562-7.937-.222-3.928-.979-7.183-2.563-10.75C125 106 125 106 125 103Z"/><path fill="#208918" d="M85 106h1l.043 3.445c.47 18.634 6.756 32.657 18.52 46.93 3.057 3.891 2.955 6.788 2.437 11.625l-3-1c-1.188-3.563-1.188-3.563-2-7h-6l1-6-1.688-1.188c-2.706-2.12-5.075-4.192-7.312-6.812.188-2.313.188-2.313 1-4h-1v-7c-2.84 0-5.237.403-8 1l.879-6.055c.29-2.026.29-2.026-.879-3.945.198-1.967.481-3.926.813-5.875.17-1.05.342-2.099.519-3.18.601-2.651 1.372-4.583 2.668-6.945a68.913 68.913 0 0 0 1-4Z"/><path fill="#148C10" d="M44 107h1c.312 5.736.235 9.723-2.336 14.95-1.233 3.808-.798 7.755-.703 11.718.102 5.41-.196 10.804-.461 16.207l-.145 3.012A3114.21 3114.21 0 0 1 41 160l3 1v6l3 1-.063 3.188c.063 3.79.506 7.019 1.626 10.625.68 3.399.495 6.725.437 10.187-11.809-14.178-12.165-38.627-11-56 .973-9.843 2.62-19.675 6-29Z"/><path fill="#1F7C19" d="M258 123c5.326 5.326 3.298 16.2 3.318 23.298-.008 10.79-.864 20.468-4.318 30.702l-.682 2.066C253.38 187.858 249.767 196.022 245 204l-2-1c.58-3.365 1.635-4.635 4-7 .714-2.103.714-2.103 1-4h2l-.125-2.375c.161-4.678 1.116-9.066 2.125-13.625h2c1.638-6.61 2.174-12.723 1.973-19.531C256 154 256 154 257 152c.042-2.676.048-5.327 0-8v-3c-.32-3.551-.64-7.102-.977-10.652-.022-3.232.235-4.695 1.977-7.348Z"/><path fill="#1C8218" d="M185 157c5.68.793 10.053 1.677 14 6l2 1v2l1.734.402c2.243.592 4.352 1.33 6.516 2.16l2.14.817L213 170v2l2.938.875C219 174 219 174 220 176c-5.82-1.71-11.124-4.358-16.563-7a3939.34 3939.34 0 0 0-5.566-2.688l-2.47-1.199c-4.484-2.079-8.488-3.427-13.401-4.113l-.715 1.645c-1.631 2.99-3.67 5.425-5.847 8.042l-2.442 2.95c-2.827 3.347-2.827 3.347-5.621 3.613-4.098-.304-6.688-1.48-10.375-3.25v-5c2.343-.781 3.753-1.057 6.188-.5 4.03.717 7.785.07 11.812-.5l1-7h3l1-2h5v-2Z"/><path fill="#50AE40" d="M80 232c4.136-.098 7.936.226 12 1v2l2 2 1.125 1.625c3.076 2.256 6.14 1.559 9.875 1.375v2l6-2v5c2.313 2.313 3.479 2.496 6.625 3.125l2.477.508L122 249v2l2.3.367 3.013.508 2.988.492C133 253 133 253 136 255c-6.321.29-11.473-.635-17.5-2.5l-2.617-.794C107.443 249.028 99.75 245.24 92 241l-2-1v-2l-2.813 1c-4.996 1.46-10.03 1.168-15.187 1v-1l7-1 1-6Z"/><path fill="#EEEFE9" d="m45 101 2 1-.988 2.613C37.587 128.147 37.317 151.612 42 176h-2c-3.692-10.022-4.276-19.372-4-30l-2-1c-.414-1.89-.414-1.89-.625-4.25l-.223-2.45c-.161-2.44-.23-4.855-.152-7.3h2l-1-11h3l3-8h2l-.188-3.25c.193-3.859.585-5.038 3.188-7.75Z"/><path fill="#36B226" d="m89 51 2 2c-1.313 1.5-1.313 1.5-3 3h-3l-.813 1.688C80.657 64.561 80.657 64.561 77 67l3 2v3l-4 1v-2c-2.352.599-4.686 1.27-7 2l-1 2h2c1 2 1 2 1 5l-5-1 1-2c-3.155 1.052-3.98 1.476-6 4l-1.5 3.625L58 88l-3 1c-1.23 3.512-1.23 3.512-2 7-1.148-1.71-1.148-1.71-2-4 2.797-7.45 8.922-13.989 14-20l1.938-2.348C73.285 62.191 80.731 56.222 89 51Z"/><path fill="#3F9D32" d="M236 209h4c-1.521 5.096-4.625 8.335-8.188 12.125l-1.856 1.985c-6.801 7.065-15.644 15.35-24.956 18.89l-2-1v-2l3-1 1.875-3c2.125-3 2.125-3 4.875-3.875L215 231l1-7 1.75.625c2.253.532 2.253.532 4.438-.188 2.142-1.395 2.142-1.395 2.562-4.562L225 217l2.813.063c3.21.095 3.21.095 6.187-1.063l.438-2.938C235 210 235 210 236 209Z"/><path fill="#D8D8D8" d="m150.438 10.75 3.703-.029c5.991.022 11.218.185 16.859 2.279v1l-2.927-.048c-23.624-.612-23.624-.612-46.975 2.392C118 17 118 17 114 17v2l-2.203.445c-7.042 1.571-12.969 3.892-19.3 7.348C90 28 90 28 87 28v-2c20.424-10.46 40.544-15.1 63.438-15.25Z"/><path fill="#58B547" d="M144 34v2l-3 .297c-6.581.72-12.48 1.394-18.281 4.816-2.826 1.458-5.576 1.625-8.719 1.887l-1 5H97v2l-6 1c6.49-7.434 18.227-10.624 27.375-13.375l2.52-.759c7.726-2.221 15.07-3.01 23.105-2.866Z"/><path fill="#2C8C27" d="m125 103 3 1a89.67 89.67 0 0 1 3.188 7.563l.826 2.154c.672 1.757 1.33 3.52 1.986 5.283l-2 1-.438 2.25c-1.247 6.1-4.858 9.091-9.562 12.75.791 2 .791 2 2 4l3 1 .313 3.313c.66 3.543.89 4.62 3.687 6.687l-1 3c-1.462-1.914-2.92-3.83-4.375-5.75l-1.25-1.633c-5.464-7.227-5.464-7.227-5.215-11.113.968-2.885 2.183-4.376 4.278-6.566 2.385-2.515 4.292-4.685 5.562-7.938-.222-3.928-.979-7.183-2.563-10.75C125 106 125 106 125 103Z"/><path fill="#3FA92E" d="m188 240 1 2c1.979.727 3.98 1.398 6 2l1-4 9 1c-7.812 6.725-17.783 9.912-27.625 12.5l-2.044.559c-3.954.967-5.842.95-9.331-1.059l1.605-.503c2.405-.76 4.806-1.535 7.208-2.31l2.525-.79 2.432-.792 2.237-.714c2.219-.992 3.444-2.03 4.993-3.891.714-2.103.714-2.103 1-4Z"/><path fill="#44C131" d="M144 34h16v2l8 1 1 3c-4.75-.875-4.75-.875-7-2v2h-2v-2l-3 2a87.451 87.451 0 0 1-5-1c-3.707-.128-6.473-.176-10 1l-3.438-.5c-3.095-.434-4.7-.53-7.562.5l-1-3c4.763-.953 9.167-1.083 14-1v-2Z"/><path fill="#D0EECB" d="m256 111 4 1c1.498 7.258 2.348 14.267 2.52 21.672l.08 2.93c.052 2.022.1 4.046.143 6.07.07 3.085.166 6.169.263 9.254.048 1.978.094 3.955.139 5.933.03.914.062 1.828.094 2.77.089 5.567-.446 9.497-3.239 14.371l-3 1 .402-1.977.536-2.648.527-2.602c1.49-7.721 1.805-15.102 1.848-22.96l.011-2.015c.032-11.357-1.241-21.87-4.324-32.798Z"/><path fill="#CECECE" d="M281 123h1c2.274 7.276 2.344 14.226 2.313 21.813l-.004 3.87c-.104 10.337-1.195 20.21-3.309 30.317h-2l-1 2c.478-4.78 1.082-9.417 2.031-14.125 1.464-8.671 1.183-17.362 1.094-26.125-.01-1.728-.02-3.456-.027-5.184A2676.69 2676.69 0 0 0 281 123Z"/><path fill="#DCF6D6" d="m39 127-.048 2.452c-.265 15.79-.238 31.016 3.048 46.548h-2c-3.984-10.814-4.259-21.254-4.125-32.625.01-1.496.02-2.992.027-4.488.022-3.63.057-7.258.098-10.887 2-1 2-1 3-1Z"/><path fill="#3B9532" d="m153 198 2.025.734c13.533 4.83 25.533 8.696 39.975 7.266v3c-3 .054-6 .094-9 .125-.84.017-1.678.034-2.543.05-5.528.044-10.148-.629-15.457-2.175l-2.004-.503c-1.684-.433-3.343-.957-4.996-1.497l-1-2a128.606 128.606 0 0 0-7-2v-3Z"/><path fill="#C2F1BA" d="M90 238v2l2.5.75c4.024 1.437 7.72 3.274 11.5 5.25-3.705 1.235-7.15 1.577-11 1-3-2-3-2-5-4l1-2c-6.063.663-6.063.663-12 2v2l-13 1c4.26-2.13 8.495-3.62 13-5.125l2.445-.84 2.368-.793 2.144-.723C86 238 86 238 90 238Z"/><path fill="#227B23" d="M44 107h1c.36 6.617-.27 10.884-3 17-1.33 7.753-1.296 15.783-1.563 23.625l-.13 3.621c-.105 2.918-.208 5.836-.307 8.754-2.784-4.176-2.342-7.586-2.313-12.5l.011-2.822C37.893 131.94 39.642 119.023 44 107Z"/><path fill="#D5F8CF" d="M215 236c-.75 1.938-.75 1.938-2 4-1.326.362-2.66.697-4 1l-1 3c-6.537 4.075-13.68 6.72-21 9l-1 1a91.472 91.472 0 0 1-5.063.063l-2.785-.028L176 254c2.673-2.673 5.644-3.142 9.188-4.125 9.28-2.723 18.36-6.74 26.109-12.617C213 236 213 236 215 236Z"/><path fill="#E1F2DE" d="M184.938 160.313c3.662.822 6.678 2.063 10.062 3.687l-1.813.875c-2.38 1.172-2.38 1.172-5.187 3.125-2.688-.375-2.688-.375-5-1l-1 3-2-1-.625 1.875c-1.923 2.972-4.04 3.255-7.375 4.125.9-1.385 1.806-2.767 2.734-4.133a174.145 174.145 0 0 0 2.657-4.047c3.808-5.633 3.808-5.633 7.547-6.507Z"/><path fill="#3CAB2B" d="M59 207c1.488 1.082 1.488 1.082 3 3 .293 3.137.293 3.137.188 6.688l-.083 3.574L62 223l2 1-1.875.875c-2.258 1.062-2.258 1.062-4.125 3.125l-1-1-2 4c-.28-5.063-.437-9.556 1.5-14.313 1.368-3.363 1.714-5.163 1.5-8.687l1-1Z"/><path fill="#58B047" d="M160 34c12.041.86 24.006 4.032 35 9l-1 2c-3.53-.424-6.751-.915-10.125-2.063-2.826-.921-4.93-1.11-7.875-.937l-1-3h-7v-2l-8-1v-2Z"/><path fill="#168010" d="M255 168h3c-.459 12.847-6.506 25.13-13 36l-2-1c.58-3.365 1.635-4.635 4-7 .714-2.103.714-2.103 1-4h2l-.125-2.375c.161-4.678 1.116-9.066 2.125-13.625h2l1-8Z"/><path fill="#248420" d="M249 96c7.143 5.998 8.82 18.216 10 27l-2 1c-.503-1.624-1.003-3.25-1.5-4.875l-.844-2.742C254 114 254 114 254 112l-3-1-1-7h-2l1-8Z"/><path fill="#2A9328" d="M185 157c5.68.793 10.053 1.677 14 6l2 1v2l1.734.402c2.243.592 4.352 1.33 6.516 2.16l2.14.817L213 170v2l2.938.875C219 174 219 174 220 176c-6.698-1.966-12.797-5.206-19.037-8.28-5.55-2.692-11.053-4.946-16.963-6.72l1-4Z"/><path fill="#DFF8DC" d="M94 48a191.79 191.79 0 0 1-10.25 7.75C76.358 61.11 69.607 66.765 64 74l-2-2h2l.375-1.813C65 68 65 68 67 65l2.063-1c2.29-.897 2.29-.897 2.937-4 1.742-1.281 1.742-1.281 3.875-2.5 2.196-1.264 3.975-2.348 5.758-4.156C83 52 83 52 85 52v-2c3.135-1.858 5.375-2.201 9-2Z"/><path fill="#E2F0D9" d="m236 215 3 3-1 2v3c-3 1-3 1-5 1l-1.375 2-1.625 2h-4l-.75 1.813c-1.414 2.474-2.94 3.57-5.25 5.187v1h-5c3.183-3.29 6.505-6.346 9.938-9.375A97.141 97.141 0 0 0 236 215Z"/><path fill="#D3D3D3" d="M235 43c6.092.571 10.78 4.236 15.438 7.938 1.992 2.63 2.267 4.816 2.562 8.062-5.205-1.48-8.164-4.784-11.813-8.563l-1.81-1.826C235 44.154 235 44.154 235 43Z"/><path fill="#D9FAD2" d="m142.918 32.832 2.238-.01c1.555-.005 3.111-.007 4.667-.007 2.34-.002 4.682-.02 7.023-.04C175.583 32.7 175.583 32.7 182 35c1.817 2.077 1.817 2.077 3 4-3.1-.484-6.145-1.034-9.201-1.747-10.331-2.379-20.171-2.61-30.737-2.44-1.666.015-3.332.028-4.998.04-4.021.033-8.043.085-12.064.147v-1c4.997-.814 9.852-1.16 14.918-1.168Z"/><path fill="#E8E8E8" d="M21 248h3c-1.334 9.05-4.262 17.675-8 26a247.322 247.322 0 0 0-2 6l-2-1c2.48-10.545 5.415-20.774 9-31Z"/><path fill="#CEF4C6" d="m117 252 2.125.402 2.875.536 2.813.527c8.758 1.47 17.18 1.686 26.062 1.66l3.973.012c7.113-.007 14.094-.223 21.152-1.137v2c-5.83.829-11.514 1.186-17.398 1.238l-2.652.025c-1.84.013-3.68.024-5.521.032-1.866.012-3.732.032-5.597.062-19.926.314-19.926.314-27.832-4.357v-1Z"/><path fill="#3E9F35" d="M231 70c7.986 6.193 13.355 14.082 18 23v2h-2l-1-4h-2l-1-5-3-1c-.688-2.063-.688-2.063-1-4l-7 1a99.984 99.984 0 0 1 0-5l1-1-2-3v-3Z"/><path fill="#D7F6D6" d="m92 94 2 3h-2l.125 2.875C92 103 92 103 90 105c-2.143 6.254-1.25 13.63-.375 20.063L90 129l-2 2c-3.685-11.379-3.391-23.238 2-34l2-3Z"/><path fill="#D3F3CF" d="M42 176c1.95 2.924 2.944 5.395 4.125 8.688C49.159 192.76 53.041 200.347 57 208l-4-1-1-4h-2l-.375-1.75c-.55-2.277-.55-2.277-1.688-4.313C47 195 47 195 47 192l-3-1c-1.992-5.137-2.192-9.525-2-15Z"/><path fill="#DFEEE0" d="M123 122h5c-1.059 3.6-2.43 5.512-5.188 7.938-1.617 1.46-1.617 1.46-2.812 3.062-.076 3.046-.076 3.046 1 6l1 6-1-2a89.286 89.286 0 0 0-5-2l-2-1-2 2c-.188-2.875-.188-2.875 0-6l3-2 2 4 2-9h2c1.46-2.647 2-3.894 2-7Z"/><path fill="#47A939" d="M211 52c7.899 4.727 14.366 10.692 21 17l-1 2-2.375-1.063L226 69l-2 1-1-6h-7v-6l-1.938-.75C212 56 212 56 211.373 53.922L211 52Z"/><path fill="#0E940A" d="m137 144-1 8 2.375.438C141 153 141 153 143 154c.594 2.649.742 5.292 1 8-2-1.375-2-1.375-4-3v-2l-1.75-.25c-2.955-.985-4.315-2.331-6.25-4.75v-4l-3-1v-2c2.928-.976 4.956-1.082 8-1Z"/><path fill="#43BC2A" d="m114 42-1 6H97v2l-6 1c5.694-6.472 14.542-9.976 23-9Z"/><path fill="#D3EFD1" d="M256 177c1.126 3.487.958 6.434.625 10.063l-.273 3.16C256 193 256 193 255 196l-3 1a124.97 124.97 0 0 0-2 5l-2 1-2-2 .703-1.557c1.06-2.355 2.116-4.711 3.172-7.068l1.105-2.45c1.903-4.254 3.648-8.461 5.02-12.925Z"/><path fill="#DDF4DA" d="M98 148h2v2l1.875.688c2.74 1.691 3.175 3.304 4.125 6.312h2l1.938 2.938c1.773 3.305 1.773 3.305 5.062 4.062v3l2-1c1.257 2.906 2 4.796 2 8-5.296-4.25-9.33-8.643-13.313-14.125l-1.587-2.129c-2.336-3.163-4.411-6.183-6.1-9.746Z"/><path fill="#4AAD3A" d="m89 51 2 2c-1.313 1.5-1.313 1.5-3 3h-3l-.688 1.813C82.644 60.593 80.873 61.563 78 63h-2l-1 5-7 1c5.616-7.488 13.13-13.03 21-18Z"/><path fill="#4DA63D" d="M104 246c6.142.585 12.007 1.54 18 3v2l2.3.367 3.013.508 2.988.492C133 253 133 253 136 255c-6.611.346-11.96-.839-18.25-2.813l-2.68-.79c-4.305-1.318-7.54-2.524-11.07-5.397Z"/><path fill="#36A528" d="M236 209h4c-1.414 4.188-3.414 7.052-6.313 10.375l-2.3 2.71C229 224 229 224 226.207 223.79L224 223l1-6c1.392.03 1.392.03 2.813.063 3.21.095 3.21.095 6.187-1.063l.438-2.938C235 210 235 210 236 209Z"/><path fill="#169D0B" d="m211 168 8 2 1-2 4 1c.09 5.152-.153 9.92-1 15h-3l-.008-1.863c-.12-2.508-.31-4.717-.992-7.137-2.903-2.162-2.903-2.162-6-3v-2h-2v-2Z"/><path fill="#409936" d="m67 70 2 1-1.46 2.047-1.915 2.703-1.898 2.672C62.28 80.58 61.117 82.666 60 85c-1.5 2.25-1.5 2.25-3 4h-2l-2 7c-1.148-1.71-1.148-1.71-2-4 3.034-8.081 9.947-15.947 16-22Z"/><path fill="#EAEAEA" d="M44 61c.645 1.766.645 1.766 1 4-.926 1.922-.926 1.922-2.313 3.75l-1.363 1.86L40 72h-2l-.688 2.438C35.664 78.912 33.395 82.888 31 87h-2c1.403-9.858 8.8-18.538 15-26Z"/><path fill="#13930D" d="M45 107c1.55 1.207 1.55 1.207 3 3-.145 2.262-.145 2.262-.813 4.688l-.644 2.449L46 119l2 1c-1.354 6.523-1.354 6.523-4.625 8.938-.784.35-1.568.7-2.375 1.062.114-1.605.242-3.209.375-4.813l.21-2.707C42 120 42 120 44 117c.456-2.509.456-2.509.625-5.188l.227-2.73L45 107Z"/><path fill="#D5FAD1" d="M46 240h3c-.672 3.81-1.754 7.342-3 11 1.132-.36 2.264-.722 3.43-1.094l4.445-1.406 2.262-.723C61.773 246 61.773 246 64 246v3l-12 2v2l-7-1a247.613 247.613 0 0 1-.625-4.313l-.352-2.425C44 243 44 243 46 240Z"/><path fill="#E1E1E1" d="M34 212h2c-1.518 10.887-5.924 20.87-10 31-2.649-7.946 3.335-19.37 6-27h2v-4Zm-10 31 1 4Z"/><path fill="#389E33" d="M106 83c1.77-.027 3.542-.046 5.313-.063l2.988-.035C117 83 117 83 120 84c1 2.125 1 2.125 2 5l1.625 3.375c1.45 3.82 1.623 6.578 1.375 10.625-2.559-3.172-4.337-6.469-6.125-10.125l-1.57-3.195L116 87l-1-2c-2.126-.467-2.126-.467-4.563-.625l-2.503-.227L106 84v-1Z"/><path fill="#D8F6D8" d="M123 144a121.568 121.568 0 0 1 8.25 8.813c3.878 4.494 8.24 8.342 12.75 12.187l-2 1-2.625-1.813c-2.197-1.484-4.186-2.561-6.625-3.687-3.04-1.658-3.551-2.364-4.75-5.5l-1.625-2.625C125 150 125 150 125 148h-2v-4Z"/><path fill="#2DA626" d="M94 80h2v2h2l1-2 2.082 1.027c3.5 1.167 5.953.94 9.606.535 6.12-.658 6.12-.658 8.312.438v2c-3.103 1.034-5.683 1.275-8.938 1.5-3.473.241-6.712.531-10.062 1.5v-2l-6-2v-3Z"/><path fill="#D9F0D8" d="M148 169c4.522 1.75 8.836 3.837 13.184 5.977 3.145 1.143 5.494 1.275 8.816 1.023l2-1c-.998 2.993-1.752 3.948-4 6-4.472-1.418-8.711-3.113-13-5v-2l-7-2v-3Z"/><path fill="#D2F8CA" d="M227 64c1.813.188 1.813.188 4 1a791.206 791.206 0 0 1 3 5c1.646 1.034 3.31 2.04 5 3v2h2c1.24 2.974 2.3 5.853 3 9l4 1-1 5c-2.45-2.92-4.593-5.91-6.625-9.125-3.292-5.04-7.287-9.321-11.398-13.688C227 65 227 65 227 64Z"/><path fill="#D8FBD6" d="M207 200c-8.58 6.9-18.297 7.916-29 7-2.507-.473-4.61-1.09-7-2v-1l2.092.063c3.157.084 6.313.136 9.47.187l3.292.102c7.732.094 14.297-5.182 21.146-4.352Z"/><path fill="#24791E" d="m108 163 1.938 1.938 1.374 1.37a768.935 768.935 0 0 1 3.813 3.852c5.044 5.11 5.044 5.11 10.438 9.84l2.437 2v1l-7 1-.813-3.438L119 177l-3-1v-3l-4-1v-3l-2-1a78.037 78.037 0 0 1-2-5Z"/><path fill="#E6F6E3" d="M262 128h2c.198 4.375.381 8.75.563 13.125l.17 3.75.146 3.633.143 3.332c-.022 3.164-.415 6.06-1.022 9.16-2.453-3.68-2.232-5.474-2.195-9.855l.008-2.005c.011-2.11.037-4.218.062-6.327.01-1.432.02-2.864.027-4.295.022-3.506.057-7.012.098-10.518Z"/><path fill="#E6F1E7" d="m96 128-1 3h-2l6 16-2 1a801.53 801.53 0 0 1-3.438-5.688l-1.933-3.199C90.142 136.272 89.29 134.174 89 131c2.128-3.249 2.93-3 7-3Z"/><path fill="#45A637" d="m189 247-1 3c-6.23 2.89-13.135 4.746-20 5l-2-2c2.893-1.01 5.789-2.008 8.688-3l2.474-.867c7.514-2.556 7.514-2.556 11.838-2.133Z"/><path fill="#EBEBEB" d="M26 94c1.196 3.587.433 4.476-1.098 7.75-1.836 4.578-2.792 9.454-3.902 14.25h-2c-.65-6.982 1.314-13.576 4-20l3-2Z"/><path fill="#3EB72B" d="M80 232c4.136-.098 7.936.226 12 1-2 3-2 3-5.125 3.688L84 237l-1 3H72v-1l7-1 1-6Z"/><path fill="#D8FAD5" d="m214 174 3 1c.378 6.7.316 12.997-3 19-2.14 2.306-4.424 4.2-7 6l1-4h2l.875-2.625a98.068 98.068 0 0 1 2.25-6.125c1.197-4.445 1.038-8.676.875-13.25Z"/><path fill="#DAF5D5" d="M60 74h2c-.62 3.572-2.092 5.745-4.25 8.625C54.227 87.506 51.52 92.544 49 98h-1c.75-6.625.75-6.625 3-10l.938-2.5C53 82.998 53.883 81.675 56 80h2l.438-2.438C59 75 59 75 60 74Z"/><path fill="#10870A" d="M258 123c2 2 2 2 2.135 4.706l-.158 3.396-.157 3.671-.195 3.852-.172 3.875c-.142 3.167-.293 6.334-.453 9.5h-1c-1-7.625-1-7.625-1-11-.32-3.551-.64-7.102-.977-10.652-.022-3.232.235-4.695 1.977-7.348Z"/><path fill="#42C22B" d="M147.18 35.77c6.974.11 13.877.551 20.82 1.23l1 3c-4.75-.875-4.75-.875-7-2v2h-2v-2l-3 2c-2.125-.313-2.125-.313-5-1-2.995-.383-5.997-.692-9-1 2-2 2-2 4.18-2.23Z"/><path fill="#288124" d="M40 166h2c1.125 4.75 1.125 4.75 0 7h2c1.498 3.371 2 5.204 2 9h2c1.607 3.215 1.057 6.436 1 10-5.843-6.903-8.466-17.095-9-26Z"/><path fill="#27851E" d="m172 169 2 1c-.391 2.27-.887 3.834-2.188 5.75-2.737 1.888-4.539 1.628-7.812 1.25-2.438-.852-4.664-1.879-7-3l2-1 1-2 4 1v2l4 1 1-4h3v-2Z"/><path fill="#D3F6CE" d="m256 111 4 1c2.264 9.36 2.202 18.443 2 28h-1c-.11-.92-.22-1.84-.332-2.79A257.913 257.913 0 0 0 256 111Z"/><path fill="#CBF7CC" d="m109.625 84.688 2.852-.051c2.891.416 3.749 1.106 5.523 3.363l-1 2-1.578-.992c-3.17-1.319-5.752-1.201-9.172-1.133l-3.547.055L100 88l-.867 1.89C97.804 92.366 96.313 93.459 94 95c0-3 0-3 2.188-5.563 4.263-3.695 7.836-4.726 13.437-4.75Z"/><path fill="#D3F4CE" d="m45 101 2 1-1.023 2.93C43.466 112.222 41.205 119.355 40 127h-1v-14l3-1-.188-3.25c.193-3.859.585-5.038 3.188-7.75Z"/><path fill="#308D2C" d="M128 183c3.867 2.313 7.72 4.649 11.563 7l3.378 2.063c2.454 1.554 4.774 3.149 7.059 4.937-7.85.302-7.85.302-11-2l-1-3a124.837 124.837 0 0 0-6-4c-2.375-1.625-2.375-1.625-4-3v-2Z"/><path fill="#EBF3E9" d="M262 171c1.35 4.05.62 6.792 0 11h-2v2l-4 2c.21-9.858.21-9.858 3.563-13.125L262 171Z"/><path fill="#399533" d="M216 185c2 3 2 3 1.61 5.41l-.86 2.653-.828 2.66c-1.379 3.405-3.867 5.333-6.922 7.277l-3-1h2l.188-1.688C209 198 209 198 211.438 195.75c3.311-3.554 3.683-6.034 4.562-10.75Z"/><path fill="#14990D" d="M198 160h7v2h2l-1 4h2v2a84.76 84.76 0 0 1-7-2v-2l-4-1 1-3Z"/><path fill="#41BD2C" d="m126 247 1.5.938c3.48 1.478 6.74 1.686 10.5 2.062l1 3c-2.271-.141-4.542-.288-6.813-.438-1.264-.08-2.529-.162-3.832-.246C125 252 125 252 122 251v-2l-4-1 3.438.063c3.378.353 3.378.353 4.562-1.063Z"/><path fill="#E0F1DC" d="M202 168c4.234 1.31 8.074 2.944 12 5v1h-7v2h-5l-1-3 2-3-2-1 1-1Z"/><path fill="#139B0A" d="M81 123h3l1 12-5 1 .879-6.055c.29-2.026.29-2.026-.879-3.945l1-3Z"/><path fill="#EDFBE9" d="M89 241c5.774.481 9.959 2.185 15 5-3.705 1.235-7.15 1.577-11 1-3-2-3-2-5-4l1-2Z"/><path fill="#E7FBE0" d="m57 208 2 1c-.57 6.42-2.673 12.016-5 18h-1c-.236-5.778.132-10.513 2-16h2v-3Z"/><path fill="#30B41C" d="m63.188 239.938 2.73.027L68 240v2l-14 4 1-5c3.015-1.005 5.042-1.103 8.188-1.063Z"/><path fill="#EDEDED" d="M19 172c1.404 2.661 2.457 5.22 3.29 8.11l.663 2.285.672 2.355.695 2.402c.564 1.949 1.122 3.898 1.68 5.848h-3c-2.745-7.241-4.518-13.232-4-21Z"/><path fill="#2A941E" d="M51 93c2 3 2 3 1.875 5.938-.988 3.458-2.075 4.856-4.875 7.062h-2c.515-5.281 2.255-8.572 5-13Z"/><path fill="#D5D5D5" d="M173 14c8.774-.77 15.893 2.01 24 5l-3 2c-2.855-.61-2.855-.61-6.188-1.75-4.916-1.628-9.773-3.064-14.812-4.25v-1Z"/><path fill="#3AB628" d="m216 224 6 1-1 3h-2v3c-1.531 1.387-1.531 1.387-3.5 2.688l-1.969 1.324L212 236l-4-2c2.62-1.746 4.038-2.387 7-3l1-7Z"/><path fill="#EEFBEC" d="M89 241c-3.438 2.292-6.91 3.408-10.813 4.625l-2.119.695C71.92 247.624 68.402 248.263 64 248v-2l13-1v-2c3.9-2.6 7.474-2.15 12-2Z"/><path fill="#10970B" d="M126 130c2.29 3.435 2.178 4.985 2 9-1.813.688-1.813.688-4 1-1.75-1.438-1.75-1.438-3-3 1.293-2.884 2.66-4.872 5-7Z"/><path fill="#F7F7F7" d="M240 45c4.789 1.14 7.534 3.052 10.996 6.367C252 53 252 53 251.66 55.195L251 57l-2.125-2.188c-1.965-1.981-4.007-3.76-6.188-5.5L240 47v-2Z"/><path fill="#3BBB2A" d="M103 240h2v2l6-2v5l1 2-9-1a88.406 88.406 0 0 1-1-5l1-1Z"/><path fill="#D5F5D3" d="M244 204c2 4 2 4 2 7-2.375 1.563-2.375 1.563-5 3l-2 2-2-2 7-10Z"/><path fill="#D1F6D0" d="M247 90c3 1 3 1 5 3a126.235 126.235 0 0 1 2 6h2v10c-2.259-3.388-3.922-6.941-5.625-10.625l-.984-2.102C247 91.131 247 91.131 247 90Z"/><path fill="#40C128" d="M184 42c1.626.477 3.25.957 4.875 1.438l2.742.808C194 45 194 45 196 46v2c-4.52 1.456-7.516.27-12-1v-5Z"/><path fill="#3FC027" d="M152 249h10l2 4h-11l-1-4Z"/><path fill="#1A9B0F" d="M134 115c1.45 2.341 2.043 3.58 1.758 6.36l-.633 2.39-.617 2.422L134 128h-4c.7-3.153 1.802-6.006 3-9a91.048 91.048 0 0 0 1-4Z"/><path fill="#3CB828" d="m188 240 1 2c2.126.467 2.126.467 4.563.625l2.503.227L198 243c-4.625 4-4.625 4-8 4v2l-4-2 2-7Z"/><path fill="#278025" d="m122 138 5 2 .313 3.313c.66 3.543.89 4.62 3.687 6.687l-1 3a367.625 367.625 0 0 1-4-4.688l-2.25-2.636c-1.904-2.912-2.142-4.277-1.75-7.676Z"/><path fill="#3A9330" d="M237 80c2.262.129 2.262.129 5 1 2.02 2.652 2.02 2.652 3.813 5.938l1.832 3.277C249 93 249 93 249 95h-2l-1-4h-2l-1-5-3-1a70.134 70.134 0 0 1-1-4l-2-1Z"/><path fill="#48A63A" d="M68 240h12c-2.915 1.943-5.103 2.79-8.438 3.75l-2.87.86c-3.029.439-4.172.035-6.692-1.61l6-1v-2Z"/><path fill="#17970B" d="m166 169 2 1 1 3-1 2-4-1v-2l-7 1v-4c3.509-1.17 5.427-.76 9 0Z"/><path fill="#319A2A" d="m92 88 4 2c-5.002 7.483-5.002 7.483-9 10 .794-3.97 2.102-9.102 5-12Z"/><path fill="#4AB438" d="M144 34h16v2l4 1c-2.96-.114-5.917-.24-8.875-.375-.842-.03-1.684-.062-2.55-.094l-2.442-.117-2.254-.095C146 36 146 36 144 34Z"/><path fill="#217A1A" d="M199 165c4.722 1.535 9.359 3.24 14 5v2l2.938.875C219 174 219 174 220 176c-5.001-1.48-9.33-3.632-13.875-6.125l-2.086-1.129c-1.682-.911-3.36-1.828-5.039-2.746v-1Z"/><path fill="#4BBC35" d="M163 253v2l3 1-22-1v-1c6.374-.962 12.56-1.107 19-1Z"/><path fill="#DADADA" d="M282 164h1c-.964 10.558-.964 10.558-2 15h-2l-1 2c1.516-14.516 1.516-14.516 4-17Z"/><path fill="#25921C" d="M249 96c2.576 1.913 2.984 2.902 3.512 6.137l.175 3.55.2 3.575L253 112l-2-1a108.817 108.817 0 0 1-1-7h-2l1-8Z"/><path fill="#53AB43" d="m106 42 1 2h-2l-1 3-7 1v2l-6 1c2.599-3.037 5.62-4.462 9.188-6.188l3.292-1.605L106 42Z"/><path fill="#3B9130" d="M49 193h3a594.74 594.74 0 0 1 3.063 5.813l1.722 3.269C58 205 58 205 57 208a3882.3 3882.3 0 0 1-4-6.938l-1.156-1.998C49 194.114 49 194.114 49 193Z"/><path fill="#D6F5D7" d="m138 187 3 1v2l8 2 1 4c-5.31-1.46-9.463-3.983-14-7l2-2Z"/><path fill="#EDEEE9" d="m113 128 1 2h2v-2c2 1 2 1 3 3a64.583 64.583 0 0 1-.438 4.625l-.308 2.477L118 140c-2-2-2-2-2.125-5.125L116 132h-3l-1 3 1-7Z"/><path fill="#E0FBDA" d="m115 34 13 1c-3.367 1.684-6.15 2.682-9.75 3.625-.985.26-1.97.52-2.984.79L113 40v-3l3-1-1-2Z"/><path fill="#F1FDEF" d="M143 257c2.82-.293 2.82-.293 6.125-.188l3.32.083L155 257l-2 1v2h-12l2-3Z"/><path fill="#CFF1CB" d="M180 164c1.13 2.771 1.08 3.8-.063 6.625-2.385 2.924-4.326 3.492-7.937 4.375 2.499-3.837 5.084-7.46 8-11Z"/><path fill="#108D09" d="M93 142h1l2 9c-3 0-3 0-5.688-2.5L88 146l1-2 4 1v-3Z"/><path fill="#CDF2C8" d="M199 43c2.563.25 2.563.25 5 1l1 2a113.158 113.158 0 0 0 5 3l-1 2-12-6 2-2Z"/><path fill="#D0F4CB" d="m226 226 2 2h-2l-.75 1.813c-1.414 2.474-2.94 3.57-5.25 5.187v1h-5c3.494-3.596 7.111-6.835 11-10Z"/><path fill="#16920D" d="M151 160h1l-1 7-8-2 1-3c4.75-1.125 4.75-1.125 7 0v-2Z"/><path fill="#CBF4C8" d="m92 94 2 3h-2l.313 2.688c-.408 4.319-2.085 5.568-5.313 8.312.466-5.707 1.938-9.16 5-14Z"/><path fill="#3DBA2A" d="m97 48 3 1-3 1v-2Zm0 3-2 6c-1.938-.75-1.938-.75-4-2-.75-2.125-.75-2.125-1-4 4.75-1.125 4.75-1.125 7 0Z"/><path fill="#DEF8D9" d="M46 240h3c-.61 3.558-1.578 6.683-3 10l-2-1c-.25-5.625-.25-5.625 2-9Z"/><path fill="#179A0A" d="M248 176h4c.167 4.921.248 8.503-2 13h-1l.063-3.125c-.056-3.427-.409-6.52-1.063-9.875Z"/><path fill="#CCF5CA" d="M38 157h1l3 19h-2c-1.723-4.463-2.222-8.102-2.125-12.875l.055-3.492L38 157Z"/><path fill="#D0F4CB" d="M90 134h2c3 4.385 3 4.385 3 7h2l2 6-2 1a1437.687 1437.687 0 0 1-3.5-5.875l-1.969-3.305C90 136 90 136 90 134Z"/><path fill="#DBF6D8" d="M239 75h2c1.24 2.974 2.3 5.853 3 9l4 1-1 5c-3.94-4.756-7.11-8.776-8-15Z"/><path fill="#2D8E22" d="M236 209h4c-1.432 5.011-3.984 6.945-8 10v-3h2l.438-2.938C235 210 235 210 236 209Z"/><path fill="#358630" d="m248 192 3 1-6 11-2-1c.58-3.365 1.635-4.635 4-7 .714-2.103.714-2.103 1-4Z"/><path fill="#CFF3CB" d="M148 169c4.74 1.835 9.364 3.92 14 6-3.69 1.371-5.709.6-9.25-.938l-2.703-1.152L148 172v-3Z"/><path fill="#CAF1C7" d="M133 156c3.806 3.208 7.546 6.407 11 10-4.495-1.254-7.591-2.786-11-6l-1-3 1-1Z"/><path fill="#EDEDEC" d="M106 153h5c1.209 3.627 1.209 4.373 0 8h-2l-1-4h-2v-4Z"/><path fill="#34892B" d="M44 107h1c.054 1.583.093 3.166.125 4.75l.07 2.672c-.204 2.692-.83 4.277-2.195 6.578-1.624-2.5-2.073-3.59-1.54-6.578l.915-2.672.898-2.703L44 107Z"/><path fill="#55A64A" d="m76 61 2 2h-2l-1 5-7 1c4.625-5.75 4.625-5.75 8-8Z"/><path fill="#308F26" d="M122 178c3.234 1.213 4.009 2.013 6 5l-7 1-1-5 2-1Z"/><path fill="#D8F2D5" d="M123 122h5c-1.27 3.914-2.512 5.79-6 8 0-3.113.174-5.108 1-8Z"/><path fill="#D7F5CF" d="m112 40-1.742.867c-1.447.726-2.89 1.46-4.328 2.203l-2.055 1.055-2.07 1.07C100 46 100 46 98 46v-2c4.515-3.892 8.156-4.11 14-4Z"/><path fill="#359C2D" d="M195 206v3h-19v-1l2.992-.184 3.883-.254c1.276-.08 2.552-.162 3.867-.246 3.164-.307 5.1-1.316 8.258-1.316Z"/><path fill="#219C14" d="M211 168c6.523 1.477 6.523 1.477 8.938 4.125.35.619.7 1.238 1.062 1.875l-1 2-2.375-1.438c-1.514-.901-3.049-1.774-4.625-2.562v-2h-2v-2Z"/><path fill="#EFECE9" d="M35 149h1l1 12-3 1c-1.007-5.035-.974-8.24 1-13Z"/><path fill="#C9EFC7" d="M121 96c1.676 2.514 2.94 4.83 4.188 7.563l1.105 2.378L127 108l-1 2-2-1v-4l-2-1c-1.188-2.375-1.188-2.375-2-5l1-3Z"/><path fill="#D0F6C9" d="m78 243-1 2c-2.941.414-2.941.414-6.563.625l-3.628.227L64 246c9.364-4.783 9.364-4.783 14-3Z"/><path fill="#E5F5E0" d="m136 162 12 6c-4.175 1.392-6.902.366-11-1v-2l-1-3Z"/><path fill="#368730" d="m122 130 3 2-1.5 1.125c-2.098 2.622-1.717 4.613-1.5 7.875-1.563-1.688-1.563-1.688-3-4 .24-3.37.588-4.588 3-7Z"/><path fill="#D8F1D5" d="m51 200 3 1c1.688 3.563 1.688 3.563 3 7l-4-1-1-4h-2l1-3Z"/><path fill="#247E1A" d="m253 180 2 3c-.68 2.262-.68 2.262-1.875 4.688l-1.18 2.449L251 192h-1c-.348-4.877.583-7.77 3-12Z"/><path fill="#CAEDC8" d="M116 166c2.624 3.061 3 3.732 3 8l-7-6 4-2Z"/><path fill="#228A21" d="M192 160c3.871.574 6.082 2.487 9 5-1.625.75-1.625.75-4 1-3.25-1.938-3.25-1.938-6-4l1-2Z"/><path fill="#1AA514" d="M83 101c1.35 4.05.62 6.792 0 11l-2-1c-.813-3.375-.813-3.375-1-7 1.438-1.938 1.438-1.938 3-3Z"/><path fill="#53A43F" d="M211 52c1.463.93 2.92 1.87 4.375 2.813l2.46 1.582C220 58 220 58 222 61h-3l-1-3-3-.938L212 56c-.688-2.066-.688-2.066-1-4Z"/><path fill="#D8F7D7" d="m249 195 3 2c-1.75 4.875-1.75 4.875-4 6l-2-2 3-6Z"/><path fill="#348C2F" d="M252 101c2.19 3.285 2.998 6.207 4 10l-3 1c-1.283-3.85-1.066-6.947-1-11Z"/><path fill="#38A32E" d="m201 203 3 1 1 3c-3.766 1.255-5.372.37-9-1 3-2 3-2 5-3Z"/><path fill="#D2F3CE" d="M157 196v2h3v2c-4.22-.48-6.797-1.166-10-4 2.667-1.333 4.167-.671 7 0Z"/><path fill="#2E8927" d="M46 182h2c1.607 3.215 1.057 6.436 1 10-2.133-2.596-3.55-4.63-4-8l1-2Z"/><path fill="#12950A" d="m97 155 5 1v3l-6 1 1-5Z"/><path fill="#CBF0C9" d="M98 148h2v2l1.875.688c2.74 1.691 3.175 3.304 4.125 6.312-4.662-1.498-5.866-4.885-8-9Z"/><path fill="#EAEDE8" d="m98 144 7 2-2 4h-3v-2l-2-1v-3Z"/><path fill="#3DAF28" d="m217 58 1.813 1.438c2.19 1.727 2.19 1.727 5.187 2.562l-1 2h-7a99.984 99.984 0 0 1 0-5l1-1Z"/><path fill="#C6F2BD" d="M104 247c1.606.452 3.21.912 4.813 1.375l2.707.773C114 250 114 250 117 252c-1.666.043-3.334.04-5 0l-1-1a235.648 235.648 0 0 0-7-1v-3Z"/><path fill="#39BD21" d="M68 240v2c-3.313 1.125-3.313 1.125-7 2l-3-2c3.508-1.604 6.144-2.22 10-2Z"/><path fill="#D6F6D1" d="M215 236c-.75 1.938-.75 1.938-2 4-1.326.362-2.66.697-4 1l-1 3-2-1c5.342-7 5.342-7 9-7Z"/><path fill="#48AB38" d="m92 235 2 2-1 2h-9v-2l3.438-.438c3.37-.174 3.37-.174 4.562-1.562Z"/><path fill="#DEFAD9" d="m53 228-3 11h-1c-1.345-6.359-1.345-6.359.313-9.438C51 228 51 228 53 228Z"/><path fill="#D1D1D1" d="m261 217 1 3c-.996 1.824-.996 1.824-2.438 3.688l-1.433 1.886L257 227l-3-1 1.813-2.25A247.043 247.043 0 0 0 261 217Z"/><path fill="#16A208" d="m243 192 4 2-3 6c-3-3.75-3-3.75-3-6h2v-2Z"/><path fill="#C4ECC1" d="M42 176c2.458 3.687 3.012 6.697 4 11l-3-1c-1.607-3.215-1.057-6.436-1-10Z"/><path fill="#EBFAEB" d="M172 175h3c-.125 1.875-.125 1.875-1 4-3.063 1.25-3.063 1.25-6 2l-1-2 1.938-.875c2.214-.953 2.214-.953 3.062-3.125Z"/><path fill="#198614" d="m258 123 2 2c-.375 3.625-.375 3.625-1 7h-2c-.81-2.915-1.218-4.461-.063-7.313L258 123Z"/><path fill="#E5F7E6" d="M47 93h1v7l-4 2v-6h2l1-3Z"/><path fill="#E3F7E1" d="m211 48 5 1-2 5-4-2 1-4Z"/><path fill="#5FAD50" d="M120 39v2l-12 1c8.4-4.2 8.4-4.2 12-3Z"/><path fill="#59AA45" d="M176 251v3c-6.055.977-6.055.977-8 1l-2-2c3.508-1.604 6.144-2.22 10-2Z"/><path fill="#3E8235" d="m48 244 .313 1.938L49 248l3 1c-3 2-3 2-6 2 .875-5.875.875-5.875 2-7Z"/><path fill="#54A947" d="M54 224h1l1 8-5 2 3-10Z"/><path fill="#D8F8D5" d="m231 221 2 2-2 5-4-1c1.152-2.468 2.048-4.048 4-6Z"/><path fill="#C5F2C3" d="M171 204c1.458-.027 2.917-.046 4.375-.063l2.46-.035C180 204 180 204 182 205v2l-3.813-.375-2.144-.21C174 206 174 206 171 204Z"/><path fill="#198910" d="M176 167v3c-2.982.773-5.976 1.412-9 2l1-3 3.438-.438c3.37-.174 3.37-.174 4.562-1.562Z"/><path fill="#2C8126" d="M86 124c1.963 3.505 2.959 7.134 4 11l-3-1c-.766-1.777-.766-1.777-1.25-3.938l-.516-2.152C85 126 85 126 86 124Z"/><path fill="#D0D0D0" d="m273 95 3 1 1 9c-2.255-2.255-2.977-4.005-4-7v-3Z"/><path fill="#D3F9CC" d="m80 55 2 2-8 6-1-3 7-5Z"/><path fill="#E2E2E2" d="M130 13h-2v2c-6.625 1.25-6.625 1.25-10-1a367.08 367.08 0 0 1 4.313-1.063l2.425-.597C127 12 127 12 130 13Z"/><path fill="#CCF3C2" d="m93 241 11 5c-3.766 1.255-5.372.37-9-1v-2h-2v-2Z"/><path fill="#CCF2CA" d="M160 200c6.625-.25 6.625-.25 10 2v2l-10-3v-1Z"/><path fill="#D4F1D2" d="M128 182c2.25-.313 2.25-.313 5 0 2.313 2.5 2.313 2.5 4 5-4 0-4 0-6.75-2.5L128 182Z"/><path fill="#E5E5E5" d="M19 172c2.234 4.033 2.545 7.45 3 12-2.106-1.708-2.938-2.521-3.293-5.262l.105-2.425.083-2.45L19 172Z"/><path fill="#D1F2CE" d="M119 174c3.46 1.25 6.147 2.675 9 5l-1 3a1154.753 1154.753 0 0 1-4-3.438l-2.25-1.933L119 175v-1Z"/><path fill="#14910D" d="m103 160 4 1v7l-3-1-1-7Z"/><path fill="#2E8A26" d="M48 98h2l-1 7-3 1c.875-5.75.875-5.75 2-8Z"/><path fill="#37A527" d="M232 77c2.343.256 4.678.593 7 1l1 2-8 2v-5Z"/><path fill="#CBF5C5" d="M186 252c-2 2-2 2-3.945 2.195L176 254c3.195-3.195 5.78-3.357 10-2Z"/><path fill="#2D9E18" d="M49 244h4l1 5-5-1v-4Z"/><path fill="#279922" d="M207 200c1.125 3.75 1.125 3.75 0 6h-3v-2l-2-1 5-3Z"/><path fill="#ECFDEC" d="M206 195c2.063.438 2.063.438 4 1h-2l-1 4h-4c1.875-3.875 1.875-3.875 3-5Z"/><path fill="#BBEBB7" d="M259 166h1v9l-3 1 2-10Z"/><path fill="#C4E7C0" d="M54 249v2h-2v2l-7-1 1-2c2.699-.574 5.238-1 8-1Z"/><path fill="#EEF8E9" d="m243 212 2 1-1 3h-2c-1.67.318-3.337.65-5 1v-2l6-3Z"/><path fill="#E9FAE0" d="M119 129h3l-.938 1.563c-1.353 3.104-1.676 6.088-2.062 9.437h-1a585.281 585.281 0 0 1-.063-4.375l-.035-2.46C118 131 118 131 119 129Z"/><path fill="#F2EAF0" d="m42 96 2 2c-.367 2.935-.864 3.864-3 6l-1-7 2-1Z"/><path fill="#D0F6CA" d="M60 74h2c-.542 3.796-2.201 5.472-5 8l-1-2h2l.438-2.438C59 75 59 75 60 74Z"/><path fill="#EEF8EB" d="m59 72 4 1-1 2-3 1c-1.209 2-1.209 2-2 4-.688-1.75-.688-1.75-1-4 1.438-2.25 1.438-2.25 3-4Z"/><path fill="#26BA12" d="m76 71-1 4-4 1v-4c2-1 2-1 5-1Z"/><path fill="#5AAD4D" d="m89 51 2 2c-1.188 1.5-1.188 1.5-3 3-2.688.188-2.688.188-5 0 3.75-3.875 3.75-3.875 6-5Z"/><path fill="#DEDEDE" d="M15 271c1.255 3.766.37 5.372-1 9l-2-1c1.875-6.875 1.875-6.875 3-8Z"/><path fill="#E6E6E6" d="M18 265c0 3.106-.54 4.353-2 7h-2c.313-2.375.313-2.375 1-5l3-2Z"/><path fill="#C9F4BF" d="m57 208 2 1c-.75 6.75-.75 6.75-3 9-.125-6.625-.125-6.625 1-10Z"/><path fill="#129D08" d="M134 122c1.125 3.75 1.125 3.75 0 6h-4v-3h2l2-3Z"/><path fill="#F6EBF1" d="M34 120h2l1 8-1-2h-2v-6Z"/></svg>