<svg xmlns="http://www.w3.org/2000/svg" width="177" height="164"><path fill="#42C353" d="M0 0h177v164H0V0Z"/><path fill="#F5F6F5" d="M0 0h177v164H0V0Zm59 18v2l-2.113.234C44.656 23.478 35.25 36.83 29.157 47.11 23.77 57.3 21.426 67.187 21.5 78.687l.013 3.16c.241 11.072 2.605 20.623 8.362 30.153 1.984 3.342 2.607 5.596 1.79 9.55-.22.809-.44 1.617-.665 2.45l-.977 3.73a357.22 357.22 0 0 1-1.65 6.08C27.576 136.645 27 139.034 27 142c5.722-.695 11.043-2.039 16.57-3.715 3.87-1.102 6.562-1.424 10.43-.285l2.813.563L59 139v2c1.431.64 2.87 1.26 4.313 1.875l2.425 1.055c8.477 2.781 17.015 3.433 25.887 3.445l2.945.074c6.78.028 11.469-1.322 17.43-4.449a402.437 402.437 0 0 1 3.957-1.754c17.384-8.008 29.725-20.55 36.543-38.684 6.18-16.808 5.102-35.705-2.008-52.023C146.695 42.963 142 36.942 136 31l-2.527-2.629C126.727 21.725 119.946 18.015 111 15l-3.043-1.027C91.918 9.47 73.961 10.519 59 18Z"/><path fill="#FAFDFB" d="m61.688 41.813 3.011.082L67 42c.96 1.895 1.919 3.79 2.875 5.688l1.617 3.199C75.758 59.694 75.758 59.694 75 65a381.113 381.113 0 0 1-5 6c-.43 3.015-.274 4.523 1.25 7.176A267.577 267.577 0 0 0 77 85l1.86 2.148C83.684 92.353 89.26 96.593 96 99c3.443-.083 4.6-.59 7.02-3.066l1.793-2.496 1.832-2.504L108 89c4.522.441 7.47 1.694 11.254 4.012 2.462 1.393 5.04 2.196 7.746 2.988v2l3 1c-.646 10.227-.646 10.227-4 14-6.058 5.005-11.894 5.673-19.594 5.344-17.669-1.783-32.887-12.986-44.018-26.268C53.299 80.672 46.308 70.152 48 55c2.595-7.445 5.191-13.487 13.688-13.188Z"/><path fill="#6AD275" d="m48 25 2 1-13 13-2-1c8.262-9.595 8.262-9.595 13-13Z"/><path fill="#D8F3DB" d="m61.688 41.813 3.011.082L67 42v1l-1.723.008C58.757 43.334 55.461 45.309 51 50c2.198-6.254 3.857-8.429 10.688-8.188Z"/><path fill="#84DD90" d="m73 15-2.117.84-2.758 1.098-2.742 1.09c-2.344.921-2.344.921-4.383 1.972l-2-2a335.626 335.626 0 0 1 4.75-2.063l2.672-1.16c2.73-.823 3.947-.754 6.578.223Z"/></svg>