<svg xmlns="http://www.w3.org/2000/svg" width="779" height="438"><path fill="#FDF5EE" d="M0 0h779v438H0V0Z"/><path fill="#02A0E3" d="M570.625 58.875 573 59l2 4 3.688-.125c3.528.019 6.258.181 9.312 2.125.813 2.625.813 2.625 1 5l-3 2 2 1-1 3c6.613 2.035 13.085 2.723 20 2l2-2c3.412.37 6.689 1.109 10 2l.25 3.875c.209 2.178.209 2.178.75 4.125 1.92 1.59 1.92 1.59 4 2l1-3 2 1c2.204.23 4.414.41 6.625.563l3.602.253L640 87l.375-1.875C641 83 641 83 643 81c6.882-.892 12.804-.042 19 3l2 3c2.523.51 2.523.51 5.375.563 3.725.165 6.464.37 9.625 2.437l2 3c2.61.384 5.006.603 7.625.688l2.14.103c1.745.083 3.49.147 5.235.209v-2h2v3l2 1v-3c11.242-2.882 20.65 3.624 30 9l2.742 1.566c1.798 1.072 3.538 2.24 5.258 3.434 0 2 0 2-2.25 4.688C733 114 733 114 731 114.061c-2.598-1.38-4.706-3.227-7-5.062-2.182-.778-2.182-.778-4-1l-.375 1.938L719 112l-2 1 1 7-3.375 1.063c-3.742 1.352-6.44 3.238-9.563 5.687-4.361 3.234-4.361 3.234-7.523 3.305-1.525-.279-3.047-.571-4.566-.88-2.258-.401-2.258-.401-4.848 1.637-2.332 3.5-3.132 6.459-4.176 10.481-1.957 5.581-5.787 10.545-9.949 14.707-2.543-5.633-3.051-10.906-2-17 1.893-3.21 4.236-5.529 7-8l2.188-2.375c1.84-1.65 3.547-2.654 5.812-3.625l-1-3-1.875 2.5L682 127h-2v-3l-3.75.625-2.11.352c-2.477.928-2.477.928-3.824 4.097C668 132 668 132 666.018 132.441c-2.466.042-4.871-.067-7.33-.254-7.728-.486-12.967-.376-19.122 4.899l-2.004 2.289-2.058 2.273c-1.732 2.708-1.821 4.2-1.504 7.352l3.375-.063C641 149 641 149 643 150c.67 12.612-3.749 20.106-11 30-2 2-2 2-5.313 2.25-4.95 1.007-5.741 2.794-8.687 6.75h-2l.91 1.61 1.153 2.14 1.16 2.11c.922 2.54.84 3.674-.223 6.14-2.563 1.25-2.563 1.25-5 2v-8l-3-1v-4l-7 1 1-3-2.375 1.5C600 191 600 191 598 191l1 4 7 1-2 1.688c-2.171 2.115-2.171 2.115-2.438 4.687.327 2.772.327 2.772 1.938 5.563 1.768 3.609 2.187 5.095 1.5 9.062-3.364 7.3-7.823 13.727-15.34 17.027C586.3 235.21 583.581 236 580 236c-2.934.534-3.826.826-6 3 .35 3.142 1.532 4.844 3.563 7.188 2.554 3.5 3.344 6.326 3.144 10.656-1.362 4.154-5.06 6.08-8.707 8.156-4-4.75-4-4.75-4-7 2.5-1.625 2.5-1.625 5-3-.379-3.29-.379-3.29-2-6-2-.04-4-.043-6 0-2.628 6.242-4.236 11.292-2 18l2.438 1.875c2.828 2.346 3.642 3.61 4.562 7.125.125 3.125.125 3.125 0 6-.224 2.925-.224 2.925 1 5 2.017 1.134 2.017 1.134 4 2l-1 7-4 1a310.5 310.5 0 0 1-2.938-3.25l-1.652-1.828c-1.488-2.029-2.116-3.43-2.41-5.922l3-3c.584-2.414.584-2.414 0-5a347.688 347.688 0 0 0-4-5c-2.567-5.513-3.404-10.32-3.816-16.367-.227-3.248-.684-6.418-1.184-9.633h-3v2l-3-1a102.603 102.603 0 0 1-2-7l-1.125-2.625c-.961-2.609-1.033-4.617-.875-7.375h-5l-1 4-1.875.25c-2.287.53-2.287.53-3.063 2.625-1.426 2.852-3.348 3.51-6.062 5.125a174.788 174.788 0 0 0-4 5l-3 2c-.032 2.008-.057 4.017.027 6.023-.033 2.415-.694 3.978-2.027 5.977h-2l-1 5c-2.78-2.78-3.687-6.123-5-9.75-.26-.704-.52-1.408-.79-2.133A672.61 672.61 0 0 1 510 249l-1.18-3.242c-1.119-3.762-.955-6.853-.82-10.758h-2v2l-4-1v-3c-2.023-2.75-3.68-4.655-7.068-5.54-2.376-.291-4.728-.467-7.12-.585-2.986-.174-5.84-.458-8.812-.875l-2-3c-3.584-.25-3.584-.25-7 0v-2l-1.875-.813C466 219 466 219 464 216l-3-1c1.23 4.733 1.23 4.733 3.188 9.188 1.045 2.333.604 3.436-.188 5.812v2h6l.75-1.813c1.414-2.473 2.9-3.62 5.25-5.187l.688 1.75c1.642 2.816 3.707 4.33 6.312 6.25-1.05 5.094-3.6 9.23-7.816 12.34C470.649 248 470.649 248 468 248l-1 3c-2.328 1.422-2.328 1.422-5.25 2.75l-2.89 1.36c-3.124.972-4.765.816-7.86-.11l-.227-1.688c-.975-5.662-2.765-8.991-6.386-13.402-1.992-2.744-2.587-5.647-3.387-8.91-1.39-2.624-1.39-2.624-3-5l-1.5-2.75c-1.365-2.546-1.365-2.546-4.5-3.25l1.531 3.29c.657 1.444 1.313 2.89 1.969 4.335l1.012 2.16c1.91 4.251 2.909 7.453 2.488 12.215l3 1a173.79 173.79 0 0 1 2.113 5.164c1.364 2.823 3.66 4.666 5.887 6.836 1.313 2.813 1.313 2.813 2 5 7.042-.719 7.042-.719 14-2 .536 7.499-2.926 13.891-7 20-2.735 3.065-5.56 5.744-9 8h-2l-.875 2.813C446 292 446 292 444 295c-.316 2.148-.316 2.148-.25 4.438l-.016 2.308c.134 2.274.134 2.274 1.254 4.168 2.101 4.332 1.64 9.411 1.012 14.086-2.328 3.26-4.066 4.575-7.676 6.219L436 328c-.354 3.39.004 6.481.313 9.871C436 341 436 341 433.57 343.188L431 345a128.606 128.606 0 0 0-2 7c-.979 1.021-1.98 2.02-3 3l-1.313 3.438c-2.082 4.396-3.243 5.57-7.687 7.562-4.332.717-8.608 1.182-13 1-2-2-2-2-2.313-5.063-.634-3.633-1.195-5.012-3.062-8-2.99-4.994-3.809-10.033-4.867-15.703-.672-2.867-1.355-4.684-2.945-7.109-2.434-4.197-2.355-6.322-1.813-11.125l3-5c.774-7.485-.525-15.725-5.125-21.813L385 291c-1.497-5.067-.742-9.86 0-15l-3.25-.313C378 275 378 275 376 273.375c-2.086-1.733-2.086-1.733-5.563-1.188-3.532.625-3.532.625-6.437 2.813-5.656.75-12.281 1.534-17.402-1.355-1.795-1.78-3.205-3.54-4.598-5.645l-2.188-3.125L338 262l-2.25-2.313c-3-4.608-2.15-9.509-1.188-14.75.407-2.73.29-4.502-.125-7.187L334 234l2-2 1.125-3.688c1.283-3.69 2.882-5.408 5.938-7.812 3.748-2.995 4.555-4.824 5.34-9.434 1.227-4.245 4.102-7.457 7.597-10.066 3.938-.25 3.938-.25 5.992-.016 2.47.02 3.5-.676 5.57-1.984 5.81-3.3 12.976-2.497 19.438-2 1 1 1 1 1.098 3.066l-.036 2.496-.027 2.504L388 207l3.75.25c3.15.385 4.15.673 6.75 2.688C400 212 400 212 400 214c1.915-.122 1.915-.122 4-1 1.771-2.48 1.771-2.48 3-5 3.18.497 5.549 1.255 8.5 2.625 5.746 2.287 11.492 1.063 17.5.375l4-13-2 1c-2.12.174-4.248.267-6.375.313l-3.46.113C422 199 422 199 419.664 197.215c-2.173-2.891-2.858-5.72-3.665-9.215l-5 1 1.125 2.813L413 195l-2 3h-2c-1.986-3.904-3.866-7.634-5.375-11.75-1.929-3.858-4.026-5.01-7.625-7.25v-3l-6-1v4l1.688.688c2.954 1.676 4.98 3.858 7.312 6.312l2 2-2 5h-2l-.254-1.813c-.966-2.831-2.218-3.546-4.683-5.187-3.07-2.05-4.648-3.561-6.063-7l-2.188.438L381 180l-2.688.563C376 181 376 181 374 181l-.75 2.375C372 186 372 186 370.062 186.813c-2.568 1.479-2.646 2.372-3.562 5.125-.888 2.621-1.393 3.947-3.313 6-2.704 1.313-5.213 1.724-8.187 2.062l-1-3-5-1c-.027-2.48-.047-4.958-.063-7.438l-.025-2.142c-.009-1.807.036-3.614.088-5.42 1-1 1-1 3.906-1.063l7.188.125c2.8.276 2.8.276 3.906-1.062.417-2.874.417-2.874 0-6-1.867-2.303-3.356-3.678-6-5l1-3 4 1v-3l2.313-.25c3.263-.91 3.818-2.031 5.687-4.75l3-1 .75-1.875c1.949-3.313 4.703-3.811 8.25-5.125-.095-.626-.19-1.253-.29-1.898-.11-.818-.22-1.635-.335-2.477l-.352-2.46L382 141l2-2h3v9c1.646.027 3.292.046 4.938.063l2.777.035c2.25.161 2.25.161 3.285-1.098 2.67-.141 5.324-.042 8 0l2-9 4-1-.063-2.438C412 132 412 132 413 131c2.32-.281 4.639-.448 6.969-.621L422 130l1-2-2.52.543-3.293.644-3.269.668C411 130 411 130 409.125 128.813c-1.978-3.188-1.306-6.14-1.125-9.813l3-1 1-2c1-2 1-2 4-3l-1-2h-6l-.625 2.75C407 117 407 117 403.937 118.938c-3.326 1.848-3.326 1.848-3.812 5.812L400 128l3 1c-.375 1.938-.375 1.938-1 4l-2 1-.313 3.313C399 141 399 141 396.75 143.375c-2.693 1.591-4.665 2.272-7.75 2.625v-4a260.686 260.686 0 0 0-.5-5.25l-.281-2.703L388 132h-3l-2 4-5-1c-2.548-7.644-2.548-7.644-1-12a74.923 74.923 0 0 1 5.813-5.313c4.875-4.202 7.674-7.677 10.187-13.687l3-2 1-3-2-1 2.25-.25c2.881-.535 2.881-.535 4.75-2.813 2-1.937 2-1.937 4.75-2.187L409 93l1-3h14l-1 4 2.977-.23c4.713.005 8.27 1.8 12.398 3.918l2.191 1.029c5.141 2.58 5.141 2.58 6.536 5.928C447 107 447 107 445 109c-2.602.195-2.602.195-5.625.125l-3.04-.055L434 109l2 4c6.205-1.229 6.205-1.229 11-5 2.688-.188 2.688-.188 5 0l-.188-3.313C452 101 452 101 453.5 99.064L455 98v6c3.405-.973 5.838-1.874 8.656-4.063 4.3-2.49 7.366-2.4 12.219-2.187l2.375.055c1.917.046 3.834.118 5.75.195l1-4c5.656-.566 9.226 1.286 14 4l-1-2.125c-1.156-3.323-1.5-5.38-1-8.875 1.49-2.207 3.197-4.021 5-6l1-3c3 1 3 1 5 3 .281 2.526.465 4.967.563 7.5.039 4.9.039 4.9 1.437 9.5l-.105-2.738-.082-3.575-.106-3.55C510 85 510 85 511.512 83.082L513 82l1 2 10-1-1-4c1.16-1.727 1.16-1.727 3-3 2.121-.336 2.121-.336 4.438-.375 3.907-.274 3.907-.274 6.812-3L539 70c4.639-3.524 9.438-3.692 15.03-4.084 6.759-.634 10.854-6.768 16.595-7.041ZM131 75c2.333.339 4.666.673 7 1l1 4 2.266.402a415066189.387 415066189.387 0 0 1 5.937 1.063c2.294.439 4.54.938 6.797 1.535l1-4 6-1-.188 3.125c.202 4.169.986 6.369 3.188 9.875l3 2-1 5h-8c4.712 3.737 8.019 4.113 14 4v-4l1-3c2.375.188 2.375.188 5 1 1.313 2.563 1.313 2.563 2 5l1-4-4-3 1-7 4-1c3.04 3.649 4.965 7.744 7 12h5v5l3 1 2-10-3.375-.75C192 92 192 92 190.5 90.312c-.728-3.367-.288-5.977.5-9.312 1.25-1.938 1.25-1.938 3-3 2.438-.188 2.438-.188 5 0 2.23 0 4.462-.018 6.691-.105l2.871-.082 2.88-.106C214 78 214 78 215.84 79.387 217 81 217 81 217 83l1.652.816a370.739 370.739 0 0 1 7.91 4.121l2.88 1.528c2.275 1.365 3.92 2.463 5.558 4.535l.313 2.938c.41 3.32.41 3.32 3.5 5.312 3.55 1.96 3.55 1.96 7.187 3.75a56.54 56.54 0 0 1-4 7c-3-1-3-1-5-4l-3-1c1.979 3.535 1.979 3.535 4.688 6.5 1.312 1.5 1.312 1.5 1.5 4.188L240 121h-4v2c-4.29-.21-6.346-1.117-9.313-4.063-2.888-2.713-4.656-3.343-8.625-3.312-1.356.095-2.712.21-4.062.375l1-5h6c.345-1.33.675-2.665 1-4l.688-2.625L223 102c-1.867-2.156-1.867-2.156-4.5-2.875C216 98 216 98 214.687 95.875L214 94l-2.75.5C208 95 208 95 204 95l3 2c.652 6.849.652 6.849-1.063 9.875-1.937 1.125-1.937 1.125-5.5 2L197 110l-.941 2.355c-1.28 3.196-2.634 4.143-5.434 6.082-3.789 2.82-6.508 5.238-8.625 9.563-.584 3.128-.584 3.128 0 6 1.438 1.688 1.438 1.688 3 3v3l3.125.25c4.252.823 6.346 2.324 9.875 4.75 2.317.722 4.648 1.4 7 2 1 1 1 1 1.313 4.438.27 3.628.27 3.628 2.75 5L211 157c.85-2.552 1.056-3.801.313-6.438L211 148l4-5c-.184-3.339-.184-3.339-2-6a184.94 184.94 0 0 1-.063-7.563l.014-2.154c.012-1.76.03-3.522.049-5.283 5.73-.165 8.956.53 14 3v2l1.875.688C231 129 231 129 232 131.561l1 2.438c2.041.887 2.041.887 4 1l2-5c3.061 1.056 3.946 1.91 5.625 4.75C246 138 246 138 246.875 141.125c1.365 3.487 3.158 4.689 6.125 6.875v2h3l1 7-2.938 1.438c-2.867 1.264-2.867 1.264-4.062 2.562-3.362.285-6.724.449-10.094.621L237 162l-1 2h5v3h-2l3 6 7-1v3a804.91 804.91 0 0 1-4.375 2.5l-2.46 1.406C240 180 240 180 238 180v-3l-7 1-.563 3.188c-.909 3.288-2.007 4.503-4.875 6.312-3.944 2.504-5.093 5.017-6.562 9.5l-.688 3.563c-1.431 3.75-2.193 4.326-5.375 6.5-3.35 2.262-3.35 2.262-5.062 5.937.14 3.342.991 5.866 2.125 9 .125 2.875.125 2.875 0 5h-3c-2.383-3.208-3.438-6.064-4-10-1.625-.168-3.25-.334-4.875-.5l-2.742-.281c-2.316-.25-2.316-.25-4.383-.219v2l-1.793-.36-2.394-.39-2.356-.422c-3.69.258-5.037 1.408-7.457 4.172-.43 3.03-.568 5.432-.438 8.438l.018 2.275c.092 4.178.534 7.476 2.42 11.287 4.041.422 4.041.422 8 0 2.302-2.869 2.302-2.869 4-6 2.25-.875 2.25-.875 4-1 1.369 4.517.47 7.588-1 12l-6-1-2 5-3-2-3.438.25c-6.615.209-13.36-3.644-18.39-7.738C160 241 160 241 159.562 237.625c-.633-4.08-1.723-5.7-4.562-8.625l-2-1a392.898 392.898 0 0 1-3-5l-2-2.5c-1.92-2.4-3.477-4.834-5-7.5.696 3.98 2.607 7.125 4.563 10.625C151 229.781 151 229.781 151 232c-3.914-1.305-4.164-2.702-6-6.313-2.057-4.02-2.057-4.02-4.57-7.757-1.552-2.094-2.377-4.065-3.305-6.493-1.475-3.606-1.475-3.606-4.563-5.875-3.678-2.242-4.693-5.345-6.449-9.187-1.126-2.555-1.126-2.555-3.113-5.375-.211-2.113-.211-2.113-.16-4.527l.033-2.65.064-2.76c.035-1.801.065-3.602.09-5.403l.055-2.418c-.15-4.123-.597-5.757-3.582-8.742-2.621-2.621-2.704-3.154-3.5-6.5a69.101 69.101 0 0 0-2.5-4.125c-1.26-1.943-2.464-3.803-3.5-5.875l-1.938-.375L106 147l-.895-1.82C102.28 139.608 95.338 134.942 90 132a72.982 72.982 0 0 0-6.95-1.508C81 130 81 130 78 128h-2l-.688 1.875c-1.691 2.74-3.304 3.175-6.312 4.125v-4l-2 1-1 3.063c-2.201 5.451-7.077 8.982-12 11.937-3.324.727-3.324.727-6 1 2.161-3.242 3.72-4.048 7-6a89.165 89.165 0 0 0 4-4l-9-1-1-3-2.438-1.438c-2.755-1.68-3.637-2.508-4.562-5.562-.063-2.063-.063-2.063 1-4l7-3c1.043-2.069 1.043-2.069 1-4l-2 1c-3.375.375-3.375.375-7 0-2.438-2.5-2.438-2.5-4-5 3.086-2.269 4.422-3.055 8.313-2.688L49 109l-2.313-2.938-1.3-1.652c-1.444-1.682-1.444-1.682-4.387-2.41v-3l2.063-.625c3.328-1.558 5.538-3.53 8.19-6.035C55.19 89.32 60.236 89.54 65 90c2.969.684 5.896 1.477 8.836 2.277 3.217.735 6.248 1.031 9.539 1.223 4.647.278 7.46 1.418 11.625 3.5 4.222-.201 7.522-.857 11.563-2.063 4.75-1.295 8.751-1.499 13.437.063l2-1c5.52.368 9.081 1.377 14 4 2.736.7 2.736.7 5 1v3c1.812.027 3.625.046 5.438.063l3.058.035c2.444.188 2.444.188 3.504-1.098v-2l-1.723.105c-5.614.197-9.274-.55-14.277-3.105v-3l5-1-3.375-.313L135 91c-2-3-2-3-2-7h-2l-.688 1.938C129 88 129 88 126.626 88.938c-3.234.077-4.296-.781-6.625-2.938l.438-2.125c.577-2.95 1.079-5.908 1.562-8.875 3.57-1.19 5.33-.706 9 0ZM195.168 249.633c2.318-.008 4.536.047 6.832.367 2.115 2.115 1.446 6.57 1.621 9.434.142 2.727.142 2.727 2.379 4.566h3.375c3.399 0 4.84.217 7.625 2l.688-1.813c2.184-3.64 5.388-4.879 9.312-6.187 1.929.732 3.855 1.47 5.762 2.258 2.333.773 4.23.915 6.675.992 5.67.444 9.679 3.774 13.563 7.75v2l1.828.367 2.422.508 2.39.492c2.455.659 4.262 1.187 6.36 2.633 1.238 2.531 1.238 2.531 2.313 5.5 1.848 4.68 1.848 4.68 6.25 7l3.437.5 1.938 1.563c2.295 1.6 3.333 1.663 6.062 1.875 3.982.353 5.337 1.532 8 4.562 2.632 1.254 2.632 1.254 5 2-.024 5.18-.42 8.742-3.938 12.688-3.076 3.644-3.609 6.535-4.125 11.25-.679 6.205-1.734 11.274-5.937 16.062-3.5 1.813-3.5 1.813-7 3-2.912 1.496-2.912 1.496-5 4-.546 1.945-.546 1.945-.875 4.125-.87 5.114-3.28 8.43-6.371 12.516-1.762 2.37-3.273 4.805-4.754 7.359l-7-1 1.063 1.688c1.189 2.934 1.025 4.358-.063 7.312-2.904 2.178-5.451 2.197-9 2l-.75 2.438C244 384 244 384 241.875 384.813L240 385l.625 2.688c.407 3.591.112 5.186-1.625 8.312l-3 2 1.063 1.688c1.202 2.966.989 4.306-.063 7.312l-2.063 2c-2.133 1.833-2.133 1.833-2.375 4.375.546 3.274 1.885 5.705 3.438 8.625.75 2.313.75 2.313 1 4-1 1-1 1-3.375 1.25-3.196-.304-3.541-.916-5.625-3.25l-3.125-1.75C222 420 222 420 221.187 416.312L221 413l-1-1c-.332-4.732-.189-9.393 1-14h2l.184-1.898.254-2.477c.08-.812.162-1.624.246-2.46C224 389 224 389 225 387h-2a381.95 381.95 0 0 1-.188-6.188l-.105-3.48C223 374 223 374 224.477 371.57c2.037-3.437 2.005-6.62 2.085-10.507.213-5.614.636-11.064 1.5-16.625 1.4-8.784 1.4-8.784-.062-17.438a83.374 83.374 0 0 0-4.75-2.375c-5.87-3.34-7.174-7.195-9.156-13.453-1.009-2.925-2.08-4.842-3.906-7.297-3.126-4.689-3.066-9.427-2.188-14.875 1.373-3.941 3.046-7.046 6-10 .356-2.104.356-2.104.313-4.438l.05-2.37c-.44-2.653-1.32-3.515-3.363-5.192l-3 3c-5.018-3.65-8.85-6.6-12-12-3.067-1.826-3.067-1.826-6-3 1.13-3.01 1.842-4.804 5.168-5.367Z"/><path fill="#01A0E2" d="M315 30c2.192.756 2.192.756 4.313 1.188L323 32v7c1.48-.14 2.959-.288 4.438-.438.823-.08 1.647-.162 2.496-.246 2.053-.105 2.053-.105 3.066-1.316 2.67-.141 5.324-.042 8 0v4c-1.469 1.352-1.469 1.352-3.5 2.625-5.22 3.617-8.74 8.316-12.5 13.375l1.922.34L329 58c1.25 2.563 1.25 2.563 2 5h-6l1.477 1.223c2.354 2.746 1.933 5.129 1.82 8.613-.382 2.784-1.192 4.302-3.297 6.164h-2c-.244 5.797-.244 5.797 2 11l-3 2v2c-3.945 3.438-7.98 5.173-13.125 5.875-4.945.771-6.62 2.572-9.508 6.512-2.051 2.42-4.35 2.892-7.367 3.613-2.285.559-2.285.559-4 2-1.205 3.298-1.205 3.298-2 7a144.12 144.12 0 0 1-4 11h-4l-1-2-2.355-.355c-3.421-.834-4.102-2.028-5.957-4.957l-1.551-2.364C266 118 266 118 266 114h-2a277.676 277.676 0 0 1-1.563-4.25l-.878-2.39c-.616-2.6-.527-3.891.441-6.36l4-4v-3h-2v2l-5-1 2-5 4 1c-1.67-3.224-1.67-3.224-4.625-3.688L258 87l-.188-3.5c-.749-6.116-4.155-11.498-8.812-15.5-5.618-1.261-11.273-1.104-17-1v-3l-4-2h2c-1.255-2.51-2.5-2.871-5-4v-3c3.967-1.803 7.682-2.492 12-3l1-3-4-2c4.716-4.94 4.716-4.94 8.688-5.125L245 42l.254-1.887C246 38 246 38 247.714 36.918 253.79 34.921 258.719 34.912 265 36v-2c3.716-.2 4.772-.152 8 2l.375-2.438L274 31c2.46-1.23 4.38-1.25 7.125-1.438 3.438-.275 6.285-.678 9.625-1.625 7.854-2.155 17.418-2.53 24.25 2.063Z"/><path fill="#02A0E3" d="m645 310 2 1 .938 2.875c.775 3.067.775 3.067 2.539 4.543 2.315 2.404 2.73 5.165 3.582 8.328 1.163 2.785 2.746 4.2 4.941 6.254a159.57 159.57 0 0 1 3.688 4.5c.902 1.13.902 1.13 1.824 2.281C667.75 344.61 667.708 350.37 667 356c-1.061 3.153-2.316 6.122-3.71 9.14-1.367 2.877-1.367 2.877-2.298 6.102C660 374 660 374 657.5 375.875c-4.596 1.477-8.717 1.865-13.5 1.125-2.93-1.978-3.752-3.348-5-6.625-.796-2.494-.796-2.494-2.938-3.688-2.174-.845-2.174-.845-5.062-.687l-1.625-3c-1.968-3.109-1.968-3.109-4.352-3.504-6.747-.174-12.407 1.76-18.023 5.504-5.568 1.763-9.299 2.188-15 1l.188-3.375c.018-3.427-.562-6.083-1.688-9.313-2.016-6.068-1.768-11.984-1.5-18.312 4.657-2.851 8.698-4.545 14-6 2.15-1.787 2.15-1.787 2.438-4.063L606 323l3-1a95.29 95.29 0 0 0 4-5l6 1 1.313-3c1.066-1.664 1.066-1.664 2.687-3 3.713-.545 7.272-.347 11 0l-.563 3.313c-.695 3.623-.695 3.623.563 6.687l2.313.438C639 323 639 323 642 324c1.647-3.294 1.454-6.93 1.719-10.566C644 311 644 311 645 310Z"/><path fill="#06A1E3" d="m214.71 30.77 3.274.005 3.391.038 3.367.001c14.42.078 14.42.078 21.258 3.186v3l-8 2v3l-1.61.734c-4.623 2.188-4.623 2.188-8.515 5.453C225.4 50.58 223.36 50.696 220 51l-.75 3.375C218 58 218 58 215.937 59.063L214 60c-.816 3.06-.816 3.06-1 6-4.387.89-8.232 1.008-12.688.625l-3.386-.273C194 66 194 66 191 65v-2h3l-.063-2.875C194 57 194 57 195 55l-3 2c-3.063.25-3.063.25-6 0l-2-2v-3l-1.938-.75C180 50 180 50 179 48.187c0-3.32 1.83-4.819 4-7.187a291.713 291.713 0 0 1 6.035 3.07l2.028 1.055 2.035 1.07c2.018 1 2.018 1 4.902.805v-2l-2.25.25c-3.577-.325-4.424-1.613-6.75-4.25l-3-2c11.337-4.592 11.337-4.592 18-4v-2c3.725-1.713 6.622-2.248 10.71-2.23Z"/><path fill="#0AA3E2" d="m624 285 4 1 1 5 2.25-.938L634 289l1.766-.734c3.422-.407 5.656.964 8.734 2.421l3.406 1.575c2.97 1.669 4.943 3.115 7.094 5.738l1 3.625c.636 3.456.636 3.456 3.125 4.813L661 307c-1.688.813-1.688.813-4 1a282.832 282.832 0 0 1-5-5h-4l-2 3c-6.75-1.75-6.75-1.75-9-4-.125-2.625-.125-2.625 0-5l-2.047-.445c-8.199-2.062-8.199-2.062-10.64-5.555-1.313-3-1.313-3-.313-6Z"/><path fill="#0DA4E3" d="m403 45 15 1 1 3c-3.14 2.452-5.23 3.244-9.125 2.813C406 51 406 51 403 49c2.142 2.301 4.03 4.017 6.75 5.625L412 56v2l2 1-4 2c-3-2-3-2-5-6l-5 8c-3.551-.262-4.78-.768-7.273-3.398l-2.102-2.977-2.148-2.96L387 51l1-3c1.856.03 1.856.03 3.75.063 2.947.01 5.4-.296 8.25-1.063l2 1 1-3Z"/><path fill="#08A2E2" d="m595 269 4 3c-.723 6.196-1.696 11.449-4.063 17.25l-1.097 2.703L593 294c-1.797-.37-3.588-.772-5.375-1.188l-3.023-.667C582 291 582 291 580.648 288.637 580 286 580 286 580 282l1.688-.688c2.977-1.69 4.948-3.836 7.312-6.312a993.135 993.135 0 0 1 3.313-3.313L595 269Z"/><path fill="#08A2E3" d="m462 314 2 1c.938 10.024-1.367 20.55-7 29-4.875-.875-4.875-.875-6-2-.098-1.497-.13-3-.125-4.5l-.008-2.469C451 333 451 333 452 332c-.111-1.418-.24-2.834-.375-4.25-.074-4.264-.074-4.264 1.824-6.316a72.609 72.609 0 0 1 3.793-2.372c2.183-1.319 3.41-2.92 4.758-5.062Z"/><path fill="#0CA3E2" d="M498.688 62.375 501 63v3l-2.02.629c-7.84 2.62-16.874 5.932-21.773 12.933-1.382 2.791-1.601 4.363-1.207 7.438.916 2.251.916 2.251 2 4h-6l-1-3c-2.015-.733-2.015-.733-4-1 6.395-16.62 6.395-16.62 14-20 3.084-.86 6.162-1.62 9.293-2.29 3.424-.898 4.801-2.836 8.394-2.335Z"/><path fill="#F4F2ED" d="M426 172c1.938.25 1.938.25 4 1l2 3h3l1-3 3-1 .125 2.25c1.224 3.846 3.468 4.793 6.875 6.75l-1 5c-6.75.125-6.75.125-9-1-5.154-.175-9.92.153-15 1 .465-5.485.904-9.904 5-14Z"/><path fill="#F3F2ED" d="m470 170 2 4-6 2 .938 2.25c.871 2.257 1.539 4.395 2.062 6.75h3v3h-2l1 2c.04 2.333.043 4.667 0 7l-7-1c-1.63-3.565-2-6.123-2-10l-2-2c-.336-2.496-.336-2.496-.375-5.438l-.086-2.933C460 173 460 173 461.82 171.164c2.837-1.515 5.014-1.38 8.18-1.164Z"/><path fill="#0EA4E3" d="m357 135 3 1-1 2h3l-.313 2.125c.444 4.08 2.624 5.866 5.313 8.875 2.13 3.002 2.007 3.93 1.625 7.75L368 160l-11 1 1-9 3-1v-2h-4l-3-11h2l1-3Z"/><path fill="#16A7E3" d="M559 256c1.849 2.773 2.271 3.839 2.813 6.938.955 4.19 2.702 5.535 6.187 8.062 2.06 3.729 2.183 6.789 2 11-.224 2.925-.224 2.925 1 5 2.017 1.134 2.017 1.134 4 2l-1 7-4 1a310.5 310.5 0 0 1-2.938-3.25l-1.652-1.828c-1.488-2.029-2.116-3.43-2.41-5.922l3-3c.584-2.414.584-2.414 0-5a347.688 347.688 0 0 0-4-5c-2.945-5.607-3.39-10.749-3-17Z"/><path fill="#EDEFED" d="M432 220c1.836.227 1.836.227 4 1 1.414 1.96 1.414 1.96 2.625 4.375 1.368 2.676 2.702 5.115 4.375 7.625l.813 2.75c1.046 2.863 1.86 4.254 3.687 6.563 2.606 3.423 3.383 6.558 4.043 10.769.334 2.144.334 2.144 2.457 3.918h-2l-1 3c-1.524-2.983-2.94-5.818-4-9l-1.938-.813c-2.996-1.725-3.105-3.975-4.062-7.187l-2-1a326.972 326.972 0 0 1-1.293-5.535c-1.114-3.885-2.915-7.423-4.684-11.047C432 223 432 223 432 220Z"/><path fill="#14A6E3" d="M141 63h2l1 3c3.503 1.716 3.503 1.716 7 3l-1-5 4 1v2h5l-1 6-16 2v-2h-5c-.813-1.625-.813-1.625-1-4 2.313-3.25 2.313-3.25 5-6Z"/><path fill="#08A2E2" d="M177 63c4.625-.434 8.974.714 13 3l1 3c5.05.938 5.05.938 10 0a65.305 65.305 0 0 1 4.188-.063L209 69c.563 1.938.563 1.938 1 4-2.418 2.418-8.688 1.185-11.938 1.188l-3.115.037-2.974.005-2.742.013C187 74 187 74 185 72l-.188-1.938c-.723-2.515-.723-2.515-4.375-3.812L177 65v-2Z"/><path fill="#F1EEEC" d="M461 215c4.248.472 6.268 2.889 9 6v2l7-1 2 4-2.25.188c-2.975.582-2.975.582-4.688 3.375C470 232 470 232 466.75 232.313L464 232c-.7-3.153-1-5.727-1-9l-2-3c-.125-2.688-.125-2.688 0-5Z"/><path fill="#10A5E3" d="M553.813 40.25 556 41v6h5c1 3 1 3 .063 5.188L560 54a1003.64 1003.64 0 0 1-5.25-1.375l-2.953-.773A34.558 34.558 0 0 1 545 49c.289-3.468.817-4.807 3.25-7.375C551 40 551 40 553.813 40.25Z"/><path fill="#08A2E2" d="M321 107h3v2l2-.5c4.203-.7 9.104-1.448 13 .5.313 2.313.313 2.313 0 5-2.867 2.52-4.756 2.979-8.563 3.313-3.111-.283-4.846-.655-7.437-2.313v-3l-2-1v-4Z"/><path fill="#0AA3E3" d="M641 186h3c.586 9.966.586 9.966-3 14-2.564 1.867-5.219 3.479-8 5l-2.066 1.145C629 207 629 207 626 207v-3h-2l1-3c1.742-.625 1.742-.625 3.875-1 3.293-.704 4.981-1.292 7.125-4l3-2c.79-1.954.79-1.954 1.188-4.125L641 186Z"/><path fill="#E3ECF3" d="M418 304c1.875 1.125 1.875 1.125 3 3-.125 3.063-.125 3.063-1 6-3 2-3 2-5.563 1.75C412 314 412 314 410 312c-.365-2.846-.402-4.386 1.188-6.813 2.461-1.612 3.923-1.62 6.812-1.187Z"/><path fill="#E3EEF5" d="M427.625 275.125C430 276 430 276 432 279c-.324 3.322-.608 4.608-3 7-2.846.365-4.386.402-6.813-1.188-1.628-2.484-1.697-3.9-1.187-6.812 2.226-2.473 3.283-3.034 6.625-2.875Z"/><path fill="#E5EDF4" d="M348.063 253.125C351 254 351 254 353 257c-.188 2.563-.188 2.563-1 5-3 2-3 2-5.563 1.75C344 263 344 263 342 261c-.363-2.834-.357-4.405 1.125-6.875 1.875-1.125 1.875-1.125 4.938-1Z"/><path fill="#DEEAF3" d="M428 293c1.813 1.188 1.813 1.188 3 3 .313 2.563.313 2.563 0 5-2 2-2 2-5.5 2.25C422 303 422 303 420 301c-.365-2.846-.402-4.386 1.188-6.813 2.461-1.612 3.923-1.62 6.812-1.187Z"/><path fill="#E3EDF4" d="M393 243c1.875 1.125 1.875 1.125 3 3-.188 3.125-.188 3.125-1 6-2.763 1.381-4.947 1.19-8 1-2-2-2-2-2.313-5l.313-3c3.233-2.155 4.252-2.469 8-2Z"/><path fill="#E7E2E8" d="M648.938 358.625c3.062.375 3.062.375 5 2.125 1.062 2.25 1.062 2.25.875 4.375C654 367 654 367 652 369c-3 .25-3 .25-6 0-2-2-2-2-2.25-5 .34-4.09 1.126-4.857 5.188-5.375Z"/><path fill="#E9F0F6" d="M409.438 332.813C413 333 413 333 415 335c.365 2.846.402 4.386-1.188 6.813-2.461 1.612-3.923 1.62-6.812 1.187-1.875-1.125-1.875-1.125-3-3 .554-6.921.554-6.921 5.438-7.188Z"/><path fill="#0BA3E2" d="m703 383 4 1c-1.33 5.32-3.865 10.323-8 14-2.7.227-2.7.227-5 0l-1-4 1.426-1.137c3.64-2.992 6.429-5.572 8.574-9.863Z"/><path fill="#EDEBEF" d="M427.938 312.688c3.062.312 3.062.312 5 1.5C434 316 434 316 433.813 318.563 433 321 433 321 431 323c-3.625-.375-3.625-.375-7-1-.625-3.375-.625-3.375-1-7 2-2 2-2 4.938-2.313Z"/><path fill="#EBEDF3" d="M388.438 264.688c2.562.312 2.562.312 4.437 1.437 1.125 1.875 1.125 1.875.875 5C393 274 393 274 392 275c-3.438.25-3.438.25-7 0-2-3-2-3-1.75-5.563.995-3.233 1.775-4.312 5.188-4.75Z"/><path fill="#EBEEF3" d="M433 256.75c3 .25 3 .25 5 2.25-.375 3.625-.375 3.625-1 7-6.412 1.33-6.412 1.33-9-.125-1-1.875-1-1.875-.813-4.438 1.2-3.596 2-4.37 5.813-4.687Z"/><path fill="#F5F4F7" d="m353 263.688 3 .312c2 3 2 3 1.625 6.188L357 273c-6.412 1.33-6.412 1.33-9-.125-1-1.875-1-1.875-.813-4.438 1.197-3.59 2.02-4.354 5.813-4.75Z"/><path fill="#F0F6FA" d="M364.438 261.75 368 262c2 3 2 3 1.75 5.563C369 270 369 270 367 272c-5.455-.455-5.455-.455-8-3 .705-6.906.705-6.906 5.438-7.25Z"/><path fill="#E9F2F7" d="M362.188 232.375 365 233c1.33 6.412 1.33 6.412-.125 9-1.875 1-1.875 1-4.438.813C358 242 358 242 356 240c-.313-3-.313-3 0-6 3-2 3-2 6.188-1.625Z"/><path fill="#ECE3E8" d="M414 346.75c3 .25 3 .25 5 2.25.25 3 .25 3 0 6-2 2-2 2-5 2.25-3-.25-3-.25-5-2.25-.25-3-.25-3 0-6 2-2 2-2 5-2.25Z"/><path fill="#F8E4E5" d="M377.125 259.313C380 260 380 260 381 261c.188 2.938.188 2.938 0 6-2 2-2 2-5 2.25-3-.25-3-.25-5-2.25-.313-3-.313-3 0-6 3-2 3-2 6.125-1.688Z"/><path fill="#F7F5F7" d="M241.125 266.313C244 267 244 267 245 268c.188 2.938.188 2.938 0 6-2 2-2 2-5 2.25-3-.25-3-.25-5-2.25-.313-3-.313-3 0-6 3-2 3-2 6.125-1.688Z"/><path fill="#14A6E3" d="M612 258c1.576 4.136 2.504 7.562 2 12l-3 2-2-3h-3l1-8h-2v-3c2.667-1.333 4.167-.671 7 0Z"/><path fill="#E7EAF0" d="M567.875 247.75c3.125.25 3.125.25 5.063 1.438C574 251 574 251 574 253.5c-1.313 3.283-2.81 4.1-6 5.5-2-1-2-1-3.125-3.875C564 252 564 252 564 249c1-1 1-1 3.875-1.25Z"/><path fill="#0EA4E2" d="M602 282h8v2l-3.438.375L603 285l-1 2 5-1-.5 2.813c-.577 3.143-.577 3.143-.5 6.187l-6 2c-1.096-5.945-1.41-9.68 2-15ZM255 159h2a264.271 264.271 0 0 1 3 5l2 1 1 6-12-2c1.11-3.487 2.263-6.775 4-10Z"/><path fill="#08A2E2" d="M168 78h7c2.092 4.43 2.092 4.43 1.625 7.313C176 87 176 87 174.375 87.75c-3.712.39-5.556-1.508-8.375-3.75v-2l3-1-1-3Z"/><path fill="#E5ECEC" d="m190 64 1.578.465c3.055.675 6.052.88 9.172 1.097l3.547.254L207 66l1 3c-2.06.392-4.123.763-6.188 1.125l-3.48.633c-3.473.252-5.266-.199-8.332-1.758v-5Z"/><path fill="#0DA4E2" d="M637 65c2.75.313 2.75.313 6 1l6 1 1 3c-1.58.365-3.165.717-4.75 1.063l-2.672.597c-2.565.338-4.149.152-6.578-.66-.625-1.875-.625-1.875-1-4l2-2Z"/><path fill="#E4DFE6" d="M512.5 220.75c2.5.25 2.5.25 4.5 2.25.313 2.5.313 2.5 0 5-3 2-3 2-5.625 1.688C509 229 509 229 508 228c-.188-2.438-.188-2.438 0-5 2-2 2-2 4.5-2.25Z"/><path fill="#12A5E3" d="M706 367c1.5 1.375 1.5 1.375 3 3v2h2v2h4c0 4 0 4-1.313 5.563L712 381l-1.688 1.688L709 384c-1.465-4.578-2.108-8.157-2-13-.44-2.266-.44-2.266-1-4Z"/><path fill="#0BA3E3" d="M355 146c-.087 1.46-.195 2.918-.313 4.375l-.175 2.46C354 155 354 155 351 157h-4c.607-7.4.607-7.4 2.313-10 1.687-1 1.687-1 5.687-1Z"/><path fill="#0DA4E3" d="M198 110c1.485.76 2.963 1.533 4.438 2.313l2.496 1.3C207 115 207 115 208 118l-11 1c-.125-6.75-.125-6.75 1-9Z"/><path fill="#1AA8E2" d="M574 298c5.9.421 11.589 1.525 17 4l1 2c-5.746.25-11.52-.127-17-2l-2-3 1-1Z"/><path fill="#0DA4E3" d="M162 65h12v6l-4 1v-2l-2.875-.438C164 69 164 69 162 68v-3Z"/><path fill="#0BA3E2" d="M181 76c2.729.033 5.297.564 8 1-1.9 3.515-3.566 5.896-7 8h-2c-.625-3.375-.625-3.375-1-7l2-2Z"/><path fill="#0EA4E2" d="m138 61-1 5c-3.823 1.423-6.913 2.24-11 2l-1-2c4.313-3.573 7.138-5.715 13-5Z"/><path fill="#0EA4E3" d="M565 50c2.616.327 4.64.82 7 2v4l-11 1c2-5 2-5 4-7Z"/><path fill="#1EA9E2" d="M207.355 232.152c2.825.906 5.326 2.042 7.958 3.41l2.675 1.38L220 238v3c-2.752-.382-4.574-.65-6.75-2.438-3.414-2.37-7.208-2.828-11.25-3.562 1.76-2.317 2.37-3.04 5.355-2.848Z"/><path fill="#F0EBEE" d="M553 272c4.75.75 4.75.75 7 3l2.5.5c2.5.5 2.5.5 4.5 2.5.125 2.625.125 2.625 0 5l-4 1 2-6c-3.629-.151-3.629-.151-7 1a141.4 141.4 0 0 1-5-5v-2Z"/><path fill="#27ADE4" d="m358 268 2.25 1.375A89.434 89.434 0 0 0 367 273c-3.68 2.454-6.444 2.228-10.688 2.125l-2.126-.027c-1.73-.024-3.458-.06-5.186-.098l-2-4 3 2c2.332.08 4.668.088 7 0l1-5Z"/><path fill="#0CA3E2" d="M645 148h2l2 15-2 1v7h-2v-23Z"/><path fill="#EBE9E0" d="M449.063 106.938 452 107v1h-5l-1 3c-1.742.984-1.742.984-3.875 1.75l-2.117.797C438 114 438 114 435 113c-.688-2.063-.688-2.063-1-4l2.371-.184 3.067-.254c1.009-.08 2.018-.162 3.058-.246 3.196-.403 3.148-1.309 6.567-1.379Z"/><path fill="#E5ECEC" d="m146.75 97.875 3.547.617L153 99l1 5-2-1c-1.87-.228-3.747-.41-5.625-.563l-3.04-.253L141 102v-3h-5c3.741-2.5 6.442-1.9 10.75-1.125Z"/><path fill="#19A8E3" d="M160 51c7.625 1.75 7.625 1.75 11 4v4a240.8 240.8 0 0 1-4.375-.813l-2.46-.457C162 57 162 57 160 54v-3Z"/><path fill="#13A6E3" d="M650 382h7l-1 7-3 1c-1.5-1.188-1.5-1.188-3-3-.188-2.688-.188-2.688 0-5Z"/><path fill="#DBE7F1" d="M227 273c1.675.286 3.344.618 5 1a88.406 88.406 0 0 1 1 5c-1 1-1 1-3.438 1.188C227 280 227 280 225 278c.536-3.536.536-3.536 2-5Z"/><path fill="#DCE0E9" d="M427 242c2.625.375 2.625.375 5 1 .625 1.875.625 1.875 1 4-2 2-2 2-4.625 2.125L426 249c-.625-2.375-.625-2.375-1-5l2-2Z"/><path fill="#E2F1F8" d="M424.5 336.875C427 337 427 337 428 338c.125 2.5.125 2.5 0 5-1 1-1 1-3.5 1.125C422 344 422 344 421 343c-.125-2.5-.125-2.5 0-5 1-1 1-1 3.5-1.125Z"/><path fill="#DBE0E9" d="M418 257c3.692.692 3.692.692 5 2 .04 1.666.043 3.334 0 5-2.375.625-2.375.625-5 1l-2-2c.556-4.556.556-4.556 2-6Z"/><path fill="#D9E3ED" d="M375 238c2.625.375 2.625.375 5 1 .125 2.375.125 2.375 0 5l-2 2c-2.125-.375-2.125-.375-4-1-.625-2.375-.625-2.375-1-5l2-2Z"/><path fill="#DAE4ED" d="M455 222c3.692.692 3.692.692 5 2 .04 1.666.043 3.334 0 5-2.375.625-2.375.625-5 1l-2-2c.556-4.556.556-4.556 2-6Z"/><path fill="#E1EFF7" d="M485.5 211.875C488 212 488 212 489 213c.125 2.5.125 2.5 0 5-1 1-1 1-3.5 1.125C483 219 483 219 482 218c-.125-2.5-.125-2.5 0-5 1-1 1-1 3.5-1.125Z"/><path fill="#E89A9F" d="M442 277c2.625.375 2.625.375 5 1 .625 1.875.625 1.875 1 4l-2 2c-2.625-.375-2.625-.375-5-1-.625-1.875-.625-1.875-1-4l2-2Z"/><path fill="#E49CA2" d="M251 275c2.625.375 2.625.375 5 1 .625 1.875.625 1.875 1 4l-2 2c-2.625-.375-2.625-.375-5-1-.625-1.875-.625-1.875-1-4l2-2Z"/><path fill="#E4EFF6" d="M472.5 233.875C475 234 475 234 476 235c.04 1.666.043 3.334 0 5-1.991.381-3.993.713-6 1-1-1-1-1-1.125-3.5.168-3.368.257-3.457 3.625-3.625Z"/><path fill="#E69BA1" d="M181 208c2.625.375 2.625.375 5 1 .625 1.875.625 1.875 1 4l-2 2c-2.625-.375-2.625-.375-5-1-.625-1.875-.625-1.875-1-4l2-2Z"/><path fill="#0EA4E2" d="m644 175 8 4c-2.55 2.354-3.71 2.983-7.25 3.188L642 182l-1 3c.61-3.558 1.578-6.683 3-10Z"/><path fill="#EEE1E5" d="M179 159a99.984 99.984 0 0 1 5 0c1 1 1 1 1.063 3.563L185 165c-2.375.625-2.375.625-5 1l-2-2c.375-2.625.375-2.625 1-5Z"/><path fill="#C6DCEA" d="m188 246 3 1 1 6-3 2-4-2c1.875-5.875 1.875-5.875 3-7Z"/><path fill="#DFEAEA" d="M247 38c-.625 1.875-.625 1.875-2 4-2.938 1.188-2.938 1.188-6 2l-3 1v-3l2-1v-3c3.378-.845 5.675-1.108 9 0Z"/><path fill="#29ADE3" d="m601 243 4 2v7l3 1v2c-4.75-.75-4.75-.75-7-3-.195-2.164-.195-2.164-.125-4.625l.055-2.477L601 243Z"/><path fill="#E53439" d="M359 234c1.675.286 3.344.618 5 1v5c-2.375.625-2.375.625-5 1l-2-2c.536-3.536.536-3.536 2-5Z"/><path fill="#E53036" d="M408 334c2.063.438 2.063.438 4 1l1 5c-2.375.625-2.375.625-5 1l-2-2c.536-3.536.536-3.536 2-5ZM363 263c2.063.438 2.063.438 4 1l1 5c-2.375.625-2.375.625-5 1l-2-2c.536-3.536.536-3.536 2-5ZM346 255c2.063.438 2.063.438 4 1 .625 1.875.625 1.875 1 4l-2 2c-2.625-.375-2.625-.375-5-1 .875-4.875.875-4.875 2-6Z"/><path fill="#E42D33" d="M418 307c.625 1.875.625 1.875 1 4l-2 2c-2.125-.375-2.125-.375-4-1l-1-5c2.49-1.245 3.41-.777 6 0Z"/><path fill="#E42C32" d="M424 295h4c.625 2.375.625 2.375 1 5l-2 2c-2.125-.375-2.125-.375-4-1-.625-1.875-.625-1.875-1-4l2-2Z"/><path fill="#E42D33" d="M560 277c1.675.286 3.344.618 5 1l-1 5c-1.875.625-1.875.625-4 1l-2-2c.536-3.536.536-3.536 2-5Z"/><path fill="#E42E34" d="M388.563 266.938 391 267a88.406 88.406 0 0 1 1 5c-1 1-1 1-3.563 1.063L386 273a88.406 88.406 0 0 1-1-5c1-1 1-1 3.563-1.063Z"/><path fill="#E42D33" d="M352.563 265.938 355 266a88.406 88.406 0 0 1 1 5c-1 1-1 1-3.563 1.063L350 272a88.406 88.406 0 0 1-1-5c1-1 1-1 3.563-1.063ZM432.563 258.938 435 259a88.406 88.406 0 0 1 1 5c-1 1-1 1-3.563 1.063L430 265a88.406 88.406 0 0 1-1-5c1-1 1-1 3.563-1.063Z"/><path fill="#E52F35" d="M568.563 249.938 571 250a88.406 88.406 0 0 1 1 5c-1 1-1 1-3.563 1.063L566 256a88.406 88.406 0 0 1-1-5c1-1 1-1 3.563-1.063Z"/><path fill="#E6ECEB" d="m509 84 2 1v15c-3.127-4.169-3.38-4.83-3.25-9.688.015-.973.03-1.946.047-2.949C508 85 508 85 509 84Z"/><path fill="#E42A30" d="M425 277c2.125.375 2.125.375 4 1 .625 1.875.625 1.875 1 4l-2 2c-2.125-.375-2.125-.375-4-1-.625-1.875-.625-1.875-1-4l2-2Z"/><path fill="#E42F34" d="m238 268 5 1 1 3-3 3-4-2 1-5Z"/><path fill="#17A7E3" d="m150 54-1 7-4 1c-.934-3.01-1.044-3.867 0-7 2-1 2-1 5-1Z"/><path fill="#E42C31" d="M374 261c1.675.286 3.344.618 5 1v5c-3.75 1.125-3.75 1.125-6 0a99.984 99.984 0 0 1 0-5l1-1Z"/><path fill="#E42B30" d="M388 245c1.675.286 3.344.618 5 1 .563 1.938.563 1.938 1 4-1 1-1 1-3.563 1.063L388 251a88.406 88.406 0 0 1-1-5l1-1Z"/><path fill="#E3262C" d="M426 315h5c.625 1.875.625 1.875 1 4l-2 2c-2.625-.375-2.625-.375-5-1l1-5Z"/><path fill="#24ABE2" d="M603.848 281.902 610 282v2l-3.438.375L603 285l-1 2 5-1-1 2c-2.314.73-4.648 1.401-7 2 2.17-7.956 2.17-7.956 4.848-8.098Z"/><path fill="#EAE9E0" d="M194 167c2.625.938 2.625.938 5 2v3h-11c3.75-3.875 3.75-3.875 6-5Z"/><path fill="#E32228" d="M647 361c1.675.286 3.344.618 5 1v5h-5a88.406 88.406 0 0 1-1-5l1-1Z"/><path fill="#E32329" d="M412 349c1.675.286 3.344.618 5 1v5h-5a88.406 88.406 0 0 1-1-5l1-1Z"/><path fill="#1BA8E2" d="m631 201-2 6h-3v-3h-2l1-3c2.49-1.245 3.41-.777 6 0Z"/><path fill="#27ACE3" d="M384 139h3l-1 8h-3c-.625-2.875-.625-2.875-1-6l2-2Z"/><path fill="#CDE4EA" d="M237 161h11l-4 1 1 3-9-1 1-3Z"/><path fill="#B8DDE9" d="m138 61 2 4-1.375 1.813A124.34 124.34 0 0 0 135 72v-2h-3l-1-3 2.938-.75L137 65c.969-2.032.969-2.032 1-4Z"/><path fill="#2BAFE7" d="m370 263 .625 1.875c1.923 2.972 4.04 3.255 7.375 4.125-3.534 2.12-6.944 2.532-11 3l2-3c.04-1.666.044-3.334 0-5l1-1Z"/><path fill="#D8E3E0" d="M200 174v2l-2 1c-.685 1.888-.685 1.888-1.125 4.063l-.508 2.222L196 185h-2c.087-1.46.195-2.918.313-4.375l.175-2.46c.733-3.098 2.335-4.165 5.512-4.165Z"/><path fill="#1EA9E2" d="m56 140 2 1c-1 3-1 3-3.875 4.75C51 147 51 147 48 146l8-6Z"/><path fill="#14A6E2" d="M261 90h5l-2 6-5-1 2-5Z"/><path fill="#EEF4F9" d="M380 260c1 1 1 1 1.063 3.563L381 266l-3-4-7 1 1-3c2.882-1.441 4.918-.656 8 0Z"/><path fill="#24ABE3" d="M145 220c2.748 3.402 6 7.485 6 12-3.846-1.282-4.42-2.786-6.281-6.21-.719-1.79-.719-1.79-.469-4.227L145 220Z"/><path fill="#EDEEF2" d="M424 294c2.375-.125 2.375-.125 5 0 2 2 2 2 2.125 4.625L431 301l-4 2 1-8-4-1Z"/><path fill="#E3272C" d="M510 223h5l-1 5h-4v-5Z"/><path fill="#10A5E3" d="m174 54 5 1v4l-4-1-1-4Z"/><path fill="#E0E7EF" d="M353.125 263.875 356 264v3l-2.813-.25c-3.278-.103-3.278-.103-5.062 2.25L347 271c1.093-6.924 1.093-6.924 6.125-7.125Z"/><path fill="#E8EDEC" d="M142 212c3.08 2.773 4.688 5.063 6 9l-2 2c-1.962-3.668-3.393-6.872-4-11Z"/><path fill="#24ABE2" d="M479 38c.625 1.875.625 1.875 1 4l-2 2c-2.625-.375-2.625-.375-5-1 3.75-3.875 3.75-3.875 6-5Z"/><path fill="#E5363B" d="m423 338 4 1-1 4-4-1 1-4Z"/><path fill="#E63C41" d="m226 239 4 1-1 4-4-1 1-4Z"/><path fill="#E5353A" d="m471 235 4 1-1 4-4-1 1-4Z"/><path fill="#E6393E" d="m543 231 4 1-1 4-4-1 1-4Z"/><path fill="#E63C41" d="m484 213 4 1-1 4-4-1 1-4Z"/><path fill="#21AAE3" d="m179 69 4 1v4l-5-1 1-4Z"/><path fill="#E6393E" d="M228 274h3l1 4-4 1c-.563-1.938-.563-1.938-1-4l1-1Z"/><path fill="#29ADE3" d="m553 272 5 1 1 3-3 2c-3-3.75-3-3.75-3-6ZM213 265h-2l-2 5-4-3h2v-2c3-1 3-1 6 0Z"/><path fill="#D5E2E0" d="m201 174 7 1-3 5c-2.784-1.392-2.979-3.156-4-6Z"/><path fill="#B3D8E2" d="M452 107v1h-5l-1 3-3 1v-2l-4-1c4.537-1.452 8.18-2.235 13-2Z"/><path fill="#34B0E3" d="M602 227h3l-1 5-3 1a99.984 99.984 0 0 1 0-5l1-1Z"/><path fill="#E8EDEB" d="m686 121 2 1c-.188 1.875-.188 1.875-1 4-2.563 1.25-2.563 1.25-5 2a56.54 56.54 0 0 1 4-7Z"/><path fill="#E8EEEC" d="m177 94 5 3c-.375 1.938-.375 1.938-1 4l-2 1-2-8Z"/><path fill="#EAE3E9" d="m422 277 3 1-.563 1.875c-.674 2.167-.674 2.167.563 4.125l-4-1a99.984 99.984 0 0 1 0-5l1-1Z"/><path fill="#F0E4E8" d="m235 268 3 1 1 6h-3c-1-1-1-1-1.063-4.063L235 268Z"/><path fill="#26ACE4" d="m524 265 2 1-1 5-3-1c.875-3.875.875-3.875 2-5Z"/><path fill="#F3E5E8" d="m386 247 2 3c2.563.73 2.563.73 5 1v2c-2 .043-4 .04-6 0-1-1-1-1-1.063-3.563L386 247Z"/><path fill="#E53238" d="M375 240h4v4l-5-1 1-3Z"/><path fill="#2EAEE3" d="M205 232c2.688.313 2.688.313 5 1v2h-8c1.188-1.563 1.188-1.563 3-3Z"/><path fill="#E5353B" d="m466 226 3 1v4h-4l1-5Z"/><path fill="#E42D32" d="M455 224h4v4l-5-1 1-3Z"/><path fill="#7FC9E4" d="M606 303c0 2 0 2-1.5 3.625L603 308l-3-1 1-3c2-1 2-1 5-1Z"/><path fill="#2CAEE3" d="m665 295-2 4-5-1c2.254-2.254 3.792-3 7-3Z"/><path fill="#EBE9EE" d="m360 263 3 1-.563 1.875c-.674 2.167-.674 2.167.563 4.125l-4-1 1-6Z"/><path fill="#E42D32" d="m418 259 4 1v3l-5-1 1-3Z"/><path fill="#E42A2F" d="m188 248 4 1v3l-5-1 1-3Z"/><path fill="#E42B31" d="m428 243 3 1-1 4h-3l1-5Z"/><path fill="#E42A30" d="m180 160 4 1v3l-5-1 1-3Z"/><path fill="#25ABE3" d="M717 86h6l-1 3h-5v-3Z"/><path fill="#2BADE2" d="M654 69c2.875-.125 2.875-.125 6 0l2 2c-2.313.688-2.313.688-5 1-1.813-1.438-1.813-1.438-3-3Z"/><path fill="#21AAE2" d="M177 63h5l1 4-6-2v-2Z"/></svg>